<svg width="90" height="90" viewBox="0 0 90 90" fill="none" xmlns="http://www.w3.org/2000/svg">
<circle cx="45" cy="45" r="45" fill="#294D5D"/>
<circle cx="45" cy="45" r="40" fill="white"/>
<circle cx="45" cy="45" r="42.5" stroke="white"/>
<path d="M37.2709 58V55.72H40.7909C41.4309 55.72 41.9109 55.5333 42.2309 55.16C42.5509 54.76 42.7109 54.1067 42.7109 53.2V33.56C41.6976 34.8133 40.7776 35.8267 39.9509 36.6C39.1509 37.3467 38.3509 37.72 37.5509 37.72C36.8843 37.72 36.3109 37.4267 35.8309 36.84C35.3509 36.2533 35.1109 35.4533 35.1109 34.44C35.9109 34.2267 36.8309 33.9067 37.8709 33.48C38.9109 33.0533 40.0843 32.3467 41.3909 31.36L44.1909 29.28H49.4309V53.2C49.4309 53.8933 49.5509 54.4933 49.7909 55C50.0576 55.48 50.6043 55.72 51.4309 55.72H54.5109V58H37.2709Z" fill="#BD1818"/>
</svg>
