<svg width="90" height="90" viewBox="0 0 90 90" fill="none" xmlns="http://www.w3.org/2000/svg">
<circle cx="45" cy="45" r="45" fill="#294D5D"/>
<circle cx="45" cy="45" r="40" fill="white"/>
<circle cx="45" cy="45" r="42.5" stroke="white"/>
<path d="M35.0309 58V53.6L40.5909 48.04C42.2709 46.3067 43.5643 44.8 44.4709 43.52C45.4043 42.2133 46.0443 40.9733 46.3909 39.8C46.7376 38.6 46.9109 37.32 46.9109 35.96C46.9109 34.36 46.6443 33.24 46.1109 32.6C45.6043 31.96 44.9643 31.64 44.1909 31.64C43.0176 31.64 42.1509 32.1867 41.5909 33.28C41.0309 34.3733 40.7509 36.2 40.7509 38.76C39.7109 38.76 38.7643 38.64 37.9109 38.4C37.0576 38.16 36.3776 37.7467 35.8709 37.16C35.3643 36.5733 35.1109 35.76 35.1109 34.72C35.1109 33.76 35.4443 32.8533 36.1109 32C36.7776 31.12 37.7776 30.4133 39.1109 29.88C40.4709 29.32 42.1643 29.04 44.1909 29.04C47.3643 29.04 49.7509 29.6667 51.3509 30.92C52.9776 32.1467 53.7909 33.8 53.7909 35.88C53.7909 36.8133 53.6309 37.7333 53.3109 38.64C53.0176 39.52 52.4576 40.5067 51.6309 41.6C50.8043 42.6667 49.6176 43.9467 48.0709 45.44C46.5509 46.9067 44.5643 48.6933 42.1109 50.8L39.5509 53.12H48.4309C49.0976 53.12 49.7509 52.9067 50.3909 52.48C51.0576 52.0533 51.5109 51.3733 51.7509 50.44L52.1509 49H54.7909L54.5909 58H35.0309Z" fill="#BD1818"/>
</svg>
