<svg width="90" height="90" viewBox="0 0 90 90" fill="none" xmlns="http://www.w3.org/2000/svg">
<circle cx="45" cy="45" r="45" fill="#294D5D"/>
<circle cx="45" cy="45" r="40" fill="white"/>
<circle cx="45" cy="45" r="42.5" stroke="white"/>
<path d="M43.5509 58.4C41.4176 58.4 39.6976 58.1733 38.3909 57.72C37.1109 57.24 36.1643 56.6133 35.5509 55.84C34.9643 55.0667 34.6709 54.2 34.6709 53.24C34.6709 52.12 35.0443 51.28 35.7909 50.72C36.5643 50.16 37.4443 49.88 38.4309 49.88C38.4309 51.6933 38.8843 53.0533 39.7909 53.96C40.7243 54.8667 41.8843 55.32 43.2709 55.32C44.0709 55.32 44.8043 55.1733 45.4709 54.88C46.1643 54.56 46.7243 54 47.1509 53.2C47.5776 52.3733 47.7909 51.2 47.7909 49.68C47.7909 48.24 47.2976 47.0267 46.3109 46.04C45.3509 45.0533 43.9109 44.56 41.9909 44.56H39.2709V41.92H42.2309C43.9376 41.92 45.1243 41.3867 45.7909 40.32C46.4843 39.2533 46.8309 37.8667 46.8309 36.16C46.8309 34.7733 46.5643 33.68 46.0309 32.88C45.4976 32.0533 44.7909 31.64 43.9109 31.64C43.0576 31.64 42.3909 31.96 41.9109 32.6C41.4309 33.2133 41.0843 34 40.8709 34.96C40.6843 35.92 40.5909 36.92 40.5909 37.96C38.9109 37.96 37.5776 37.68 36.5909 37.12C35.6043 36.56 35.1109 35.6267 35.1109 34.32C35.1109 33.4133 35.4443 32.56 36.1109 31.76C36.7776 30.9333 37.7776 30.28 39.1109 29.8C40.4443 29.2933 42.1243 29.04 44.1509 29.04C47.1376 29.04 49.4843 29.6133 51.1909 30.76C52.8976 31.9067 53.7509 33.5333 53.7509 35.64C53.7509 37.4267 53.1643 38.9067 51.9909 40.08C50.8443 41.2267 49.4309 42.12 47.7509 42.76C48.8443 43 49.9243 43.3867 50.9909 43.92C52.0843 44.4533 52.9776 45.2 53.6709 46.16C54.3909 47.0933 54.7509 48.28 54.7509 49.72C54.7509 51.3733 54.4443 52.76 53.8309 53.88C53.2443 54.9733 52.4176 55.8533 51.3509 56.52C50.3109 57.1867 49.1109 57.6667 47.7509 57.96C46.4176 58.2533 45.0176 58.4 43.5509 58.4Z" fill="#BD1818"/>
</svg>
