<svg width="958" height="417" viewBox="0 0 958 417" fill="none" xmlns="http://www.w3.org/2000/svg">
<path d="M256.055 252.436H297.246V324.799H256.055V410.8H162.261V324.799H5.566L0 267.465L162.261 6.40099V5.56598H256.055V252.436ZM89.341 252.436H162.261V127.748L156.416 137.211L89.341 252.436Z" fill="#E0E8EC"/>
<path d="M619.819 245.2C619.819 299.938 607.525 342.151 582.941 371.836C558.353 401.525 523.703 416.367 478.989 416.367C433.901 416.367 399.015 401.433 374.341 371.557C349.661 341.686 337.324 299.568 337.324 245.2V171.167C337.324 116.434 349.613 74.221 374.201 44.531C398.785 14.846 433.527 0 478.432 0C523.332 0 558.122 14.938 582.802 44.81C607.477 74.686 619.819 116.895 619.819 171.446V245.2ZM526.025 159.199C526.025 130.071 522.219 108.314 514.614 93.933C507.004 79.556 494.944 72.363 478.432 72.363C462.289 72.363 450.552 79.043 443.224 92.402C435.892 105.761 431.953 125.988 431.396 153.076V256.611C431.396 286.857 435.197 308.983 442.807 322.991C450.412 337.003 462.472 344.004 478.989 344.004C494.944 344.004 506.725 337.186 514.336 323.548C521.941 309.91 525.838 288.527 526.025 259.395V159.199V159.199Z" fill="#E0E8EC"/>
<path d="M916.231 252.436H957.422V324.799H916.231V410.8H822.436V324.799H665.742L660.176 267.465L822.436 6.40099V5.56598H916.231V252.436V252.436ZM749.516 252.436H822.436V127.748L816.592 137.211L749.516 252.436Z" fill="#E0E8EC"/>
</svg>
