<svg width="90" height="90" viewBox="0 0 90 90" fill="none" xmlns="http://www.w3.org/2000/svg">
<circle cx="45" cy="45" r="45" fill="#294D5D"/>
<circle cx="45" cy="45" r="40" fill="white"/>
<circle cx="45" cy="45" r="42.5" stroke="white"/>
<path d="M40.4709 58V55.72H41.5909C42.4709 55.72 43.2309 55.56 43.8709 55.24C44.5376 54.8933 44.8709 54.0933 44.8709 52.84V50.72H34.2709V47.96L45.2309 29.44H51.5109V47.92H55.3509V50.72H51.5109V52.84C51.5109 54.0933 51.8309 54.8933 52.4709 55.24C53.1109 55.56 53.8843 55.72 54.7909 55.72H55.3109V58H40.4709ZM37.3509 47.92H44.8709V41.08C44.8709 39.9067 44.8843 38.68 44.9109 37.4C44.9643 36.12 45.0443 34.8667 45.1509 33.64C45.0176 33.96 44.8176 34.4 44.5509 34.96C44.2843 35.4933 43.9909 36.0667 43.6709 36.68C43.3776 37.2667 43.0976 37.8 42.8309 38.28C42.5643 38.76 42.3776 39.1067 42.2709 39.32L37.3509 47.92Z" fill="#BD1818"/>
</svg>
