<svg width="60" height="61" viewBox="0 0 60 61" fill="none" xmlns="http://www.w3.org/2000/svg">
<path d="M28.7824 43.1875H21.6105C20.9659 43.1875 20.4386 43.7149 20.4386 44.3594C20.4386 45.0039 20.9659 45.5313 21.6105 45.5313H28.7824C29.4269 45.5313 29.9542 45.0039 29.9542 44.3594C29.9542 43.7149 29.4269 43.1875 28.7824 43.1875ZM40.8175 43.1875H33.6339C32.9894 43.1875 32.462 43.7149 32.462 44.3594C32.462 45.0039 32.9894 45.5313 33.6339 45.5313H40.8058C41.4503 45.5313 41.9777 45.0039 41.9777 44.3594C41.9894 43.7149 41.462 43.1875 40.8175 43.1875ZM53.005 43.1875H45.8331C45.1886 43.1875 44.6613 43.7149 44.6613 44.3594C44.6613 45.0039 45.1886 45.5313 45.8331 45.5313H53.005C53.6495 45.5313 54.1769 45.0039 54.1769 44.3594C54.1769 43.7149 53.6613 43.1875 53.005 43.1875ZM50.6964 47.2305C49.9347 47.2305 49.2081 47.418 48.5753 47.7578C47.9425 47.4297 47.2159 47.2305 46.4542 47.2305C43.9347 47.2305 41.8839 49.2813 41.8839 51.8008C41.8839 54.3203 43.9347 56.3711 46.4542 56.3711C47.2159 56.3711 47.9425 56.1836 48.5753 55.8438C49.2081 56.1719 49.9347 56.3711 50.6964 56.3711C53.2159 56.3711 55.2667 54.3203 55.2667 51.8008C55.2667 49.2813 53.2159 47.2305 50.6964 47.2305ZM46.7003 54.0156C46.6183 54.0274 46.5363 54.0274 46.4542 54.0274C45.2238 54.0274 44.2277 53.0313 44.2277 51.8008C44.2277 50.5703 45.2238 49.5742 46.4542 49.5742C46.5363 49.5742 46.6183 49.5742 46.7003 49.586C46.337 50.2422 46.1261 50.9922 46.1261 51.8008C46.1261 52.5977 46.337 53.3594 46.7003 54.0156ZM48.5753 52.4805C48.505 52.2696 48.4699 52.0352 48.4699 51.8008C48.4699 51.5664 48.505 51.3321 48.5753 51.1211C48.6456 51.3321 48.6808 51.5664 48.6808 51.8008C48.6808 52.0352 48.6456 52.2696 48.5753 52.4805ZM50.6964 54.0274C50.6144 54.0274 50.5323 54.0274 50.4503 54.0156C50.8136 53.3594 51.0245 52.6094 51.0245 51.8008C51.0245 50.9922 50.8136 50.2422 50.4503 49.586C50.5323 49.5742 50.6144 49.5742 50.6964 49.5742C51.9269 49.5742 52.923 50.5703 52.923 51.8008C52.923 53.0313 51.9152 54.0274 50.6964 54.0274ZM30.0011 32.8164H21.5636C20.9191 32.8164 20.3917 33.3438 20.3917 33.9883V39.3789C20.3917 40.0235 20.9191 40.5508 21.5636 40.5508H30.0011C30.6456 40.5508 31.173 40.0235 31.173 39.3789V33.9883C31.173 33.3438 30.6456 32.8164 30.0011 32.8164ZM28.8292 38.207H22.7355V35.1602H28.8292V38.207ZM30.13 57.6602H30.1183C29.4738 57.6602 28.9464 58.1875 28.9464 58.8321C28.9464 59.4766 29.4738 60.0039 30.1183 60.0039H30.13C30.7745 60.0039 31.3019 59.4766 31.3019 58.8321C31.3019 58.1875 30.7745 57.6602 30.13 57.6602ZM56.4855 28.7149H44.755L50.3097 23.1602C51.6808 21.7891 51.6808 19.5625 50.3097 18.1914L33.1417 1.03516C31.7706 -0.335938 29.5441 -0.335938 28.173 1.03516L1.03235 28.1758C-0.338745 29.5469 -0.338745 31.7735 1.03235 33.1445L14.5909 46.7031V56.4883C14.5909 58.4219 16.173 60.0039 18.1066 60.0039H24.4113C25.0558 60.0039 25.5831 59.4766 25.5831 58.8321C25.5831 58.1875 25.0558 57.6602 24.4113 57.6602H18.1066C17.462 57.6602 16.9347 57.1328 16.9347 56.4883V32.2305C16.9347 31.586 17.462 31.0586 18.1066 31.0586H56.4855C57.13 31.0586 57.6573 31.586 57.6573 32.2305V56.4883C57.6573 57.1328 57.13 57.6602 56.4855 57.6602H34.8292C34.1847 57.6602 33.6574 58.1875 33.6574 58.8321C33.6574 59.4766 34.1847 60.0039 34.8292 60.0039H56.4855C58.4191 60.0039 60.0011 58.4219 60.0011 56.4883V32.2305C60.0011 30.2852 58.4191 28.7149 56.4855 28.7149ZM2.68469 31.4922C2.22766 31.0352 2.22766 30.2969 2.68469 29.8399L29.8253 2.6875C30.2823 2.23047 31.0206 2.23047 31.4777 2.6875L33.2589 4.46875L4.46594 33.2617L2.68469 31.4922ZM14.5792 43.3867L9.92688 38.7344L14.5792 34.082V43.3867ZM34.4308 28.7149L37.0909 26.0547C37.548 25.5977 37.548 24.8594 37.0909 24.4024C36.6339 23.9453 35.8956 23.9453 35.4386 24.4024L31.1144 28.7149H28.0206L34.3839 22.3516C34.8409 21.8945 34.8409 21.1563 34.3839 20.6992C33.9269 20.2422 33.1886 20.2422 32.7316 20.6992L24.7159 28.7149H19.9581L32.8956 15.7774C33.3527 15.3203 33.3527 14.582 32.8956 14.125C32.4386 13.668 31.7003 13.668 31.2433 14.125L8.27454 37.0703L6.11829 34.9258L34.923 6.1211L48.6456 19.8438C48.8683 20.0664 48.9855 20.3594 48.9855 20.6758C48.9855 20.9922 48.8683 21.2852 48.6456 21.5078L41.4386 28.7149H34.4308ZM36.0011 11.0078C35.7784 10.7852 35.4855 10.668 35.1691 10.668C34.8644 10.668 34.5597 10.7969 34.337 11.0078C34.1144 11.2305 33.9972 11.5234 33.9972 11.8398C33.9972 12.1563 34.1261 12.4492 34.337 12.6719C34.5597 12.8945 34.8527 13.0117 35.1691 13.0117C35.4738 13.0117 35.7784 12.8828 36.0011 12.6719C36.2238 12.4609 36.3409 12.1563 36.3409 11.8398C36.3409 11.5234 36.2238 11.2188 36.0011 11.0078Z" fill="#BD1818"/>
</svg>
