<svg width="19" height="15" viewBox="0 0 19 15" fill="none" xmlns="http://www.w3.org/2000/svg">
<path fill-rule="evenodd" clip-rule="evenodd" d="M11.6706 2.57462H3.17412L2.91114 1.36185C2.85455 1.10853 2.67479 0.896374 2.42513 0.791879L0.587608 0.031917C0.374562 -0.0535787 0.128228 0.03825 0.0350201 0.240907C-0.0581874 0.443563 0.0416778 0.677885 0.251395 0.76338L2.08891 1.52334L4.11285 10.874C4.19274 11.2414 4.53894 11.5105 4.93174 11.5105H11.8397C12.4936 11.8243 13.2263 12 14 12C16.7614 12 19 9.76142 19 7C19 4.23858 16.7614 2 14 2C13.1589 2 12.3662 2.2077 11.6706 2.57462ZM10.5588 3.37258H3.34389L4.51564 8.77781H9.32529C9.17267 8.37672 9.07018 7.95091 9.02549 7.50804H7.10548C6.87579 7.50804 6.68604 7.33072 6.68604 7.10906C6.68604 6.88741 6.87246 6.71008 7.10548 6.71008H9.00827C9.03348 6.26909 9.11584 5.8434 9.24806 5.44031H6.77925C6.54623 5.44031 6.35982 5.26299 6.35982 5.04133C6.35982 4.82284 6.54623 4.64235 6.77925 4.64235H9.58964C9.84364 4.1682 10.1719 3.73976 10.5588 3.37258ZM9.71364 9.57577H4.68874L4.93507 10.7125H10.6508C10.2854 10.3827 9.96896 9.99974 9.71364 9.57577ZM18 7C18 9.20914 16.2091 11 14 11C11.7909 11 10 9.20914 10 7C10 4.79086 11.7909 3 14 3C16.2091 3 18 4.79086 18 7ZM5.65076 13.5751C5.65076 12.7898 6.32318 12.1501 7.14873 12.1501C7.97429 12.1501 8.64671 12.7898 8.64671 13.5751C8.64671 14.3604 7.97429 15 7.14873 15C6.32318 15 5.65076 14.3604 5.65076 13.5751ZM6.4863 13.5751C6.4863 13.9234 6.78256 14.2052 7.14873 14.2052C7.51491 14.2052 7.81117 13.9234 7.81117 13.5751C7.81117 13.2268 7.51491 12.9449 7.14873 12.9449C6.78256 12.9449 6.4863 13.2268 6.4863 13.5751ZM10.907 13.5751C10.907 12.7898 11.5794 12.1501 12.405 12.1501C13.2339 12.1501 13.9063 12.7898 13.903 13.5751C13.903 14.3604 13.2305 15 12.405 15C11.5794 15 10.907 14.3604 10.907 13.5751ZM11.7425 13.5751C11.7425 13.9234 12.0388 14.2052 12.405 14.2052C12.7711 14.2052 13.0674 13.9234 13.0674 13.5751C13.0674 13.2268 12.7711 12.9449 12.405 12.9449C12.0388 12.9449 11.7425 13.2268 11.7425 13.5751ZM14 4.5C14.2761 4.5 14.5 4.72386 14.5 5V6.5H16C16.2761 6.5 16.5 6.72386 16.5 7C16.5 7.27614 16.2761 7.5 16 7.5H14.5V9C14.5 9.27614 14.2761 9.5 14 9.5C13.7239 9.5 13.5 9.27614 13.5 9V7.5H12C11.7239 7.5 11.5 7.27614 11.5 7C11.5 6.72386 11.7239 6.5 12 6.5H13.5V5C13.5 4.72386 13.7239 4.5 14 4.5Z" fill="white"/>
</svg>
