<svg width="60" height="61" viewBox="0 0 60 61" fill="none" xmlns="http://www.w3.org/2000/svg">
<path d="M20.2266 45.9287C20.2148 45.8584 20.1914 45.7764 20.1562 45.706C20.1211 45.6357 20.0859 45.5654 20.0508 45.5068C20.0039 45.4482 19.957 45.3779 19.9102 45.331C19.8633 45.2842 19.793 45.2256 19.7344 45.1904C19.6758 45.1435 19.6055 45.1084 19.5352 45.085C19.4648 45.0498 19.3945 45.0264 19.3125 45.0146C19.1602 44.9795 19.0078 44.9795 18.8555 45.0146C18.7852 45.0264 18.7031 45.0498 18.6328 45.085C18.5625 45.1201 18.4922 45.1553 18.4336 45.1904C18.3633 45.2373 18.3047 45.2842 18.2578 45.331C18.2109 45.3779 18.1523 45.4482 18.1172 45.5068C18.0703 45.5654 18.0352 45.6357 18.0117 45.706C17.9766 45.7764 17.9648 45.8467 17.9414 45.9287C17.9297 45.999 17.918 46.081 17.918 46.1631C17.918 46.2334 17.9297 46.3154 17.9414 46.3975C17.9531 46.4678 17.9766 46.5498 18.0117 46.6201C18.0469 46.6904 18.082 46.7607 18.1172 46.8193C18.1641 46.8779 18.2109 46.9482 18.2578 46.9951C18.3047 47.042 18.375 47.1006 18.4336 47.1357C18.4922 47.1826 18.5625 47.2178 18.6328 47.2412C18.7031 47.2764 18.7734 47.2998 18.8555 47.3115C18.9258 47.3232 19.0078 47.335 19.0781 47.335C19.1484 47.335 19.2305 47.3232 19.3008 47.3115C19.3711 47.2998 19.4531 47.2764 19.5234 47.2412C19.5938 47.206 19.6641 47.1709 19.7227 47.1357C19.793 47.0889 19.8516 47.042 19.8984 46.9951C19.9453 46.9482 20.0039 46.8779 20.0391 46.8193C20.0859 46.7607 20.1211 46.6904 20.1445 46.6201C20.1797 46.5498 20.1914 46.4795 20.2148 46.3975C20.2383 46.3154 20.2383 46.2451 20.2383 46.1631C20.2383 46.081 20.2383 45.999 20.2266 45.9287ZM53.9062 46.292C53.9062 46.2803 53.8945 46.2685 53.8945 46.2568C52.8164 43.7373 50.2852 42.7998 47.2969 43.8193L39.1289 46.081C38.6602 44.6514 37.4766 43.4326 35.8125 42.8115C35.8008 42.8115 35.7891 42.7998 35.7773 42.7998L26.8008 39.7529C26.0508 38.792 23.7188 36.3193 19.3359 36.3193C16.2773 36.3193 13.5703 38.417 12.0117 40.7139H1.17188C0.527344 40.7139 0 41.2412 0 41.8857V56.6631C0 57.3076 0.527344 57.835 1.17188 57.835H8.14453C8.78906 57.835 9.31641 57.3076 9.31641 56.6631V55.6553H12.5859C13.2305 55.6553 13.7578 55.1279 13.7578 54.4834V54.1435C15.668 54.3076 16.2891 54.6709 18.0352 55.6787C19.3828 56.4521 21.4102 57.624 25.0781 59.2764C25.0898 59.2881 25.1133 59.2881 25.125 59.2998C25.8281 59.581 27.1992 60.0146 28.8984 60.0146C30.082 60.0146 31.4063 59.8037 32.7773 59.1826L50.8242 52.7256C50.8594 52.7139 50.8828 52.7021 50.918 52.6904C52.6406 51.8701 55.207 49.6318 53.9062 46.292ZM6.97266 55.4795H2.34375V43.0576H6.97266V55.4795ZM11.4023 53.2998H9.31641V43.0576H11.4141V53.2998H11.4023ZM49.9805 50.5225L31.9453 56.9795C31.9336 56.9795 31.9102 56.9912 31.8867 57.0029C31.875 57.0146 31.8516 57.0146 31.8398 57.0264C29.332 58.1865 26.9414 57.4951 26.0039 57.1201C22.4648 55.5264 20.5781 54.4365 19.1953 53.6396C17.2734 52.5381 16.3594 51.999 13.7461 51.7881V42.3545C14.8594 40.5381 17.0156 38.6748 19.3359 38.6748C23.3203 38.6748 25.0078 41.2646 25.0781 41.3701C25.2188 41.6045 25.4414 41.7803 25.6992 41.8623L35.0156 45.0264C36.5039 45.5889 37.2891 46.8545 36.9258 48.1318C36.7617 48.7178 36.375 49.21 35.8359 49.5029C35.3086 49.7959 34.6992 49.8662 34.1133 49.7139L23.6133 46.3857C22.9922 46.1865 22.3359 46.5264 22.1367 47.1475C21.9375 47.7685 22.2773 48.4248 22.8984 48.624L33.4102 51.9521C33.4219 51.9521 33.4336 51.9639 33.4453 51.9639C33.8672 52.081 34.2891 52.1396 34.7227 52.1396C35.4961 52.1396 36.2695 51.9404 36.9727 51.5537C38.0508 50.956 38.8359 49.9717 39.1758 48.7764C39.1992 48.6826 39.2227 48.5889 39.2461 48.4951L48.0469 46.0576C49.3125 45.624 50.9883 45.4717 51.7266 47.1826C52.5 49.1631 50.4961 50.2646 49.9805 50.5225ZM42.082 15.4131C42.0703 15.3428 42.0469 15.2607 42.0117 15.1904C41.9766 15.1201 41.9531 15.0498 41.9063 14.9912C41.8594 14.9209 41.8125 14.8623 41.7656 14.8154C41.7187 14.7686 41.6484 14.71 41.5898 14.6748C41.5312 14.6279 41.4609 14.5928 41.3906 14.5693C41.3203 14.5342 41.25 14.5225 41.168 14.499C41.0156 14.4639 40.8633 14.4639 40.7109 14.499C40.6406 14.5107 40.5586 14.5342 40.4883 14.5693C40.418 14.6045 40.3477 14.6396 40.2891 14.6748C40.2305 14.7217 40.1602 14.7686 40.1133 14.8154C40.0664 14.8623 40.0078 14.9326 39.9727 14.9912C39.9258 15.0498 39.8906 15.1201 39.8672 15.1904C39.832 15.2607 39.8086 15.3311 39.7969 15.4131C39.7852 15.4834 39.7734 15.5654 39.7734 15.6357C39.7734 15.7061 39.7852 15.7881 39.7969 15.8584C39.8086 15.9287 39.832 16.0107 39.8672 16.0811C39.9023 16.1514 39.9375 16.2217 39.9727 16.2803C40.0195 16.3506 40.0664 16.4092 40.1133 16.4561C40.1602 16.5029 40.2305 16.5615 40.2891 16.5967C40.3477 16.6436 40.418 16.6787 40.4883 16.7021C40.5586 16.7373 40.6289 16.749 40.7109 16.7725C40.793 16.7959 40.8633 16.7959 40.9453 16.7959C41.0156 16.7959 41.0977 16.7842 41.1797 16.7725C41.25 16.7607 41.332 16.7373 41.4023 16.7021C41.4727 16.667 41.543 16.6318 41.6016 16.5967C41.6602 16.5498 41.7305 16.5029 41.7773 16.4561C41.8242 16.4092 41.8828 16.3389 41.918 16.2803C41.9648 16.2217 42 16.1514 42.0234 16.0811C42.0586 16.0107 42.082 15.9404 42.0938 15.8584C42.1055 15.7881 42.1172 15.7061 42.1172 15.6357C42.1172 15.5654 42.0938 15.4951 42.082 15.4131ZM58.8281 3.97559H51.8555C51.2109 3.97559 50.6836 4.50293 50.6836 5.14746V6.15527H47.4141C46.7695 6.15527 46.2422 6.68262 46.2422 7.32715V7.66699C44.332 7.50293 43.7109 7.13965 41.9648 6.13184C40.6172 5.3584 38.5898 4.18652 34.9219 2.53418C34.9102 2.52246 34.8867 2.52246 34.875 2.51074C33.6797 2.04199 30.5625 1.11621 27.2227 2.62793L22.5117 4.31543L18.5391 0.342773C18.082 -0.114258 17.332 -0.114258 16.875 0.342773L3.83203 13.3975C3.41016 13.8193 3.32813 14.5459 3.83203 15.0498L26.1328 37.3506C26.4844 37.7021 27.3281 37.8193 27.7852 37.3506L39.7031 25.4326C40.0078 25.4561 40.3359 25.4795 40.6641 25.4795C43.7227 25.4795 46.4297 23.3818 47.9883 21.085H58.8281C59.4727 21.085 60 20.5576 60 19.9131V5.14746C60 4.49121 59.4727 3.97559 58.8281 3.97559ZM17.707 2.82715L20.3789 5.49902C19.582 5.99121 18.668 6.24902 17.707 6.24902C16.7461 6.24902 15.832 5.99121 15.0352 5.49902L17.707 2.82715ZM8.98828 16.8896L6.31641 14.2178L8.98828 11.5459C9.48047 12.3428 9.73828 13.2568 9.73828 14.2178C9.73828 15.1787 9.48047 16.1045 8.98828 16.8896ZM26.9531 34.8662L24.2812 32.1943C25.9102 31.1865 27.9961 31.1865 29.625 32.1943L26.9531 34.8662ZM31.3125 30.5068C28.7227 28.6318 25.1836 28.6318 22.5938 30.5068L10.6758 18.5889C11.5898 17.335 12.082 15.8232 12.082 14.2295C12.082 12.6357 11.5898 11.124 10.6758 9.87012L13.3477 7.19824C14.6016 8.1123 16.1133 8.60449 17.707 8.60449C19.3008 8.60449 20.8125 8.1123 22.0664 7.19824L24.5977 9.72949C24.0469 9.81152 23.5195 9.9873 23.0156 10.2686C22.1719 10.7373 21.5156 11.4404 21.1055 12.2842C19.7813 12.5303 18.5625 13.1748 17.6016 14.124C15 16.7256 15 20.9678 17.6016 23.5693C18.9023 24.8701 20.6133 25.5264 22.3242 25.5264C24.0352 25.5264 25.7461 24.8701 27.0469 23.5693C27.8906 22.7256 28.4883 21.6826 28.7813 20.5459L32.7422 21.8936C32.2969 23.9561 32.7539 26.124 33.9844 27.835L31.3125 30.5068ZM24.1875 18.9873C24.1992 18.9873 24.2109 18.999 24.2227 18.999L26.5664 19.7959C26.3906 20.5928 25.9922 21.3311 25.3945 21.917C23.707 23.6045 20.9531 23.6045 19.2656 21.917C17.5781 20.2295 17.5781 17.4756 19.2656 15.7881C19.6758 15.3779 20.1562 15.0615 20.6836 14.8506C20.8945 16.6436 22.1953 18.249 24.1875 18.9873ZM35.6836 26.1475C35.2266 25.4092 34.9805 24.5654 34.9336 23.71C35.4961 24.1201 36.1758 24.5186 36.9961 24.8232L35.6836 26.1475ZM46.2539 19.4561C45.1406 21.2725 42.9844 23.1357 40.6641 23.1357C40.2305 23.1357 39.8203 23.1006 39.4453 23.0537C36.9141 22.6904 35.5547 21.249 35.1094 20.6748C35.0859 20.6396 34.9805 20.5107 34.9687 20.4873C34.8281 20.2412 34.6055 20.042 34.3242 19.9482L25.0078 16.7842C23.5195 16.2217 22.7344 14.9561 23.0977 13.6787C23.2617 13.0928 23.6484 12.6123 24.1758 12.3076C24.7031 12.0146 25.3125 11.9443 25.8984 12.0967L36.3984 15.4248C37.0195 15.624 37.6758 15.2842 37.875 14.6631C38.0742 14.042 37.7344 13.3857 37.1133 13.1865L28.7344 10.5498L28.6641 10.4795L24.3398 6.15527L28.0547 4.81934C28.0664 4.81934 28.0781 4.80762 28.0898 4.80762H28.1016C28.1133 4.7959 28.1367 4.7959 28.1484 4.78418C30.6562 3.62402 33.0469 4.31543 33.9844 4.69043C37.5234 6.28418 39.4102 7.37402 40.793 8.1709C42.7148 9.27246 43.6289 9.81152 46.2422 10.0225V19.4561H46.2539ZM50.6836 18.7412H48.5859V8.49902H50.6836V18.7412ZM57.6562 18.7412H53.0273V6.31934H57.6562V18.7412Z" fill="#BD1818"/>
</svg>
