<svg width="90" height="90" viewBox="0 0 90 90" fill="none" xmlns="http://www.w3.org/2000/svg">
<path d="M63.9082 47.2134C63.4769 42.8895 61.5362 38.809 58.4517 35.7298C55.8173 33.0999 52.5827 31.4059 49.1889 30.6572V28.2706C50.5764 27.9243 51.6077 26.6702 51.6077 25.1821C51.6077 23.4319 50.1733 22 48.4201 22H41.6698C39.9166 22 38.4822 23.4319 38.4822 25.1821C38.4822 26.6702 39.5135 27.9243 40.901 28.2706V30.6572C37.5165 31.4153 34.3007 33.0999 31.6663 35.7298C31.0944 36.3007 30.56 36.9091 30.0725 37.5361C30.0443 37.5361 30.0256 37.5361 29.9974 37.5361H23.3315C22.8159 37.5361 22.394 37.9573 22.394 38.472C22.394 38.9868 22.8159 39.4079 23.3315 39.4079H28.8068C28.1224 40.5591 27.5692 41.7664 27.1473 43.0018H16.9375C16.4219 43.0018 16 43.423 16 43.9377C16 44.4525 16.4219 44.8737 16.9375 44.8737H26.6129C26.341 46.0623 26.191 47.2602 26.1442 48.4675H22.0002C21.4846 48.4675 21.0627 48.8887 21.0627 49.4035C21.0627 49.9182 21.4846 50.3394 22.0002 50.3394H26.1723C26.2473 51.5467 26.4442 52.754 26.7536 53.9333H20.6877C20.172 53.9333 19.7502 54.3544 19.7502 54.8692C19.7502 55.3839 20.172 55.8051 20.6877 55.8051H27.363C28.2818 58.2385 29.7162 60.5127 31.6756 62.4594C34.7601 65.5386 38.8572 67.4759 43.198 67.9064C43.8168 67.9719 44.4355 68 45.0543 68C48.7107 68 52.3202 66.9424 55.386 64.9489C55.8173 64.6682 55.9391 64.0879 55.6579 63.6574C55.3766 63.2269 54.7953 63.1052 54.3641 63.386C47.6513 67.7473 38.6697 66.802 32.9976 61.1398C26.341 54.4948 26.341 43.6944 32.9976 37.0494C39.6541 30.4045 50.4733 30.4045 57.1298 37.0494C62.7925 42.7023 63.7395 51.6684 59.3893 58.3601C59.108 58.7906 59.2299 59.3709 59.6612 59.6517C60.0924 59.9325 60.6737 59.8108 60.955 59.3803C63.2894 55.7957 64.3301 51.4812 63.9082 47.2134ZM40.3666 25.1821C40.3666 24.4614 40.9573 23.8718 41.6792 23.8718H48.4295C49.1514 23.8718 49.742 24.4614 49.742 25.1821C49.742 25.9027 49.1514 26.4924 48.4295 26.4924H48.2607H41.8479H41.6792C40.9479 26.4924 40.3666 25.9027 40.3666 25.1821ZM42.7761 30.3296V28.3642H47.3138V30.3296C45.8137 30.1518 44.2855 30.1518 42.7761 30.3296ZM57.7955 60.859C57.5517 60.859 57.3079 60.962 57.1298 61.1304C56.9517 61.3082 56.8579 61.5422 56.8579 61.7949C56.8579 62.0383 56.9611 62.2816 57.1298 62.4594C57.3079 62.6372 57.5423 62.7308 57.7955 62.7308C58.0392 62.7308 58.283 62.6279 58.4611 62.4594C58.6392 62.2816 58.733 62.0476 58.733 61.7949C58.733 61.5516 58.6299 61.3082 58.4611 61.1304C58.283 60.962 58.0392 60.859 57.7955 60.859ZM45.0637 34.5693C37.0477 34.5693 30.5225 41.0832 30.5225 49.0852C30.5225 57.0873 37.0477 63.6106 45.0637 63.6106C53.0796 63.6106 59.6049 57.0966 59.6049 49.0946C59.6049 41.0926 53.0796 34.5693 45.0637 34.5693ZM45.0637 61.7388C38.079 61.7388 32.3975 56.0671 32.3975 49.0946C32.3975 42.1221 38.079 36.4411 45.0637 36.4411C52.0484 36.4411 57.7298 42.1221 57.7298 49.0946C57.7298 56.0671 52.0484 61.7388 45.0637 61.7388ZM43.0199 47.0637C42.5792 46.811 42.0917 46.6706 41.5573 46.6332L43.1042 44.0781C43.198 43.9284 43.2542 43.7599 43.2542 43.5727C43.2542 43.32 43.1605 43.0861 42.973 42.8989C42.7855 42.7117 42.5511 42.6181 42.2792 42.6181C42.0448 42.6181 41.7073 42.7023 41.4354 43.1235L38.4634 48.0745C38.1072 48.6454 37.9196 49.3005 37.9196 50.0212C37.9196 50.6576 38.0603 51.2472 38.3509 51.7526C38.6416 52.2673 39.0447 52.6791 39.551 52.9693C40.0572 53.2594 40.6479 53.4092 41.2948 53.4092C41.9323 53.4092 42.523 53.2594 43.0292 52.9693C43.5449 52.6791 43.948 52.2673 44.2293 51.7526C44.5105 51.2378 44.6605 50.6576 44.6605 50.0212C44.6605 49.3754 44.5199 48.7858 44.2293 48.271C43.9386 47.7656 43.5355 47.3538 43.0199 47.0637ZM42.8323 50.0212C42.8323 50.5172 42.6917 50.9103 42.4011 51.2191C42.1104 51.5186 41.7448 51.6684 41.276 51.6684C40.8073 51.6684 40.4416 51.5186 40.1604 51.2191C39.8697 50.9103 39.7291 50.5172 39.7291 50.0212C39.7291 49.5251 39.8697 49.132 40.1604 48.8138C40.451 48.505 40.8073 48.3552 41.2667 48.3552C41.7354 48.3552 42.1011 48.505 42.3917 48.8138C42.6917 49.132 42.8323 49.5251 42.8323 50.0212ZM51.7952 45.1825C51.5327 44.3683 51.1483 43.7318 50.6327 43.2826C50.1076 42.824 49.4795 42.5994 48.7576 42.5994C47.6607 42.5994 46.7981 43.0954 46.1981 44.0875C45.6262 45.0234 45.3356 46.343 45.3356 48.009C45.3356 49.6655 45.6262 50.9851 46.1981 51.9304C46.7981 52.9131 47.6607 53.4185 48.7576 53.4185C49.4795 53.4185 50.117 53.1845 50.6327 52.7353C51.1389 52.2954 51.5327 51.659 51.7952 50.8354C52.0483 50.0399 52.1796 49.0946 52.1796 48.009C52.1702 46.9233 52.0483 45.978 51.7952 45.1825ZM48.7576 51.4905C48.2982 51.4905 47.9513 51.2098 47.6888 50.6295C47.3982 49.9837 47.2575 49.104 47.2575 48.009C47.2575 46.9233 47.3982 46.0435 47.6888 45.3884C47.9419 44.7988 48.2982 44.518 48.767 44.518C49.2264 44.518 49.5732 44.8081 49.8358 45.3978C50.1264 46.0623 50.267 46.9327 50.267 48.009C50.267 49.0946 50.1264 49.9744 49.8358 50.6201C49.5732 51.2004 49.2264 51.4905 48.7576 51.4905ZM55.086 48.1681H54.2141C53.6984 48.1681 53.2765 48.5892 53.2765 49.104C53.2765 49.6187 53.6984 50.0399 54.2141 50.0399H55.086C55.6016 50.0399 56.0235 49.6187 56.0235 49.104C56.0235 48.5892 55.6016 48.1681 55.086 48.1681ZM35.9039 48.1493H35.032C34.5164 48.1493 34.0945 48.5705 34.0945 49.0852C34.0945 49.6 34.5164 50.0212 35.032 50.0212H35.9039C36.4196 50.0212 36.8415 49.6 36.8415 49.0852C36.8415 48.5705 36.429 48.1493 35.9039 48.1493ZM45.0731 40.8867C45.5887 40.8867 46.0106 40.4655 46.0106 39.9508V39.0804C46.0106 38.5656 45.5887 38.1445 45.0731 38.1445C44.5574 38.1445 44.1355 38.5656 44.1355 39.0804V39.9508C44.1355 40.4655 44.5574 40.8867 45.0731 40.8867ZM45.0543 57.2932C44.5387 57.2932 44.1168 57.7143 44.1168 58.2291V59.0995C44.1168 59.6142 44.5387 60.0354 45.0543 60.0354C45.57 60.0354 45.9919 59.6142 45.9919 59.0995V58.2291C45.9919 57.7143 45.57 57.2932 45.0543 57.2932ZM16.9375 53.9333C16.6938 53.9333 16.45 54.0362 16.2719 54.2047C16.0938 54.3731 16 54.6258 16 54.8692C16 55.1125 16.1031 55.3558 16.2719 55.5337C16.4406 55.7115 16.6844 55.8051 16.9375 55.8051C17.1907 55.8051 17.4251 55.7021 17.6032 55.5337C17.7813 55.3558 17.8751 55.1219 17.8751 54.8692C17.8751 54.6258 17.7719 54.3825 17.6032 54.2047C17.4251 54.0362 17.1813 53.9333 16.9375 53.9333Z" fill="#BD1818"/>
<rect x="0.5" y="0.5" width="89" height="89" stroke="#091421"/>
<rect x="4.5" y="4.5" width="81" height="81" stroke="#294D5D"/>
</svg>
