<svg width="90" height="90" viewBox="0 0 90 90" fill="none" xmlns="http://www.w3.org/2000/svg">
<path d="M60.7031 56.1719C61.1758 56.1719 61.5625 55.7852 61.5625 55.3125C61.5625 54.8398 61.1758 54.4531 60.7031 54.4531C60.2305 54.4531 59.8438 54.8398 59.8438 55.3125C59.8438 55.7852 60.2305 56.1719 60.7031 56.1719ZM60.7031 52.7344C61.1758 52.7344 61.5625 52.3477 61.5625 51.875V45C61.5625 44.5273 61.1758 44.1406 60.7031 44.1406C60.2305 44.1406 59.8438 44.5273 59.8438 45V51.875C59.8438 52.3477 60.2305 52.7344 60.7031 52.7344ZM21.8594 54.4531H22.7188V66.1406C22.7188 66.6133 23.1055 67 23.5781 67H62.4219C63.8398 67 65 65.8398 65 64.4219V32.4531C65 31.9805 64.6133 31.5938 64.1406 31.5938H57.6094V30.7344C57.6094 26.4719 54.1375 23 49.875 23C45.6211 23 42.1406 26.4461 42.1406 30.7344V31.5938H35.6094C35.1367 31.5938 34.75 31.9805 34.75 32.4531V41.5625C33.9078 42.1984 33.3234 43.118 33.1172 44.1406C33.0914 44.1406 33.057 44.132 33.0312 44.132C33.0055 44.132 32.9711 44.132 32.9453 44.132C32.55 42.1727 30.8141 40.6945 28.7344 40.6945C26.3625 40.6945 24.4375 42.6195 24.4375 44.9914C24.4375 45.9539 24.7555 46.8477 25.2969 47.5695H21.8594C21.3867 47.5695 21 47.9562 21 48.4289V53.5852C21 54.0664 21.3867 54.4531 21.8594 54.4531ZM24.4375 54.4531H28.7344V65.2812H24.4375V54.4531ZM30.4531 54.4531H35.6094V65.2812H30.4531V54.4531ZM41.625 65.2812C39.7859 65.2812 39.3391 65.2812 37.3281 65.2812V54.4531H41.625V65.2812ZM37.3281 52.7344V49.2969H43.3438V52.7344H37.3281ZM37.3281 47.5781C37.3023 47.5781 37.268 47.5781 37.2422 47.5781C37.1133 46.9594 36.8555 46.375 36.4688 45.8594V42.568C36.7438 42.4734 37.0359 42.4219 37.3281 42.4219C38.7461 42.4219 39.9062 43.582 39.9062 45C39.9062 46.418 38.7461 47.5781 37.3281 47.5781ZM32.9797 45.8594L33.7273 45.9539C34.518 46.1773 35.1797 46.7789 35.4633 47.5781H30.6078C30.9602 46.5812 31.8883 45.8766 32.9797 45.8594ZM35.6094 49.2969V52.7344H30.4531V49.2969H35.6094ZM62.4219 65.2812H43.3438V61.8438H63.2812V64.4219C63.2812 64.8945 62.8945 65.2812 62.4219 65.2812ZM43.8594 30.7344C43.8594 27.4172 46.5406 24.7188 49.875 24.7188C53.1922 24.7188 55.8906 27.4172 55.8906 30.7344V31.5938H43.8594V30.7344ZM42.1406 33.3125V37.2656H41.2812C40.8086 37.2656 40.4219 37.6523 40.4219 38.125C40.4219 38.5977 40.8086 38.9844 41.2812 38.9844H44.7188C45.1914 38.9844 45.5781 38.5977 45.5781 38.125C45.5781 37.6523 45.1914 37.2656 44.7188 37.2656H43.8594V33.3125H55.8906V37.2656H55.0312C54.5586 37.2656 54.1719 37.6523 54.1719 38.125C54.1719 38.5977 54.5586 38.9844 55.0312 38.9844H58.4688C58.9414 38.9844 59.3281 38.5977 59.3281 38.125C59.3281 37.6523 58.9414 37.2656 58.4688 37.2656H57.6094V33.3125H63.2812V60.125H43.3438V54.4531H44.2031C44.6758 54.4531 45.0625 54.0664 45.0625 53.5938V48.4375C45.0625 47.9648 44.6758 47.5781 44.2031 47.5781H40.7656C41.307 46.8563 41.625 45.9625 41.625 45C41.625 42.6281 39.7 40.7031 37.3281 40.7031C37.0359 40.7031 36.7523 40.7289 36.4688 40.7891V33.3125H42.1406ZM26.1562 45C26.1562 43.582 27.3164 42.4219 28.7344 42.4219C29.9891 42.4219 31.0375 43.3242 31.2695 44.5187C30.0148 45.0859 29.1039 46.2289 28.8203 47.5781C28.7945 47.5781 28.7602 47.5781 28.7344 47.5781C27.3164 47.5781 26.1562 46.418 26.1562 45ZM22.7188 49.2969H28.7344V52.7344H22.7188V49.2969Z" fill="#BD1818"/>
<rect x="0.5" y="0.5" width="89" height="89" stroke="#091421"/>
<rect x="4.5" y="4.5" width="81" height="81" stroke="#294D5D"/>
</svg>
