<svg width="90" height="90" viewBox="0 0 90 90" fill="none" xmlns="http://www.w3.org/2000/svg">
<path d="M63.3828 26.6172C58.4773 21.7016 51.9469 19 45 19C38.0531 19 31.5227 21.7016 26.6172 26.6172C21.7016 31.5227 19 38.0531 19 45C19 51.9469 21.7016 58.4773 26.6172 63.3828C31.5328 68.2984 38.0531 71 45 71C51.9469 71 58.4773 68.2984 63.3828 63.3828C68.2984 58.4672 71 51.9469 71 45C71 38.0531 68.2984 31.5227 63.3828 26.6172ZM45 68.9281C31.807 68.9281 21.0719 58.193 21.0719 45C21.0719 31.807 31.807 21.0719 45 21.0719C58.193 21.0719 68.9281 31.807 68.9281 45C68.9281 58.193 58.193 68.9281 45 68.9281ZM45 23.0828C32.9141 23.0828 23.0828 32.9141 23.0828 45C23.0828 57.0859 32.9141 66.9172 45 66.9172C57.0859 66.9172 66.9172 57.0859 66.9172 45C66.9172 32.9141 57.0859 23.0828 45 23.0828ZM62.682 54.0086L59.6961 52.282C59.1984 51.9977 58.5687 52.1703 58.2844 52.6578C58 53.1555 58.1727 53.7852 58.6602 54.0695L61.6461 55.7961C60.1328 58.1219 58.1422 60.1125 55.8062 61.6359L54.0797 58.65C53.7953 58.1523 53.1555 57.9898 52.668 58.2742C52.1703 58.5586 52.0078 59.1984 52.2922 59.6859L54.0187 62.6719C51.6016 63.9109 48.9 64.6625 46.0461 64.8148V61.3617C46.0461 60.793 45.5789 60.3258 45.0102 60.3258C44.4414 60.3258 43.9742 60.793 43.9742 61.3617V64.8148C41.1203 64.6625 38.4187 63.9109 36.0016 62.6719L37.7281 59.6859C38.0125 59.1883 37.8398 58.5586 37.3523 58.2742C36.8547 57.9898 36.225 58.1625 35.9406 58.65L34.2141 61.6359C31.8883 60.1227 29.8977 58.132 28.3742 55.7961L31.3602 54.0695C31.8578 53.7852 32.0203 53.1453 31.7359 52.6578C31.4516 52.1602 30.8117 51.9977 30.3242 52.282L27.3383 54.0086C26.0992 51.5914 25.3477 48.8898 25.1953 46.0359H28.6484C29.2172 46.0359 29.6844 45.5687 29.6844 45C29.6844 44.4313 29.2172 43.9641 28.6484 43.9641H25.1953C25.3477 41.1102 26.0992 38.4086 27.3383 35.9914L30.3242 37.718C30.4867 37.8094 30.6695 37.8602 30.8422 37.8602C31.1977 37.8602 31.5531 37.6773 31.7359 37.3422C32.0203 36.8445 31.8477 36.2148 31.3602 35.9305L28.3742 34.2039C29.8875 31.8781 31.8781 29.8875 34.2141 28.3641L35.9406 31.35C36.1336 31.6852 36.4789 31.868 36.8344 31.868C37.007 31.868 37.1898 31.8273 37.3523 31.7258C37.85 31.4414 38.0227 30.8016 37.7281 30.3141L36.0016 27.3281C38.4187 26.0891 41.1203 25.3375 43.9742 25.1852V28.6383C43.9742 29.207 44.4414 29.6742 45.0102 29.6742C45.5789 29.6742 46.0461 29.207 46.0461 28.6383V25.1852C48.9 25.3375 51.6016 26.0891 54.0187 27.3281L52.2922 30.3141C52.0078 30.8117 52.1805 31.4414 52.668 31.7258C52.8305 31.8172 53.0133 31.868 53.1859 31.868C53.5414 31.868 53.8969 31.6852 54.0797 31.35L55.8062 28.3641C58.132 29.8773 60.1227 31.868 61.6461 34.2039L58.6602 35.9305C58.1625 36.2148 58 36.8547 58.2844 37.3422C58.4773 37.6773 58.8227 37.8602 59.1781 37.8602C59.3508 37.8602 59.5336 37.8195 59.6961 37.718L62.682 35.9914C63.9211 38.4086 64.6727 41.1102 64.825 43.9641H61.3719C60.8031 43.9641 60.3359 44.4313 60.3359 45C60.3359 45.5687 60.8031 46.0359 61.3719 46.0359H64.825C64.6727 48.8898 63.9109 51.5914 62.682 54.0086ZM46.0359 42.1156V35.4734C46.0359 34.9047 45.5687 34.4375 45 34.4375C44.4313 34.4375 43.9641 34.9047 43.9641 35.4734V42.1156C42.7859 42.5422 41.9328 43.6695 41.9328 45C41.9328 45.7516 42.207 46.4422 42.6641 46.9805L41.0188 49.8242C40.7344 50.3219 40.907 50.9516 41.3945 51.2359C41.557 51.3273 41.7398 51.3781 41.9125 51.3781C42.268 51.3781 42.6234 51.1953 42.8062 50.8602L44.4516 48.0164C44.6242 48.0469 44.807 48.0672 45 48.0672C46.6859 48.0672 48.0672 46.6961 48.0672 45C48.0672 43.6695 47.2141 42.5422 46.0359 42.1156ZM45 45.9953C44.4516 45.9953 44.0047 45.5484 44.0047 45C44.0047 44.4516 44.4516 44.0047 45 44.0047C45.5484 44.0047 45.9953 44.4516 45.9953 45C45.9953 45.5484 45.5484 45.9953 45 45.9953ZM45 31.0148C44.4313 31.0148 43.9641 31.482 43.9641 32.0508V32.4672C43.9641 33.0359 44.4313 33.5031 45 33.5031C45.5687 33.5031 46.0359 33.0359 46.0359 32.4672V32.0508C46.0359 31.482 45.5687 31.0148 45 31.0148Z" fill="#BD1818"/>
<rect x="0.5" y="0.5" width="89" height="89" stroke="#091421"/>
<rect x="4.5" y="4.5" width="81" height="81" stroke="#294D5D"/>
</svg>
