<svg width="90" height="90" viewBox="0 0 90 90" fill="none" xmlns="http://www.w3.org/2000/svg">
<path d="M58.6074 52.6667C57.4834 52.6667 56.4156 53.1019 55.6101 53.8889C54.8045 54.6852 54.3549 55.7222 54.3549 56.8333C54.3549 57.9444 54.7952 58.9815 55.6101 59.7778C56.425 60.5648 57.4834 61 58.6074 61C60.9116 61 62.785 59.1296 62.785 56.8333C62.785 54.537 60.9116 52.6667 58.6074 52.6667ZM58.6074 59.1481C57.3148 59.1481 56.2283 58.0926 56.2283 56.8333C56.2283 55.5741 57.3148 54.5185 58.6074 54.5185C59.8813 54.5185 60.9116 55.5556 60.9116 56.8333C60.9116 58.1111 59.8813 59.1481 58.6074 59.1481ZM59.694 38.787C59.5254 38.6296 59.3005 38.5463 59.0664 38.5463H54.2613C53.7461 38.5463 53.3246 38.963 53.3246 39.4722V47.0648C53.3246 47.5741 53.7461 47.9907 54.2613 47.9907H61.8858C62.4009 47.9907 62.8224 47.5741 62.8224 47.0648V41.9815C62.8224 41.7222 62.71 41.4722 62.5133 41.2963L59.694 38.787ZM60.9491 46.1389H55.1979V40.3889H58.7011L60.9491 42.3889V46.1389ZM35.7339 52.6667C34.6099 52.6667 33.542 53.1019 32.7365 53.8889C31.931 54.6852 31.4814 55.7222 31.4814 56.8333C31.4814 57.9444 31.9216 58.9815 32.7365 59.7778C33.5514 60.5648 34.6099 61 35.7339 61C38.0381 61 39.9114 59.1296 39.9114 56.8333C39.9114 54.537 38.0381 52.6667 35.7339 52.6667ZM35.7339 59.1481C34.4413 59.1481 33.3547 58.0926 33.3547 56.8333C33.3547 55.5741 34.4413 54.5185 35.7339 54.5185C37.0077 54.5185 38.0381 55.5556 38.0381 56.8333C38.0381 58.1111 37.0077 59.1481 35.7339 59.1481ZM29.4863 53.8056H27.6035V51.3426C27.6035 50.8333 27.182 50.4167 26.6669 50.4167C26.1517 50.4167 25.7302 50.8333 25.7302 51.3426V54.7315C25.7302 55.2407 26.1517 55.6574 26.6669 55.6574H29.4863C30.0014 55.6574 30.4229 55.2407 30.4229 54.7315C30.4229 54.2222 30.0014 53.8056 29.4863 53.8056ZM34.2352 48.7593C34.2352 48.25 33.8137 47.8333 33.2985 47.8333H21.9367C21.4215 47.8333 21 48.25 21 48.7593C21 49.2685 21.4215 49.6852 21.9367 49.6852H33.2985C33.8137 49.6852 34.2352 49.2778 34.2352 48.7593ZM23.8381 45.4167L35.2 45.4815C35.7151 45.4815 36.1366 45.0741 36.146 44.5648C36.1554 44.0463 35.7339 43.6296 35.2187 43.6296L23.8569 43.5648C23.8475 43.5648 23.8475 43.5648 23.8475 43.5648C23.3323 43.5648 22.9108 43.9722 22.9108 44.4815C22.9014 45 23.3229 45.4167 23.8381 45.4167ZM25.7489 41.213H37.1108C37.6259 41.213 38.0474 40.7963 38.0474 40.287C38.0474 39.7778 37.6259 39.3611 37.1108 39.3611H25.7489C25.2338 39.3611 24.8123 39.7778 24.8123 40.287C24.8123 40.7963 25.2338 41.213 25.7489 41.213ZM66.6534 39.963L59.9469 34.4722C59.7783 34.3333 59.5722 34.2593 59.3474 34.2593H51.4606V30.9259C51.4606 30.4167 51.0391 30 50.5239 30H26.6669C26.1517 30 25.7302 30.4167 25.7302 30.9259V37.7037C25.7302 38.213 26.1517 38.6296 26.6669 38.6296C27.182 38.6296 27.6035 38.213 27.6035 37.7037V31.8519H49.5966V53.8056H41.9159C41.4007 53.8056 40.9792 54.2222 40.9792 54.7315C40.9792 55.2407 41.4007 55.6574 41.9159 55.6574H53.3527C53.8678 55.6574 54.2893 55.2407 54.2893 54.7315C54.2893 54.2222 53.8678 53.8056 53.3527 53.8056H51.47V36.1111H59.0195L65.1267 41.1111L65.0611 53.787H64.0869C63.5718 53.787 63.1503 54.2037 63.1503 54.713C63.1503 55.2222 63.5718 55.6389 64.0869 55.6389H65.9884C66.5036 55.6389 66.9251 55.2315 66.9251 54.7222L67 40.6852C66.9906 40.4074 66.8689 40.1389 66.6534 39.963Z" fill="#BD1818"/>
<rect x="0.5" y="0.5" width="89" height="89" stroke="#091421"/>
<rect x="4.5" y="4.5" width="81" height="81" stroke="#294D5D"/>
</svg>
