<svg width="90" height="90" viewBox="0 0 90 90" fill="none" xmlns="http://www.w3.org/2000/svg">
<path d="M53.7456 44.5067C53.3395 44.1121 52.6998 44.1121 52.3037 44.4969C51.9077 44.8816 51.9077 45.5031 52.3037 45.8879L52.3139 45.8978C52.517 46.0852 52.7708 46.1839 53.0348 46.1839C53.2989 46.1839 53.5527 46.0852 53.7558 45.8978C54.1417 45.513 54.1417 44.8915 53.7456 44.5067ZM70.9673 35.8448C70.8251 35.3121 70.2768 34.9964 69.7285 35.1345C68.0327 35.5587 66.3979 36.1605 64.8646 36.9498C65.6667 35.4601 66.2963 33.8816 66.7329 32.2439C66.8751 31.7112 66.54 31.1785 66.0018 31.0404C65.4535 30.9022 64.9052 31.2278 64.763 31.7507C64.3264 33.3883 63.6765 34.957 62.8439 36.4269C62.8845 36.2296 62.9352 36.0422 62.9657 35.8448C63.0774 35.3121 62.7119 34.7892 62.1635 34.6906C61.9401 34.6511 61.7167 34.6807 61.5238 34.7695C61.8792 33.8323 62.0721 32.826 62.0721 31.7803C62.0721 26.9363 58.0206 23 53.0348 23C50.2526 23 47.7546 24.2332 46.0893 26.1767C44.4037 24.1641 41.8855 23 39.1235 23C34.1378 23 30.0862 26.9363 30.0862 31.7803C30.0862 33.8816 30.8376 35.8547 32.178 37.4135C30.5736 37.9067 29.0606 38.7354 27.7203 39.8404C26.6134 37.7291 28.5224 34.4637 28.5529 34.4242C28.8372 33.9507 28.6748 33.3489 28.1874 33.0726C27.6999 32.7964 27.0805 32.9543 26.7962 33.4278C26.715 33.5561 25.5574 35.5291 25.3746 37.739L22.3791 34.8287C21.9831 34.4439 21.3434 34.4439 20.9474 34.8287C20.5513 35.2135 20.5513 35.835 20.9474 36.2197L23.9429 39.13C21.6683 39.3076 19.6476 40.4323 19.5055 40.5112C19.0181 40.7874 18.8556 41.3892 19.1399 41.8628C19.3328 42.1785 19.6679 42.3561 20.0233 42.3561C20.1959 42.3561 20.3686 42.3166 20.531 42.2179C20.5717 42.1982 23.9226 40.3336 26.1057 41.409C22.8462 45.148 22.1557 50.1399 24.217 53.8395C24.2272 53.8691 24.2475 53.8888 24.2577 53.9184C24.6638 54.6287 25.1715 55.2897 25.7808 55.8816C26.8064 56.878 28.0452 57.6081 29.4059 58.0422C29.4566 58.0619 29.5176 58.0816 29.5785 58.0915C30.5533 58.3874 31.589 58.5453 32.6552 58.5453C34.0362 58.5453 35.4477 58.2888 36.8388 57.7758C36.128 59.0287 35.539 60.1632 35.0923 61.1399C33.7722 64.0108 33.5894 65.609 34.4728 66.4673C34.8384 66.8224 35.3258 67 35.9858 67C36.9302 67 38.2198 66.6251 39.9663 65.8655C41.9972 64.9874 44.6779 63.5471 47.7242 61.7121C52.9435 58.5749 58.8126 54.5004 60.5287 52.8233C63.5851 49.8538 64.0319 45.3354 61.8081 42.0996C63.2703 41.4682 64.8036 40.9946 66.3877 40.6987C66.936 40.5901 67.3016 40.0771 67.1899 39.5444C67.0782 39.0117 66.5502 38.6565 66.0018 38.765C65.8089 38.8045 65.616 38.8439 65.4129 38.8834C66.9259 38.0744 68.5506 37.443 70.2362 37.0287C70.7743 36.9004 71.1094 36.3677 70.9673 35.8448ZM53.0348 24.9731C56.8935 24.9731 60.0413 28.0314 60.0413 31.7803C60.0413 34.8386 57.9292 37.4924 54.9743 38.3211C54.5681 33.9112 50.8009 30.4287 46.1909 30.33C46.8814 27.252 49.7042 24.9731 53.0348 24.9731ZM60.7927 36.2789C60.4881 37.5318 60.0616 38.7453 59.5234 39.9193C59.036 39.6036 58.508 39.3372 57.9698 39.1399C59.1274 38.4 60.0921 37.4135 60.7927 36.2789ZM45.9776 32.2933C49.7246 32.2933 52.8013 35.174 52.9739 38.7749C51.3492 39.1202 49.7855 39.9193 48.4959 41.1623C47.7851 41.8529 46.6377 43.2439 45.3176 44.9901C45.0739 42.9085 44.1499 41.0045 42.6166 39.5148C41.6316 38.5578 40.4639 37.8574 39.1743 37.4036C39.946 34.4439 42.7384 32.2933 45.9776 32.2933ZM32.1171 31.7803C32.1171 28.0314 35.2649 24.9731 39.1235 24.9731C41.4894 24.9731 43.6117 26.0682 44.9114 27.9327C44.5053 28.7318 44.2311 29.6 44.0991 30.5076C40.7482 31.1982 38.0471 33.6942 37.2145 36.9399C36.4732 36.8413 35.7015 36.8215 34.9095 36.8807C34.7876 36.8906 34.6658 36.9004 34.5439 36.9103C33.0005 35.6475 32.1171 33.7928 32.1171 31.7803ZM31.8429 56.5426L32.7974 55.6152C33.1934 55.2305 33.1934 54.609 32.7974 54.2242C32.4014 53.8395 31.7617 53.8395 31.3656 54.2242L29.5379 56C28.6748 55.6547 27.8827 55.1516 27.2125 54.5004C26.9079 54.2045 26.6439 53.8888 26.4002 53.5632L32.574 47.565C32.97 47.1803 32.97 46.5587 32.574 46.174C32.178 45.7892 31.5383 45.7892 31.1422 46.174L25.4559 51.6987C24.4404 48.6206 25.4355 44.7928 28.3092 42.0009C31.721 38.6861 36.6255 37.9363 39.9663 39.9883L38.4838 41.4287C38.0878 41.8135 38.0878 42.435 38.4838 42.8197C38.6869 43.017 38.9407 43.1058 39.2047 43.1058C39.4687 43.1058 39.7226 43.0072 39.9257 42.8197L41.5199 41.2709C43.1446 43.0565 43.7234 45.4242 43.1446 47.9991C42.6166 48.739 42.0885 49.4987 41.5707 50.2682C41.5605 50.278 41.5605 50.2879 41.5504 50.2879C40.799 51.3928 40.0577 52.5175 39.357 53.6224C39.0829 54.0565 38.8189 54.4807 38.5549 54.8951C38.2401 55.0036 37.9964 55.1121 37.7121 55.2305C37.641 55.2601 37.5699 55.2897 37.4988 55.3291C37.4785 55.339 37.4582 55.3489 37.4379 55.3587C35.6101 56.3157 33.6503 56.7004 31.8429 56.5426ZM59.9093 50.4951L56.2233 46.9139C55.8273 46.5291 55.1875 46.5291 54.7915 46.9139C54.3955 47.2987 54.3955 47.9202 54.7915 48.3049L58.5385 51.9453C56.6396 53.5435 52.06 56.7596 47.2266 59.6996C45.937 60.4888 44.6982 61.209 43.5508 61.8404L41.327 59.6798C40.931 59.2951 40.2912 59.2951 39.8952 59.6798C39.4992 60.0646 39.4992 60.6861 39.8952 61.0709L41.7027 62.8269C41.0325 63.1722 40.3928 63.4879 39.814 63.7543C37.2957 64.9184 36.2905 65.0269 35.9554 65.017C35.9452 64.7013 36.0569 63.7247 37.2551 61.2682C38.1995 59.3345 39.6515 56.8484 41.4387 54.0664C41.8144 53.4843 42.1901 52.9121 42.5759 52.3399L44.4748 54.1848C44.6779 54.3821 44.9317 54.4709 45.1957 54.4709C45.4598 54.4709 45.7136 54.3722 45.9167 54.1848C46.3127 53.8 46.3127 53.1785 45.9167 52.7937L43.7234 50.6628C46.3736 46.8054 48.8817 43.5794 49.9479 42.5435C52.6185 39.9489 56.8325 39.8404 59.3609 42.2969C61.5847 44.4771 61.7472 47.9399 59.9093 50.4951ZM37.8948 43.3821C37.4988 42.9973 36.8591 42.9973 36.4631 43.3821L36.4428 43.4018C36.0468 43.7865 36.0468 44.4081 36.4428 44.7928C36.6459 44.9803 36.8997 45.0789 37.1637 45.0789C37.4277 45.0789 37.6816 44.9803 37.8847 44.7928L37.905 44.7731C38.2908 44.3982 38.2908 43.7668 37.8948 43.3821Z" fill="#BD1818"/>
<rect x="0.5" y="0.5" width="89" height="89" stroke="#091421"/>
<rect x="4.5" y="4.5" width="81" height="81" stroke="#294D5D"/>
</svg>
