<svg width="90" height="90" viewBox="0 0 90 90" fill="none" xmlns="http://www.w3.org/2000/svg">
<path d="M51.3038 50.3914L49.0842 47.8398H55.8777C56.2551 47.8398 56.5966 47.5973 56.7224 47.2379C56.8482 46.8785 56.7404 46.4832 56.4438 46.2406L40.6282 33.4648H43.6925C44.1868 33.4648 44.5911 33.0605 44.5911 32.5664C44.5911 32.0723 44.1868 31.668 43.6925 31.668H38.0852C37.7078 31.668 37.3663 31.9105 37.2405 32.2699C37.1147 32.6293 37.2225 33.0246 37.519 33.2672L53.3346 46.052H47.5116L47.0264 45.4949C44.9326 43.0961 41.9043 41.7215 38.7232 41.7215H32.6845C31.3725 41.7215 30.1145 42.1348 29.0631 42.9254C28.0117 43.716 27.2479 44.7852 26.8705 46.043L25.5675 50.3824H25.4417C23.5456 50.3824 22 51.9367 22 53.8324V60.957C22 61.4512 22.4044 61.8555 22.8986 61.8555H25.7921C26.2055 63.6523 27.814 65 29.746 65C31.6691 65 33.2866 63.6523 33.6999 61.8465H46.2626C46.6759 63.6523 48.2844 65 50.2164 65C52.1485 65 53.757 63.6523 54.1703 61.8465H58.4837C58.9779 61.8465 59.3823 61.4422 59.3823 60.948V58.8637C59.3823 54.3266 55.7879 50.607 51.3038 50.3914ZM56.0125 54.5691H54.5837C54.1614 54.5691 53.8199 54.2277 53.8199 53.8055V52.8531C54.6646 53.2664 55.4104 53.8504 56.0125 54.5691ZM45.6695 46.6719L48.9045 50.3824H37.8425V43.5094H38.7232C41.3831 43.5094 43.9172 44.6684 45.6695 46.6719ZM28.5958 46.5551C29.135 44.7672 30.8154 43.5094 32.6845 43.5094H36.0453V50.3824H27.4546L28.5958 46.5551ZM25.4507 52.1793H25.4956V52.8621C25.4956 53.4551 25.0193 53.9312 24.4263 53.9312H23.7972V53.8414C23.7972 52.925 24.5431 52.1793 25.4507 52.1793ZM29.746 63.2031C28.506 63.2031 27.4905 62.1879 27.4905 60.948C27.4905 59.7082 28.506 58.693 29.746 58.693C30.9861 58.693 32.0016 59.7082 32.0016 60.948C32.0016 62.1879 30.9861 63.2031 29.746 63.2031ZM29.746 56.8961C27.814 56.8961 26.2055 58.2527 25.7921 60.0586H23.7972V55.7281H24.4263C26.0078 55.7281 27.2928 54.4434 27.2928 52.8621V52.1793H36.0453V60.0496H33.6999C33.2866 58.2437 31.6691 56.8961 29.746 56.8961ZM50.2164 63.2031C48.9764 63.2031 47.9609 62.1879 47.9609 60.948C47.9609 59.7082 48.9764 58.693 50.2164 58.693C51.4565 58.693 52.472 59.7082 52.472 60.948C52.472 62.1879 51.4565 63.2031 50.2164 63.2031ZM57.5851 60.0496H54.1703C53.757 58.2437 52.1485 56.8961 50.2164 56.8961C48.2844 56.8961 46.6759 58.2437 46.2626 60.0496H37.8425V52.1793H50.8994C51.2858 52.1793 51.6542 52.2152 52.0227 52.2781V53.8055C52.0227 55.216 53.1729 56.366 54.5837 56.366H57.0998C57.4143 57.1387 57.5851 57.9832 57.5851 58.8727V60.0496ZM40.4395 53.6078C40.2059 53.6078 39.9723 53.7066 39.8015 53.8684C39.6308 54.0391 39.5409 54.2637 39.5409 54.5063C39.5409 54.7488 39.6398 54.9734 39.8015 55.1441C39.9633 55.3148 40.1969 55.4047 40.4395 55.4047C40.6822 55.4047 40.9068 55.3059 41.0776 55.1441C41.2483 54.9734 41.3382 54.7488 41.3382 54.5063C41.3382 54.2637 41.2393 54.0391 41.0776 53.8684C40.9068 53.7066 40.6732 53.6078 40.4395 53.6078ZM50.2164 60.0496C49.9828 60.0496 49.7492 60.1484 49.5784 60.3102C49.4077 60.4809 49.3178 60.7055 49.3178 60.948C49.3178 61.1816 49.4167 61.4152 49.5784 61.5859C49.7402 61.7566 49.9738 61.8465 50.2164 61.8465C50.4591 61.8465 50.6837 61.7477 50.8545 61.5859C51.0252 61.4152 51.1151 61.1906 51.1151 60.948C51.1151 60.7145 51.0162 60.4809 50.8545 60.3102C50.6837 60.1484 50.4501 60.0496 50.2164 60.0496ZM29.746 60.0496C29.5124 60.0496 29.2788 60.1484 29.108 60.3102C28.9373 60.4809 28.8474 60.7055 28.8474 60.948C28.8474 61.1816 28.9463 61.4152 29.108 61.5859C29.2698 61.7566 29.5034 61.8465 29.746 61.8465C29.9797 61.8465 30.2133 61.7477 30.3841 61.5859C30.5548 61.4152 30.6447 61.1906 30.6447 60.948C30.6447 60.7145 30.5458 60.4809 30.3841 60.3102C30.2133 60.1484 29.9797 60.0496 29.746 60.0496ZM58.6634 19C53.5233 19 49.3448 23.1777 49.3448 28.3168C49.3448 30.4461 50.0817 32.5305 51.4206 34.1746C51.4206 34.1746 51.4206 34.1836 51.4296 34.1836L57.9625 42.557C58.1332 42.7727 58.3938 42.8984 58.6724 42.8984C58.951 42.8984 59.2116 42.7727 59.3823 42.557L65.8883 34.2285C65.8972 34.2105 65.9152 34.1926 65.9242 34.1746C67.2631 32.5215 68 30.4461 68 28.3078C67.991 23.1777 63.8035 19 58.6634 19ZM64.4685 33.1145C64.4415 33.1414 64.4235 33.1684 64.4055 33.2043L58.6634 40.5535L52.8584 33.1055C52.8494 33.0965 52.8404 33.0785 52.8314 33.0695C51.7441 31.7309 51.142 30.0508 51.142 28.3168C51.142 24.166 54.5208 20.7969 58.6634 20.7969C62.806 20.7969 66.1848 24.175 66.1848 28.3168C66.1938 30.0687 65.5827 31.7668 64.4685 33.1145ZM58.6634 23.8246C56.1832 23.8246 54.1703 25.8371 54.1703 28.3168C54.1703 30.7965 56.1832 32.809 58.6634 32.809C61.1436 32.809 63.1565 30.7965 63.1565 28.3168C63.1565 25.8371 61.1436 23.8246 58.6634 23.8246ZM58.6634 31.0121C57.1807 31.0121 55.9676 29.7992 55.9676 28.3168C55.9676 26.8344 57.1807 25.6215 58.6634 25.6215C60.1461 25.6215 61.3593 26.8344 61.3593 28.3168C61.3593 29.7992 60.1551 31.0121 58.6634 31.0121ZM47.3049 33.4648C47.5386 33.4648 47.7722 33.366 47.943 33.2043C48.1137 33.0336 48.2036 32.809 48.2036 32.5664C48.2036 32.3238 48.1047 32.0992 47.943 31.9285C47.7812 31.7578 47.5476 31.668 47.3049 31.668C47.0713 31.668 46.8377 31.7668 46.6669 31.9285C46.4962 32.0992 46.4063 32.3238 46.4063 32.5664C46.4063 32.809 46.5052 33.0336 46.6669 33.2043C46.8377 33.366 47.0713 33.4648 47.3049 33.4648Z" fill="#BD1818"/>
<rect x="0.5" y="0.5" width="89" height="89" stroke="#091421"/>
<rect x="4.5" y="4.5" width="81" height="81" stroke="#294D5D"/>
</svg>
