<svg width="256" height="128" viewBox="0 0 256 128" fill="none" xmlns="http://www.w3.org/2000/svg">
<path d="M93.3074 88.2878C93.194 88.2878 93.0806 88.2878 93.0806 88.2878C93.0806 88.1727 93.0806 88.0576 93.0806 87.9425C93.0806 86.2158 91.8335 85.1799 90.8131 85.1799C89.6794 85.1799 88.5456 86.3309 88.5456 87.9425C88.5456 88.0576 88.5456 88.1727 88.5456 88.2878C88.4322 88.2878 88.3189 88.2878 88.2055 88.2878C86.6183 88.2878 85.4845 89.554 85.4845 90.5899C85.4845 91.6259 86.3915 92.8921 88.2055 92.8921C88.3189 92.8921 88.3189 92.8921 88.4322 92.8921C88.4322 93.0072 88.4322 93.1223 88.4322 93.2374C88.4322 94.8489 89.6794 96 90.6997 96C91.7201 96 92.9672 95.0791 92.9672 93.2374C92.9672 93.1223 92.9672 93.0072 92.9672 92.8921C93.0806 92.8921 93.0806 92.8921 93.194 92.8921C94.8946 92.8921 95.915 91.6259 95.915 90.5899C96.0284 89.554 94.8946 88.2878 93.3074 88.2878ZM89.3392 88.0576C89.3392 87.0216 90.1329 86.2158 90.6997 86.2158C91.38 86.2158 92.0602 86.9065 92.0602 88.0576C92.0602 88.2878 91.9469 88.518 91.7201 88.8633C91.2666 89.2086 90.9265 89.554 90.5864 89.8993C90.3596 89.554 89.9061 89.2086 89.4526 88.8633C89.4526 88.6331 89.3392 88.2878 89.3392 88.0576ZM88.2055 92.0863V92.5468V92.0863C86.9584 92.0863 86.3915 91.2806 86.3915 90.705C86.3915 90.0144 87.1851 89.3237 88.2055 89.3237C88.4323 89.3237 88.659 89.4389 88.9991 89.6691C89.3392 90.1295 89.6794 90.4748 90.0195 90.8202C89.6794 91.0504 89.3392 91.5108 88.9991 91.9712C88.659 91.9712 88.4323 92.0863 88.2055 92.0863ZM92.1736 93.2374C92.1736 94.3885 91.38 95.0791 90.8131 95.0791C90.1329 95.0791 89.4526 94.2734 89.4526 93.2374C89.4526 93.0072 89.566 92.777 89.7927 92.4317C90.2462 92.0863 90.5864 91.741 90.9265 91.3957C91.1532 91.741 91.6067 92.0863 92.0602 92.4317C92.0602 92.6619 92.1736 93.0072 92.1736 93.2374ZM95.1214 90.5899C95.1214 91.2806 94.4411 91.9712 93.3074 91.9712V92.4317V91.9712C93.0806 91.9712 92.8539 91.8561 92.5137 91.6259C92.1736 91.1655 91.8335 90.8201 91.4934 90.4748C91.8335 90.2446 92.1736 89.7842 92.5137 89.3237C92.7405 89.0935 93.0806 88.9784 93.3074 88.9784C94.3277 89.2086 95.1214 90.0144 95.1214 90.5899ZM107.139 88.2878C107.026 88.2878 106.912 88.2878 106.912 88.2878C106.912 88.1727 106.912 88.0576 106.912 87.9425C106.912 86.2158 105.665 85.1799 104.645 85.1799C103.511 85.1799 102.377 86.3309 102.377 87.9425C102.377 88.0576 102.377 88.1727 102.377 88.2878C102.264 88.2878 102.151 88.2878 102.037 88.2878C100.45 88.2878 99.3162 89.554 99.3162 90.5899C99.3162 91.6259 100.223 92.8921 102.037 92.8921C102.151 92.8921 102.151 92.8921 102.264 92.8921C102.264 93.0072 102.264 93.1223 102.264 93.2374C102.264 94.8489 103.511 96 104.531 96C105.552 96 106.799 95.0791 106.799 93.2374C106.799 93.1223 106.799 93.0072 106.799 92.8921C106.912 92.8921 106.912 92.8921 107.026 92.8921C108.726 92.8921 109.747 91.6259 109.747 90.5899C109.86 89.554 108.726 88.2878 107.139 88.2878ZM103.171 88.0576C103.171 87.0216 103.965 86.2158 104.531 86.2158C105.212 86.2158 105.892 86.9065 105.892 88.0576C105.892 88.2878 105.779 88.518 105.552 88.8633C105.098 89.2086 104.758 89.554 104.418 89.8993C104.191 89.554 103.738 89.2086 103.284 88.8633C103.284 88.6331 103.171 88.2878 103.171 88.0576ZM102.037 92.0863V92.5468V92.0863C100.79 92.0863 100.223 91.2806 100.223 90.705C100.223 90.0144 101.017 89.3237 102.037 89.3237C102.264 89.3237 102.491 89.4389 102.831 89.6691C103.171 90.1295 103.511 90.4748 103.851 90.8202C103.511 91.0504 103.171 91.5108 102.831 91.9712C102.491 91.9712 102.264 92.0863 102.037 92.0863ZM106.005 93.2374C106.005 94.3885 105.212 95.0791 104.645 95.0791C103.965 95.0791 103.284 94.2734 103.284 93.2374C103.284 93.0072 103.398 92.6619 103.624 92.4317C104.078 92.0863 104.418 91.741 104.758 91.3957C104.985 91.741 105.438 92.0863 105.892 92.4317C105.892 92.6619 106.005 93.0072 106.005 93.2374ZM108.953 90.5899C108.953 91.2806 108.273 91.9712 107.139 91.9712V92.4317V91.9712C106.912 91.9712 106.686 91.8561 106.345 91.6259C106.005 91.1655 105.665 90.8201 105.325 90.4748C105.665 90.2446 106.005 89.7842 106.345 89.3237C106.572 89.0935 106.912 88.9784 107.139 88.9784C108.159 89.2086 108.953 90.0144 108.953 90.5899ZM152.716 88.2878C152.602 88.2878 152.489 88.2878 152.489 88.2878C152.489 88.1727 152.489 88.0576 152.489 87.9425C152.489 86.2158 151.242 85.1799 150.221 85.1799C149.088 85.1799 147.954 86.3309 147.954 87.9425C147.954 88.0576 147.954 88.1727 147.954 88.2878C147.841 88.2878 147.727 88.2878 147.614 88.2878C146.027 88.2878 144.893 89.554 144.893 90.5899C144.893 91.6259 145.8 92.8921 147.614 92.8921C147.727 92.8921 147.727 92.8921 147.841 92.8921C147.841 93.0072 147.841 93.1223 147.841 93.2374C147.841 94.8489 149.088 96 150.108 96C151.128 96 152.376 95.0791 152.376 93.2374C152.376 93.1223 152.376 93.0072 152.376 92.8921C152.489 92.8921 152.489 92.8921 152.602 92.8921C154.303 92.8921 155.323 91.6259 155.323 90.5899C155.437 89.554 154.303 88.2878 152.716 88.2878ZM148.748 88.0576C148.748 87.0216 149.541 86.2158 150.108 86.2158C150.788 86.2158 151.469 86.9065 151.469 88.0576C151.469 88.2878 151.355 88.518 151.128 88.8633C150.675 89.2086 150.335 89.554 149.995 89.8993C149.768 89.554 149.314 89.2086 148.861 88.8633C148.861 88.6331 148.748 88.2878 148.748 88.0576ZM147.614 92.0863V92.5468V92.0863C146.367 92.0863 145.8 91.2806 145.8 90.705C145.8 90.0144 146.593 89.3237 147.614 89.3237C147.841 89.3237 148.067 89.4389 148.407 89.6691C148.748 90.1295 149.088 90.4748 149.428 90.8202C149.088 91.0504 148.748 91.5108 148.407 91.9712C148.181 91.9712 147.841 92.0863 147.614 92.0863ZM151.582 93.2374C151.582 94.3885 150.788 95.0791 150.221 95.0791C149.541 95.0791 148.861 94.2734 148.861 93.2374C148.861 93.0072 148.974 92.6619 149.201 92.4317C149.655 92.0863 149.995 91.741 150.335 91.3957C150.562 91.741 151.015 92.0863 151.469 92.4317C151.469 92.6619 151.582 93.0072 151.582 93.2374ZM154.53 90.5899C154.53 91.2806 153.849 91.9712 152.716 91.9712V92.4317V91.9712C152.489 91.9712 152.262 91.8561 151.922 91.6259C151.582 91.1655 151.242 90.8201 150.902 90.4748C151.242 90.2446 151.582 89.7842 151.922 89.3237C152.149 89.0935 152.489 88.9784 152.716 88.9784C153.736 89.2086 154.53 90.0144 154.53 90.5899ZM169.268 90.5899C169.268 89.4389 168.135 88.2878 166.547 88.2878C166.434 88.2878 166.321 88.2878 166.321 88.2878C166.321 88.1727 166.321 88.0576 166.321 87.9425C166.321 86.2158 165.074 85.1799 164.053 85.1799C162.919 85.1799 161.786 86.3309 161.786 87.9425C161.786 88.0576 161.786 88.1727 161.786 88.2878C161.672 88.2878 161.559 88.2878 161.446 88.2878C159.858 88.2878 158.725 89.554 158.725 90.5899C158.725 91.6259 159.632 92.8921 161.446 92.8921C161.559 92.8921 161.559 92.8921 161.672 92.8921C161.672 93.0072 161.672 93.1223 161.672 93.2374C161.672 94.8489 162.919 96 163.94 96C164.96 96 166.207 95.0791 166.207 93.2374C166.207 93.1223 166.207 93.0072 166.207 92.8921C166.321 92.8921 166.321 92.8921 166.434 92.8921C168.361 92.8921 169.268 91.741 169.268 90.5899ZM162.579 88.0576C162.579 87.0216 163.373 86.2158 163.94 86.2158C164.62 86.2158 165.3 86.9065 165.3 88.0576C165.3 88.2878 165.187 88.518 164.96 88.8633C164.507 89.2086 164.167 89.554 163.826 89.8993C163.6 89.554 163.146 89.2086 162.693 88.8633C162.693 88.6331 162.579 88.2878 162.579 88.0576ZM161.446 92.0863V92.5468V92.0863C160.198 92.0863 159.632 91.2806 159.632 90.705C159.632 90.0144 160.425 89.3237 161.446 89.3237C161.672 89.3237 161.899 89.4389 162.239 89.6691C162.579 90.1295 162.919 90.4748 163.26 90.8202C162.919 91.0504 162.579 91.5108 162.239 91.9712C162.012 91.9712 161.672 92.0863 161.446 92.0863ZM165.414 93.2374C165.414 94.3885 164.62 95.0791 164.053 95.0791C163.373 95.0791 162.693 94.2734 162.693 93.2374C162.693 93.0072 162.806 92.6619 163.033 92.4317C163.486 92.0863 163.826 91.741 164.167 91.3957C164.393 91.741 164.847 92.0863 165.3 92.4317C165.3 92.6619 165.414 93.0072 165.414 93.2374ZM168.361 90.5899C168.361 91.2806 167.681 91.9712 166.547 91.9712V92.4317V91.9712C166.321 91.9712 166.094 91.8561 165.754 91.6259C165.414 91.1655 165.074 90.8201 164.733 90.4748C165.074 90.2446 165.414 89.7842 165.754 89.3237C165.981 89.0935 166.321 88.9784 166.547 88.9784C167.568 89.2086 168.361 90.0144 168.361 90.5899ZM171.309 82.8777V80.2302H256V73.554H236.159V70.446H235.479V63.5396H237.407V69.7554H242.735V63.4245H248.291V69.7554H253.619V63.4245H255.887V61.6978H253.619V60.5468C253.619 60.4317 253.619 60.2014 253.619 60.0863C253.619 58.5899 252.372 57.3237 250.898 57.3237C249.424 57.3237 248.177 58.5899 248.177 60.0863C248.177 60.3165 248.177 60.5468 248.291 60.777V61.6978H242.735V60.5468C242.735 60.4317 242.735 60.2014 242.735 60.0863C242.735 58.5899 241.488 57.3237 240.014 57.3237C238.54 57.3237 237.293 58.5899 237.293 60.0863C237.293 60.3165 237.293 60.5468 237.407 60.777V61.6978H235.479V56.1727H255.773V54.446H234.345V44.4317H233.665V42.1295H230.831V37.6403L229.017 35.6835L227.203 37.6403V42.1295H224.482V44.4317V54.446H182.533V44.4317H181.853V42.1295H179.019V37.6403L177.205 35.6835L175.391 37.6403V42.1295H172.783V44.4317V54.446H171.536L171.082 55.1367L171.536 56.0576H172.556V70.2158H171.876V73.3237H170.402V77.1223H156.004V76.3165H96.9353V77.1223H85.7113V73.3237H84.3508V70.2158H83.6705V56.1727H84.6909L85.1444 55.2518L84.6909 54.5611H83.4438V44.5468V42.2446H80.7228V37.7554L78.9088 35.7986L77.0948 37.7554V42.2446H74.2604V44.5468H73.5802V54.5611H31.6315V44.5468V42.2446H28.9105V37.7554L27.0965 35.7986L25.3959 37.8705V42.3597H22.5616V44.6619H21.8813V54.6763H0.453499V56.4029H20.7476V61.6978H18.8202V60.777C18.8202 60.5468 18.9336 60.3165 18.9336 60.0863C18.9336 58.5899 17.6864 57.3237 16.2126 57.3237C14.7387 57.3237 13.4916 58.5899 13.4916 60.0863C13.4916 60.2014 13.4916 60.4317 13.4916 60.5468V61.6978H7.93623V60.777C7.93623 60.5468 8.0496 60.3165 8.0496 60.0863C8.0496 58.5899 6.80248 57.3237 5.32861 57.3237C3.85474 57.3237 2.60762 58.5899 2.60762 60.0863C2.60762 60.2014 2.60762 60.4317 2.60762 60.5468V61.6978H0.453499V63.4245H2.72099V69.7554H8.0496V63.4245H13.605V69.7554H18.9336V63.4245H20.8609V70.3309H20.1807V73.4388H0.113375V80.1151H83.1036V82.7626V83.9137V107.281H78.5686V104.748H80.8361V103.942H80.496V100.835H79.9291V97.2662H79.4756V93.6978H79.0222V90.0144H78.682V86.7914H77.775V90.0144H77.3215V92.777H76.7547V95.4245H76.3012V98.0719H75.8477V101.065H75.3942V104.058H75.054V104.863H77.3215V107.396H74.4872C74.6005 105.439 74.6005 97.1511 68.7051 90.8202C62.1293 83.5684 54.9867 83.5683 51.132 83.5683C47.1639 83.5683 39.6811 83.5684 32.992 90.8202C27.0965 97.1511 27.0965 105.439 27.2099 107.396H24.4889V104.863H26.7564V104.058H26.4163V100.835H25.8494V97.2662H25.3959V93.6978H24.9424V90.0144H24.4889V86.7914H23.5819V90.0144H23.1284V92.777H22.5616V95.4245H21.9947V98.0719H21.5412V101.065H21.0877V104.058H20.8609V104.863H23.1284V107.396H20.7476C20.8609 105.439 20.8609 97.1511 14.9655 90.8202C8.61648 84.0288 0.453499 83.5683 0.113375 83.5683L0 86.1007C0.113375 86.1007 7.48273 86.446 13.1515 92.5468C18.4801 98.3022 18.3667 106.129 18.2533 107.396H17.0062V110.388H18.3667V127.885H29.1373V110.504H30.4978V107.511H29.7042C29.5908 106.245 29.4774 98.3022 34.806 92.6619C40.3614 86.6763 46.1435 86.2158 51.132 86.2158C55.8937 86.2158 61.5625 86.6763 67.1178 92.6619C72.4464 98.4173 72.333 106.245 72.2197 107.511H71.426V110.504H72.7865V128H83.5571V110.504H96.3685V115.223C94.7812 116.489 93.7609 118.446 93.7609 120.633C93.7609 122.475 94.4411 124.086 95.5749 125.353V128H96.2551H105.552H106.232V125.353C107.366 124.086 108.046 122.475 108.046 120.633C108.046 118.446 107.026 116.489 105.438 115.223V110.504H107.139V107.626C107.139 107.511 106.572 100.95 111.561 95.5396C116.663 90.0144 122.105 89.4389 125.733 89.4389C129.474 89.4389 134.576 90.1295 139.564 95.5396C144.099 100.489 143.986 106.59 143.986 107.511C143.986 107.626 143.986 107.626 143.986 107.626V110.504H146.14V115.108C144.553 116.374 143.532 118.331 143.532 120.518C143.532 122.36 144.213 123.971 145.346 125.237V127.885H146.027H155.323H156.004V125.237C157.137 123.971 157.818 122.36 157.818 120.518C157.818 118.331 156.797 116.374 155.21 115.108V110.504H170.175V128H180.946V110.504H182.306V107.511H181.513C181.399 106.245 181.286 98.3022 186.615 92.6619C192.17 86.6763 197.952 86.2158 202.941 86.2158C207.702 86.2158 213.371 86.6763 218.926 92.6619C224.255 98.4173 224.142 106.245 224.028 107.511H223.235V110.504H224.595V128H235.366V110.504H236.726V107.511H235.819C235.706 106.245 235.593 98.4173 240.921 92.6619C246.59 86.5612 255.887 86.2158 255.887 86.2158V84.9496V83.6835C255.547 83.6835 245.57 84.1439 239.221 90.9353C233.325 97.2662 233.325 105.554 233.438 107.511H230.717V104.978H232.985V104.173H232.645V100.835H232.078V97.2662H231.738V93.6978H231.284V90.0144H230.831V86.7914H229.924V90.0144H229.47V92.777H228.903V95.4245H228.337V98.0719H227.883V101.065H227.43V104.058H227.203V104.863H229.47V107.396H226.636C226.749 105.439 226.749 97.1511 220.854 90.8202C214.165 83.5684 206.909 83.5683 203.054 83.5683C199.086 83.5683 191.603 83.5684 184.914 90.8202C179.019 97.1511 179.019 105.439 179.132 107.396H176.411V104.863H178.678V104.058H178.338V100.835H177.771V97.2662H177.318V93.6978H176.864V90.0144H176.411V86.7914H175.504V90.0144H175.05V92.777H174.484V95.4245H174.03V98.0719H173.577V101.065H173.123V104.058H172.783V104.863H175.05V107.396H171.309V84.0288V82.8777ZM183.667 56.1727H224.368V61.6978H221.988V60.5468C221.988 60.4317 221.988 60.2014 221.988 60.0863C221.988 58.5899 220.74 57.3237 219.267 57.3237C217.793 57.3237 216.546 58.5899 216.546 60.0863C216.546 60.3165 216.546 60.5468 216.659 60.777V61.6978H211.104V60.5468C211.104 60.4317 211.104 60.2014 211.104 60.0863C211.104 58.5899 209.857 57.3237 208.383 57.3237C206.909 57.3237 205.662 58.5899 205.662 60.0863C205.662 60.3165 205.662 60.5468 205.775 60.777V61.6978H201.58V60.5468C201.58 60.4317 201.58 60.2014 201.58 60.0863C201.58 58.5899 200.333 57.3237 198.859 57.3237C197.385 57.3237 196.138 58.5899 196.138 60.0863C196.138 60.3165 196.138 60.5468 196.252 60.777V61.6978H190.696V60.5468C190.696 60.4317 190.696 60.2014 190.696 60.0863C190.696 58.5899 189.449 57.3237 187.975 57.3237C186.501 57.3237 185.254 58.5899 185.254 60.0863C185.254 60.3165 185.254 60.5468 185.368 60.777V61.6978H183.554V56.1727H183.667ZM183.667 63.4245H185.481V69.7554H190.81V63.4245H196.365V69.7554H201.694V63.4245H205.888V69.7554H211.217V63.4245H216.772V69.7554H222.101V63.4245H224.482V70.3309H223.802V73.4388H184.574V70.3309H183.894V63.4245H183.667ZM72.5598 70.3309H71.8795V73.4388H32.5385V70.3309H31.8583V63.4245H34.2392V69.7554H39.5678V63.4245H45.1231V69.7554H50.3384V63.4245H54.5332V69.7554H59.8618V63.4245H65.4172V69.7554H70.7458V63.4245H72.5598V70.3309ZM72.5598 61.6978H70.7458V60.777C70.7458 60.5468 70.8592 60.3165 70.8592 60.0863C70.8592 58.5899 69.6121 57.3237 68.1382 57.3237C66.6643 57.3237 65.4172 58.5899 65.4172 60.0863C65.4172 60.2014 65.4172 60.4317 65.4172 60.5468V61.6978H59.8618V60.777C59.8618 60.5468 59.9752 60.3165 59.9752 60.0863C59.9752 58.5899 58.7281 57.3237 57.2542 57.3237C55.7803 57.3237 54.5332 58.5899 54.5332 60.0863C54.5332 60.2014 54.5332 60.4317 54.5332 60.5468V61.6978H50.3384V60.777C50.3384 60.5468 50.4517 60.3165 50.4517 60.0863C50.4517 58.5899 49.2046 57.3237 47.7307 57.3237C46.2569 57.3237 45.0097 58.5899 45.0097 60.0863C45.0097 60.2014 45.0097 60.4317 45.0097 60.5468V61.6978H39.4544V60.777C39.4544 60.5468 39.5678 60.3165 39.5678 60.0863C39.5678 58.5899 38.3206 57.3237 36.8468 57.3237C35.3729 57.3237 34.1258 58.5899 34.1258 60.0863C34.1258 60.2014 34.1258 60.4317 34.1258 60.5468V61.6978H31.7449V56.1727H72.4464V61.6978H72.5598ZM147.841 107.396C147.841 106.935 147.841 106.36 147.841 105.554H156.344C156.797 105.554 157.251 105.094 157.251 104.633C157.251 104.173 156.797 103.712 156.344 103.712H147.614C147.16 100.719 145.913 96.5755 142.399 92.777C136.276 86.2158 130.041 85.4101 125.846 85.4101C123.352 85.4101 115.642 85.4101 108.84 92.777C105.438 96.4604 104.078 100.719 103.624 103.712H96.0284C95.5749 103.712 95.1214 104.173 95.1214 104.633C95.1214 105.094 95.5749 105.554 96.0284 105.554H103.511C103.511 106.36 103.511 107.05 103.511 107.396H85.031V84.0288H169.495V107.396H147.841ZM126.866 32.2302C127.887 32.2302 129.134 31.3094 129.134 29.4676C129.134 29.3525 129.134 29.2374 129.134 29.2374C129.247 29.2374 129.247 29.2374 129.361 29.2374C131.061 29.2374 132.081 27.9712 132.081 26.9353C132.081 25.7842 130.948 24.6331 129.361 24.6331C129.247 24.6331 129.247 24.6331 129.134 24.6331C129.134 24.518 129.134 24.4029 129.134 24.4029C129.134 22.6763 127.887 21.6403 126.866 21.6403C125.733 21.6403 124.599 22.7914 124.599 24.4029C124.599 24.518 124.599 24.6331 124.599 24.6331C124.485 24.6331 124.372 24.6331 124.372 24.6331C122.785 24.6331 121.651 25.8993 121.651 26.9353C121.651 27.9712 122.558 29.2374 124.372 29.2374C124.485 29.2374 124.485 29.2374 124.599 29.2374C124.599 29.3525 124.599 29.4676 124.599 29.4676C124.599 31.0791 125.733 32.1151 126.866 32.2302ZM128.567 25.6691C128.794 25.4389 129.134 25.3237 129.361 25.3237C130.381 25.3237 131.174 26.1295 131.174 26.705C131.174 27.3957 130.494 28.0863 129.361 28.0863V28.5468V28.3165C129.134 28.3165 128.907 28.2014 128.567 27.9712C128.227 27.5108 127.887 27.1655 127.547 26.8201C127.887 26.5899 128.227 26.1295 128.567 25.6691ZM126.866 22.446C127.547 22.446 128.227 23.1367 128.227 24.2878C128.227 24.518 128.113 24.7482 127.887 25.0935C127.433 25.4389 127.093 25.7842 126.753 26.1295C126.526 25.7842 126.073 25.4389 125.619 25.0935C125.392 24.7482 125.279 24.518 125.279 24.2878C125.506 23.2518 126.186 22.446 126.866 22.446ZM125.052 27.9712C124.826 28.2014 124.485 28.3165 124.259 28.3165V28.777V28.3165C123.125 28.3165 122.445 27.5108 122.445 26.9353C122.445 26.2446 123.238 25.554 124.259 25.554C124.485 25.554 124.712 25.6691 125.052 25.8993C125.392 26.3597 125.733 26.705 126.073 27.0504C125.846 27.1655 125.392 27.5108 125.052 27.9712ZM125.392 29.4676C125.392 29.2374 125.506 29.0072 125.733 28.6619C126.186 28.3165 126.526 27.9712 126.866 27.6259C127.093 27.9712 127.547 28.3165 128 28.6619C128.227 28.8921 128.34 29.2374 128.34 29.4676C128.34 30.6187 127.547 31.3094 126.98 31.3094C126.186 31.3094 125.506 30.5036 125.392 29.4676ZM154.643 66.7626H150.562V64.6906H151.922V63.1942H151.242V61.9281H151.809V61.5827V60.6619V60.2014H152.262V58.5899L153.169 59.0504V60.0863V60.5468V60.6619H153.736V61.9281H154.19V63.1942H153.169V64.6906H154.756V66.7626H154.643ZM156.004 71.0216H155.21H148.748H144.553C144.553 66.7626 144.439 56.9784 144.326 51.4532H144.893C145.346 51.4532 145.686 51.1079 145.686 50.6475C145.686 50.1871 145.346 49.8417 144.893 49.8417H144.439C144.326 47.4245 144.213 45.0072 144.099 42.8201C143.646 35.7986 142.285 31.1942 141.605 29.3525V28.3165H142.399V26.705H141.718V26.2446V25.2086V24.6331H141.151V22.6763L140.018 23.2518V24.6331V24.9784V25.0935H139.337V26.705H138.771V27.5108H135.596V22.7914H137.523C137.637 22.7914 137.75 22.5612 137.75 22.1007C137.75 21.7554 137.637 21.4101 137.523 21.4101H133.895L134.009 12.8921C134.009 12.5468 133.782 12.2014 133.442 11.9712C133.442 11.9712 131.401 10.9353 129.927 8.40288C128.34 5.7554 127.773 0.805755 127.773 0.805755C127.66 0.345324 127.32 0 126.866 0C126.413 0 125.959 0.345324 125.959 0.805755C125.959 0.805755 125.619 3.79856 124.372 7.02158C123.238 10.1295 119.95 12.777 119.95 12.8921C119.724 13.1223 119.61 13.3525 119.61 13.6978V21.4101H116.436C116.322 21.4101 116.209 21.6403 116.209 22.1007C116.209 22.446 116.322 22.7914 116.436 22.7914H117.57V27.5108H114.849V32C114.282 29.6978 113.715 28.5468 113.601 28.4317L113.488 28.3165H114.622V26.705H114.055V25.0935H113.375V24.9784V24.6331V23.2518L112.241 22.6763V24.6331H111.674V25.2086V26.2446V26.705H110.994V28.3165H111.787V29.813C111.107 32 109.86 36.8345 109.52 42.8201C109.407 44.6619 109.293 47.0791 109.18 49.8417H108.159C107.706 49.8417 107.366 50.1871 107.366 50.6475C107.366 51.1079 107.706 51.4532 108.159 51.4532H109.18C109.066 56.6331 108.953 66.6475 108.84 71.0216H103.511H97.0487V72.7482H156.117V71.0216H156.004ZM138.884 28.3165H140.018L139.904 28.5468C139.904 28.6619 139.451 29.9281 138.884 32.1151V28.3165ZM134.916 22.9065C134.916 22.9065 134.916 28.0863 134.916 28.2014H138.204V35.3381C137.977 36.4892 137.75 37.8705 137.523 39.2518C136.616 33.036 134.802 28.6619 134.689 28.4317L134.576 28.0863C134.576 27.9712 133.895 25.7842 132.195 22.9065H134.916ZM116.776 51.4532H117.57C118.023 51.4532 118.363 51.1079 118.363 50.6475C118.363 50.1871 118.023 49.8417 117.57 49.8417H116.776C116.776 49.1511 116.776 48.5755 116.776 47.8849C116.889 46.0432 116.889 44.3165 117.003 42.9353C117.456 36.9496 119.043 32.1151 119.724 30.0432C121.198 31.5396 124.372 35.6835 125.846 42.2446C125.959 42.5899 125.959 43.1655 126.073 43.741C125.959 45.3525 125.846 47.4245 125.733 49.8417H125.166C124.712 49.8417 124.372 50.1871 124.372 50.6475C124.372 51.1079 124.712 51.4532 125.166 51.4532H125.733C125.619 56.4029 125.619 66.5324 125.619 71.0216H116.776C116.776 66.7626 116.776 56.8633 116.776 51.4532ZM120.177 28.5468C120.177 28.4317 120.971 26.1295 122.671 23.2518C123.919 21.0648 125.846 19.1079 126.753 18.4173C127.66 19.223 129.587 21.0648 130.834 23.2518C132.422 26.0144 133.215 28.2014 133.329 28.5468C132.195 29.5827 128.68 33.3813 126.753 40.1727C124.826 33.4964 121.311 29.6978 120.177 28.5468ZM127.773 51.4532H128.454C128.907 51.4532 129.247 51.1079 129.247 50.6475C129.247 50.1871 128.907 49.8417 128.454 49.8417H127.66C127.547 47.4245 127.433 45.3525 127.32 43.741C127.433 43.1655 127.433 42.5899 127.547 42.2446C129.02 35.6835 132.195 31.6547 133.669 30.0432C134.349 32.1151 135.936 36.9496 136.39 42.9353C136.503 44.777 136.616 47.1942 136.73 49.8417H135.596C135.143 49.8417 134.802 50.1871 134.802 50.6475C134.802 51.1079 135.143 51.4532 135.596 51.4532H136.73C136.73 51.7986 136.73 52.1439 136.73 52.4892C136.73 57.3237 136.73 66.8777 136.73 71.0216H127.66C127.887 66.5324 127.887 56.4029 127.773 51.4532ZM121.424 14.2734C122.331 13.4676 124.939 10.9353 126.073 7.94245C126.299 7.13669 126.64 6.44604 126.753 5.7554C127.093 7.13669 127.66 8.51799 128.227 9.66907C129.474 11.9712 131.174 13.2374 132.081 13.6978L131.968 21.6403H131.628C131.515 21.6403 131.515 21.7554 131.515 21.8705C129.701 19.1079 127.206 17.036 127.093 16.9209L126.64 16.5755L126.186 16.9209C126.073 17.036 123.805 18.9928 121.991 21.5252H121.311V14.2734H121.424ZM115.415 28.2014H118.136C118.25 27.9712 118.136 22.9065 118.136 22.9065H121.198C119.95 25.0935 119.27 26.9353 118.93 27.741L118.59 28.4317C118.477 28.6619 116.776 32.5755 115.869 38.3309C115.756 37.0647 115.529 36.0288 115.302 34.9928V28.2014H115.415ZM110.2 71.0216C110.2 66.6475 110.314 56.6331 110.54 51.4532H111.561C112.014 51.4532 112.354 51.1079 112.354 50.6475C112.354 50.1871 112.014 49.8417 111.561 49.8417H110.54C110.654 47.1942 110.767 44.777 110.88 42.9353C111.221 37.7554 112.241 33.4964 112.921 31.0791C113.601 33.2662 114.622 37.295 114.962 42.9353C115.075 44.5468 115.075 46.1583 115.189 47.8849C115.189 48.5755 115.189 49.1511 115.075 49.8417H113.942C113.488 49.8417 113.148 50.1871 113.148 50.6475C113.148 51.1079 113.488 51.4532 113.942 51.4532H114.962C114.849 56.6331 114.735 66.6475 114.622 71.0216H110.2ZM138.544 71.0216C138.544 66.8777 138.43 57.3237 138.317 52.4892C138.317 52.1439 138.317 51.7986 138.317 51.4532H139.111C139.564 51.4532 139.904 51.1079 139.904 50.6475C139.904 50.1871 139.564 49.8417 139.111 49.8417H138.317C138.317 47.1942 138.43 44.777 138.544 42.9353C138.884 37.7554 139.904 33.4964 140.585 31.0791C141.265 33.2662 142.285 37.295 142.625 42.9353C142.739 45.1223 142.852 47.4245 142.965 49.8417H141.492C141.038 49.8417 140.698 50.1871 140.698 50.6475C140.698 51.1079 141.038 51.4532 141.492 51.4532H142.965C143.079 56.9784 143.192 66.7626 143.192 71.0216H138.544ZM102.264 66.7626H98.1825V64.6906H99.7697V63.1942H98.7493V61.9281H99.0895V60.6619H99.6563V60.5468V60.2014V59.1655L100.563 58.705V60.3165H101.017V60.777V61.6978V62.0432H101.584V63.3094H100.903V64.8058H102.264V66.7626Z" fill="white" fill-opacity="0.05"/>
</svg>
