<svg width="25" height="50" viewBox="0 0 25 50" fill="none" xmlns="http://www.w3.org/2000/svg">
<path d="M0 0H25V50L12.5 41.6667L0 50V0Z" fill="#BD1818"/>
<path d="M10.4785 31.5328L7.04687 29.6666L7.04687 27.3082L11.9824 30.2066L17 27.233L17 29.6187L13.5137 31.5328L17 33.4469L17 35.8326L11.9824 32.859L7.04687 35.7574L7.04687 33.399L10.4785 31.5328ZM7.04687 18.8262L7.04687 16.7686L17 16.7686L17 18.8262L10.3896 18.8262L17 22.8115L17 24.8623L7.04687 24.8623L7.04687 22.8115L13.6709 22.8115L7.04687 18.8262ZM8.70801 6.3041L8.70801 9.35293L17 9.35293L17 11.4037L8.70801 11.4037L8.70801 14.4115L7.04687 14.4115L7.04687 6.3041L8.70801 6.3041Z" fill="white"/>
</svg>
