<svg width="25" height="50" viewBox="0 0 25 50" fill="none" xmlns="http://www.w3.org/2000/svg">
<path d="M0 0H25V50L12.5 41.6667L0 50V0Z" fill="#E16912"/>
<path d="M14.8125 21.25V18.4375L13.1562 17.6875C11.3438 19.8438 10.6562 25.5 6.25 25.5C5.28125 25.5 4.5 26.3125 4.5 27.25C4.5 28.2188 5.28125 29 6.25 29C12.875 29 17.8125 25.1875 19.3438 22.4375L18.1875 21.25H14.8125ZM18.9062 17.2188C19.9062 15.3438 19.4062 13.8438 18.8125 13.0938C18.7812 13.0625 18.6875 13.0312 18.625 13.0312C18.5625 13.0312 18.4688 13.0625 18.4375 13.0938L17.7188 13.8125C17.6875 13.8438 17.6562 13.9375 17.6562 14C17.6562 14.0312 17.6875 14.0938 17.6875 14.125C17.9062 14.4375 18.2188 15.2188 17.6562 16.375C17.1875 16.1875 16.375 16.0312 15.875 16C15 16 14.1875 16.2812 13.5 16.7188L15.8125 17.7812V20.25H18.5938L20.3125 22C20.4062 21.625 20.5 21.2188 20.5 20.7812C20.5 19.625 19.7812 18.0312 18.9062 17.2188Z" fill="white"/>
</svg>
