<svg width="60" height="60" viewBox="0 0 60 60" fill="none" xmlns="http://www.w3.org/2000/svg">
<rect x="0.5" y="0.5" width="59" height="59" stroke="black"/>
<rect x="3.5" y="3.5" width="53" height="53" stroke="#294D5D"/>
<path d="M29.0396 26.4573C28.3627 27.1313 28.3627 28.2272 29.0396 28.9012C29.3751 29.2352 29.8223 29.4052 30.2638 29.4052C30.7052 29.4052 31.1525 29.2352 31.4879 28.9012L32.0765 28.3151C32.7533 27.6411 32.7533 26.5452 32.0765 25.8713C31.3997 25.1973 30.2991 25.1973 29.6222 25.8713L29.0396 26.4573ZM29.8694 27.2836L30.458 26.6976C30.5639 26.5921 30.7111 26.5335 30.8523 26.5335C30.9936 26.5335 31.1407 26.5862 31.2466 26.6976C31.4644 26.9144 31.4644 27.2661 31.2466 27.4829L30.6581 28.069C30.4403 28.2858 30.0872 28.2858 29.8694 28.069C29.6517 27.8521 29.6517 27.5005 29.8694 27.2836ZM41.7405 25.2149C42.5586 24.119 43 22.7945 43 21.4055C43 19.6943 42.3291 18.0885 41.1166 16.8754C39.9042 15.6681 38.2857 15 36.5671 15C35.1723 15 33.8422 15.4395 32.7416 16.2542L32.2589 15.7736C32.0294 15.545 31.6586 15.545 31.4291 15.7736C31.1996 16.0021 31.1996 16.3714 31.4291 16.5999L31.8646 17.0336C30.8464 18.1237 30.2402 19.5185 30.1461 21.0012L18.9577 35.2598C18.7753 35.4942 18.7929 35.8283 19.0048 36.0334L20.023 37.0473L17.8453 39.2157C16.7271 40.3292 16.7153 42.1459 17.8277 43.2653C17.8277 43.2711 17.8336 43.2711 17.8336 43.277L17.8453 43.2887C17.8512 43.2946 17.8512 43.2946 17.8571 43.2946C18.9871 44.3964 20.8058 44.3905 21.924 43.277L25.3141 39.9013C25.985 39.2332 27.0679 39.2332 27.7389 39.9013C28.4098 40.5694 28.4098 41.6478 27.7389 42.3159L26.0439 44.0037C25.8143 44.2323 25.8143 44.6015 26.0439 44.83C26.1616 44.9473 26.3087 45 26.4617 45C26.6147 45 26.7619 44.9414 26.8796 44.83L28.5746 43.1422C29.7046 42.017 29.7046 40.1944 28.5746 39.0692C27.4446 37.9439 25.6142 37.9439 24.4842 39.0692L21.0941 42.4448C20.4291 43.1071 19.3461 43.1129 18.6752 42.4507C18.0101 41.7826 18.016 40.7042 18.6811 40.042L20.8587 37.8736L21.9299 38.9402C22.1418 39.1512 22.4772 39.1629 22.7185 38.9812L36.9732 27.7935C38.4623 27.6997 39.863 27.102 40.9577 26.0822L41.5169 26.639C41.6346 26.7562 41.7817 26.8089 41.9347 26.8089C42.0877 26.8089 42.2349 26.7503 42.3526 26.639C42.5821 26.4104 42.5821 26.0412 42.3526 25.8127L41.7405 25.2149ZM20.2054 35.5763L21.2884 34.1991L23.7603 36.6605L22.3831 37.7447L20.2054 35.5763ZM24.6961 35.9338L22.0182 33.2672L30.7993 22.0736L35.8903 27.143L24.6961 35.9338ZM37.0262 26.6214L31.329 20.9484C31.4291 19.7998 31.9058 18.7214 32.6945 17.8717L34.0835 19.2547C34.2012 19.3719 34.3483 19.4247 34.5013 19.4247C34.6544 19.4247 34.8015 19.3661 34.9192 19.2547C35.1487 19.0262 35.1487 18.657 34.9192 18.4284L33.5832 17.0981C34.4542 16.4944 35.4842 16.1721 36.5671 16.1721C37.9738 16.1721 39.2921 16.7171 40.2809 17.7076C41.2755 18.698 41.8229 20.0107 41.8229 21.4055C41.8229 22.4839 41.4992 23.5095 40.893 24.3768L38.3093 21.8041C38.0797 21.5755 37.7089 21.5755 37.4794 21.8041C37.2499 22.0326 37.2499 22.4018 37.4794 22.6304L40.1161 25.2559C39.2627 26.0412 38.1857 26.5159 37.0262 26.6214ZM42.1584 37.7916V31.6849C42.1584 31.4974 42.0642 31.3157 41.9112 31.2102C41.7582 31.0988 41.5581 31.0695 41.3756 31.134L35.6961 33.0914C35.4607 33.1735 35.3018 33.3962 35.3018 33.6482V38.3835C35.2782 38.3776 35.2606 38.3718 35.237 38.3659C34.7485 38.2487 34.1894 38.2956 33.6597 38.489C32.4591 38.9285 31.7822 39.9834 32.1177 40.8859C32.3531 41.5247 33.03 41.8939 33.8363 41.8939C34.1659 41.8939 34.5131 41.8353 34.8603 41.7064C35.39 41.513 35.8491 41.1789 36.1434 40.7746C36.3788 40.4522 36.4965 40.1006 36.4906 39.7548V39.749V34.0643L40.993 32.5171V36.4436C40.9695 36.4378 40.9518 36.4319 40.9283 36.4261C40.4398 36.3088 39.8807 36.3557 39.3451 36.5491C38.8154 36.7425 38.3563 37.0766 38.0621 37.481C37.7207 37.9498 37.6265 38.4831 37.7972 38.9461C38.0326 39.5849 38.7095 39.9541 39.5158 39.9541C39.8454 39.9541 40.1926 39.8955 40.5399 39.7666C41.0696 39.5732 41.5286 39.2391 41.8229 38.8347C42.0583 38.5065 42.176 38.1491 42.1701 37.8033C42.1584 37.7916 42.1584 37.7916 42.1584 37.7916ZM35.1782 40.0772C35.0193 40.294 34.7544 40.4815 34.4425 40.5929C33.8186 40.8215 33.2889 40.6691 33.2183 40.464C33.1477 40.2588 33.4419 39.8017 34.0658 39.5732C34.2718 39.497 34.4837 39.4559 34.6779 39.4559C34.7779 39.4559 34.8721 39.4677 34.9604 39.4853C35.1311 39.5263 35.2547 39.6025 35.29 39.6962C35.3194 39.7959 35.2782 39.9365 35.1782 40.0772ZM40.8577 38.1373C40.6988 38.3542 40.4339 38.5417 40.122 38.6531C39.4981 38.8816 38.9684 38.7292 38.8978 38.5241C38.8625 38.4362 38.9037 38.2956 39.0096 38.1491C39.1685 37.9322 39.4334 37.7447 39.7453 37.6333C39.9513 37.5571 40.1632 37.5161 40.3574 37.5161C40.4575 37.5161 40.5516 37.5278 40.6399 37.5454C40.8106 37.5864 40.9342 37.6626 40.9695 37.7564C41.0048 37.856 40.9636 37.9967 40.8577 38.1373ZM17.7041 23.4978C19.099 23.4978 20.2349 24.6288 20.2349 26.0178C20.2349 26.3401 20.4997 26.6038 20.8234 26.6038C21.1471 26.6038 21.412 26.3401 21.412 26.0178C21.412 24.6288 22.5479 23.4978 23.9427 23.4978C24.2664 23.4978 24.5313 23.234 24.5313 22.9117C24.5313 22.5894 24.2664 22.3256 23.9427 22.3256C22.5479 22.3256 21.412 21.1946 21.412 19.8056C21.412 19.4833 21.1471 19.2196 20.8234 19.2196C20.4997 19.2196 20.2349 19.4833 20.2349 19.8056C20.2349 21.1946 19.099 22.3256 17.7041 22.3256C17.3804 22.3256 17.1155 22.5894 17.1155 22.9117C17.1155 23.234 17.3804 23.4978 17.7041 23.4978ZM20.8293 21.7982C21.1177 22.2436 21.5002 22.6245 21.9475 22.9117C21.5002 23.1989 21.1177 23.5798 20.8293 24.0252C20.5409 23.5798 20.1583 23.1989 19.711 22.9117C20.1583 22.6245 20.5409 22.2436 20.8293 21.7982ZM36.7496 20.3096C36.6554 20.0811 36.4141 19.9287 36.1669 19.9521C35.9197 19.9697 35.7079 20.1397 35.6431 20.3741C35.5784 20.6085 35.6667 20.8722 35.8668 21.0129C36.0669 21.1535 36.3317 21.1594 36.5377 21.0246C36.7614 20.8722 36.8555 20.5675 36.7496 20.3096ZM26.0321 19.4247H26.5971V19.9873C26.5971 20.3096 26.8619 20.5734 27.1856 20.5734C27.5093 20.5734 27.7742 20.3096 27.7742 19.9873V19.4247H28.3392C28.6629 19.4247 28.9278 19.161 28.9278 18.8386C28.9278 18.5163 28.6629 18.2526 28.3392 18.2526H27.7742V17.69C27.7742 17.3677 27.5093 17.1039 27.1856 17.1039C26.8619 17.1039 26.5971 17.3677 26.5971 17.69V18.2526H26.0321C25.7084 18.2526 25.4435 18.5163 25.4435 18.8386C25.4435 19.161 25.7084 19.4247 26.0321 19.4247Z" fill="#BD1818"/>
</svg>
