<svg width="60" height="60" viewBox="0 0 60 60" fill="none" xmlns="http://www.w3.org/2000/svg">
<rect x="0.5" y="0.5" width="59" height="59" stroke="black"/>
<rect x="3.5" y="3.5" width="53" height="53" stroke="#294D5D"/>
<path d="M41.359 37.002C40.8962 36.1758 40.2047 35.6367 39.319 35.4023C39.1076 35.3438 38.8904 35.3086 38.679 35.2969C38.7076 34.9863 38.719 34.6699 38.719 34.3535C38.719 33.9551 38.6962 33.5508 38.6504 33.1582C40.2276 32.9355 41.4504 31.5879 41.4504 29.9648C41.4504 28.1895 39.9876 26.7422 38.1933 26.7422C38.0162 26.7422 37.8447 26.7539 37.6733 26.7832C38.0447 25.8691 38.2447 24.8789 38.2447 23.8359C38.2447 23.1621 38.159 22.4941 37.9876 21.8438C39.2847 21.2812 40.1476 20.0098 40.1476 18.5742C40.1476 16.6055 38.5247 15 36.5304 15C35.3133 15 34.1876 15.6094 33.5247 16.582C32.4676 16.1016 31.3019 15.8496 30.1304 15.8496C28.959 15.8496 27.799 16.1074 26.7419 16.582C26.079 15.6035 24.9533 15 23.7362 15C21.7419 15 20.119 16.6055 20.119 18.5742C20.119 20.0156 20.9819 21.2871 22.279 21.8438C22.1076 22.4941 22.0219 23.1621 22.0219 23.8359C22.0219 24.8789 22.2276 25.8691 22.5933 26.7832C22.4219 26.7539 22.2504 26.7422 22.0733 26.7422C20.279 26.7422 18.8162 28.1895 18.8162 29.9648C18.8162 31.5879 20.0333 32.9355 21.6162 33.1582C21.5704 33.5566 21.5476 33.9551 21.5476 34.3535C21.5476 34.6758 21.5647 35.0039 21.5933 35.3203C21.5704 35.3203 21.5476 35.3203 21.5247 35.3203C21.2447 35.3203 20.959 35.3555 20.679 35.4316C19.7876 35.666 19.1019 36.2051 18.639 37.0312C17.8333 38.4609 17.8733 40.5762 18.2733 42.041C18.7476 43.7812 20.359 45 22.1819 45C22.2562 45 22.3362 45 22.4104 44.9941C22.4162 44.9941 22.4162 44.9941 22.4219 44.9941C22.4276 44.9941 22.4333 44.9941 22.439 44.9941C22.4447 44.9941 22.4504 44.9941 22.4562 44.9941C23.9533 44.9121 25.2733 44.0039 25.8962 42.6973C27.1819 43.5176 28.6333 43.9453 30.1362 43.9453C31.5704 43.9453 32.9647 43.5527 34.2104 42.7969C34.2333 42.8379 34.2504 42.873 34.2733 42.9141C34.8104 43.8691 35.7019 44.5547 36.7704 44.8359C37.1133 44.9238 37.4619 44.9707 37.8162 44.9707C39.6447 44.9707 41.2504 43.752 41.7247 42.0117C42.119 40.5469 42.1647 38.4316 41.359 37.002ZM21.2619 18.5742C21.2619 17.25 22.3704 16.1719 23.7362 16.1719C24.7133 16.1719 25.599 16.7285 25.999 17.5957C26.0676 17.7422 26.1876 17.8535 26.3362 17.9004C26.4847 17.9531 26.6447 17.9355 26.7819 17.8652C27.8047 17.3145 28.9647 17.0215 30.1362 17.0215C31.3076 17.0215 32.4676 17.3145 33.4904 17.8652C33.6276 17.9414 33.7876 17.9531 33.9362 17.9004C34.0847 17.8477 34.2047 17.7363 34.2733 17.5957C34.6733 16.7285 35.559 16.1719 36.5362 16.1719C37.9019 16.1719 39.0104 17.25 39.0104 18.5742C39.0104 19.5117 38.4562 20.3438 37.6104 20.7363C37.4733 20.4199 37.319 20.1094 37.1419 19.8164C36.9762 19.541 36.6276 19.4531 36.359 19.6172C36.0904 19.7871 36.0047 20.1445 36.1647 20.4199C36.399 20.8125 36.5933 21.2344 36.7419 21.6621C36.7476 21.6738 36.7476 21.6855 36.7533 21.6914C36.9876 22.377 37.1019 23.0977 37.1019 23.8301C37.1019 27.3984 34.279 30.334 30.7076 30.6211V26.2617C31.5362 25.9688 32.119 25.0898 32.119 24.3105C32.119 23.8828 31.9247 22.8926 30.1362 22.8926C28.3476 22.8926 28.1533 23.8828 28.1533 24.3105C28.1533 25.0898 28.7362 25.9688 29.5647 26.2617V30.6211C25.9876 30.334 23.1704 27.3984 23.1704 23.8301C23.1704 23.0859 23.2904 22.3535 23.5304 21.6562C23.5819 21.498 23.5704 21.3281 23.4962 21.1816C23.4162 21.0352 23.2847 20.9297 23.1304 20.8945C22.0276 20.6309 21.2619 19.6758 21.2619 18.5742ZM30.1362 35.1621C29.8219 35.1621 29.5647 35.4258 29.5647 35.748V37.5234C27.6276 37.2363 26.1362 35.5254 26.1362 33.4629C26.1362 32.625 26.3876 31.8164 26.8447 31.1309C27.8504 31.5703 28.9647 31.8164 30.1362 31.8164C31.3076 31.8164 32.4219 31.5703 33.4276 31.1309C33.8847 31.8105 34.1362 32.625 34.1362 33.4629C34.1362 35.5254 32.6447 37.2363 30.7076 37.5234V35.748C30.7076 35.4258 30.4504 35.1621 30.1362 35.1621ZM29.2962 24.3164C29.2962 24.2578 29.2962 24.2344 29.3933 24.1875C29.479 24.1406 29.6962 24.0703 30.1419 24.0703C30.5876 24.0703 30.799 24.1465 30.8904 24.1875C30.9876 24.2344 30.9876 24.2578 30.9876 24.3164C30.9876 24.6445 30.5933 25.1953 30.1476 25.1953C29.6847 25.1953 29.2962 24.6504 29.2962 24.3164ZM24.7419 42.3574C24.359 43.0371 23.719 43.5293 22.9476 43.7285C22.759 43.7754 22.5704 43.8105 22.3819 43.8223C22.319 43.8281 22.2562 43.8281 22.1933 43.8281C20.879 43.8281 19.7247 42.9609 19.3876 41.7246C19.0619 40.541 19.0047 38.748 19.639 37.6172C19.9476 37.0664 20.3876 36.7207 20.9762 36.5684C21.1647 36.5215 21.3533 36.4922 21.5362 36.4922C21.7304 36.4922 21.919 36.5215 22.0962 36.5684C22.1076 36.5684 22.1133 36.5742 22.1247 36.5742C23.599 37.0078 24.6562 38.9707 25.0047 40.2656C25.1933 40.9746 25.0962 41.7188 24.7419 42.3574ZM33.9019 39.9258C33.7419 40.5 33.719 41.0918 33.8219 41.666C32.7019 42.3926 31.4333 42.7734 30.1362 42.7734C28.7362 42.7734 27.3876 42.334 26.2104 41.5078C26.2733 40.998 26.239 40.4707 26.1019 39.9609C25.6847 38.4375 24.5133 36.3047 22.7762 35.5781C22.7247 35.1738 22.6962 34.7637 22.6962 34.3535C22.6962 33.7969 22.7419 33.2402 22.839 32.7012C22.8676 32.5254 22.8219 32.3379 22.7019 32.2031C22.5819 32.0684 22.4104 31.998 22.239 32.0098C22.1876 32.0156 22.1362 32.0156 22.079 32.0156C20.9133 32.0156 19.9647 31.0957 19.9647 29.9648C19.9647 28.834 20.9133 27.9141 22.079 27.9141C22.639 27.9141 23.159 28.125 23.559 28.5C24.1704 29.332 24.9362 30.041 25.8219 30.5918C25.2847 31.4414 24.9933 32.4375 24.9933 33.4629C24.9933 36.3691 27.3019 38.7363 30.1362 38.7363C32.9704 38.7363 35.279 36.3691 35.279 33.4629C35.279 32.4375 34.9876 31.4414 34.4504 30.5918C35.3362 30.041 36.1019 29.332 36.7133 28.5C37.1133 28.1191 37.6333 27.9141 38.1933 27.9141C39.359 27.9141 40.3076 28.834 40.3076 29.9648C40.3076 31.0957 39.359 32.0156 38.1933 32.0156C38.1419 32.0156 38.0904 32.0156 38.0333 32.0098C37.8562 31.998 37.6847 32.0684 37.5704 32.2031C37.4504 32.3379 37.4047 32.5195 37.4333 32.7012C37.5304 33.2461 37.5762 33.7969 37.5762 34.3535C37.5762 34.7168 37.5533 35.0801 37.5133 35.4375C35.6162 36.0352 34.3362 38.3203 33.9019 39.9258ZM40.6219 41.6953C40.2847 42.9316 39.1304 43.7988 37.8162 43.7988C37.559 43.7988 37.3076 43.7637 37.0562 43.6992C36.2847 43.4941 35.6504 43.0078 35.2619 42.3281C34.9019 41.6895 34.8104 40.9512 35.0047 40.2422C35.3762 38.877 36.5304 36.7734 38.1247 36.4922C38.1304 36.4922 38.1362 36.4922 38.1419 36.4863C38.2504 36.4688 38.359 36.457 38.4733 36.457C38.6562 36.457 38.8447 36.4805 39.0333 36.5332C39.6219 36.6855 40.0562 37.0312 40.3704 37.582C41.0047 38.7188 40.9476 40.5059 40.6219 41.6953ZM33.7304 21.6387C33.2047 21.6387 32.7704 22.0605 32.7704 22.5762C32.7704 23.0918 33.199 23.5137 33.7304 23.5137C34.2619 23.5137 34.6904 23.0918 34.6904 22.5762C34.6847 22.0605 34.2562 21.6387 33.7304 21.6387ZM26.5419 21.6387C26.0162 21.6387 25.5819 22.0605 25.5819 22.5762C25.5819 23.0918 26.0104 23.5137 26.5419 23.5137C27.0676 23.5137 27.5019 23.0918 27.5019 22.5762C27.5019 22.0605 27.0676 21.6387 26.5419 21.6387ZM35.9933 18.3164L35.9819 18.3047C35.7533 18.082 35.3933 18.082 35.1704 18.3164C34.9533 18.5508 34.9533 18.9199 35.1819 19.1426L35.1876 19.1484C35.2962 19.2598 35.4447 19.3184 35.5876 19.3184C35.7362 19.3184 35.879 19.2598 35.9933 19.1484C36.2162 18.9141 36.2162 18.5449 35.9933 18.3164ZM30.1362 33.4629C29.8219 33.4629 29.5647 33.7266 29.5647 34.0488V34.0605C29.5647 34.3828 29.8219 34.6465 30.1362 34.6465C30.4504 34.6465 30.7076 34.3828 30.7076 34.0605V34.0488C30.7076 33.7266 30.4504 33.4629 30.1362 33.4629Z" fill="#BD1818"/>
</svg>
