<svg width="60" height="60" viewBox="0 0 60 60" fill="none" xmlns="http://www.w3.org/2000/svg">
<rect x="0.5" y="0.5" width="59" height="59" stroke="black"/>
<rect x="3.5" y="3.5" width="53" height="53" stroke="#294D5D"/>
<path d="M35.6836 23.2617H24.1992C23.877 23.2617 23.6133 23.5254 23.6133 23.8477C23.6133 24.1699 23.877 24.4336 24.1992 24.4336H35.6836C36.2988 24.4336 36.7969 24.9316 36.7969 25.5469V37.7344C36.7969 38.3496 36.2988 38.8477 35.6836 38.8477H19.6289C19.0137 38.8477 18.5156 38.3496 18.5156 37.7344V25.5469C18.5156 24.9316 19.0137 24.4336 19.6289 24.4336H20.1562C20.4785 24.4336 20.7422 24.1699 20.7422 23.8477C20.7422 23.5254 20.4785 23.2617 20.1562 23.2617H19.6289C18.3691 23.2617 17.3438 24.2871 17.3438 25.5469V37.7344C17.3438 38.9941 18.3691 40.0195 19.6289 40.0195H35.6836C36.9434 40.0195 37.9688 38.9941 37.9688 37.7344V25.5469C37.9688 24.2871 36.9434 23.2617 35.6836 23.2617ZM44.4141 20.625H42.5977C42.2754 20.625 42.0117 20.8887 42.0117 21.2109C42.0117 21.5332 42.2754 21.7969 42.5977 21.7969H43.8281V41.4844H16.1719V21.7969H38.2207C38.543 21.7969 38.8066 21.5332 38.8066 21.2109C38.8066 20.8887 38.543 20.625 38.2207 20.625H32.2031L34.4883 18.3398C34.7227 18.4512 34.9805 18.5156 35.2559 18.5156C36.2227 18.5156 37.0137 17.7246 37.0137 16.7578C37.0137 15.791 36.2227 15 35.2559 15C34.2891 15 33.498 15.791 33.498 16.7578C33.498 17.0273 33.5566 17.2793 33.668 17.5078L30.7207 20.4492L27.7793 17.5078C27.8848 17.2793 27.9492 17.0273 27.9492 16.7578C27.9492 15.791 27.1582 15 26.1914 15C25.2246 15 24.4336 15.791 24.4336 16.7578C24.4336 17.7246 25.2246 18.5156 26.1914 18.5156C26.4668 18.5156 26.7246 18.4512 26.959 18.3398L29.2441 20.625H15.5859C15.2637 20.625 15 20.8887 15 21.2109V42.0703C15 42.3926 15.2637 42.6562 15.5859 42.6562H18.2871V44.4141C18.2871 44.7363 18.5508 45 18.873 45H41.1387C41.4609 45 41.7246 44.7363 41.7246 44.4141V42.6562H44.4141C44.7363 42.6562 45 42.3926 45 42.0703V21.2109C45 20.8887 44.7363 20.625 44.4141 20.625ZM35.25 16.1719C35.5723 16.1719 35.8359 16.4355 35.8359 16.7578C35.8359 17.0801 35.5723 17.3438 35.25 17.3438C34.9277 17.3438 34.6641 17.0801 34.6641 16.7578C34.6641 16.4355 34.9277 16.1719 35.25 16.1719ZM26.1914 17.3438C25.8691 17.3438 25.6055 17.0801 25.6055 16.7578C25.6055 16.4355 25.8691 16.1719 26.1914 16.1719C26.5137 16.1719 26.7773 16.4355 26.7773 16.7578C26.7773 17.0801 26.5137 17.3438 26.1914 17.3438ZM40.5527 43.8281H19.459V42.6562H40.5527V43.8281ZM40.8984 26.6895C39.7559 26.6895 38.8301 27.6152 38.8301 28.7578C38.8301 29.9004 39.7559 30.8262 40.8984 30.8262C42.041 30.8262 42.9668 29.9004 42.9668 28.7578C42.9668 27.6152 42.041 26.6895 40.8984 26.6895ZM40.8984 29.6543C40.4062 29.6543 40.002 29.25 40.002 28.7578C40.002 28.2656 40.4062 27.8613 40.8984 27.8613C41.3906 27.8613 41.7949 28.2656 41.7949 28.7578C41.7949 29.25 41.3906 29.6543 40.8984 29.6543ZM33.0879 30.6211C33.0879 30.6152 33.0879 30.6094 33.082 30.6035C32.5957 28.0488 30.3457 26.1152 27.6562 26.1152C24.9668 26.1152 22.7109 28.0547 22.2305 30.6035C22.2305 30.6094 22.2305 30.6152 22.2246 30.6211C22.1602 30.9492 22.1309 31.2891 22.1309 31.6406C22.1309 33.4395 22.9922 35.0391 24.3281 36.0469C24.3398 36.0527 24.3457 36.0645 24.3574 36.0703C24.375 36.082 24.3926 36.0938 24.4102 36.1055C25.3242 36.7734 26.4434 37.166 27.6562 37.166C28.8691 37.166 29.9883 36.7734 30.9023 36.1113C30.9199 36.0996 30.9316 36.0938 30.9492 36.082C30.9668 36.0703 30.9785 36.0586 30.9961 36.0469C32.3262 35.0391 33.1875 33.4395 33.1875 31.6465C33.1816 31.2949 33.1465 30.9492 33.0879 30.6211ZM28.2422 27.3281C29.8594 27.5449 31.2012 28.6582 31.7461 30.1465H29.877L28.2422 28.957V27.3281ZM29.1738 31.084L28.5938 32.8711H26.7188L26.1387 31.084L27.6562 29.9824L29.1738 31.084ZM27.0703 27.3281V28.957L25.4355 30.1406H23.5664C24.1113 28.6523 25.4531 27.5449 27.0703 27.3281ZM23.3027 31.6406C23.3027 31.5293 23.3086 31.4238 23.3145 31.3184H24.9785L25.6582 33.416L24.6211 34.7637C23.8066 33.9668 23.3027 32.8652 23.3027 31.6406ZM27.6562 35.9941C26.9004 35.9941 26.1855 35.8008 25.5645 35.4609L26.6543 34.043H28.7051L29.7539 35.4551C29.1328 35.7949 28.418 35.9941 27.6562 35.9941ZM30.6973 34.752L29.666 33.3633L30.334 31.3125H31.998C32.0039 31.418 32.0098 31.5293 32.0098 31.6348C32.0098 32.8594 31.5059 33.9609 30.6973 34.752ZM40.8984 32.2383C39.9316 32.2383 39.1406 33.0293 39.1406 33.9961V38.2148C39.1406 39.1816 39.9316 39.9727 40.8984 39.9727C41.8652 39.9727 42.6562 39.1816 42.6562 38.2148V33.9961C42.6562 33.0293 41.8652 32.2383 40.8984 32.2383ZM41.4844 38.2148C41.4844 38.5371 41.2207 38.8008 40.8984 38.8008C40.5762 38.8008 40.3125 38.5371 40.3125 38.2148V33.9961C40.3125 33.6738 40.5762 33.4102 40.8984 33.4102C41.2207 33.4102 41.4844 33.6738 41.4844 33.9961V38.2148ZM40.7871 20.7949C40.6758 20.6836 40.5293 20.625 40.3711 20.625C40.2129 20.625 40.0664 20.6895 39.9551 20.7949C39.8438 20.9062 39.7852 21.0527 39.7852 21.2109C39.7852 21.3633 39.8496 21.5156 39.9551 21.627C40.0664 21.7383 40.2129 21.7969 40.3711 21.7969C40.5293 21.7969 40.6758 21.7324 40.7871 21.627C40.8984 21.5156 40.957 21.3691 40.957 21.2109C40.957 21.0527 40.8926 20.9062 40.7871 20.7949ZM22.4473 23.4316C22.3359 23.3203 22.1895 23.2617 22.0312 23.2617C21.873 23.2617 21.7266 23.3262 21.6152 23.4316C21.5039 23.543 21.4453 23.6895 21.4453 23.8477C21.4453 24 21.5098 24.1523 21.6152 24.2637C21.7266 24.375 21.873 24.4336 22.0312 24.4336C22.1895 24.4336 22.3359 24.3691 22.4473 24.2637C22.5586 24.1523 22.6172 24.0059 22.6172 23.8477C22.6172 23.6895 22.5527 23.543 22.4473 23.4316Z" fill="#BD1818"/>
</svg>
