<svg width="60" height="60" viewBox="0 0 60 60" fill="none" xmlns="http://www.w3.org/2000/svg">
<rect x="0.5" y="0.5" width="59" height="59" stroke="black"/>
<rect x="3.5" y="3.5" width="53" height="53" stroke="#294D5D"/>
<path d="M39.5266 34.3548C38.7935 34.3548 38.0971 34.6496 37.5718 35.1828C37.0464 35.7222 36.7532 36.4247 36.7532 37.1774C36.7532 37.9301 37.0403 38.6326 37.5718 39.172C38.1032 39.7052 38.7935 40 39.5266 40C41.0293 40 42.2511 38.733 42.2511 37.1774C42.2511 35.6219 41.0293 34.3548 39.5266 34.3548ZM39.5266 38.7455C38.6836 38.7455 37.975 38.0305 37.975 37.1774C37.975 36.3244 38.6836 35.6093 39.5266 35.6093C40.3574 35.6093 41.0293 36.3118 41.0293 37.1774C41.0293 38.043 40.3574 38.7455 39.5266 38.7455ZM40.2352 24.9525C40.1252 24.8459 39.9786 24.7894 39.8259 24.7894H36.6921C36.3561 24.7894 36.0812 25.0717 36.0812 25.4167V30.56C36.0812 30.905 36.3561 31.1873 36.6921 31.1873H41.6646C42.0006 31.1873 42.2755 30.905 42.2755 30.56V27.1165C42.2755 26.9409 42.2022 26.7715 42.0739 26.6523L40.2352 24.9525ZM41.0538 29.9328H37.303V26.0376H39.5877L41.0538 27.3925V29.9328ZM24.609 34.3548C23.876 34.3548 23.1796 34.6496 22.6542 35.1828C22.1289 35.7222 21.8357 36.4247 21.8357 37.1774C21.8357 37.9301 22.1228 38.6326 22.6542 39.172C23.1857 39.7052 23.876 40 24.609 40C26.1118 40 27.3335 38.733 27.3335 37.1774C27.3335 35.6219 26.1118 34.3548 24.609 34.3548ZM24.609 38.7455C23.766 38.7455 23.0574 38.0305 23.0574 37.1774C23.0574 36.3244 23.766 35.6093 24.609 35.6093C25.4398 35.6093 26.1118 36.3118 26.1118 37.1774C26.1118 38.043 25.4398 38.7455 24.609 38.7455ZM20.5345 35.1263H19.3067V33.4579C19.3067 33.1129 19.0318 32.8306 18.6958 32.8306C18.3598 32.8306 18.0849 33.1129 18.0849 33.4579V35.7536C18.0849 36.0986 18.3598 36.3808 18.6958 36.3808H20.5345C20.8705 36.3808 21.1454 36.0986 21.1454 35.7536C21.1454 35.4086 20.8705 35.1263 20.5345 35.1263ZM23.6316 31.7079C23.6316 31.3629 23.3568 31.0806 23.0208 31.0806H15.6109C15.2749 31.0806 15 31.3629 15 31.7079C15 32.0529 15.2749 32.3351 15.6109 32.3351H23.0208C23.3568 32.3351 23.6316 32.0591 23.6316 31.7079ZM16.8509 29.4435L24.2608 29.4875C24.5968 29.4875 24.8717 29.2115 24.8778 28.8665C24.8839 28.5152 24.609 28.233 24.2731 28.233L16.8632 28.1891C16.8571 28.1891 16.8571 28.1891 16.8571 28.1891C16.5211 28.1891 16.2462 28.4651 16.2462 28.81C16.2401 29.1613 16.515 29.4435 16.8509 29.4435ZM18.0971 26.5959H25.507C25.843 26.5959 26.1179 26.3136 26.1179 25.9686C26.1179 25.6237 25.843 25.3414 25.507 25.3414H18.0971C17.7611 25.3414 17.4863 25.6237 17.4863 25.9686C17.4863 26.3136 17.7611 26.5959 18.0971 26.5959ZM44.774 25.7491L40.4001 22.0296C40.2902 21.9355 40.1558 21.8853 40.0092 21.8853H34.8656V19.6272C34.8656 19.2823 34.5907 19 34.2547 19H18.6958C18.3598 19 18.0849 19.2823 18.0849 19.6272V24.2186C18.0849 24.5636 18.3598 24.8459 18.6958 24.8459C19.0318 24.8459 19.3067 24.5636 19.3067 24.2186V20.2545H33.65V35.1263H28.6408C28.3048 35.1263 28.0299 35.4086 28.0299 35.7536C28.0299 36.0986 28.3048 36.3808 28.6408 36.3808H36.0996C36.4356 36.3808 36.7104 36.0986 36.7104 35.7536C36.7104 35.4086 36.4356 35.1263 36.0996 35.1263H34.8717V23.1398H39.7954L43.7783 26.5269L43.7355 35.1138H43.1002C42.7642 35.1138 42.4893 35.3961 42.4893 35.741C42.4893 36.086 42.7642 36.3683 43.1002 36.3683H44.3403C44.6762 36.3683 44.9511 36.0923 44.9511 35.7473L45 26.2383C44.9939 26.0502 44.9145 25.8683 44.774 25.7491Z" fill="#BD1818"/>
</svg>
