<svg width="60" height="60" viewBox="0 0 60 60" fill="none" xmlns="http://www.w3.org/2000/svg">
<rect x="0.5" y="0.5" width="59" height="59" stroke="black"/>
<rect x="3.5" y="3.5" width="53" height="53" stroke="#294D5D"/>
<path d="M41.7192 23.5342C42.0538 23.0593 42.0917 22.4656 41.8202 21.9532C41.5298 21.4033 40.9426 21.0658 40.2923 21.0658H39.6862C40.065 20.6596 40.4122 20.2159 40.7027 19.7597C41.4477 18.5849 41.7192 17.4476 41.4856 16.4539C41.2141 15.3041 40.2544 14.3542 39.1053 14.0855C38.0446 13.8355 36.9523 14.1417 36.182 14.8979C36.1252 14.9541 36.0494 14.9854 35.9799 14.9854C35.9042 14.9854 35.8284 14.9541 35.7716 14.8979C35.0013 14.1417 33.909 13.8355 32.8483 14.0855C31.6992 14.3542 30.7395 15.3041 30.468 16.4539C30.0955 18.0162 31.0236 19.7098 32.2674 21.0658H31.4403C31.0931 21.0658 30.8089 21.347 30.8089 21.6907C30.8089 22.0344 31.0931 22.3157 31.4403 22.3157H35.3423V22.9156C35.3423 23.1031 35.4306 23.2843 35.5759 23.403C35.7274 23.5217 35.9168 23.5655 36.1062 23.528C36.6871 23.403 37.5079 22.9593 38.3287 22.3157H40.2923C40.507 22.3157 40.6459 22.4281 40.7027 22.5344C40.7532 22.6344 40.7469 22.7281 40.6837 22.8218L38.8022 25.5027H26.787L25.9157 22.2907C26.1872 22.2219 26.3829 21.9782 26.3829 21.6845C26.3829 21.3408 26.0988 21.0596 25.7516 21.0596H25.5811L23.7943 14.4667C23.7501 14.3042 23.6427 14.173 23.4975 14.0855C23.3523 14.0043 23.1818 13.9793 23.0177 14.023L20.5869 14.6729C20.2522 14.7604 20.0502 15.1041 20.1386 15.4353L21.6602 21.0596H19.7092C19.0273 21.0596 18.4275 21.422 18.1497 22.0032C17.8972 22.5344 17.9666 23.153 18.3391 23.6155L28.1003 37.5511V41.5069L25.4043 42.2692C24.4067 42.5505 23.6806 43.4253 23.6806 44.344V45.3751C23.6806 45.7188 23.9648 46 24.312 46H35.6769C36.0241 46 36.3083 45.7188 36.3083 45.3751V44.3502C36.3083 43.4316 35.5822 42.5567 34.5846 42.2755L31.8949 41.5131V37.5574L41.7192 23.5342ZM36.5987 21.9782V21.6907C36.5987 21.347 36.3146 21.0658 35.9673 21.0658H34.0669C32.722 19.9222 31.3456 18.1537 31.6802 16.7414C31.8444 16.054 32.4379 15.4666 33.1198 15.3041C33.7575 15.1541 34.4078 15.3353 34.8624 15.7853C35.1592 16.079 35.5443 16.2352 35.961 16.2415C36.3714 16.2415 36.7565 16.079 37.0533 15.7853C37.5079 15.3353 38.1582 15.1541 38.7959 15.3041C39.4841 15.4666 40.0776 16.054 40.2355 16.7414C40.4312 17.5725 40.0082 18.4787 39.6167 19.0911C38.8275 20.3534 37.5331 21.4408 36.5987 21.9782ZM30.3985 37.4949C30.3985 37.5011 30.3922 37.5011 30.3922 37.5074C30.3165 37.6199 30.1712 37.6949 30.0008 37.6949C29.8366 37.6949 29.6914 37.6261 29.6093 37.5136L22.0769 26.7526H37.9246L30.3985 37.4949ZM24.1731 25.5027L23.3081 22.3157H24.6151L25.4801 25.509H24.1731V25.5027ZM21.5213 15.7165L22.7399 15.3978L24.2741 21.0658H22.9672L21.5213 15.7165ZM19.3367 22.8468C19.2357 22.7281 19.261 22.6156 19.2925 22.5406C19.3178 22.4844 19.4251 22.3094 19.7092 22.3094H21.9948L22.8661 25.5027H21.1993L19.3683 22.8906C19.3557 22.8781 19.3493 22.8593 19.3367 22.8468ZM34.2436 43.4753C34.6856 43.6003 35.0455 43.994 35.0455 44.3502V44.7502H24.9497V44.3502C24.9497 43.994 25.3096 43.6003 25.7516 43.4753L28.9085 42.5817C29.18 42.5067 29.3694 42.263 29.3694 41.9818V38.826C29.5651 38.9009 29.7798 38.9384 30.0008 38.9384C30.0071 38.9384 30.0134 38.9384 30.0134 38.9384C30.2281 38.9384 30.4364 38.8947 30.6321 38.826V41.9818C30.6321 42.263 30.8216 42.5067 31.0931 42.5817L34.2436 43.4753ZM30.6006 33.8141C31.8065 33.8141 32.7852 32.8455 32.7852 31.6519C32.7852 30.4583 31.8065 29.4897 30.6006 29.4897C29.3946 29.4897 28.416 30.4583 28.416 31.6519C28.416 32.8393 29.4009 33.8141 30.6006 33.8141ZM30.6006 30.7395C31.1057 30.7395 31.5224 31.1457 31.5224 31.6519C31.5224 32.1581 31.112 32.5643 30.6006 32.5643C30.0955 32.5643 29.6788 32.1581 29.6788 31.6519C29.6788 31.1457 30.0955 30.7395 30.6006 30.7395ZM26.5092 29.8272C26.8565 29.8272 27.1406 29.5459 27.1406 29.2022C27.1406 28.8585 26.8565 28.5773 26.5092 28.5773C26.162 28.5773 25.8778 28.8585 25.8778 29.2022C25.8778 29.5459 26.162 29.8272 26.5092 29.8272ZM33.4481 28.8648C33.7954 28.8648 34.0795 28.5836 34.0795 28.2399C34.0795 27.8962 33.7954 27.615 33.4481 27.615C33.1008 27.615 32.8167 27.8962 32.8167 28.2399C32.8167 28.5898 33.1008 28.8648 33.4481 28.8648ZM28.5928 22.3157C28.94 22.3157 29.2242 22.0344 29.2242 21.6907C29.2242 21.347 28.94 21.0658 28.5928 21.0658C28.2455 21.0658 27.9614 21.347 27.9614 21.6907C27.9614 22.0344 28.2455 22.3157 28.5928 22.3157Z" fill="#BD1818"/>
</svg>
