<svg width="60" height="60" viewBox="0 0 60 60" fill="none" xmlns="http://www.w3.org/2000/svg">
<rect x="0.5" y="0.5" width="59" height="59" stroke="black"/>
<rect x="3.5" y="3.5" width="53" height="53" stroke="#294D5D"/>
<path d="M35.0571 40.9676C35.0203 40.9676 34.9773 40.9615 34.9405 40.9555C34.9037 40.9494 34.8608 40.9373 34.824 40.9191C34.7872 40.901 34.7504 40.8828 34.7197 40.8646C34.6891 40.8404 34.6523 40.8162 34.6277 40.7859C34.5112 40.6709 34.4499 40.5195 34.4499 40.3561C34.4499 40.3137 34.456 40.2773 34.4621 40.235C34.4683 40.1986 34.4805 40.1562 34.4989 40.1199C34.5173 40.0836 34.5357 40.0473 34.5541 40.017C34.5787 39.9867 34.6032 39.9504 34.6277 39.9262C34.6584 39.8959 34.6891 39.8717 34.7197 39.8535C34.7504 39.8293 34.7872 39.8111 34.824 39.799C34.8608 39.7809 34.8976 39.7748 34.9405 39.7627C35.0203 39.7445 35.1 39.7445 35.1797 39.7627C35.2165 39.7687 35.2595 39.7809 35.2963 39.799C35.3331 39.8172 35.3699 39.8354 35.4005 39.8535C35.4373 39.8777 35.468 39.902 35.4925 39.9262C35.5232 39.9564 35.5477 39.9867 35.5723 40.017C35.5968 40.0533 35.6152 40.0836 35.6275 40.1199C35.6397 40.1562 35.652 40.1926 35.6643 40.235C35.6704 40.2773 35.6765 40.3137 35.6765 40.3561C35.6765 40.5135 35.6091 40.6709 35.4987 40.7859C35.468 40.8162 35.4373 40.8404 35.4067 40.8646C35.376 40.8889 35.3392 40.907 35.3024 40.9191C35.2656 40.9373 35.2288 40.9434 35.1859 40.9555C35.1368 40.9676 35.0939 40.9676 35.0571 40.9676ZM26.9856 38.4791C26.6483 38.4791 26.3723 38.2066 26.3723 37.8736V37.3469C26.3723 37.0139 26.6483 36.7414 26.9856 36.7414C27.3229 36.7414 27.5989 37.0139 27.5989 37.3469V37.8736C27.5989 38.2127 27.3229 38.4791 26.9856 38.4791ZM26.9856 41.4762C26.6483 41.4762 26.3723 41.2037 26.3723 40.8707V40.3439C26.3723 40.0109 26.6483 39.7385 26.9856 39.7385C27.3229 39.7385 27.5989 40.0109 27.5989 40.3439V40.8707C27.5989 41.2098 27.3229 41.4762 26.9856 41.4762ZM27.3352 31.3709C26.912 31.3709 26.4888 31.2135 26.1637 30.8926C25.9245 30.6564 25.9245 30.275 26.1637 30.0389C26.4029 29.8027 26.7893 29.8027 27.0285 30.0389C27.1083 30.1176 27.2187 30.16 27.3291 30.16C27.4395 30.16 27.5499 30.1176 27.6296 30.0389C27.8688 29.8027 28.2552 29.8027 28.4944 30.0389C28.7336 30.275 28.7336 30.6564 28.4944 30.8926C28.1816 31.2135 27.7584 31.3709 27.3352 31.3709ZM29.3837 28.0711C29.0464 28.0711 28.7704 27.7986 28.7704 27.4656C28.7704 26.9207 29.2181 26.4787 29.7763 26.4787H30.3405C30.6779 26.4787 30.9539 26.7512 30.9539 27.0842C30.9539 27.4172 30.6779 27.6896 30.3405 27.6896H29.9603C29.8621 27.9076 29.6413 28.0711 29.3837 28.0711ZM25.2867 28.0711C25.0291 28.0711 24.8021 27.9137 24.7163 27.6896H24.336C23.9987 27.6896 23.7227 27.4172 23.7227 27.0842C23.7227 26.7512 23.9987 26.4787 24.336 26.4787H24.9003C25.4523 26.4787 25.9 26.9207 25.9 27.4656C25.9 27.7986 25.624 28.0711 25.2867 28.0711ZM37.3877 27.8047C37.0504 27.8047 36.7744 28.0771 36.7744 28.4102V44.3945C36.7744 44.7275 37.0504 45 37.3877 45C39.0928 45 40.4789 43.6316 40.4789 41.9484V40.1441C41.356 39.902 42 39.1088 42 38.1703V32.3578C42 29.8451 39.9331 27.8047 37.3877 27.8047ZM39.2523 41.9484C39.2523 42.7537 38.7309 43.4379 38.0011 43.6861V40.2168H39.2523V41.9484ZM40.7733 38.1703C40.7733 38.6305 40.3931 39.0119 39.9208 39.0119H38.0011V29.0701C39.5773 29.3547 40.7733 30.723 40.7733 32.3578V38.1703ZM35.0571 38.2975C35.3944 38.2975 35.6704 38.025 35.6704 37.692V36.6809C35.6704 35.4881 34.6891 34.5193 33.4808 34.5193H29.3899L29.2979 33.8654C29.7701 33.6717 30.4693 33.3266 31.1501 32.8604C32.5731 31.8795 33.3459 30.717 33.3888 29.4939C34.2107 29.2396 34.8117 28.4768 34.8117 27.5807C34.8117 26.7148 34.2597 25.958 33.5176 25.6855V20.7812C33.9592 20.2666 34.2229 19.6006 34.2229 18.874C34.2229 17.2453 32.8797 15.9193 31.2299 15.9193C31.0029 15.9193 30.7821 15.9436 30.5675 15.992C29.9603 14.7932 28.6968 14 27.3045 14C25.9245 14 24.6611 14.7932 24.0477 15.9859C23.8453 15.9436 23.6429 15.9254 23.4344 15.9254C21.7845 15.9254 20.4413 17.2514 20.4413 18.8801C20.4413 19.6066 20.7051 20.2727 21.1467 20.7812V25.6916C20.4107 25.9641 19.8587 26.7209 19.8587 27.5867C19.8587 28.4828 20.4536 29.2457 21.2816 29.5C21.3245 30.7291 22.0973 31.8916 23.5203 32.8725C24.2011 33.3387 24.9003 33.6777 25.3725 33.8775L25.2805 34.5314H21.1896C19.9813 34.5254 19 35.4941 19 36.6869V44.3945C19 44.7275 19.276 45 19.6133 45H35.0571C35.3944 45 35.6704 44.7275 35.6704 44.3945V42.9596C35.6704 42.6266 35.3944 42.3541 35.0571 42.3541C34.7197 42.3541 34.4437 42.6266 34.4437 42.9596V43.7891H27.5989V43.3471C27.5989 43.0141 27.3229 42.7416 26.9856 42.7416C26.6483 42.7416 26.3723 43.0141 26.3723 43.3471V43.7891H25.6117V35.7363H33.4747C34.0083 35.7363 34.4376 36.1602 34.4376 36.6869V37.698C34.4437 38.0311 34.7136 38.2975 35.0571 38.2975ZM28.4699 32.8846H28.476C28.476 32.8846 28.476 32.8846 28.4699 32.8846ZM30.6288 24.3959H32.2848V25.7279C31.5304 25.5947 30.9048 25.0861 30.6288 24.3959ZM23.4405 17.1303C23.692 17.1303 23.9312 17.1787 24.1581 17.2816C24.3176 17.3543 24.5016 17.3482 24.6611 17.2816C24.8205 17.215 24.9432 17.0697 24.9923 16.9062C25.2989 15.9072 26.2496 15.2109 27.3045 15.2109C28.3717 15.2109 29.3224 15.9133 29.6229 16.9244C29.672 17.0939 29.7947 17.2332 29.9603 17.3059C30.1259 17.3785 30.3099 17.3785 30.4755 17.2998C30.7147 17.1908 30.9661 17.1363 31.2299 17.1363C32.2051 17.1363 32.9963 17.9174 32.9963 18.8801C32.9963 19.8428 32.2051 20.6238 31.2299 20.6238C30.868 20.6238 30.5184 20.5148 30.2179 20.309C29.9419 20.1152 29.5555 20.1818 29.3653 20.4604C29.1691 20.7328 29.2365 21.1143 29.5187 21.302C30.0216 21.6531 30.6165 21.8348 31.236 21.8348C31.6101 21.8348 31.9659 21.7682 32.2971 21.641V23.185H22.3795V21.641C22.7107 21.7621 23.0664 21.8348 23.4405 21.8348C24.1275 21.8348 24.7776 21.6047 25.2989 21.199C25.8877 21.6107 26.5931 21.8348 27.3352 21.8348C27.6725 21.8348 27.9485 21.5623 27.9485 21.2293C27.9485 20.8963 27.6725 20.6238 27.3352 20.6238C26.7219 20.6238 26.1392 20.3877 25.7037 19.9578C25.5811 19.8367 25.4155 19.7701 25.2437 19.7822C25.072 19.7883 24.9125 19.867 24.8021 20.0002C24.4709 20.3998 23.9741 20.6238 23.4467 20.6238C22.4715 20.6238 21.6803 19.8428 21.6803 18.8801C21.6741 17.9174 22.4653 17.1303 23.4405 17.1303ZM22.3795 24.3959H24.0355C23.7595 25.0861 23.1339 25.6008 22.3795 25.7279V24.3959ZM26.1883 32.8846H26.1944H26.1883ZM20.2267 36.6869C20.2267 36.1662 20.656 35.7363 21.1896 35.7363H24.3912V43.7891H20.2267V36.6869ZM26.5195 34.5254L26.6605 33.5627C26.7035 33.2539 26.5072 32.9633 26.2005 32.8906C25.7037 32.7514 22.5083 31.3951 22.5083 29.391V28.9854C22.5083 28.6523 22.2323 28.3799 21.8949 28.3799C21.4533 28.3799 21.0915 28.0227 21.0915 27.5867C21.0915 27.2779 21.2632 27.0236 21.4717 26.8904C21.5576 26.9389 21.6619 26.9691 21.7723 26.9691H22.0237C23.6123 26.9691 24.9677 25.8793 25.3235 24.3959H29.3469C29.7027 25.8732 31.0581 26.9691 32.6467 26.9691H32.8981C33.0085 26.9691 33.1128 26.9389 33.1987 26.8904C33.4072 27.0236 33.5789 27.284 33.5789 27.5867C33.5789 28.0227 33.2171 28.3799 32.7755 28.3799C32.4381 28.3799 32.1621 28.6523 32.1621 28.9854V29.391C32.1621 31.3891 28.9667 32.7453 28.4699 32.8906C28.1632 32.9633 27.9669 33.2539 28.0099 33.5627L28.1509 34.5254H26.5195Z" fill="#BD1818"/>
</svg>
