<svg width="60" height="30" viewBox="0 0 60 30" fill="none" xmlns="http://www.w3.org/2000/svg">
<path d="M21.8689 20.6924C21.8423 20.6924 21.8158 20.6924 21.8158 20.6924C21.8158 20.6655 21.8158 20.6385 21.8158 20.6115C21.8158 20.2068 21.5235 19.964 21.2843 19.964C21.0186 19.964 20.7529 20.2338 20.7529 20.6115C20.7529 20.6385 20.7529 20.6655 20.7529 20.6924C20.7263 20.6924 20.6997 20.6924 20.6732 20.6924C20.3012 20.6924 20.0354 20.9892 20.0354 21.232C20.0354 21.4748 20.248 21.7716 20.6732 21.7716C20.6997 21.7716 20.6997 21.7716 20.7263 21.7716C20.7263 21.7986 20.7263 21.8255 20.7263 21.8525C20.7263 22.2302 21.0186 22.5 21.2578 22.5C21.4969 22.5 21.7892 22.2842 21.7892 21.8525C21.7892 21.8255 21.7892 21.7986 21.7892 21.7716C21.8158 21.7716 21.8158 21.7716 21.8423 21.7716C22.2409 21.7716 22.4801 21.4748 22.4801 21.232C22.5066 20.9892 22.2409 20.6924 21.8689 20.6924ZM20.9389 20.6385C20.9389 20.3957 21.1249 20.2068 21.2578 20.2068C21.4172 20.2068 21.5766 20.3687 21.5766 20.6385C21.5766 20.6924 21.55 20.7464 21.4969 20.8273C21.3906 20.9083 21.3109 20.9892 21.2312 21.0701C21.178 20.9892 21.0717 20.9083 20.9655 20.8273C20.9655 20.7734 20.9389 20.6924 20.9389 20.6385ZM20.6732 21.5827V21.6906V21.5827C20.3809 21.5827 20.248 21.3939 20.248 21.259C20.248 21.0971 20.434 20.9353 20.6732 20.9353C20.7263 20.9353 20.7795 20.9622 20.8592 21.0162C20.9389 21.1241 21.0186 21.205 21.0983 21.286C21.0186 21.3399 20.9389 21.4478 20.8592 21.5558C20.7795 21.5558 20.7263 21.5827 20.6732 21.5827ZM21.6032 21.8525C21.6032 22.1223 21.4172 22.2842 21.2843 22.2842C21.1249 22.2842 20.9655 22.0953 20.9655 21.8525C20.9655 21.7986 20.992 21.7446 21.0452 21.6637C21.1515 21.5827 21.2312 21.5018 21.3109 21.4209C21.364 21.5018 21.4703 21.5827 21.5766 21.6637C21.5766 21.7176 21.6032 21.7986 21.6032 21.8525ZM22.2941 21.232C22.2941 21.3939 22.1346 21.5558 21.8689 21.5558V21.6637V21.5558C21.8158 21.5558 21.7626 21.5288 21.6829 21.4748C21.6032 21.3669 21.5235 21.286 21.4438 21.205C21.5235 21.1511 21.6032 21.0432 21.6829 20.9353C21.736 20.8813 21.8158 20.8543 21.8689 20.8543C22.1081 20.9083 22.2941 21.0971 22.2941 21.232ZM25.1107 20.6924C25.0841 20.6924 25.0576 20.6924 25.0576 20.6924C25.0576 20.6655 25.0576 20.6385 25.0576 20.6115C25.0576 20.2068 24.7653 19.964 24.5261 19.964C24.2604 19.964 23.9947 20.2338 23.9947 20.6115C23.9947 20.6385 23.9947 20.6655 23.9947 20.6924C23.9681 20.6924 23.9415 20.6924 23.915 20.6924C23.543 20.6924 23.2772 20.9892 23.2772 21.232C23.2772 21.4748 23.4898 21.7716 23.915 21.7716C23.9415 21.7716 23.9415 21.7716 23.9681 21.7716C23.9681 21.7986 23.9681 21.8255 23.9681 21.8525C23.9681 22.2302 24.2604 22.5 24.4996 22.5C24.7387 22.5 25.031 22.2842 25.031 21.8525C25.031 21.8255 25.031 21.7986 25.031 21.7716C25.0576 21.7716 25.0576 21.7716 25.0841 21.7716C25.4827 21.7716 25.7219 21.4748 25.7219 21.232C25.7485 20.9892 25.4827 20.6924 25.1107 20.6924ZM24.1807 20.6385C24.1807 20.3957 24.3667 20.2068 24.4996 20.2068C24.659 20.2068 24.8184 20.3687 24.8184 20.6385C24.8184 20.6924 24.7919 20.7464 24.7387 20.8273C24.6324 20.9083 24.5527 20.9892 24.473 21.0701C24.4198 20.9892 24.3136 20.9083 24.2073 20.8273C24.2073 20.7734 24.1807 20.6924 24.1807 20.6385ZM23.915 21.5827V21.6906V21.5827C23.6227 21.5827 23.4898 21.3939 23.4898 21.259C23.4898 21.0971 23.6758 20.9353 23.915 20.9353C23.9681 20.9353 24.0213 20.9622 24.101 21.0162C24.1807 21.1241 24.2604 21.205 24.3401 21.286C24.2604 21.3399 24.1807 21.4478 24.101 21.5558C24.0213 21.5558 23.9681 21.5827 23.915 21.5827ZM24.845 21.8525C24.845 22.1223 24.659 22.2842 24.5261 22.2842C24.3667 22.2842 24.2073 22.0953 24.2073 21.8525C24.2073 21.7986 24.2338 21.7176 24.287 21.6637C24.3933 21.5827 24.473 21.5018 24.5527 21.4209C24.6058 21.5018 24.7121 21.5827 24.8184 21.6637C24.8184 21.7176 24.845 21.7986 24.845 21.8525ZM25.5359 21.232C25.5359 21.3939 25.3764 21.5558 25.1107 21.5558V21.6637V21.5558C25.0576 21.5558 25.0044 21.5288 24.9247 21.4748C24.845 21.3669 24.7653 21.286 24.6856 21.205C24.7653 21.1511 24.845 21.0432 24.9247 20.9353C24.9779 20.8813 25.0576 20.8543 25.1107 20.8543C25.3499 20.9083 25.5359 21.0971 25.5359 21.232ZM35.7927 20.6924C35.7662 20.6924 35.7396 20.6924 35.7396 20.6924C35.7396 20.6655 35.7396 20.6385 35.7396 20.6115C35.7396 20.2068 35.4473 19.964 35.2081 19.964C34.9424 19.964 34.6767 20.2338 34.6767 20.6115C34.6767 20.6385 34.6767 20.6655 34.6767 20.6924C34.6501 20.6924 34.6236 20.6924 34.597 20.6924C34.225 20.6924 33.9593 20.9892 33.9593 21.232C33.9593 21.4748 34.1718 21.7716 34.597 21.7716C34.6236 21.7716 34.6236 21.7716 34.6501 21.7716C34.6501 21.7986 34.6501 21.8255 34.6501 21.8525C34.6501 22.2302 34.9424 22.5 35.1816 22.5C35.4207 22.5 35.713 22.2842 35.713 21.8525C35.713 21.8255 35.713 21.7986 35.713 21.7716C35.7396 21.7716 35.7396 21.7716 35.7662 21.7716C36.1647 21.7716 36.4039 21.4748 36.4039 21.232C36.4305 20.9892 36.1647 20.6924 35.7927 20.6924ZM34.8627 20.6385C34.8627 20.3957 35.0487 20.2068 35.1816 20.2068C35.341 20.2068 35.5004 20.3687 35.5004 20.6385C35.5004 20.6924 35.4739 20.7464 35.4207 20.8273C35.3144 20.9083 35.2347 20.9892 35.155 21.0701C35.1019 20.9892 34.9956 20.9083 34.8893 20.8273C34.8893 20.7734 34.8627 20.6924 34.8627 20.6385ZM34.597 21.5827V21.6906V21.5827C34.3047 21.5827 34.1718 21.3939 34.1718 21.259C34.1718 21.0971 34.3578 20.9353 34.597 20.9353C34.6501 20.9353 34.7033 20.9622 34.783 21.0162C34.8627 21.1241 34.9424 21.205 35.0221 21.286C34.9424 21.3399 34.8627 21.4478 34.783 21.5558C34.7299 21.5558 34.6501 21.5827 34.597 21.5827ZM35.527 21.8525C35.527 22.1223 35.341 22.2842 35.2081 22.2842C35.0487 22.2842 34.8893 22.0953 34.8893 21.8525C34.8893 21.7986 34.9159 21.7176 34.969 21.6637C35.0753 21.5827 35.155 21.5018 35.2347 21.4209C35.2879 21.5018 35.3942 21.5827 35.5004 21.6637C35.5004 21.7176 35.527 21.7986 35.527 21.8525ZM36.2179 21.232C36.2179 21.3939 36.0585 21.5558 35.7927 21.5558V21.6637V21.5558C35.7396 21.5558 35.6865 21.5288 35.6067 21.4748C35.527 21.3669 35.4473 21.286 35.3676 21.205C35.4473 21.1511 35.527 21.0432 35.6067 20.9353C35.6599 20.8813 35.7396 20.8543 35.7927 20.8543C36.0319 20.9083 36.2179 21.0971 36.2179 21.232ZM39.6723 21.232C39.6723 20.9622 39.4066 20.6924 39.0345 20.6924C39.008 20.6924 38.9814 20.6924 38.9814 20.6924C38.9814 20.6655 38.9814 20.6385 38.9814 20.6115C38.9814 20.2068 38.6891 19.964 38.45 19.964C38.1842 19.964 37.9185 20.2338 37.9185 20.6115C37.9185 20.6385 37.9185 20.6655 37.9185 20.6924C37.8919 20.6924 37.8654 20.6924 37.8388 20.6924C37.4668 20.6924 37.2011 20.9892 37.2011 21.232C37.2011 21.4748 37.4136 21.7716 37.8388 21.7716C37.8654 21.7716 37.8654 21.7716 37.8919 21.7716C37.8919 21.7986 37.8919 21.8255 37.8919 21.8525C37.8919 22.2302 38.1842 22.5 38.4234 22.5C38.6625 22.5 38.9548 22.2842 38.9548 21.8525C38.9548 21.8255 38.9548 21.7986 38.9548 21.7716C38.9814 21.7716 38.9814 21.7716 39.008 21.7716C39.4597 21.7716 39.6723 21.5018 39.6723 21.232ZM38.1045 20.6385C38.1045 20.3957 38.2905 20.2068 38.4234 20.2068C38.5828 20.2068 38.7422 20.3687 38.7422 20.6385C38.7422 20.6924 38.7157 20.7464 38.6625 20.8273C38.5562 20.9083 38.4765 20.9892 38.3968 21.0701C38.3437 20.9892 38.2374 20.9083 38.1311 20.8273C38.1311 20.7734 38.1045 20.6924 38.1045 20.6385ZM37.8388 21.5827V21.6906V21.5827C37.5465 21.5827 37.4136 21.3939 37.4136 21.259C37.4136 21.0971 37.5996 20.9353 37.8388 20.9353C37.8919 20.9353 37.9451 20.9622 38.0248 21.0162C38.1045 21.1241 38.1842 21.205 38.264 21.286C38.1842 21.3399 38.1045 21.4478 38.0248 21.5558C37.9717 21.5558 37.8919 21.5827 37.8388 21.5827ZM38.7688 21.8525C38.7688 22.1223 38.5828 22.2842 38.45 22.2842C38.2905 22.2842 38.1311 22.0953 38.1311 21.8525C38.1311 21.7986 38.1577 21.7176 38.2108 21.6637C38.3171 21.5827 38.3968 21.5018 38.4765 21.4209C38.5297 21.5018 38.636 21.5827 38.7422 21.6637C38.7422 21.7176 38.7688 21.7986 38.7688 21.8525ZM39.4597 21.232C39.4597 21.3939 39.3003 21.5558 39.0345 21.5558V21.6637V21.5558C38.9814 21.5558 38.9283 21.5288 38.8485 21.4748C38.7688 21.3669 38.6891 21.286 38.6094 21.205C38.6891 21.1511 38.7688 21.0432 38.8485 20.9353C38.9017 20.8813 38.9814 20.8543 39.0345 20.8543C39.2737 20.9083 39.4597 21.0971 39.4597 21.232ZM40.1506 19.4245V18.804H60V17.2392H55.3499V16.5108H55.1904V14.8921H55.6422V16.3489H56.8911V14.8651H58.1931V16.3489H59.442V14.8651H59.9734V14.4604H59.442V14.1906C59.442 14.1637 59.442 14.1097 59.442 14.0827C59.442 13.732 59.1497 13.4353 58.8042 13.4353C58.4588 13.4353 58.1665 13.732 58.1665 14.0827C58.1665 14.1367 58.1665 14.1906 58.1931 14.2446V14.4604H56.8911V14.1906C56.8911 14.1637 56.8911 14.1097 56.8911 14.0827C56.8911 13.732 56.5988 13.4353 56.2533 13.4353C55.9079 13.4353 55.6156 13.732 55.6156 14.0827C55.6156 14.1367 55.6156 14.1906 55.6422 14.2446V14.4604H55.1904V13.1655H59.9469V12.7608H54.9247V10.4137H54.7653V9.8741H54.101V8.82194L53.6758 8.36331L53.2507 8.82194V9.8741H52.6129V10.4137V12.7608H42.7812V10.4137H42.6218V9.8741H41.9575V8.82194L41.5323 8.36331L41.1072 8.82194V9.8741H40.496V10.4137V12.7608H40.2037L40.0974 12.9227L40.2037 13.1385H40.4429V16.4568H40.2834V17.1853H39.938V18.0755H36.5633V17.8867H22.7192V18.0755H20.0886V17.1853H19.7697V16.4568H19.6103V13.1655H19.8494L19.9557 12.9496L19.8494 12.7878H19.5571V10.4406V9.90108H18.9194V8.84892L18.4942 8.39029L18.0691 8.84892V9.90108H17.4048V10.4406H17.2454V12.7878H7.41364V10.4406V9.90108H6.77591V8.84892L6.35075 8.39029L5.95217 8.8759V9.92806H5.28787V10.4676H5.12843V12.8147H0.106289V13.2194H4.86271V14.4604H4.41098V14.2446C4.41098 14.1906 4.43756 14.1367 4.43756 14.0827C4.43756 13.732 4.14526 13.4353 3.79982 13.4353C3.45438 13.4353 3.16209 13.732 3.16209 14.0827C3.16209 14.1097 3.16209 14.1637 3.16209 14.1906V14.4604H1.86005V14.2446C1.86005 14.1906 1.88663 14.1367 1.88663 14.0827C1.88663 13.732 1.59433 13.4353 1.24889 13.4353C0.903454 13.4353 0.61116 13.732 0.61116 14.0827C0.61116 14.1097 0.61116 14.1637 0.61116 14.1906V14.4604H0.106289V14.8651H0.637733V16.3489H1.88663V14.8651H3.18866V16.3489H4.43756V14.8651H4.88928V16.4838H4.72985V17.2122H0.0265722V18.777H19.4774V19.3975V19.6673V25.1439H18.4145V24.5504H18.946V24.3615H18.8663V23.6331H18.7334V22.7968H18.6271V21.9604H18.5208V21.0971H18.4411V20.3417H18.2285V21.0971H18.1222V21.7446H17.9894V22.3651H17.8831V22.9856H17.7768V23.687H17.6705V24.3885H17.5908V24.5773H18.1222V25.1709H17.4579C17.4845 24.7122 17.4845 22.7698 16.1027 21.286C14.5616 19.5863 12.8875 19.5863 11.9841 19.5863C11.054 19.5863 9.30027 19.5863 7.73251 21.286C6.35075 22.7698 6.35075 24.7122 6.37733 25.1709H5.73959V24.5773H6.27104V24.3885H6.19132V23.6331H6.05846V22.7968H5.95217V21.9604H5.84588V21.0971H5.73959V20.3417H5.52702V21.0971H5.42073V21.7446H5.28787V22.3651H5.155V22.9856H5.04872V23.687H4.94243V24.3885H4.88928V24.5773H5.42073V25.1709H4.86271C4.88928 24.7122 4.88928 22.7698 3.50753 21.286C2.01949 19.6942 0.106289 19.5863 0.0265722 19.5863L0 20.1799C0.0265722 20.1799 1.75376 20.2608 3.08237 21.6906C4.33127 23.0396 4.30469 24.8741 4.27812 25.1709H3.98583V25.8723H4.30469V29.973H6.82905V25.8993H7.14792V25.1978H6.96191C6.93534 24.9011 6.90877 23.0396 8.15766 21.7176C9.4597 20.3147 10.8149 20.2068 11.9841 20.2068C13.1001 20.2068 14.4287 20.3147 15.7307 21.7176C16.9796 23.0665 16.9531 24.9011 16.9265 25.1978H16.7405V25.8993H17.0593V30H19.5837V25.8993H22.5864V27.0054C22.2143 27.3022 21.9752 27.7608 21.9752 28.2734C21.9752 28.705 22.1346 29.0827 22.4004 29.3795V30H22.5598H24.7387H24.8981V29.3795C25.1639 29.0827 25.3233 28.705 25.3233 28.2734C25.3233 27.7608 25.0841 27.3022 24.7121 27.0054V25.8993H25.1107V25.2248C25.1107 25.1978 24.9779 23.6601 26.147 22.3921C27.3428 21.0971 28.6182 20.9622 29.4686 20.9622C30.3454 20.9622 31.5412 21.1241 32.7104 22.3921C33.7733 23.5522 33.7467 24.982 33.7467 25.1978C33.7467 25.2248 33.7467 25.2248 33.7467 25.2248V25.8993H34.2515V26.9784C33.8795 27.2752 33.6404 27.7338 33.6404 28.2464C33.6404 28.6781 33.7998 29.0558 34.0655 29.3525V29.973H34.225H36.4039H36.5633V29.3525C36.8291 29.0558 36.9885 28.6781 36.9885 28.2464C36.9885 27.7338 36.7493 27.2752 36.3773 26.9784V25.8993H39.8849V30H42.4092V25.8993H42.7281V25.1978H42.5421C42.5155 24.9011 42.4889 23.0396 43.7378 21.7176C45.0399 20.3147 46.395 20.2068 47.5642 20.2068C48.6802 20.2068 50.0089 20.3147 51.3109 21.7176C52.5598 23.0665 52.5332 24.9011 52.5066 25.1978H52.3206V25.8993H52.6395V30H55.1639V25.8993H55.4827V25.1978H55.2702C55.2436 24.9011 55.217 23.0665 56.4659 21.7176C57.7945 20.2878 59.9734 20.2068 59.9734 20.2068V19.9101V19.6133C59.8937 19.6133 57.5554 19.7212 56.0673 21.313C54.6856 22.7968 54.6856 24.7392 54.7121 25.1978H54.0744V24.6043H54.6058V24.4155H54.5261V23.6331H54.3933V22.7968H54.3136V21.9604H54.2073V21.0971H54.101V20.3417H53.8884V21.0971H53.7821V21.7446H53.6492V22.3651H53.5164V22.9856H53.4101V23.687H53.3038V24.3885H53.2507V24.5773H53.7821V25.1709H53.1178C53.1444 24.7122 53.1444 22.7698 51.7626 21.286C50.1949 19.5863 48.4942 19.5863 47.5908 19.5863C46.6608 19.5863 44.907 19.5863 43.3392 21.286C41.9575 22.7698 41.9575 24.7122 41.9841 25.1709H41.3463V24.5773H41.8778V24.3885H41.798V23.6331H41.6652V22.7968H41.5589V21.9604H41.4526V21.0971H41.3463V20.3417H41.1337V21.0971H41.0275V21.7446H40.8946V22.3651H40.7883V22.9856H40.682V23.687H40.5757V24.3885H40.496V24.5773H41.0275V25.1709H40.1506V19.6942V19.4245ZM43.0469 13.1655H52.5864V14.4604H52.0283V14.1906C52.0283 14.1637 52.0283 14.1097 52.0283 14.0827C52.0283 13.732 51.736 13.4353 51.3906 13.4353C51.0452 13.4353 50.7529 13.732 50.7529 14.0827C50.7529 14.1367 50.7529 14.1906 50.7794 14.2446V14.4604H49.4774V14.1906C49.4774 14.1637 49.4774 14.1097 49.4774 14.0827C49.4774 13.732 49.1851 13.4353 48.8397 13.4353C48.4942 13.4353 48.202 13.732 48.202 14.0827C48.202 14.1367 48.202 14.1906 48.2285 14.2446V14.4604H47.2453V14.1906C47.2453 14.1637 47.2453 14.1097 47.2453 14.0827C47.2453 13.732 46.9531 13.4353 46.6076 13.4353C46.2622 13.4353 45.9699 13.732 45.9699 14.0827C45.9699 14.1367 45.9699 14.1906 45.9965 14.2446V14.4604H44.6944V14.1906C44.6944 14.1637 44.6944 14.1097 44.6944 14.0827C44.6944 13.732 44.4021 13.4353 44.0567 13.4353C43.7112 13.4353 43.419 13.732 43.419 14.0827C43.419 14.1367 43.419 14.1906 43.4455 14.2446V14.4604H43.0204V13.1655H43.0469ZM43.0469 14.8651H43.4721V16.3489H44.721V14.8651H46.023V16.3489H47.2719V14.8651H48.2551V16.3489H49.504V14.8651H50.806V16.3489H52.0549V14.8651H52.6129V16.4838H52.4535V17.2122H43.2595V16.4838H43.1001V14.8651H43.0469ZM17.0062 16.4838H16.8468V17.2122H7.62622V16.4838H7.46678V14.8651H8.0248V16.3489H9.27369V14.8651H10.5757V16.3489H11.7981V14.8651H12.7812V16.3489H14.0301V14.8651H15.3322V16.3489H16.581V14.8651H17.0062V16.4838ZM17.0062 14.4604H16.581V14.2446C16.581 14.1906 16.6076 14.1367 16.6076 14.0827C16.6076 13.732 16.3153 13.4353 15.9699 13.4353C15.6244 13.4353 15.3322 13.732 15.3322 14.0827C15.3322 14.1097 15.3322 14.1637 15.3322 14.1906V14.4604H14.0301V14.2446C14.0301 14.1906 14.0567 14.1367 14.0567 14.0827C14.0567 13.732 13.7644 13.4353 13.419 13.4353C13.0735 13.4353 12.7812 13.732 12.7812 14.0827C12.7812 14.1097 12.7812 14.1637 12.7812 14.1906V14.4604H11.7981V14.2446C11.7981 14.1906 11.8246 14.1367 11.8246 14.0827C11.8246 13.732 11.5323 13.4353 11.1869 13.4353C10.8415 13.4353 10.5492 13.732 10.5492 14.0827C10.5492 14.1097 10.5492 14.1637 10.5492 14.1906V14.4604H9.24712V14.2446C9.24712 14.1906 9.27369 14.1367 9.27369 14.0827C9.27369 13.732 8.9814 13.4353 8.63596 13.4353C8.29052 13.4353 7.99823 13.732 7.99823 14.0827C7.99823 14.1097 7.99823 14.1637 7.99823 14.1906V14.4604H7.44021V13.1655H16.9796V14.4604H17.0062ZM34.6501 25.1709C34.6501 25.063 34.6501 24.9281 34.6501 24.7392H36.643C36.7493 24.7392 36.8556 24.6313 36.8556 24.5234C36.8556 24.4155 36.7493 24.3076 36.643 24.3076H34.597C34.4907 23.6061 34.1984 22.6349 33.3747 21.7446C31.9398 20.2068 30.4783 20.018 29.4951 20.018C28.9105 20.018 27.1036 20.018 25.5093 21.7446C24.7121 22.6079 24.3933 23.6061 24.287 24.3076H22.5066C22.4004 24.3076 22.2941 24.4155 22.2941 24.5234C22.2941 24.6313 22.4004 24.7392 22.5066 24.7392H24.2604C24.2604 24.9281 24.2604 25.0899 24.2604 25.1709H19.9291V19.6942H39.7254V25.1709H34.6501ZM29.7343 7.55396C29.9734 7.55396 30.2657 7.33813 30.2657 6.90648C30.2657 6.8795 30.2657 6.85252 30.2657 6.85252C30.2923 6.85252 30.2923 6.85252 30.3189 6.85252C30.7174 6.85252 30.9566 6.55576 30.9566 6.31295C30.9566 6.04317 30.6909 5.77338 30.3189 5.77338C30.2923 5.77338 30.2923 5.77338 30.2657 5.77338C30.2657 5.7464 30.2657 5.71942 30.2657 5.71942C30.2657 5.31475 29.9734 5.07194 29.7343 5.07194C29.4686 5.07194 29.2028 5.34173 29.2028 5.71942C29.2028 5.7464 29.2028 5.77338 29.2028 5.77338C29.1763 5.77338 29.1497 5.77338 29.1497 5.77338C28.7777 5.77338 28.512 6.07014 28.512 6.31295C28.512 6.55576 28.7245 6.85252 29.1497 6.85252C29.1763 6.85252 29.1763 6.85252 29.2028 6.85252C29.2028 6.8795 29.2028 6.90648 29.2028 6.90648C29.2028 7.28417 29.4686 7.52698 29.7343 7.55396ZM30.1329 6.01619C30.186 5.96223 30.2657 5.93525 30.3189 5.93525C30.558 5.93525 30.744 6.1241 30.744 6.25899C30.744 6.42086 30.5846 6.58273 30.3189 6.58273V6.69065V6.63669C30.2657 6.63669 30.2126 6.60971 30.1329 6.55576C30.0531 6.44784 29.9734 6.36691 29.8937 6.28597C29.9734 6.23202 30.0531 6.1241 30.1329 6.01619ZM29.7343 5.26079C29.8937 5.26079 30.0531 5.42266 30.0531 5.69245C30.0531 5.7464 30.0266 5.80036 29.9734 5.8813C29.8671 5.96223 29.7874 6.04317 29.7077 6.1241C29.6546 6.04317 29.5483 5.96223 29.442 5.8813C29.3888 5.80036 29.3623 5.7464 29.3623 5.69245C29.4154 5.44964 29.5748 5.26079 29.7343 5.26079ZM29.3091 6.55576C29.256 6.60971 29.1763 6.63669 29.1231 6.63669V6.7446V6.63669C28.8574 6.63669 28.698 6.44784 28.698 6.31295C28.698 6.15108 28.884 5.98921 29.1231 5.98921C29.1763 5.98921 29.2294 6.01619 29.3091 6.07014C29.3888 6.17806 29.4686 6.25899 29.5483 6.33993C29.4951 6.36691 29.3888 6.44784 29.3091 6.55576ZM29.3888 6.90648C29.3888 6.85252 29.4154 6.79856 29.4686 6.71763C29.5748 6.63669 29.6546 6.55576 29.7343 6.47482C29.7874 6.55576 29.8937 6.63669 30 6.71763C30.0531 6.77158 30.0797 6.85252 30.0797 6.90648C30.0797 7.17626 29.8937 7.33813 29.7609 7.33813C29.5748 7.33813 29.4154 7.14928 29.3888 6.90648ZM36.2445 15.6475H35.2879V15.1619H35.6067V14.8112H35.4473V14.5144H35.5802V14.4335V14.2176V14.1097H35.6864V13.732L35.899 13.8399V14.0827V14.1906V14.2176H36.0319V14.5144H36.1382V14.8112H35.899V15.1619H36.271V15.6475H36.2445ZM36.5633 16.6457H36.3773H34.8627H33.8795C33.8795 15.6475 33.853 13.3543 33.8264 12.0594H33.9593C34.0655 12.0594 34.1453 11.9784 34.1453 11.8705C34.1453 11.7626 34.0655 11.6817 33.9593 11.6817H33.853C33.8264 11.1151 33.7998 10.5486 33.7733 10.036C33.667 8.39029 33.3481 7.31115 33.1887 6.8795V6.63669H33.3747V6.25899H33.2152V6.15108V5.90827V5.77338H33.0824V5.31475L32.8167 5.44964V5.77338V5.85432V5.8813H32.6572V6.25899H32.5244V6.44784H31.7803V5.34173H32.2321C32.2586 5.34173 32.2852 5.28777 32.2852 5.17986C32.2852 5.09892 32.2586 5.01799 32.2321 5.01799H31.3818L31.4083 3.02158C31.4083 2.94065 31.3552 2.85971 31.2755 2.80576C31.2755 2.80576 30.7972 2.56295 30.4517 1.96942C30.0797 1.34892 29.9469 0.188849 29.9469 0.188849C29.9203 0.0809353 29.8406 0 29.7343 0C29.628 0 29.5217 0.0809353 29.5217 0.188849C29.5217 0.188849 29.442 0.890288 29.1497 1.64568C28.884 2.3741 28.1134 2.9946 28.1134 3.02158C28.0602 3.07554 28.0337 3.1295 28.0337 3.21043V5.01799H27.2896C27.2631 5.01799 27.2365 5.07194 27.2365 5.17986C27.2365 5.26079 27.2631 5.34173 27.2896 5.34173H27.5554V6.44784H26.9176V7.5C26.7848 6.96043 26.6519 6.69065 26.6253 6.66367L26.5988 6.63669H26.8645V6.25899H26.7316V5.8813H26.5722V5.85432V5.77338V5.44964L26.3065 5.31475V5.77338H26.1736V5.90827V6.15108V6.25899H26.0142V6.63669H26.2002V6.98741C26.0407 7.5 25.7485 8.63309 25.6687 10.036C25.6422 10.4676 25.6156 11.0342 25.589 11.6817H25.3499C25.2436 11.6817 25.1639 11.7626 25.1639 11.8705C25.1639 11.9784 25.2436 12.0594 25.3499 12.0594H25.589C25.5624 13.2734 25.5359 15.6205 25.5093 16.6457H24.2604H22.7458V17.0504H36.5899V16.6457H36.5633ZM32.5509 6.63669H32.8167L32.7901 6.69065C32.7901 6.71763 32.6838 7.01439 32.5509 7.52698V6.63669ZM31.6209 5.36871C31.6209 5.36871 31.6209 6.58273 31.6209 6.60971H32.3915V8.28237C32.3384 8.55216 32.2852 8.8759 32.2321 9.19964C32.0195 7.74281 31.5943 6.71763 31.5678 6.66367L31.5412 6.58273C31.5412 6.55576 31.3818 6.04317 30.9832 5.36871H31.6209ZM27.3694 12.0594H27.5554C27.6616 12.0594 27.7414 11.9784 27.7414 11.8705C27.7414 11.7626 27.6616 11.6817 27.5554 11.6817H27.3694C27.3694 11.5198 27.3694 11.3849 27.3694 11.223C27.3959 10.7914 27.3959 10.3867 27.4225 10.063C27.5288 8.66007 27.9008 7.52698 28.0602 7.04137C28.4057 7.39209 29.1497 8.36331 29.4951 9.90108C29.5217 9.98201 29.5217 10.1169 29.5483 10.2518C29.5217 10.6295 29.4951 11.1151 29.4686 11.6817H29.3357C29.2294 11.6817 29.1497 11.7626 29.1497 11.8705C29.1497 11.9784 29.2294 12.0594 29.3357 12.0594H29.4686C29.442 13.2194 29.442 15.5935 29.442 16.6457H27.3694C27.3694 15.6475 27.3694 13.3273 27.3694 12.0594ZM28.1665 6.69065C28.1665 6.66367 28.3525 6.1241 28.7511 5.44964C29.0434 4.93705 29.4951 4.47842 29.7077 4.31655C29.9203 4.5054 30.372 4.93705 30.6643 5.44964C31.0363 6.09712 31.2223 6.60971 31.2489 6.69065C30.9832 6.93345 30.1594 7.82374 29.7077 9.41547C29.256 7.85072 28.4322 6.96043 28.1665 6.69065ZM29.9469 12.0594H30.1063C30.2126 12.0594 30.2923 11.9784 30.2923 11.8705C30.2923 11.7626 30.2126 11.6817 30.1063 11.6817H29.9203C29.8937 11.1151 29.8671 10.6295 29.8406 10.2518C29.8671 10.1169 29.8671 9.98201 29.8937 9.90108C30.2392 8.36331 30.9832 7.41906 31.3286 7.04137C31.488 7.52698 31.8601 8.66007 31.9663 10.063C31.9929 10.4946 32.0195 11.0612 32.0461 11.6817H31.7803C31.674 11.6817 31.5943 11.7626 31.5943 11.8705C31.5943 11.9784 31.674 12.0594 31.7803 12.0594H32.0461C32.0461 12.1403 32.0461 12.2212 32.0461 12.3022C32.0461 13.4353 32.0461 15.6745 32.0461 16.6457H29.9203C29.9734 15.5935 29.9734 13.2194 29.9469 12.0594ZM28.4588 3.34532C28.6714 3.15648 29.2826 2.56295 29.5483 1.86151C29.6014 1.67266 29.6811 1.51079 29.7077 1.34892C29.7874 1.67266 29.9203 1.9964 30.0531 2.26619C30.3454 2.80576 30.744 3.10252 30.9566 3.21043L30.93 5.07194H30.8503C30.8237 5.07194 30.8237 5.09892 30.8237 5.1259C30.3986 4.47842 29.814 3.99281 29.7874 3.96583L29.6811 3.88489L29.5748 3.96583C29.5483 3.99281 29.0168 4.45144 28.5917 5.04496H28.4322V3.34532H28.4588ZM27.0505 6.60971H27.6882C27.7148 6.55576 27.6882 5.36871 27.6882 5.36871H28.4057C28.1134 5.8813 27.9539 6.31295 27.8742 6.5018L27.7945 6.66367C27.7679 6.71763 27.3694 7.63489 27.1568 8.98381C27.1302 8.68705 27.0771 8.44424 27.0239 8.20144V6.60971H27.0505ZM25.8282 16.6457C25.8282 15.6205 25.8547 13.2734 25.9079 12.0594H26.147C26.2533 12.0594 26.333 11.9784 26.333 11.8705C26.333 11.7626 26.2533 11.6817 26.147 11.6817H25.9079C25.9345 11.0612 25.961 10.4946 25.9876 10.063C26.0673 8.84892 26.3065 7.85072 26.4659 7.28417C26.6253 7.79676 26.8645 8.74101 26.9442 10.063C26.9708 10.4406 26.9708 10.8183 26.9973 11.223C26.9973 11.3849 26.9973 11.5198 26.9708 11.6817H26.705C26.5988 11.6817 26.519 11.7626 26.519 11.8705C26.519 11.9784 26.5988 12.0594 26.705 12.0594H26.9442C26.9176 13.2734 26.8911 15.6205 26.8645 16.6457H25.8282ZM32.4712 16.6457C32.4712 15.6745 32.4446 13.4353 32.4181 12.3022C32.4181 12.2212 32.4181 12.1403 32.4181 12.0594H32.6041C32.7104 12.0594 32.7901 11.9784 32.7901 11.8705C32.7901 11.7626 32.7104 11.6817 32.6041 11.6817H32.4181C32.4181 11.0612 32.4446 10.4946 32.4712 10.063C32.5509 8.84892 32.7901 7.85072 32.9495 7.28417C33.1089 7.79676 33.3481 8.74101 33.4278 10.063C33.4544 10.5755 33.481 11.1151 33.5075 11.6817H33.1621C33.0558 11.6817 32.9761 11.7626 32.9761 11.8705C32.9761 11.9784 33.0558 12.0594 33.1621 12.0594H33.5075C33.5341 13.3543 33.5607 15.6475 33.5607 16.6457H32.4712ZM23.9681 15.6475H23.0115V15.1619H23.3835V14.8112H23.1444V14.5144H23.2241V14.2176H23.357V14.1906V14.1097V13.8669L23.5695 13.759V14.1367H23.6758V14.2446V14.4604V14.5414H23.8087V14.8381H23.6492V15.1888H23.9681V15.6475Z" fill="white" fill-opacity="0.75"/>
</svg>
