<svg width="181" height="89" viewBox="0 0 181 89" fill="none" xmlns="http://www.w3.org/2000/svg">
<path d="M90.4164 4.42994C90.7309 5.29473 91.0454 6.23814 91.5171 7.02431C92.3819 8.59666 93.5611 9.46145 94.1901 9.77592L94.1114 15.2005H93.8756C93.797 15.2005 93.797 15.2791 93.797 15.3577C92.5391 13.4709 90.8095 12.0558 90.7309 11.9772L90.4164 11.7413L90.102 11.9772C90.0233 12.0558 88.451 13.3923 87.1931 15.1219H86.7214V10.0904C87.3504 9.54006 89.1586 7.81048 89.9447 5.76644C90.102 5.37335 90.2592 4.90165 90.4164 4.42994ZM128.546 55.3739V55.2953H180.04V55.4525H179.883V57.5752C179.49 57.5752 174.222 57.8896 170.056 61.0343C169.977 61.113 169.898 61.1916 169.82 61.1916C169.584 61.3488 169.348 61.506 169.191 61.7419C168.876 61.9777 168.641 62.2922 168.326 62.5281C168.562 62.2136 168.876 61.9777 169.191 61.7419C169.427 61.5847 169.663 61.3488 169.82 61.1916C169.898 61.1129 169.977 61.0343 170.056 61.0343C174.222 57.8896 179.411 57.6538 179.883 57.5752V58.44V59.3048C179.804 59.3048 173.358 59.5406 169.505 63.7073C165.81 67.6382 165.889 72.9841 165.968 73.8489H166.596V75.893H165.653V87.8428H158.184V75.9716H157.241V73.9276H157.791C157.87 73.0628 157.949 67.6382 154.254 63.7859C150.401 59.6978 146.549 59.3834 143.169 59.3834C139.709 59.3834 135.7 59.6978 131.848 63.7859C128.153 67.7168 128.231 73.0628 128.31 73.9276H128.86V75.9716H127.917V87.9214H120.448V75.9716H110.071V79.1163C111.171 79.9811 111.879 81.3176 111.879 82.8113C111.879 84.0692 111.407 85.1698 110.621 86.0346V87.8428H110.149H103.703H103.231V86.0346C102.445 85.1698 101.973 84.0692 101.973 82.8113C101.973 81.3176 102.681 79.9811 103.781 79.1163V75.9716H102.288V74.0062C102.288 74.0062 102.288 74.0062 102.288 73.9276C102.288 73.2986 102.445 69.1319 99.2216 65.7514C95.7624 62.0564 92.3032 61.5847 89.6303 61.5847C87.1145 61.5847 83.3409 62.0564 79.8031 65.7514C76.344 69.4464 76.737 73.9276 76.737 74.0062V75.9716H75.5578V79.1949C76.6584 80.0597 77.366 81.3962 77.366 82.8899C77.366 84.1478 76.8943 85.2484 76.1081 86.1132V87.9214H75.6364H69.1898H68.7181V86.1132C67.9319 85.2484 67.4602 84.1478 67.4602 82.8899C67.4602 81.3962 68.1678 80.0597 69.2684 79.1949V75.9716H60.3847V87.9214H52.916V75.9716H51.9726V73.9276H52.5229C52.6016 73.0628 52.6802 67.6382 48.9852 63.7859C45.1329 59.6978 41.2807 59.3834 37.9001 59.3834C34.441 59.3834 30.4315 59.6978 26.5793 63.7859C22.8843 67.7168 22.9629 73.0628 23.0415 73.9276H23.5918V75.9716H22.6484V87.9214H15.1798V75.9716H14.2364V73.9276H15.1012C15.1798 73.0628 15.2584 67.6382 11.5634 63.7859C7.63252 59.6192 2.5224 59.3834 2.44379 59.3834L2.60102 57.5752H2.67964H2.75826C2.83687 57.5752 2.83687 57.5752 2.91549 57.5752C2.99411 57.5752 2.99411 57.5752 3.07272 57.5752C3.15134 57.5752 3.15134 57.5752 3.22996 57.5752C3.30858 57.5752 3.38719 57.5752 3.46581 57.5752C3.54443 57.5752 3.54443 57.5752 3.62304 57.5752C3.70166 57.5752 3.8589 57.5752 3.93751 57.6538C4.01613 57.6538 4.09475 57.6538 4.17336 57.6538C4.3306 57.6538 4.40922 57.7324 4.56645 57.7324C4.64507 57.7324 4.72369 57.7324 4.8023 57.811C4.95954 57.811 5.11677 57.8896 5.27401 57.8896C5.35262 57.8896 5.43124 57.8896 5.50986 57.9683C5.66709 58.0469 5.82433 58.0469 5.98156 58.1255C6.06018 58.1255 6.1388 58.2041 6.21741 58.2041C6.37465 58.3614 6.53188 58.44 6.76773 58.5186C6.84635 58.5186 6.92497 58.5972 7.00358 58.5972C7.16082 58.6758 7.39667 58.7544 7.5539 58.833C7.63252 58.833 7.71114 58.9117 7.78976 58.9117C7.94699 58.9903 8.18284 59.0689 8.34008 59.2261C8.41869 59.3048 8.49731 59.3048 8.57593 59.3834C8.81178 59.462 8.96901 59.6192 9.20487 59.6978C9.28348 59.7765 9.3621 59.7765 9.44072 59.8551C9.67657 60.0123 9.8338 60.0909 10.0697 60.2482C10.1483 60.3268 10.2269 60.3268 10.3055 60.4054C10.5414 60.5626 10.6986 60.7199 10.9344 60.8771C11.0131 60.9557 11.0917 60.9557 11.1703 61.0343C11.4061 61.1916 11.642 61.4274 11.7992 61.5847C11.8778 61.6633 11.9565 61.6633 11.9565 61.7419C12.2709 61.9777 12.5068 62.2922 12.8213 62.5281C12.5854 62.2136 12.2709 61.9777 11.9565 61.7419C11.8779 61.6633 11.7992 61.6633 11.7992 61.5847C11.5634 61.4274 11.3275 61.1916 11.1703 61.0343C11.0917 60.9557 11.0131 60.9557 10.9344 60.8771C10.6986 60.7199 10.5414 60.5626 10.3055 60.4054C10.2269 60.3268 10.1483 60.3268 10.0697 60.2482C9.8338 60.0909 9.67657 60.0123 9.44072 59.8551C9.3621 59.7765 9.28348 59.7765 9.20487 59.6978C8.96901 59.6192 8.81178 59.462 8.57593 59.3834C8.49731 59.3048 8.41869 59.3048 8.34008 59.2261C8.18284 59.1475 7.94699 59.0689 7.78976 58.9117C7.71114 58.9117 7.63252 58.833 7.5539 58.833C7.39667 58.7544 7.16082 58.6758 7.00358 58.5972C6.92497 58.5972 6.84635 58.5186 6.76773 58.5186C6.53188 58.44 6.37465 58.3614 6.21741 58.3614C6.1388 58.3614 6.06018 58.2827 5.98156 58.2827C5.82433 58.2041 5.66709 58.2041 5.50986 58.1255C5.43124 58.1255 5.35262 58.1255 5.27401 58.0469C5.11677 57.9683 4.95954 57.9683 4.8023 57.9683C4.72369 57.9683 4.64507 57.9683 4.56645 57.8896C4.40922 57.8896 4.3306 57.811 4.17336 57.811C4.09475 57.811 4.01613 57.811 3.93751 57.811C3.8589 57.811 3.70166 57.7324 3.62304 57.7324C3.54443 57.7324 3.54443 57.7324 3.46581 57.7324C3.38719 57.7324 3.30858 57.7324 3.22996 57.7324C3.15134 57.7324 3.15134 57.7324 3.07272 57.7324C2.99411 57.7324 2.91549 57.7324 2.91549 57.7324C2.83687 57.7324 2.83687 57.7324 2.75826 57.7324H2.67964C2.60102 57.7324 2.60102 57.7324 2.60102 57.7324V55.6097H54.0953V55.5311H60.1488V57.2607V58.0469V74.0062H61.4853V57.8896H120.055V73.8489H121.392V57.8896V57.1035V55.3739H128.546ZM112.586 62.3708C112.586 62.4494 112.586 62.4494 112.586 62.3708C112.586 63.157 113.215 63.9432 114.473 63.9432C114.552 63.9432 114.552 63.9432 114.631 63.9432C114.631 64.0218 114.631 64.1004 114.631 64.179C114.631 65.2797 115.495 66.0658 116.203 66.0658C116.91 66.0658 117.775 65.4369 117.775 64.179C117.775 64.1004 117.775 64.0218 117.775 63.9432C117.854 63.9432 117.854 63.9432 117.932 63.9432C119.112 63.9432 119.819 63.0784 119.819 62.3708C119.819 61.5847 119.033 60.7985 117.932 60.7985C117.854 60.7985 117.775 60.7985 117.775 60.7985C117.775 60.7199 117.775 60.6413 117.775 60.5626C117.775 59.3834 116.91 58.6758 116.203 58.6758C115.417 58.6758 114.631 59.462 114.631 60.5626C114.631 60.6413 114.631 60.7199 114.631 60.7985C114.552 60.7985 114.473 60.7985 114.395 60.7985C113.373 60.7985 112.586 61.6633 112.586 62.3708ZM102.995 62.3708C102.995 62.4494 102.995 62.4494 102.995 62.3708C102.995 63.157 103.624 63.9432 104.882 63.9432C104.961 63.9432 104.961 63.9432 105.039 63.9432C105.039 64.0218 105.039 64.1004 105.039 64.179C105.039 65.2797 105.904 66.0658 106.612 66.0658C107.319 66.0658 108.184 65.4369 108.184 64.179C108.184 64.1004 108.184 64.0218 108.184 63.9432C108.263 63.9432 108.263 63.9432 108.341 63.9432C109.52 63.9432 110.228 63.0784 110.228 62.3708C110.228 61.5847 109.442 60.7985 108.341 60.7985C108.263 60.7985 108.184 60.7985 108.184 60.7985C108.184 60.7199 108.184 60.6413 108.184 60.5626C108.184 59.3834 107.319 58.6758 106.612 58.6758C105.825 58.6758 105.039 59.462 105.039 60.5626C105.039 60.6413 105.039 60.7199 105.039 60.7985C104.961 60.7985 104.882 60.7985 104.803 60.7985C103.781 60.7985 102.995 61.6633 102.995 62.3708ZM71.3911 62.4494C71.3911 63.157 72.02 64.0218 73.2779 64.0218C73.3565 64.0218 73.3565 64.0218 73.4351 64.0218C73.4351 64.1004 73.4351 64.179 73.4351 64.2576C73.4351 65.3583 74.2999 66.1445 75.0075 66.1445C75.715 66.1445 76.5798 65.5155 76.5798 64.2576C76.5798 64.179 76.5798 64.1004 76.5798 64.0218C76.6584 64.0218 76.6584 64.0218 76.737 64.0218C77.9163 64.0218 78.6239 63.157 78.6239 62.4494C78.6239 61.6633 77.8377 60.8771 76.737 60.8771C76.6584 60.8771 76.5798 60.8771 76.5798 60.8771C76.5798 60.7985 76.5798 60.7199 76.5798 60.6413C76.5798 59.462 75.715 58.7544 75.0075 58.7544C74.2213 58.7544 73.4351 59.5406 73.4351 60.6413C73.4351 60.7199 73.4351 60.7985 73.4351 60.8771C73.3565 60.8771 73.2779 60.8771 73.1993 60.8771C72.1772 60.7985 71.3911 61.6633 71.3911 62.4494C71.3911 62.3708 71.3911 62.3708 71.3911 62.4494ZM61.7998 62.3708C61.7998 62.4494 61.7998 62.4494 61.7998 62.3708C61.7998 63.157 62.4287 63.9432 63.6866 63.9432C63.7652 63.9432 63.7652 63.9432 63.8438 63.9432C63.8438 64.0218 63.8438 64.1004 63.8438 64.179C63.8438 65.2797 64.7086 66.0658 65.4162 66.0658C66.1237 66.0658 66.9885 65.4369 66.9885 64.179C66.9885 64.1004 66.9885 64.0218 66.9885 63.9432C67.0671 63.9432 67.0671 63.9432 67.1457 63.9432C68.325 63.9432 69.0325 63.0784 69.0325 62.3708C69.0325 61.5847 68.2464 60.7985 67.1457 60.7985C67.0671 60.7985 66.9885 60.7985 66.9885 60.7985C66.9885 60.7199 66.9885 60.6413 66.9885 60.5626C66.9885 59.3834 66.1237 58.6758 65.4162 58.6758C64.63 58.6758 63.8438 59.462 63.8438 60.5626C63.8438 60.6413 63.8438 60.7199 63.8438 60.7985C63.7652 60.7985 63.6866 60.7985 63.608 60.7985C62.5859 60.7985 61.7998 61.6633 61.7998 62.3708ZM2.60102 55.2953V55.3739H54.0953V55.2953H2.60102ZM110.7 50.5782V50.1065H69.7401V50.5782V52.7009H110.7V50.5782ZM2.60102 50.6569H16.359V48.5342H16.8307V43.8172H15.4942V48.1411H11.7992V43.8172H8.02561V48.1411H4.3306V43.8172H2.83687V42.6379H4.40922V41.8517C4.40922 41.7731 4.40922 41.6159 4.40922 41.5373C4.40922 40.5152 5.27401 39.6505 6.29603 39.6505C7.31805 39.6505 8.18284 40.5152 8.18284 41.5373C8.18284 41.6945 8.18284 41.8517 8.10422 42.009V42.6379H11.9565V41.8517C11.9565 41.7731 11.9565 41.6159 11.9565 41.5373C11.9565 40.5152 12.8213 39.6505 13.8433 39.6505C14.8653 39.6505 15.7301 40.5152 15.7301 41.5373C15.7301 41.6945 15.7301 41.8517 15.6515 42.009V42.6379H16.988V38.8643H2.83687V38.3926H2.60102V50.6569ZM116.281 61.8991C116.439 61.6633 116.753 61.4274 117.068 61.1916C117.225 61.0343 117.304 60.7985 117.304 60.6413C117.304 59.8551 116.753 59.3834 116.36 59.3834C115.888 59.3834 115.417 59.9337 115.417 60.6413C115.417 60.7985 115.495 61.0343 115.653 61.1916C115.81 61.4274 116.046 61.6633 116.281 61.8991ZM65.4162 61.8991C65.5734 61.6633 65.8879 61.4274 66.2023 61.1916C66.3596 61.0343 66.4382 60.7985 66.4382 60.6413C66.4382 59.8551 65.8879 59.3834 65.4948 59.3834C65.0231 59.3834 64.5514 59.9337 64.5514 60.6413C64.5514 60.7985 64.63 61.0343 64.7872 61.1916C65.0231 61.4274 65.2589 61.6633 65.4162 61.8991ZM96.0769 35.0907C96.0769 34.7762 96.3127 34.5403 96.6272 34.5403H97.4134C97.3347 32.7321 97.2561 31.0812 97.1775 29.8233C96.863 25.7352 95.7624 22.4333 95.2907 21.0182C94.2687 22.0402 92.0674 24.8704 91.0454 29.3516C90.9668 29.5875 90.9668 29.9805 90.8881 30.3736C90.9668 31.4743 91.0454 32.8894 91.124 34.5403H91.6743C91.9888 34.5403 92.2246 34.7762 92.2246 35.0907C92.2246 35.1693 92.2246 35.2479 92.146 35.3265H96.1555C96.0769 35.2479 96.0769 35.1693 96.0769 35.0907ZM63.6866 63.3929V63.7073V63.3929C63.8438 63.3929 64.001 63.3142 64.2369 63.157C64.4728 62.8425 64.7086 62.6067 64.9445 62.3708C64.7086 62.2136 64.4728 61.8991 64.2369 61.5847C64.0797 61.4274 63.8438 61.3488 63.6866 61.3488C62.979 61.3488 62.4287 61.8991 62.4287 62.2922C62.4287 62.8425 62.9004 63.3929 63.6866 63.3929ZM98.8285 22.4333C98.8285 22.3547 98.9071 22.2761 98.9071 22.1188H98.8285V22.4333ZM158.106 38.8643H129.882V42.6379H131.14V42.009C131.14 41.8517 131.062 41.6945 131.062 41.5373C131.062 40.5152 131.926 39.6505 132.948 39.6505C133.97 39.6505 134.835 40.5152 134.835 41.5373C134.835 41.6159 134.835 41.7731 134.835 41.8517V42.6379H138.687V42.009C138.687 41.8517 138.609 41.6945 138.609 41.5373C138.609 40.5152 139.474 39.6505 140.496 39.6505C141.518 39.6505 142.382 40.5152 142.382 41.5373C142.382 41.6159 142.382 41.7731 142.382 41.8517V42.6379H145.291V42.009C145.291 41.8517 145.213 41.6945 145.213 41.5373C145.213 40.5152 146.077 39.6505 147.099 39.6505C148.121 39.6505 148.986 40.5152 148.986 41.5373C148.986 41.6159 148.986 41.7731 148.986 41.8517V42.6379H152.838V42.009C152.838 41.8517 152.76 41.6945 152.76 41.5373C152.76 40.5152 153.625 39.6505 154.647 39.6505C155.669 39.6505 156.533 40.5152 156.533 41.5373C156.533 41.6159 156.533 41.7731 156.533 41.8517V42.6379H158.184V38.8643H158.106ZM82.083 22.1974C82.083 22.2761 82.083 22.2761 82.083 22.3547V22.1974ZM90.495 19.3672C90.3378 19.6031 90.0233 19.8389 89.7089 20.0748C89.5516 20.232 89.473 20.4679 89.473 20.6251C89.473 21.3326 90.0233 21.883 90.4164 21.883C90.8881 21.883 91.3598 21.4113 91.3598 20.6251C91.3598 20.4679 91.2812 20.3106 91.124 20.0748C90.9668 19.8389 90.6523 19.5244 90.495 19.3672ZM90.9668 18.8169C91.2026 18.9741 91.4385 19.2886 91.6743 19.6031C91.8315 19.7603 92.0674 19.8389 92.2246 19.8389V20.1534V19.8389C93.0108 19.8389 93.4825 19.2886 93.4825 18.8955C93.4825 18.4238 92.9322 17.9521 92.2246 17.9521C92.0674 17.9521 91.8315 18.0307 91.6743 18.188C91.4385 18.3452 91.2026 18.6597 90.9668 18.8169ZM95.841 19.7603L95.9196 19.9962C95.9983 20.1534 97.2561 23.1408 97.8851 27.3862C98.0423 26.4428 98.1995 25.4994 98.3568 24.7132V19.8389H96.0769C96.0769 19.7603 96.0769 16.2225 96.0769 16.2225H94.1901C95.2907 18.188 95.7624 19.6817 95.841 19.7603ZM90.495 18.3452C90.6523 18.1093 90.9668 17.8735 91.2812 17.6376C91.4385 17.4804 91.5171 17.2446 91.5171 17.0873C91.5171 16.3011 90.9668 15.8294 90.5737 15.8294C90.102 15.8294 89.6303 16.3798 89.6303 17.0873C89.6303 17.2446 89.7089 17.4804 89.8661 17.6376C90.0233 17.8735 90.2592 18.1093 90.495 18.3452ZM100.165 35.0907C100.165 34.7762 100.401 34.5403 100.715 34.5403H101.737C101.659 32.8894 101.58 31.317 101.501 29.8233C101.266 25.9711 100.558 23.2195 100.086 21.7257C99.6146 23.3767 98.9071 26.3641 98.6712 29.8233C98.5926 31.0812 98.514 32.7321 98.514 34.5403H99.0643C99.3788 34.5403 99.6146 34.7762 99.6146 35.0907C99.6146 35.1693 99.6146 35.2479 99.536 35.3265H100.244C100.165 35.2479 100.165 35.1693 100.165 35.0907ZM77.9163 49.0059C77.9949 46.0184 78.0735 39.1787 78.1522 35.641H77.5232C77.4446 35.641 77.366 35.641 77.366 35.641V48.2197H74.3785V45.8612H73.5137V46.0971H70.6835V45.8612H69.8187V48.2197V49.0059H74.2999H77.9163ZM65.4162 62.9212C65.2589 63.157 64.9445 63.3928 64.63 63.6287C64.4728 63.7859 64.3941 64.0218 64.3941 64.179C64.3941 64.8866 64.9445 65.4369 65.3375 65.4369C65.8092 65.4369 66.2809 64.9652 66.2809 64.179C66.2809 64.0218 66.2023 63.8646 66.0451 63.6287C65.8879 63.3928 65.652 63.157 65.4162 62.9212ZM157.634 50.6569V48.5342H158.106V43.8172H156.455V48.1411H152.76V43.8172H148.908V48.1411H145.213V43.8172H142.304V48.1411H138.609V43.8172H134.757V48.1411H131.062V43.8172H129.804V48.5342H130.275V50.6569H157.634ZM180.04 50.6569V38.3926H179.883V38.8643H165.81V42.6379H167.147V42.009C167.147 41.8517 167.068 41.6945 167.068 41.5373C167.068 40.5152 167.933 39.6505 168.955 39.6505C169.977 39.6505 170.842 40.5152 170.842 41.5373C170.842 41.6159 170.842 41.7731 170.842 41.8517V42.6379H174.694V42.009C174.694 41.8517 174.615 41.6945 174.615 41.5373C174.615 40.5152 175.48 39.6505 176.502 39.6505C177.524 39.6505 178.389 40.5152 178.389 41.5373C178.389 41.6159 178.389 41.7731 178.389 41.8517V42.6379H179.961V43.8172H178.389V48.1411H174.694V43.8172H170.842V48.1411H167.147V43.8172H165.81V48.5342H166.282V50.6569H180.04ZM84.8346 19.9175L85.0705 19.4458C85.2277 18.8955 85.778 17.7163 86.6428 16.1439H84.5201C84.5201 16.1439 84.5988 19.6031 84.5201 19.7603H82.6333V24.3987C82.7906 25.1063 82.8692 25.8138 83.0264 26.6786C83.5767 22.8264 84.756 20.0748 84.8346 19.9175ZM88.6869 19.8389V20.1534V19.8389C88.8441 19.8389 89.0013 19.7603 89.2372 19.6031C89.473 19.2886 89.7089 19.0527 89.9447 18.8169C89.7089 18.6597 89.473 18.3452 89.2372 18.0307C89.0799 17.8735 88.8441 17.7949 88.6869 17.7949C87.9793 17.7949 87.429 18.3452 87.429 18.7383C87.429 19.2886 87.9007 19.7603 88.6869 19.8389ZM85.8566 19.9962C85.8566 19.9175 86.407 18.3452 87.5862 16.3798C88.451 14.886 89.7875 13.5495 90.4164 13.0778C91.0454 13.6282 92.3819 14.886 93.2467 16.3798C94.3473 18.2666 94.8976 19.7603 94.9762 19.9962C94.1901 20.7037 91.7529 23.2981 90.4164 27.9365C89.0799 23.3767 86.6428 20.7823 85.8566 19.9962ZM86.8 18.8169C86.8 19.6031 87.429 20.3892 88.6869 20.3892C88.7655 20.3892 88.7655 20.3892 88.8441 20.3892C88.8441 20.4679 88.8441 20.5465 88.8441 20.5465C88.8441 21.6471 89.7089 22.4333 90.4164 22.4333C91.124 22.4333 91.9888 21.8043 91.9888 20.5465C91.9888 20.4679 91.9888 20.3892 91.9888 20.3892C92.0674 20.3892 92.0674 20.3892 92.146 20.3892C93.3253 20.3892 94.0328 19.5245 94.0328 18.8169C94.0328 18.0307 93.2467 17.2446 92.146 17.2446C92.0674 17.2446 92.0674 17.2446 91.9888 17.2446C91.9888 17.1659 91.9888 17.0873 91.9888 17.0873C91.9888 15.9081 91.124 15.2005 90.4164 15.2005C89.6303 15.2005 88.8441 15.9867 88.8441 17.0873C88.8441 17.1659 88.8441 17.2446 88.8441 17.2446C88.7655 17.2446 88.6869 17.2446 88.6869 17.2446C87.5862 17.2446 86.8787 18.0307 86.8 18.8169ZM65.9665 62.3708C66.2023 62.5281 66.4382 62.8425 66.674 63.157C66.8313 63.3142 67.0671 63.3929 67.2244 63.3929V63.7073V63.3929C68.0105 63.3929 68.4822 62.8425 68.4822 62.4494C68.4822 61.9777 67.9319 61.506 67.2244 61.506C67.0671 61.506 66.8313 61.5847 66.674 61.7419C66.4382 61.9777 66.1237 62.2136 65.9665 62.3708ZM106.69 61.8991C106.847 61.6633 107.162 61.4274 107.476 61.1916C107.634 61.0343 107.712 60.7985 107.712 60.6413C107.712 59.8551 107.162 59.3834 106.769 59.3834C106.297 59.3834 105.825 59.9337 105.825 60.6413C105.825 60.7985 105.904 61.0343 106.061 61.1916C106.218 61.4274 106.454 61.6633 106.69 61.8991ZM98.9857 35.641H98.4354C98.4354 35.8768 98.4354 36.1127 98.4354 36.3485C98.514 39.6505 98.5926 46.1757 98.5926 49.0059H101.816C101.816 46.0971 101.737 39.4146 101.659 35.641H100.637C100.479 35.641 100.322 35.5624 100.165 35.4051H99.3788C99.3002 35.4837 99.1429 35.641 98.9857 35.641ZM91.5957 35.641H91.124C91.2026 39.0215 91.2026 45.9398 91.2026 49.0059H97.492C97.492 46.1757 97.492 39.6505 97.492 36.3485C97.492 36.1127 97.492 35.8768 97.492 35.641H96.7058C96.5486 35.641 96.3913 35.5624 96.2341 35.4051H92.146C91.9888 35.4837 91.8315 35.641 91.5957 35.641ZM84.0484 35.641H83.4981C83.5767 39.4146 83.4981 46.0971 83.4981 49.0059H89.6303C89.6303 45.9398 89.5516 39.0215 89.7089 35.641H89.3158C89.1586 35.641 89.0013 35.5624 88.8441 35.4051H84.5201C84.3629 35.4837 84.2057 35.641 84.0484 35.641ZM104.882 63.3929V63.7073V63.3929C105.039 63.3929 105.196 63.3142 105.432 63.157C105.668 62.8425 105.904 62.6067 106.14 62.3708C105.904 62.2136 105.668 61.8991 105.432 61.5847C105.275 61.4274 105.039 61.3488 104.882 61.3488C104.174 61.3488 103.624 61.8991 103.624 62.2922C103.624 62.8425 104.096 63.3929 104.882 63.3929ZM107.162 62.3708C107.398 62.5281 107.634 62.8425 107.869 63.157C108.027 63.3142 108.263 63.3929 108.42 63.3929V63.7073V63.3929C109.206 63.3929 109.678 62.8425 109.678 62.4494C109.678 61.9777 109.127 61.506 108.42 61.506C108.263 61.506 108.027 61.5847 107.869 61.7419C107.634 61.9777 107.398 62.2136 107.162 62.3708ZM79.8817 35.641H79.1742C79.0956 39.1001 79.0169 46.0184 78.9383 49.0059H82.083C82.083 46.0184 82.1616 39.1787 82.3189 35.641H81.6113C81.4541 35.641 81.2968 35.5624 81.1396 35.4051H80.3534C80.2748 35.4837 80.1176 35.641 79.8817 35.641ZM116.753 62.3708C116.989 62.5281 117.225 62.8425 117.461 63.157C117.618 63.3142 117.854 63.3929 118.011 63.3929V63.7073V63.3929C118.797 63.3929 119.269 62.8425 119.269 62.4494C119.269 61.9777 118.719 61.506 118.011 61.506C117.854 61.506 117.618 61.5847 117.461 61.7419C117.225 61.9777 116.989 62.2136 116.753 62.3708ZM116.281 62.9212C116.124 63.157 115.81 63.3928 115.495 63.6287C115.338 63.7859 115.259 64.0218 115.259 64.179C115.259 64.8866 115.81 65.4369 116.203 65.4369C116.675 65.4369 117.146 64.9652 117.146 64.179C117.146 64.0218 117.068 63.8646 116.91 63.6287C116.675 63.3928 116.439 63.157 116.281 62.9212ZM106.69 62.9212C106.533 63.157 106.218 63.3928 105.904 63.6287C105.747 63.7859 105.668 64.0218 105.668 64.179C105.668 64.8866 106.218 65.4369 106.612 65.4369C107.083 65.4369 107.555 64.9652 107.555 64.179C107.555 64.0218 107.476 63.8646 107.319 63.6287C107.083 63.3928 106.847 63.157 106.69 62.9212ZM114.473 63.3929V63.7073V63.3929C114.631 63.3929 114.788 63.3142 115.024 63.157C115.259 62.8425 115.495 62.6067 115.731 62.3708C115.495 62.2136 115.259 61.8991 115.024 61.5847C114.866 61.4274 114.631 61.3488 114.473 61.3488C113.766 61.3488 113.215 61.8991 113.215 62.2922C113.215 62.8425 113.687 63.3929 114.473 63.3929ZM51.5795 42.6379H52.8374V38.8643H24.6138V42.6379H26.2648V41.8517C26.2648 41.7731 26.2648 41.6159 26.2648 41.5373C26.2648 40.5152 27.1296 39.6505 28.1516 39.6505C29.1736 39.6505 30.0384 40.5152 30.0384 41.5373C30.0384 41.6945 30.0384 41.8517 29.9598 42.009V42.6379H33.812V41.8517C33.812 41.7731 33.812 41.6159 33.812 41.5373C33.812 40.5152 34.6768 39.6505 35.6989 39.6505C36.7209 39.6505 37.5857 40.5152 37.5857 41.5373C37.5857 41.6945 37.5857 41.8517 37.5071 42.009V42.6379H40.4159V41.8517C40.4159 41.7731 40.4159 41.6159 40.4159 41.5373C40.4159 40.5152 41.2807 39.6505 42.3027 39.6505C43.3247 39.6505 44.1895 40.5152 44.1895 41.5373C44.1895 41.6945 44.1895 41.8517 44.1109 42.009V42.6379H47.9631V41.8517C47.9631 41.7731 47.9631 41.6159 47.9631 41.5373C47.9631 40.5152 48.8279 39.6505 49.85 39.6505C50.872 39.6505 51.7368 40.5152 51.7368 41.5373C51.7368 41.6945 51.7368 41.8517 51.6581 42.009V42.6379H51.5795ZM102.681 35.641C102.838 39.4146 102.838 46.0971 102.838 49.0059H105.747H110.228H110.778V48.2197V45.8612H109.756V46.0971H106.926V45.8612H106.14V48.2197H103.074V35.5624C103.074 35.5624 103.074 35.5624 102.995 35.5624H102.681V35.641ZM75.0075 61.8991C75.1647 61.6633 75.4792 61.4274 75.7936 61.1916C75.9509 61.0343 76.0295 60.7985 76.0295 60.6413C76.0295 59.8551 75.4792 59.3834 75.0861 59.3834C74.6144 59.3834 74.1427 59.9337 74.1427 60.6413C74.1427 60.7985 74.2213 61.0343 74.3785 61.1916C74.6144 61.4274 74.8502 61.6633 75.0075 61.8991ZM88.6869 35.0907C88.6869 34.7762 88.9227 34.5403 89.2372 34.5403H89.6303C89.7089 32.8894 89.7875 31.4743 89.8661 30.3736C89.7875 29.9805 89.7875 29.5875 89.7089 29.3516C88.6869 24.8704 86.4856 22.1188 85.4635 21.0182C84.9918 22.3547 83.8912 25.7352 83.5767 29.8233C83.4981 30.7667 83.4195 31.8673 83.4195 33.2038C83.4195 33.6755 83.4195 34.0686 83.4195 34.5403H83.9698C84.2843 34.5403 84.5201 34.7762 84.5201 35.0907C84.5201 35.1693 84.5201 35.2479 84.4415 35.3265H88.6082C88.6869 35.2479 88.6869 35.1693 88.6869 35.0907ZM73.2779 63.3929V63.7073V63.3929C73.4351 63.3929 73.5924 63.3142 73.8282 63.157C74.0641 62.8425 74.2999 62.6067 74.5358 62.3708C74.2999 62.2136 74.0641 61.8991 73.8282 61.5847C73.671 61.4274 73.4351 61.3488 73.2779 61.3488C72.5703 61.3488 72.02 61.8991 72.02 62.2922C72.02 62.8425 72.4917 63.3929 73.2779 63.3929ZM75.0075 62.9212C74.8502 63.157 74.5358 63.3928 74.2213 63.6287C74.0641 63.7859 73.9854 64.0218 73.9854 64.179C73.9854 64.8866 74.5358 65.4369 74.9288 65.4369C75.4005 65.4369 75.8723 64.9652 75.8723 64.179C75.8723 64.0218 75.7936 63.8646 75.6364 63.6287C75.4792 63.3928 75.2433 63.157 75.0075 62.9212ZM24.6138 48.5342H25.0855V50.6569H52.2871V48.5342H52.7588V43.8172H51.5795V48.1411H47.8845V43.8172H44.0323V48.1411H40.3373V43.8172H37.4284V48.1411H33.7334V43.8172H29.8812V48.1411H26.1862V43.8172H24.5352V48.5342H24.6138ZM75.5578 62.3708C75.7936 62.5281 76.0295 62.8425 76.2653 63.157C76.4226 63.3142 76.6584 63.3929 76.8157 63.3929V63.7073V63.3929C77.6018 63.3929 78.0735 62.8425 78.0735 62.4494C78.0735 61.9777 77.5232 61.506 76.8157 61.506C76.6584 61.506 76.4226 61.5847 76.2653 61.7419C76.0295 61.9777 75.715 62.2136 75.5578 62.3708ZM81.061 35.0907C81.061 34.7762 81.2968 34.5403 81.6113 34.5403H82.3975C82.3975 34.0686 82.3975 33.5969 82.4761 33.2038C82.4761 32.0246 82.3975 30.9239 82.3189 29.8233C82.083 26.0497 81.3755 23.2981 80.9038 21.8043C80.432 23.4553 79.7245 26.4428 79.4886 29.9019C79.41 31.1598 79.3314 32.8108 79.2528 34.6189H79.9603C80.2748 34.6189 80.5107 34.8548 80.5107 35.1693C80.5107 35.2479 80.5107 35.3265 80.432 35.4051H81.1396C81.061 35.2479 81.061 35.1693 81.061 35.0907ZM73.4351 44.682H72.4917V43.6599H72.9634V42.7951H72.5703V42.5593V41.9304V41.6159H72.2559V40.5152L71.6269 40.8297V41.5373V41.8517V41.9304H71.2338V42.7951H70.9194V43.6599H71.6269V44.682H70.5263V45.8612H73.3565V44.682H73.4351ZM88.6869 35.2479C88.6869 35.2479 88.6869 35.3265 88.7655 35.3265H92.0674L92.146 35.2479H88.6869ZM109.756 44.682H108.656V43.6599H109.363V42.7951H109.049V41.9304H108.656V41.8517V41.6159V40.9083L108.027 40.5939V41.6945H107.712V42.009V42.6379V42.8738H107.398V43.7385H107.869V44.7606H106.926V45.9398H109.756V44.682ZM82.3189 19.5245H84.2057V15.9081H86.3283V10.2476L90.4164 4.42994V4.35133L90.495 4.27271L94.5045 10.2476V15.9081H96.2341V19.5245H98.514V22.1974L98.7499 22.1188V19.7603H99.536L99.4574 19.9175C99.4574 19.9962 99.1429 20.7823 98.8285 22.0402L100.008 21.5685L100.637 21.3326L102.288 35.1693H100.165C100.165 35.1693 100.165 35.2479 100.244 35.2479H103.152V35.5624C103.388 35.5624 103.624 35.3265 103.624 35.012C103.624 34.6976 103.388 34.4617 103.074 34.4617H102.681C102.602 32.8108 102.523 31.1598 102.445 29.6661C102.13 24.8704 101.187 21.7257 100.715 20.4679V19.8389H101.266V18.7383H100.794V18.4238V17.7163V17.3232H100.401V15.9867L99.6146 16.3798V17.3232V17.559V17.6376H99.1429V18.7383H98.7499V19.2886H96.5486V16.0653H97.8851C97.9637 16.0653 98.0423 15.9081 98.0423 15.5936C98.0423 15.3577 97.9637 15.1219 97.8851 15.1219H95.3693L95.4479 9.30421C95.4479 9.06836 95.2907 8.83251 95.0548 8.67527C95.0548 8.67527 93.6397 7.96772 92.6177 6.23814C91.5171 4.42994 91.124 1.0494 91.124 1.0494C91.0454 0.734936 90.8095 0.499084 90.495 0.499084C90.1806 0.499084 89.8661 0.734936 89.8661 1.0494C89.8661 1.0494 89.6303 3.09345 88.7655 5.29473C87.9793 7.4174 85.6994 9.2256 85.6994 9.30421C85.5422 9.46145 85.4635 9.61868 85.4635 9.85453V15.1219H83.2623C83.1836 15.1219 83.105 15.2791 83.105 15.5936C83.105 15.8294 83.1836 16.0653 83.2623 16.0653H84.0484V19.2886H82.1616V22.1974L82.3975 22.2761V19.5245H82.3189ZM80.3534 35.3265L80.432 35.2479H78.7025L80.039 21.4113L80.8251 21.7257C80.8251 21.7257 80.8251 21.7257 80.8251 21.6471V21.7257L82.0044 22.1974C81.6113 20.7823 81.2182 19.9962 81.2182 19.9175L81.1396 19.8389H81.9258V18.7383H81.5327V17.6376H81.061V17.559V17.3232V16.3798L80.2748 15.9867V17.3232H79.8817V17.7163V18.4238V18.7383H79.41V19.8389H79.9603V20.8609C79.4886 22.3547 78.6238 25.6566 78.388 29.7447C78.3094 31.0026 78.2308 32.6535 78.1522 34.5403H77.5232C77.2087 34.5403 76.9729 34.7762 76.9729 35.0907C76.9729 35.3265 77.1301 35.4837 77.366 35.5624V35.3265H80.3534ZM96.0769 35.2479C96.0769 35.2479 96.0769 35.3265 96.1555 35.3265H99.4574L99.536 35.2479H96.0769ZM165.024 37.7636V30.9239H164.552V29.3516H162.587V26.2855L161.329 24.949L160.071 26.2855V29.3516H158.184V30.9239V37.7636H129.096V30.9239H128.624V29.3516H126.659V26.2855L125.401 24.949L124.143 26.2855V29.3516H122.335V30.9239V37.7636H121.47L121.156 38.2353L121.47 38.8643H122.178V48.5342H121.706V50.6569H120.684V53.2512H110.7V52.7009H69.7401V53.2512H61.957V50.6569H61.0136V48.5342H60.5419V38.8643H61.2495L61.5639 38.2353L61.2495 37.7636H60.3847V30.9239V29.3516H58.4979V26.2855L57.24 24.949L55.9821 26.2855V29.3516H54.0167V30.9239H53.545V37.7636H24.4566V30.9239V29.3516H22.5698V26.2855L21.3119 24.949L20.1327 26.3641V29.4302H18.1672V31.0026H17.6955V37.8423H2.83687V38.4712H54.1739V55.3739H60.2274V55.4525H121.392V55.3739H128.624V38.3926H179.961V37.7636H165.024ZM81.1396 35.2479C81.1396 35.2479 81.1396 35.3265 81.2182 35.3265H84.5201L84.5988 35.2479H81.1396Z" fill="#BD0113"/>
<path d="M67.2244 60.7985C67.1458 60.7985 67.0672 60.7985 67.0672 60.7985C67.0672 60.7199 67.0672 60.6413 67.0672 60.5626C67.0672 59.3834 66.2024 58.6758 65.4948 58.6758C64.7087 58.6758 63.9225 59.462 63.9225 60.5626C63.9225 60.6413 63.9225 60.7199 63.9225 60.7985C63.8439 60.7985 63.7653 60.7985 63.6866 60.7985C62.586 60.7985 61.7998 61.6633 61.7998 62.3708C61.7998 63.0784 62.4288 63.9432 63.6866 63.9432C63.7653 63.9432 63.7653 63.9432 63.8439 63.9432C63.8439 64.0218 63.8439 64.1004 63.8439 64.179C63.8439 65.2797 64.7087 66.0658 65.4162 66.0658C66.1238 66.0658 66.9886 65.4369 66.9886 64.179C66.9886 64.1004 66.9886 64.0218 66.9886 63.9432C67.0672 63.9432 67.0672 63.9432 67.1458 63.9432C68.3251 63.9432 69.0326 63.0784 69.0326 62.3708C69.1112 61.6633 68.3251 60.7985 67.2244 60.7985ZM64.4728 60.6413C64.4728 59.9337 65.0231 59.3834 65.4162 59.3834C65.8879 59.3834 66.3596 59.8551 66.3596 60.6413C66.3596 60.7985 66.281 60.9557 66.1238 61.1916C65.8093 61.4274 65.5735 61.6633 65.3376 61.8991C65.1804 61.6633 64.8659 61.4274 64.5514 61.1916C64.5514 61.0343 64.4728 60.7985 64.4728 60.6413ZM63.6866 63.3929V63.7073V63.3929C62.8219 63.3929 62.4288 62.8425 62.4288 62.4494C62.4288 61.9777 62.9791 61.506 63.6866 61.506C63.8439 61.506 64.0011 61.5847 64.237 61.7419C64.4728 62.0564 64.7087 62.2922 64.9445 62.5281C64.7087 62.6853 64.4728 62.9998 64.237 63.3142C64.0011 63.3142 63.8439 63.3929 63.6866 63.3929ZM66.4382 64.179C66.4382 64.9652 65.8879 65.4369 65.4948 65.4369C65.0231 65.4369 64.5514 64.8866 64.5514 64.179C64.5514 64.0218 64.6301 63.8646 64.7873 63.6287C65.1018 63.3928 65.3376 63.157 65.5735 62.9212C65.7307 63.157 66.0452 63.3928 66.3596 63.6287C66.3596 63.7859 66.4382 64.0218 66.4382 64.179ZM68.4823 62.3708C68.4823 62.8425 68.0106 63.3142 67.2244 63.3142V63.6287V63.3142C67.0672 63.3142 66.91 63.2356 66.6741 63.0784C66.4382 62.7639 66.2024 62.5281 65.9665 62.2922C66.2024 62.135 66.4382 61.8205 66.6741 61.506C66.8313 61.3488 67.0672 61.2702 67.2244 61.2702C67.932 61.4274 68.4823 61.9777 68.4823 62.3708ZM76.8157 60.7985C76.7371 60.7985 76.6585 60.7985 76.6585 60.7985C76.6585 60.7199 76.6585 60.6413 76.6585 60.5626C76.6585 59.3834 75.7937 58.6758 75.0861 58.6758C74.3 58.6758 73.5138 59.462 73.5138 60.5626C73.5138 60.6413 73.5138 60.7199 73.5138 60.7985C73.4352 60.7985 73.3566 60.7985 73.2779 60.7985C72.1773 60.7985 71.3911 61.6633 71.3911 62.3708C71.3911 63.0784 72.0201 63.9432 73.2779 63.9432C73.3566 63.9432 73.3566 63.9432 73.4352 63.9432C73.4352 64.0218 73.4352 64.1004 73.4352 64.179C73.4352 65.2797 74.3 66.0658 75.0075 66.0658C75.7151 66.0658 76.5799 65.4369 76.5799 64.179C76.5799 64.1004 76.5799 64.0218 76.5799 63.9432C76.6585 63.9432 76.6585 63.9432 76.7371 63.9432C77.9164 63.9432 78.6239 63.0784 78.6239 62.3708C78.7025 61.6633 77.9164 60.7985 76.8157 60.7985ZM74.0641 60.6413C74.0641 59.9337 74.6144 59.3834 75.0075 59.3834C75.4792 59.3834 75.9509 59.8551 75.9509 60.6413C75.9509 60.7985 75.8723 60.9557 75.7151 61.1916C75.4006 61.4274 75.1648 61.6633 74.9289 61.8991C74.7717 61.6633 74.4572 61.4274 74.1427 61.1916C74.1427 61.0343 74.0641 60.7985 74.0641 60.6413ZM73.2779 63.3929V63.7073V63.3929C72.4132 63.3929 72.0201 62.8425 72.0201 62.4494C72.0201 61.9777 72.5704 61.506 73.2779 61.506C73.4352 61.506 73.5924 61.5847 73.8283 61.7419C74.0641 62.0564 74.3 62.2922 74.5358 62.5281C74.3 62.6853 74.0641 62.9998 73.8283 63.3142C73.5924 63.3142 73.4352 63.3929 73.2779 63.3929ZM76.0295 64.179C76.0295 64.9652 75.4792 65.4369 75.0861 65.4369C74.6144 65.4369 74.1427 64.8866 74.1427 64.179C74.1427 64.0218 74.2214 63.7859 74.3786 63.6287C74.6931 63.3928 74.9289 63.157 75.1648 62.9212C75.322 63.157 75.6365 63.3928 75.9509 63.6287C75.9509 63.7859 76.0295 64.0218 76.0295 64.179ZM78.0736 62.3708C78.0736 62.8425 77.6019 63.3142 76.8157 63.3142V63.6287V63.3142C76.6585 63.3142 76.5013 63.2356 76.2654 63.0784C76.0295 62.7639 75.7937 62.5281 75.5578 62.2922C75.7937 62.135 76.0295 61.8205 76.2654 61.506C76.4226 61.3488 76.6585 61.2702 76.8157 61.2702C77.5233 61.4274 78.0736 61.9777 78.0736 62.3708ZM108.42 60.7985C108.341 60.7985 108.263 60.7985 108.263 60.7985C108.263 60.7199 108.263 60.6413 108.263 60.5626C108.263 59.3834 107.398 58.6758 106.69 58.6758C105.904 58.6758 105.118 59.462 105.118 60.5626C105.118 60.6413 105.118 60.7199 105.118 60.7985C105.039 60.7985 104.961 60.7985 104.882 60.7985C103.781 60.7985 102.995 61.6633 102.995 62.3708C102.995 63.0784 103.624 63.9432 104.882 63.9432C104.961 63.9432 104.961 63.9432 105.039 63.9432C105.039 64.0218 105.039 64.1004 105.039 64.179C105.039 65.2797 105.904 66.0658 106.612 66.0658C107.319 66.0658 108.184 65.4369 108.184 64.179C108.184 64.1004 108.184 64.0218 108.184 63.9432C108.263 63.9432 108.263 63.9432 108.341 63.9432C109.52 63.9432 110.228 63.0784 110.228 62.3708C110.307 61.6633 109.52 60.7985 108.42 60.7985ZM105.668 60.6413C105.668 59.9337 106.219 59.3834 106.612 59.3834C107.083 59.3834 107.555 59.8551 107.555 60.6413C107.555 60.7985 107.476 60.9557 107.319 61.1916C107.005 61.4274 106.769 61.6633 106.533 61.8991C106.376 61.6633 106.061 61.4274 105.747 61.1916C105.747 61.0343 105.668 60.7985 105.668 60.6413ZM104.882 63.3929V63.7073V63.3929C104.017 63.3929 103.624 62.8425 103.624 62.4494C103.624 61.9777 104.174 61.506 104.882 61.506C105.039 61.506 105.197 61.5847 105.432 61.7419C105.668 62.0564 105.904 62.2922 106.14 62.5281C105.904 62.6853 105.668 62.9998 105.432 63.3142C105.275 63.3142 105.039 63.3929 104.882 63.3929ZM107.634 64.179C107.634 64.9652 107.083 65.4369 106.69 65.4369C106.219 65.4369 105.747 64.8866 105.747 64.179C105.747 64.0218 105.825 63.7859 105.983 63.6287C106.297 63.3928 106.533 63.157 106.769 62.9212C106.926 63.157 107.241 63.3928 107.555 63.6287C107.555 63.7859 107.634 64.0218 107.634 64.179ZM109.678 62.3708C109.678 62.8425 109.206 63.3142 108.42 63.3142V63.6287V63.3142C108.263 63.3142 108.105 63.2356 107.87 63.0784C107.634 62.7639 107.398 62.5281 107.162 62.2922C107.398 62.135 107.634 61.8205 107.87 61.506C108.027 61.3488 108.263 61.2702 108.42 61.2702C109.127 61.4274 109.678 61.9777 109.678 62.3708ZM119.898 62.3708C119.898 61.5847 119.112 60.7985 118.011 60.7985C117.933 60.7985 117.854 60.7985 117.854 60.7985C117.854 60.7199 117.854 60.6413 117.854 60.5626C117.854 59.3834 116.989 58.6758 116.282 58.6758C115.495 58.6758 114.709 59.462 114.709 60.5626C114.709 60.6413 114.709 60.7199 114.709 60.7985C114.631 60.7985 114.552 60.7985 114.473 60.7985C113.373 60.7985 112.587 61.6633 112.587 62.3708C112.587 63.0784 113.215 63.9432 114.473 63.9432C114.552 63.9432 114.552 63.9432 114.631 63.9432C114.631 64.0218 114.631 64.1004 114.631 64.179C114.631 65.2797 115.495 66.0658 116.203 66.0658C116.91 66.0658 117.775 65.4369 117.775 64.179C117.775 64.1004 117.775 64.0218 117.775 63.9432C117.854 63.9432 117.854 63.9432 117.933 63.9432C119.269 63.9432 119.898 63.157 119.898 62.3708ZM115.26 60.6413C115.26 59.9337 115.81 59.3834 116.203 59.3834C116.675 59.3834 117.146 59.8551 117.146 60.6413C117.146 60.7985 117.068 60.9557 116.91 61.1916C116.596 61.4274 116.36 61.6633 116.124 61.8991C115.967 61.6633 115.653 61.4274 115.338 61.1916C115.338 61.0343 115.26 60.7985 115.26 60.6413ZM114.473 63.3929V63.7073V63.3929C113.609 63.3929 113.215 62.8425 113.215 62.4494C113.215 61.9777 113.766 61.506 114.473 61.506C114.631 61.506 114.788 61.5847 115.024 61.7419C115.26 62.0564 115.495 62.2922 115.731 62.5281C115.495 62.6853 115.26 62.9998 115.024 63.3142C114.866 63.3142 114.631 63.3929 114.473 63.3929ZM117.225 64.179C117.225 64.9652 116.675 65.4369 116.282 65.4369C115.81 65.4369 115.338 64.8866 115.338 64.179C115.338 64.0218 115.417 63.7859 115.574 63.6287C115.888 63.3928 116.124 63.157 116.36 62.9212C116.517 63.157 116.832 63.3928 117.146 63.6287C117.146 63.7859 117.225 64.0218 117.225 64.179ZM119.269 62.3708C119.269 62.8425 118.797 63.3142 118.011 63.3142V63.6287V63.3142C117.854 63.3142 117.697 63.2356 117.461 63.0784C117.225 62.7639 116.989 62.5281 116.753 62.2922C116.989 62.135 117.225 61.8205 117.461 61.506C117.618 61.3488 117.854 61.2702 118.011 61.2702C118.719 61.4274 119.269 61.9777 119.269 62.3708ZM121.313 57.1035V55.2953H180.04V50.7355H166.282V48.6128H165.81V43.8958H167.147V48.1411H170.842V43.8172H174.694V48.1411H178.389V43.8172H179.961V42.6379H178.389V41.8517C178.389 41.7731 178.389 41.6159 178.389 41.5373C178.389 40.5152 177.524 39.6505 176.502 39.6505C175.48 39.6505 174.616 40.5152 174.616 41.5373C174.616 41.6945 174.616 41.8517 174.694 42.009V42.6379H170.842V41.8517C170.842 41.7731 170.842 41.6159 170.842 41.5373C170.842 40.5152 169.977 39.6505 168.955 39.6505C167.933 39.6505 167.068 40.5152 167.068 41.5373C167.068 41.6945 167.068 41.8517 167.147 42.009V42.6379H165.81V38.8643H179.883V37.685H165.024V30.8453H164.553V29.273H162.587V26.2069L161.329 24.8704L160.071 26.2069V29.273H158.185V30.8453V37.685H129.096V30.8453H128.624V29.273H126.659V26.2069L125.401 24.8704L124.143 26.2069V29.273H122.335V30.8453V37.685H121.47L121.156 38.1567L121.47 38.7857H122.178V48.4556H121.706V50.5782H120.684V53.1726H110.7V52.6223H69.7402V53.1726H61.9571V50.5782H61.0137V48.4556H60.542V38.8643H61.2495L61.564 38.2353L61.2495 37.7636H60.3847V30.9239V29.3516H58.4979V26.2855L57.24 24.949L55.9822 26.2855V29.3516H54.0167V30.9239H53.545V37.7636H24.4567V30.9239V29.3516H22.5698V26.2855L21.312 24.949L20.1327 26.3641V29.4302H18.1673V31.0026H17.6956V37.8423H2.83693V39.0215H16.9094V42.6379H15.5729V42.009C15.5729 41.8517 15.6515 41.6945 15.6515 41.5373C15.6515 40.5152 14.7867 39.6505 13.7647 39.6505C12.7427 39.6505 11.8779 40.5152 11.8779 41.5373C11.8779 41.6159 11.8779 41.7731 11.8779 41.8517V42.6379H8.02567V42.009C8.02567 41.8517 8.10428 41.6945 8.10428 41.5373C8.10428 40.5152 7.23949 39.6505 6.21747 39.6505C5.19545 39.6505 4.33066 40.5152 4.33066 41.5373C4.33066 41.6159 4.33066 41.7731 4.33066 41.8517V42.6379H2.83693V43.8172H4.40927V48.1411H8.10428V43.8172H11.9565V48.1411H15.6515V43.8172H16.988V48.5342H16.5163V50.6569H2.60108V55.2167H60.1489V57.0249V57.811V73.7703H57.0042V72.0407H58.5765V71.4904H58.3407V69.3678H57.9476V66.9306H57.6331V64.4935H57.3187V61.9777H57.0828V59.7765H56.4539V61.9777H56.1394V63.8646H55.7463V65.6728H55.4318V67.4809H55.1174V69.525H54.8029V71.569H54.5671V72.1194H56.1394V73.8489H54.174C54.2526 72.5124 54.2526 66.852 50.1645 62.5281C45.6047 57.5752 40.6518 57.5752 37.9788 57.5752C35.2272 57.5752 30.0385 57.5752 25.4001 62.5281C21.312 66.852 21.312 72.5124 21.3906 73.8489H19.5038V72.1194H21.0761V71.569H20.8403V69.3678H20.4472V66.9306H20.1327V64.4935H19.8182V61.9777H19.5038V59.7765H18.8748V61.9777H18.5604V63.8646H18.1673V65.6728H17.7742V67.4809H17.4597V69.525H17.1453V71.569H16.988V72.1194H18.5604V73.8489H16.9094C16.988 72.5124 16.988 66.852 12.8999 62.5281C8.49737 57.8896 2.83693 57.5752 2.60108 57.5752L2.52246 59.3048C2.60108 59.3048 7.7112 59.5406 11.6421 63.7073C15.3371 67.6382 15.2584 72.9841 15.1798 73.8489H14.315V75.893H15.2584V87.8428H22.7271V75.9716H23.6705V73.9276H23.1202C23.0415 73.0628 22.9629 67.6382 26.6579 63.7859C30.5102 59.6978 34.5197 59.3834 37.9788 59.3834C41.2807 59.3834 45.2116 59.6978 49.0638 63.7859C52.7589 67.7168 52.6802 73.0628 52.6016 73.9276H52.0513V75.9716H52.9947V87.9214H60.4633V75.9716H69.3471V79.1949C68.2464 80.0597 67.5389 81.3962 67.5389 82.8899C67.5389 84.1478 68.0106 85.2484 68.7968 86.1132V87.9214H69.2685H75.7151H76.1868V86.1132C76.973 85.2484 77.4447 84.1478 77.4447 82.8899C77.4447 81.3962 76.7371 80.0597 75.6365 79.1949V75.9716H76.8157V74.0062C76.8157 73.9276 76.4226 69.4464 79.8818 65.7514C83.4196 61.9777 87.1932 61.5847 89.7089 61.5847C92.3033 61.5847 95.8411 62.0564 99.3002 65.7514C102.445 69.1319 102.366 73.2986 102.366 73.9276C102.366 74.0062 102.366 74.0062 102.366 74.0062V75.9716H103.86V79.1163C102.759 79.9811 102.052 81.3176 102.052 82.8113C102.052 84.0692 102.524 85.1698 103.31 86.0346V87.8428H103.781H110.228H110.7V86.0346C111.486 85.1698 111.958 84.0692 111.958 82.8113C111.958 81.3176 111.25 79.9811 110.149 79.1163V75.9716H120.527V87.9214H127.996V75.9716H128.939V73.9276H128.389C128.31 73.0628 128.231 67.6382 131.926 63.7859C135.779 59.6978 139.788 59.3834 143.247 59.3834C146.549 59.3834 150.48 59.6978 154.332 63.7859C158.027 67.7168 157.949 73.0628 157.87 73.9276H157.32V75.9716H158.263V87.9214H165.732V75.9716H166.675V73.9276H166.046C165.968 73.0628 165.889 67.7168 169.584 63.7859C173.515 59.6192 179.961 59.3834 179.961 59.3834V58.5186V57.6538C179.726 57.6538 172.807 57.9683 168.405 62.6067C164.317 66.9306 164.317 72.5911 164.395 73.9276H162.508V72.198H164.081V71.6477H163.845V69.3678H163.452V66.9306H163.216V64.4935H162.902V61.9777H162.587V59.7765H161.958V61.9777H161.644V63.8646H161.251V65.6728H160.857V67.4809H160.543V69.525H160.229V71.569H160.071V72.1194H161.644V73.8489H159.678C159.757 72.5124 159.757 66.852 155.669 62.5281C151.03 57.5752 145.999 57.5752 143.326 57.5752C140.574 57.5752 135.386 57.5752 130.747 62.5281C126.659 66.852 126.659 72.5124 126.738 73.8489H124.851V72.1194H126.423V71.569H126.187V69.3678H125.794V66.9306H125.48V64.4935H125.165V61.9777H124.851V59.7765H124.222V61.9777H123.907V63.8646H123.514V65.6728H123.2V67.4809H122.885V69.525H122.571V71.569H122.335V72.1194H123.907V73.8489H121.313V57.8896V57.1035ZM129.882 38.8643H158.106V42.6379H156.455V41.8517C156.455 41.7731 156.455 41.6159 156.455 41.5373C156.455 40.5152 155.59 39.6505 154.568 39.6505C153.546 39.6505 152.681 40.5152 152.681 41.5373C152.681 41.6945 152.681 41.8517 152.76 42.009V42.6379H148.908V41.8517C148.908 41.7731 148.908 41.6159 148.908 41.5373C148.908 40.5152 148.043 39.6505 147.021 39.6505C145.999 39.6505 145.134 40.5152 145.134 41.5373C145.134 41.6945 145.134 41.8517 145.213 42.009V42.6379H142.304V41.8517C142.304 41.7731 142.304 41.6159 142.304 41.5373C142.304 40.5152 141.439 39.6505 140.417 39.6505C139.395 39.6505 138.53 40.5152 138.53 41.5373C138.53 41.6945 138.53 41.8517 138.609 42.009V42.6379H134.757V41.8517C134.757 41.7731 134.757 41.6159 134.757 41.5373C134.757 40.5152 133.892 39.6505 132.87 39.6505C131.848 39.6505 130.983 40.5152 130.983 41.5373C130.983 41.6945 130.983 41.8517 131.062 42.009V42.6379H129.804V38.8643H129.882ZM129.882 43.8172H131.14V48.1411H134.835V43.8172H138.687V48.1411H142.382V43.8172H145.291V48.1411H148.986V43.8172H152.839V48.1411H156.534V43.8172H158.185V48.5342H157.713V50.6569H130.511V48.5342H130.04V43.8172H129.882ZM52.8375 48.5342H52.3658V50.6569H25.0856V48.5342H24.6139V43.8172H26.2649V48.1411H29.9599V43.8172H33.8121V48.1411H37.4285V43.8172H40.3373V48.1411H44.0323V43.8172H47.8846V48.1411H51.5796V43.8172H52.8375V48.5342ZM52.8375 42.6379H51.5796V42.009C51.5796 41.8517 51.6582 41.6945 51.6582 41.5373C51.6582 40.5152 50.7934 39.6505 49.7714 39.6505C48.7494 39.6505 47.8846 40.5152 47.8846 41.5373C47.8846 41.6159 47.8846 41.7731 47.8846 41.8517V42.6379H44.0323V42.009C44.0323 41.8517 44.111 41.6945 44.111 41.5373C44.111 40.5152 43.2462 39.6505 42.2241 39.6505C41.2021 39.6505 40.3373 40.5152 40.3373 41.5373C40.3373 41.6159 40.3373 41.7731 40.3373 41.8517V42.6379H37.4285V42.009C37.4285 41.8517 37.5071 41.6945 37.5071 41.5373C37.5071 40.5152 36.6423 39.6505 35.6203 39.6505C34.5983 39.6505 33.7335 40.5152 33.7335 41.5373C33.7335 41.6159 33.7335 41.7731 33.7335 41.8517V42.6379H29.8813V42.009C29.8813 41.8517 29.9599 41.6945 29.9599 41.5373C29.9599 40.5152 29.0951 39.6505 28.0731 39.6505C27.051 39.6505 26.1862 40.5152 26.1862 41.5373C26.1862 41.6159 26.1862 41.7731 26.1862 41.8517V42.6379H24.5353V38.8643H52.7589V42.6379H52.8375ZM105.039 73.8489C105.039 73.5345 105.039 73.1414 105.039 72.5911H110.936C111.25 72.5911 111.565 72.2766 111.565 71.9621C111.565 71.6477 111.25 71.3332 110.936 71.3332H104.882C104.568 69.2891 103.703 66.4589 101.266 63.8646C97.0203 59.3834 92.6964 58.833 89.7876 58.833C88.058 58.833 82.712 58.8331 77.995 63.8646C75.6365 66.3803 74.6931 69.2891 74.3786 71.3332H69.1112C68.7968 71.3332 68.4823 71.6477 68.4823 71.9621C68.4823 72.2766 68.7968 72.5911 69.1112 72.5911H74.3C74.3 73.1414 74.3 73.6131 74.3 73.8489H61.4854V57.8896H120.055V73.8489H105.039ZM90.4951 22.5119C91.2027 22.5119 92.0675 21.883 92.0675 20.6251C92.0675 20.5465 92.0675 20.4679 92.0675 20.4679C92.1461 20.4679 92.1461 20.4679 92.2247 20.4679C93.4039 20.4679 94.1115 19.6031 94.1115 18.8955C94.1115 18.1093 93.3253 17.3232 92.2247 17.3232C92.1461 17.3232 92.1461 17.3232 92.0675 17.3232C92.0675 17.2445 92.0675 17.1659 92.0675 17.1659C92.0675 15.9867 91.2027 15.2791 90.4951 15.2791C89.7089 15.2791 88.9228 16.0653 88.9228 17.1659C88.9228 17.2446 88.9228 17.3232 88.9228 17.3232C88.8442 17.3232 88.7655 17.3232 88.7655 17.3232C87.6649 17.3232 86.8787 18.188 86.8787 18.8955C86.8787 19.6031 87.5077 20.4679 88.7655 20.4679C88.8442 20.4679 88.8442 20.4679 88.9228 20.4679C88.9228 20.5465 88.9228 20.6251 88.9228 20.6251C88.9228 21.7257 89.7089 22.4333 90.4951 22.5119ZM91.6744 18.0307C91.8316 17.8735 92.0675 17.7949 92.2247 17.7949C92.9322 17.7949 93.4826 18.3452 93.4826 18.7383C93.4826 19.21 93.0109 19.6817 92.2247 19.6817V19.9962V19.8389C92.0675 19.8389 91.9102 19.7603 91.6744 19.6031C91.4385 19.2886 91.2027 19.0527 90.9668 18.8169C91.2027 18.6597 91.4385 18.3452 91.6744 18.0307ZM90.4951 15.8294C90.9668 15.8294 91.4385 16.3011 91.4385 17.0873C91.4385 17.2446 91.3599 17.4018 91.2027 17.6376C90.8882 17.8735 90.6524 18.1093 90.4165 18.3452C90.2593 18.1093 89.9448 17.8735 89.6303 17.6376C89.4731 17.4018 89.3945 17.2446 89.3945 17.0873C89.5517 16.3798 90.0234 15.8294 90.4951 15.8294ZM89.2372 19.6031C89.08 19.7603 88.8441 19.8389 88.6869 19.8389V20.1534V19.8389C87.9007 19.8389 87.429 19.2886 87.429 18.8955C87.429 18.4238 87.9794 17.9521 88.6869 17.9521C88.8441 17.9521 89.0014 18.0307 89.2372 18.188C89.4731 18.5024 89.7089 18.7383 89.9448 18.9741C89.7876 19.0527 89.4731 19.2886 89.2372 19.6031ZM89.4731 20.6251C89.4731 20.4679 89.5517 20.3106 89.7089 20.0748C90.0234 19.8389 90.2593 19.6031 90.4951 19.3672C90.6523 19.6031 90.9668 19.8389 91.2813 20.0748C91.4385 20.232 91.5171 20.4679 91.5171 20.6251C91.5171 21.4113 90.9668 21.883 90.5737 21.883C90.0234 21.883 89.5517 21.3326 89.4731 20.6251ZM109.756 46.0971H106.926V44.682H107.87V43.6599H107.398V42.7951H107.791V42.5593V41.9304V41.6159H108.105V40.5152L108.734 40.8297V41.5373V41.8517V41.9304H109.127V42.7951H109.442V43.6599H108.734V44.682H109.835V46.0971H109.756ZM110.7 49.0059H110.149H105.668H102.759C102.759 46.0971 102.681 39.4146 102.602 35.641H102.995C103.31 35.641 103.546 35.4051 103.546 35.0907C103.546 34.7762 103.31 34.5403 102.995 34.5403H102.681C102.602 32.8894 102.524 31.2384 102.445 29.7447C102.13 24.949 101.187 21.8043 100.715 20.5465V19.8389H101.266V18.7383H100.794V18.4238V17.7163V17.3232H100.401V15.9867L99.6147 16.3798V17.3232V17.559V17.6376H99.143V18.7383H98.7499V19.2886H96.5486V16.0653H97.8851C97.9637 16.0653 98.0424 15.9081 98.0424 15.5936C98.0424 15.3577 97.9637 15.1219 97.8851 15.1219H95.3694L95.448 9.30421C95.448 9.06836 95.2908 8.83251 95.0549 8.67527C95.0549 8.67527 93.6398 7.96772 92.6178 6.23814C91.5171 4.42994 91.1241 1.0494 91.1241 1.0494C91.0454 0.734936 90.8096 0.499084 90.4951 0.499084C90.1806 0.499084 89.8662 0.734936 89.8662 1.0494C89.8662 1.0494 89.6303 3.09345 88.7655 5.29473C87.9794 7.4174 85.6995 9.2256 85.6995 9.30421C85.5422 9.46145 85.4636 9.61868 85.4636 9.85453V15.1219H83.2623C83.1837 15.1219 83.1051 15.2791 83.1051 15.5936C83.1051 15.8294 83.1837 16.0653 83.2623 16.0653H84.0485V19.2886H82.1617V22.3547C81.7686 20.7823 81.3755 19.9962 81.2969 19.9175L81.2183 19.8389H82.0045V18.7383H81.6114V17.6376H81.1397V17.559V17.3232V16.3798L80.3535 15.9867V17.3232H79.9604V17.7163V18.4238V18.7383H79.4887V19.8389H80.039V20.8609C79.5673 22.3547 78.7025 25.6566 78.4667 29.7447C78.3881 31.0026 78.3094 32.6535 78.2308 34.5403H77.5233C77.2088 34.5403 76.973 34.7762 76.973 35.0907C76.973 35.4051 77.2088 35.641 77.5233 35.641H78.2308C78.1522 39.1787 78.0736 46.0184 77.995 49.0059H74.3H69.8188V50.1852H110.778V49.0059H110.7ZM98.8285 19.8389H99.6147L99.5361 19.9962C99.5361 20.0748 99.2216 20.9396 98.8285 22.4333V19.8389ZM96.0769 16.1439C96.0769 16.1439 96.0769 19.6817 96.0769 19.7603H98.3568V24.6346C98.1996 25.4207 98.0424 26.3641 97.8851 27.3076C97.2562 23.0622 95.9983 20.0748 95.9197 19.9175L95.8411 19.6817C95.8411 19.6031 95.3694 18.1093 94.1901 16.1439H96.0769ZM83.4982 35.641H84.0485C84.363 35.641 84.5988 35.4051 84.5988 35.0907C84.5988 34.7762 84.363 34.5403 84.0485 34.5403H83.4982C83.4982 34.0686 83.4982 33.6755 83.4982 33.2038C83.5768 31.946 83.5768 30.7667 83.6554 29.8233C83.9699 25.7352 85.0705 22.4333 85.5422 21.0182C86.5642 22.0402 88.7655 24.8704 89.7876 29.3516C89.8662 29.5875 89.8662 29.9805 89.9448 30.3736C89.8662 31.4743 89.7876 32.8894 89.7089 34.5403H89.3159C89.0014 34.5403 88.7655 34.7762 88.7655 35.0907C88.7655 35.4051 89.0014 35.641 89.3159 35.641H89.7089C89.6303 39.0215 89.6303 45.9398 89.6303 49.0059H83.4982C83.4982 46.0971 83.4982 39.336 83.4982 35.641ZM85.8567 19.9962C85.8567 19.9175 86.407 18.3452 87.5863 16.3798C88.4511 14.886 89.7876 13.5495 90.4165 13.0778C91.0454 13.6282 92.3819 14.886 93.2467 16.3798C94.3474 18.2666 94.8977 19.7603 94.9763 19.9962C94.1901 20.7037 91.753 23.2981 90.4165 27.9365C89.08 23.3767 86.6429 20.7823 85.8567 19.9962ZM91.1241 35.641H91.5958C91.9102 35.641 92.1461 35.4051 92.1461 35.0907C92.1461 34.7762 91.9102 34.5403 91.5958 34.5403H91.0454C90.9668 32.8894 90.8882 31.4743 90.8096 30.3736C90.8882 29.9805 90.8882 29.5875 90.9668 29.3516C91.9888 24.8704 94.1901 22.1188 95.2121 21.0182C95.6838 22.4333 96.7845 25.7352 97.099 29.8233C97.1776 31.0812 97.2562 32.7321 97.3348 34.5403H96.5486C96.2342 34.5403 95.9983 34.7762 95.9983 35.0907C95.9983 35.4051 96.2342 35.641 96.5486 35.641H97.3348C97.3348 35.8768 97.3348 36.1127 97.3348 36.3485C97.3348 39.6505 97.3348 46.1757 97.3348 49.0059H91.0454C91.2027 45.9398 91.2027 39.0215 91.1241 35.641ZM86.7215 10.2476C87.3504 9.6973 89.1586 7.96772 89.9448 5.92367C90.102 5.37335 90.3379 4.90165 90.4165 4.42994C90.6524 5.37335 91.0454 6.31676 91.4385 7.10293C92.3033 8.67527 93.4826 9.54006 94.1115 9.85453L94.0329 15.2791H93.797C93.7184 15.2791 93.7184 15.3577 93.7184 15.4364C92.4605 13.5495 90.731 12.1344 90.6523 12.0558L90.3379 11.82L90.0234 12.0558C89.9448 12.1344 88.3724 13.4709 87.1146 15.2005H86.6429V10.2476H86.7215ZM82.5548 19.7603H84.4416C84.5202 19.6031 84.4416 16.1439 84.4416 16.1439H86.5643C85.6995 17.6376 85.2278 18.8955 84.9919 19.4458L84.7561 19.9175C84.6774 20.0748 83.4982 22.7478 82.8692 26.6786C82.7906 25.8138 82.6334 25.1063 82.4762 24.3987V19.7603H82.5548ZM78.9384 49.0059C78.9384 46.0184 79.017 39.1787 79.1742 35.641H79.8818C80.1963 35.641 80.4321 35.4051 80.4321 35.0907C80.4321 34.7762 80.1963 34.5403 79.8818 34.5403H79.1742C79.2529 32.7321 79.3315 31.0812 79.4101 29.8233C79.6459 26.2855 80.3535 23.3767 80.8252 21.7257C81.2969 23.2195 82.0045 25.9711 82.2403 29.8233C82.3189 30.9239 82.3189 32.0246 82.3975 33.2038C82.3975 33.6755 82.3975 34.0686 82.3189 34.5403H81.5328C81.2183 34.5403 80.9824 34.7762 80.9824 35.0907C80.9824 35.4051 81.2183 35.641 81.5328 35.641H82.2403C82.1617 39.1787 82.0831 46.0184 82.0045 49.0059H78.9384ZM98.5927 49.0059C98.5927 46.1757 98.5141 39.6505 98.4354 36.3485C98.4354 36.1127 98.4354 35.8768 98.4354 35.641H98.9858C99.3002 35.641 99.5361 35.4051 99.5361 35.0907C99.5361 34.7762 99.3002 34.5403 98.9858 34.5403H98.4354C98.4354 32.7321 98.5141 31.0812 98.5927 29.8233C98.8285 26.2855 99.5361 23.3767 100.008 21.7257C100.479 23.2195 101.187 25.9711 101.423 29.8233C101.502 31.317 101.58 32.8894 101.659 34.5403H100.637C100.322 34.5403 100.086 34.7762 100.086 35.0907C100.086 35.4051 100.322 35.641 100.637 35.641H101.659C101.737 39.4146 101.816 46.0971 101.816 49.0059H98.5927ZM73.4352 46.0971H70.605V44.682H71.7056V43.6599H70.998V42.7951H71.2339V41.9304H71.627V41.8517V41.6159V40.9083L72.2559 40.5939V41.6945H72.5704V42.009V42.6379V42.8738H72.9635V43.7385H72.4918V44.7606H73.4352V46.0971Z" fill="white"/>
<path d="M63.6866 63.3929V63.7073V63.3929ZM63.6866 63.3929C62.8219 63.3929 62.4288 62.8425 62.4288 62.4494C62.4288 61.9777 62.9791 61.506 63.6866 61.506C63.8439 61.506 64.0011 61.5847 64.237 61.7419C64.4728 62.0564 64.7087 62.2922 64.9445 62.5281C64.7087 62.6853 64.4728 62.9998 64.237 63.3142C64.0011 63.3142 63.8439 63.3929 63.6866 63.3929ZM73.2779 63.3929V63.7073V63.3929ZM73.2779 63.3929C72.4132 63.3929 72.0201 62.8425 72.0201 62.4494C72.0201 61.9777 72.5704 61.506 73.2779 61.506C73.4352 61.506 73.5924 61.5847 73.8283 61.7419C74.0641 62.0564 74.3 62.2922 74.5358 62.5281C74.3 62.6853 74.0641 62.9998 73.8283 63.3142C73.5924 63.3142 73.4352 63.3929 73.2779 63.3929ZM104.882 63.3929V63.7073V63.3929ZM104.882 63.3929C104.017 63.3929 103.624 62.8425 103.624 62.4494C103.624 61.9777 104.175 61.506 104.882 61.506C105.039 61.506 105.197 61.5847 105.432 61.7419C105.668 62.0564 105.904 62.2922 106.14 62.5281C105.904 62.6853 105.668 62.9998 105.432 63.3142C105.275 63.3142 105.039 63.3929 104.882 63.3929ZM114.473 63.3929V63.7073V63.3929ZM114.473 63.3929C113.609 63.3929 113.215 62.8425 113.215 62.4494C113.215 61.9777 113.766 61.506 114.473 61.506C114.631 61.506 114.788 61.5847 115.024 61.7419C115.26 62.0564 115.495 62.2922 115.731 62.5281C115.495 62.6853 115.26 62.9998 115.024 63.3142C114.866 63.3142 114.631 63.3929 114.473 63.3929ZM67.2244 60.7985C67.1458 60.7985 67.0672 60.7985 67.0672 60.7985C67.0672 60.7199 67.0672 60.6413 67.0672 60.5626C67.0672 59.3834 66.2024 58.6758 65.4948 58.6758C64.7087 58.6758 63.9225 59.462 63.9225 60.5626C63.9225 60.6413 63.9225 60.7199 63.9225 60.7985C63.8439 60.7985 63.7653 60.7985 63.6866 60.7985C62.586 60.7985 61.7998 61.6633 61.7998 62.3708C61.7998 63.0784 62.4288 63.9432 63.6866 63.9432C63.7653 63.9432 63.7653 63.9432 63.8439 63.9432C63.8439 64.0218 63.8439 64.1004 63.8439 64.179C63.8439 65.2797 64.7087 66.0658 65.4162 66.0658C66.1238 66.0658 66.9886 65.4369 66.9886 64.179C66.9886 64.1004 66.9886 64.0218 66.9886 63.9432C67.0672 63.9432 67.0672 63.9432 67.1458 63.9432C68.3251 63.9432 69.0326 63.0784 69.0326 62.3708C69.1112 61.6633 68.3251 60.7985 67.2244 60.7985ZM64.4728 60.6412C64.4728 59.9337 65.0231 59.3834 65.4162 59.3834C65.8879 59.3834 66.3596 59.8551 66.3596 60.6412C66.3596 60.7985 66.281 60.9557 66.1238 61.1916C65.8093 61.4274 65.5735 61.6633 65.3376 61.8991C65.1804 61.6633 64.8659 61.4274 64.5514 61.1916C64.5514 61.0343 64.4728 60.7985 64.4728 60.6412ZM66.4382 64.179C66.4382 64.9652 65.8879 65.4369 65.4948 65.4369C65.0231 65.4369 64.5514 64.8866 64.5514 64.179C64.5514 64.0218 64.6301 63.8646 64.7873 63.6287C65.1018 63.3928 65.3376 63.157 65.5735 62.9211C65.7307 63.157 66.0452 63.3928 66.3596 63.6287C66.3596 63.7859 66.4382 64.0218 66.4382 64.179ZM68.4823 62.3708C68.4823 62.8425 68.0106 63.3142 67.2244 63.3142V63.6287V63.3142C67.0672 63.3142 66.9099 63.2356 66.6741 63.0784C66.4382 62.7639 66.2024 62.5281 65.9665 62.2922C66.2024 62.135 66.4382 61.8205 66.6741 61.506C66.8313 61.3488 67.0672 61.2702 67.2244 61.2702C67.932 61.4274 68.4823 61.9777 68.4823 62.3708ZM76.8157 60.7985C76.7371 60.7985 76.6585 60.7985 76.6585 60.7985C76.6585 60.7199 76.6585 60.6413 76.6585 60.5626C76.6585 59.3834 75.7937 58.6758 75.0861 58.6758C74.3 58.6758 73.5138 59.462 73.5138 60.5626C73.5138 60.6413 73.5138 60.7199 73.5138 60.7985C73.4352 60.7985 73.3566 60.7985 73.2779 60.7985C72.1773 60.7985 71.3911 61.6633 71.3911 62.3708C71.3911 63.0784 72.0201 63.9432 73.2779 63.9432C73.3566 63.9432 73.3566 63.9432 73.4352 63.9432C73.4352 64.0218 73.4352 64.1004 73.4352 64.179C73.4352 65.2797 74.3 66.0658 75.0075 66.0658C75.7151 66.0658 76.5799 65.4369 76.5799 64.179C76.5799 64.1004 76.5799 64.0218 76.5799 63.9432C76.6585 63.9432 76.6585 63.9432 76.7371 63.9432C77.9164 63.9432 78.6239 63.0784 78.6239 62.3708C78.7025 61.6633 77.9164 60.7985 76.8157 60.7985ZM74.0641 60.6412C74.0641 59.9337 74.6144 59.3834 75.0075 59.3834C75.4792 59.3834 75.9509 59.8551 75.9509 60.6412C75.9509 60.7985 75.8723 60.9557 75.7151 61.1916C75.4006 61.4274 75.1648 61.6633 74.9289 61.8991C74.7717 61.6633 74.4572 61.4274 74.1427 61.1916C74.1427 61.0343 74.0641 60.7985 74.0641 60.6412ZM76.0295 64.179C76.0295 64.9652 75.4792 65.4369 75.0861 65.4369C74.6144 65.4369 74.1427 64.8866 74.1427 64.179C74.1427 64.0218 74.2214 63.7859 74.3786 63.6287C74.6931 63.3928 74.9289 63.157 75.1648 62.9211C75.322 63.157 75.6365 63.3928 75.9509 63.6287C75.9509 63.7859 76.0295 64.0218 76.0295 64.179ZM78.0736 62.3708C78.0736 62.8425 77.6019 63.3142 76.8157 63.3142V63.6287V63.3142C76.6585 63.3142 76.5013 63.2356 76.2654 63.0784C76.0295 62.7639 75.7937 62.5281 75.5578 62.2922C75.7937 62.135 76.0295 61.8205 76.2654 61.506C76.4226 61.3488 76.6585 61.2702 76.8157 61.2702C77.5233 61.4274 78.0736 61.9777 78.0736 62.3708ZM108.42 60.7985C108.341 60.7985 108.263 60.7985 108.263 60.7985C108.263 60.7199 108.263 60.6413 108.263 60.5626C108.263 59.3834 107.398 58.6758 106.69 58.6758C105.904 58.6758 105.118 59.462 105.118 60.5626C105.118 60.6413 105.118 60.7199 105.118 60.7985C105.039 60.7985 104.961 60.7985 104.882 60.7985C103.781 60.7985 102.995 61.6633 102.995 62.3708C102.995 63.0784 103.624 63.9432 104.882 63.9432C104.961 63.9432 104.961 63.9432 105.039 63.9432C105.039 64.0218 105.039 64.1004 105.039 64.179C105.039 65.2797 105.904 66.0658 106.612 66.0658C107.319 66.0658 108.184 65.4369 108.184 64.179C108.184 64.1004 108.184 64.0218 108.184 63.9432C108.263 63.9432 108.263 63.9432 108.341 63.9432C109.52 63.9432 110.228 63.0784 110.228 62.3708C110.307 61.6633 109.52 60.7985 108.42 60.7985ZM105.668 60.6412C105.668 59.9337 106.219 59.3834 106.612 59.3834C107.083 59.3834 107.555 59.8551 107.555 60.6412C107.555 60.7985 107.476 60.9557 107.319 61.1916C107.005 61.4274 106.769 61.6633 106.533 61.8991C106.376 61.6633 106.061 61.4274 105.747 61.1916C105.747 61.0343 105.668 60.7985 105.668 60.6412ZM107.634 64.179C107.634 64.9652 107.083 65.4369 106.69 65.4369C106.219 65.4369 105.747 64.8866 105.747 64.179C105.747 64.0218 105.825 63.7859 105.983 63.6287C106.297 63.3928 106.533 63.157 106.769 62.9211C106.926 63.157 107.241 63.3928 107.555 63.6287C107.555 63.7859 107.634 64.0218 107.634 64.179ZM109.678 62.3708C109.678 62.8425 109.206 63.3142 108.42 63.3142V63.6287V63.3142C108.263 63.3142 108.105 63.2356 107.87 63.0784C107.634 62.7639 107.398 62.5281 107.162 62.2922C107.398 62.135 107.634 61.8205 107.87 61.506C108.027 61.3488 108.263 61.2702 108.42 61.2702C109.127 61.4274 109.678 61.9777 109.678 62.3708ZM119.898 62.3708C119.898 61.5847 119.112 60.7985 118.011 60.7985C117.933 60.7985 117.854 60.7985 117.854 60.7985C117.854 60.7199 117.854 60.6413 117.854 60.5626C117.854 59.3834 116.989 58.6758 116.282 58.6758C115.495 58.6758 114.709 59.462 114.709 60.5626C114.709 60.6413 114.709 60.7199 114.709 60.7985C114.631 60.7985 114.552 60.7985 114.473 60.7985C113.373 60.7985 112.587 61.6633 112.587 62.3708C112.587 63.0784 113.215 63.9432 114.473 63.9432C114.552 63.9432 114.552 63.9432 114.631 63.9432C114.631 64.0218 114.631 64.1004 114.631 64.179C114.631 65.2797 115.495 66.0658 116.203 66.0658C116.91 66.0658 117.775 65.4369 117.775 64.179C117.775 64.1004 117.775 64.0218 117.775 63.9432C117.854 63.9432 117.854 63.9432 117.933 63.9432C119.269 63.9432 119.898 63.157 119.898 62.3708ZM115.26 60.6412C115.26 59.9337 115.81 59.3834 116.203 59.3834C116.675 59.3834 117.146 59.8551 117.146 60.6412C117.146 60.7985 117.068 60.9557 116.91 61.1916C116.596 61.4274 116.36 61.6633 116.124 61.8991C115.967 61.6633 115.653 61.4274 115.338 61.1916C115.338 61.0343 115.26 60.7985 115.26 60.6412ZM117.225 64.179C117.225 64.9652 116.675 65.4369 116.282 65.4369C115.81 65.4369 115.338 64.8866 115.338 64.179C115.338 64.0218 115.417 63.7859 115.574 63.6287C115.888 63.3928 116.124 63.157 116.36 62.9211C116.517 63.157 116.832 63.3928 117.146 63.6287C117.146 63.7859 117.225 64.0218 117.225 64.179ZM119.269 62.3708C119.269 62.8425 118.797 63.3142 118.011 63.3142V63.6287V63.3142C117.854 63.3142 117.697 63.2356 117.461 63.0784C117.225 62.7639 116.989 62.5281 116.753 62.2922C116.989 62.135 117.225 61.8205 117.461 61.506C117.618 61.3488 117.854 61.2702 118.011 61.2702C118.719 61.4274 119.269 61.9777 119.269 62.3708ZM121.313 57.1035V55.2953H180.04V50.7355H166.282V48.6128H165.81V43.8958H167.147V48.1411H170.842V43.8172H174.694V48.1411H178.389V43.8172H179.961V42.6379H178.389V41.8517C178.389 41.7731 178.389 41.6159 178.389 41.5373C178.389 40.5152 177.524 39.6505 176.502 39.6505C175.48 39.6505 174.616 40.5152 174.616 41.5373C174.616 41.6945 174.616 41.8517 174.694 42.009V42.6379H170.842V41.8517C170.842 41.7731 170.842 41.6159 170.842 41.5373C170.842 40.5152 169.977 39.6505 168.955 39.6505C167.933 39.6505 167.068 40.5152 167.068 41.5373C167.068 41.6945 167.068 41.8517 167.147 42.009V42.6379H165.81V38.8643H179.883V37.685H165.024V30.8453H164.553V29.273H162.587V26.2069L161.329 24.8704L160.071 26.2069V29.273H158.185V30.8453V37.685H129.096V30.8453H128.624V29.273H126.659V26.2069L125.401 24.8704L124.143 26.2069V29.273H122.335V30.8453V37.685H121.47L121.156 38.1567L121.47 38.7857H122.178V48.4556H121.706V50.5782H120.684V53.1726H110.7V52.6223H69.7402V53.1726H61.9571V50.5782H61.0137V48.4556H60.542V38.8643H61.2495L61.564 38.2353L61.2495 37.7636H60.3847V30.9239V29.3516H58.4979V26.2855L57.24 24.949L55.9822 26.2855V29.3516H54.0167V30.9239H53.545V37.7636H24.4567V30.9239V29.3516H22.5698V26.2855L21.312 24.949L20.1327 26.3641V29.4302H18.1673V31.0026H17.6956V37.8423H2.83693V39.0215H16.9094V42.6379H15.5729V42.009C15.5729 41.8517 15.6515 41.6945 15.6515 41.5373C15.6515 40.5152 14.7867 39.6505 13.7647 39.6505C12.7427 39.6505 11.8779 40.5152 11.8779 41.5373C11.8779 41.6159 11.8779 41.7731 11.8779 41.8517V42.6379H8.02567V42.009C8.02567 41.8517 8.10428 41.6945 8.10428 41.5373C8.10428 40.5152 7.23949 39.6505 6.21747 39.6505C5.19545 39.6505 4.33066 40.5152 4.33066 41.5373C4.33066 41.6159 4.33066 41.7731 4.33066 41.8517V42.6379H2.83693V43.8172H4.40927V48.1411H8.10428V43.8172H11.9565V48.1411H15.6515V43.8172H16.988V48.5342H16.5163V50.6569H2.60108V55.2167H60.1489V57.0249V57.811V73.7703H57.0042V72.0407H58.5765V71.4904H58.3407V69.3678H57.9476V66.9306H57.6331V64.4935H57.3187V61.9777H57.0828V59.7765H56.4539V61.9777H56.1394V63.8646H55.7463V65.6728H55.4318V67.4809H55.1174V69.525H54.8029V71.569H54.5671V72.1194H56.1394V73.8489H54.174C54.2526 72.5124 54.2526 66.852 50.1645 62.5281C45.6047 57.5752 40.6518 57.5752 37.9788 57.5752C35.2272 57.5752 30.0385 57.5752 25.4001 62.5281C21.312 66.852 21.312 72.5124 21.3906 73.8489H19.5038V72.1194H21.0761V71.569H20.8403V69.3678H20.4472V66.9306H20.1327V64.4935H19.8182V61.9777H19.5038V59.7765H18.8748V61.9777H18.5604V63.8646H18.1673V65.6728H17.7742V67.4809H17.4597V69.525H17.1453V71.569H16.988V72.1194H18.5604V73.8489H16.9094C16.988 72.5124 16.988 66.852 12.8999 62.5281C8.49737 57.8896 2.83693 57.5752 2.60108 57.5752L2.52246 59.3048C2.60108 59.3048 7.7112 59.5406 11.6421 63.7073C15.3371 67.6382 15.2584 72.9841 15.1798 73.8489H14.315V75.893H15.2584V87.8428H22.7271V75.9716H23.6705V73.9276H23.1202C23.0416 73.0628 22.9629 67.6382 26.6579 63.7859C30.5102 59.6978 34.5197 59.3834 37.9788 59.3834C41.2807 59.3834 45.2116 59.6978 49.0638 63.7859C52.7589 67.7168 52.6802 73.0628 52.6016 73.9276H52.0513V75.9716H52.9947V87.9214H60.4633V75.9716H69.3471V79.1949C68.2464 80.0597 67.5389 81.3962 67.5389 82.8899C67.5389 84.1478 68.0106 85.2484 68.7968 86.1132V87.9214H69.2685H75.7151H76.1868V86.1132C76.973 85.2484 77.4447 84.1478 77.4447 82.8899C77.4447 81.3962 76.7371 80.0597 75.6365 79.1949V75.9716H76.8157V74.0062C76.8157 73.9276 76.4226 69.4464 79.8818 65.7514C83.4196 61.9777 87.1932 61.5847 89.7089 61.5847C92.3033 61.5847 95.8411 62.0564 99.3002 65.7514C102.445 69.1319 102.366 73.2986 102.366 73.9276C102.366 74.0062 102.366 74.0062 102.366 74.0062V75.9716H103.86V79.1163C102.759 79.9811 102.052 81.3176 102.052 82.8113C102.052 84.0692 102.524 85.1698 103.31 86.0346V87.8428H103.781H110.228H110.7V86.0346C111.486 85.1698 111.958 84.0692 111.958 82.8113C111.958 81.3176 111.25 79.9811 110.149 79.1163V75.9716H120.527V87.9214H127.996V75.9716H128.939V73.9276H128.389C128.31 73.0628 128.231 67.6382 131.926 63.7859C135.779 59.6978 139.788 59.3834 143.247 59.3834C146.549 59.3834 150.48 59.6978 154.332 63.7859C158.027 67.7168 157.949 73.0628 157.87 73.9276H157.32V75.9716H158.263V87.9214H165.732V75.9716H166.675V73.9276H166.046C165.968 73.0628 165.889 67.7168 169.584 63.7859C173.515 59.6192 179.961 59.3834 179.961 59.3834V58.5186V57.6538C179.726 57.6538 172.807 57.9683 168.405 62.6067C164.317 66.9306 164.317 72.5911 164.395 73.9276H162.508V72.198H164.081V71.6477H163.845V69.3678H163.452V66.9306H163.216V64.4935H162.902V61.9777H162.587V59.7765H161.958V61.9777H161.644V63.8646H161.251V65.6728H160.858V67.4809H160.543V69.525H160.229V71.569H160.071V72.1194H161.644V73.8489H159.678C159.757 72.5124 159.757 66.852 155.669 62.5281C151.03 57.5752 145.999 57.5752 143.326 57.5752C140.574 57.5752 135.386 57.5752 130.747 62.5281C126.659 66.852 126.659 72.5124 126.738 73.8489H124.851V72.1194H126.423V71.569H126.187V69.3678H125.794V66.9306H125.48V64.4935H125.165V61.9777H124.851V59.7765H124.222V61.9777H123.907V63.8646H123.514V65.6728H123.2V67.4809H122.885V69.525H122.571V71.569H122.335V72.1194H123.907V73.8489H121.313V57.8896V57.1035V57.1035ZM129.882 38.8643H158.106V42.6379H156.455V41.8517C156.455 41.7731 156.455 41.6159 156.455 41.5373C156.455 40.5152 155.59 39.6505 154.568 39.6505C153.546 39.6505 152.681 40.5152 152.681 41.5373C152.681 41.6945 152.681 41.8517 152.76 42.009V42.6379H148.908V41.8517C148.908 41.7731 148.908 41.6159 148.908 41.5373C148.908 40.5152 148.043 39.6505 147.021 39.6505C145.999 39.6505 145.134 40.5152 145.134 41.5373C145.134 41.6945 145.134 41.8517 145.213 42.009V42.6379H142.304V41.8517C142.304 41.7731 142.304 41.6159 142.304 41.5373C142.304 40.5152 141.439 39.6505 140.417 39.6505C139.395 39.6505 138.53 40.5152 138.53 41.5373C138.53 41.6945 138.53 41.8517 138.609 42.009V42.6379H134.757V41.8517C134.757 41.7731 134.757 41.6159 134.757 41.5373C134.757 40.5152 133.892 39.6505 132.87 39.6505C131.848 39.6505 130.983 40.5152 130.983 41.5373C130.983 41.6945 130.983 41.8517 131.062 42.009V42.6379H129.804V38.8643H129.882ZM129.882 43.8172H131.14V48.1411H134.835V43.8172H138.687V48.1411H142.382V43.8172H145.291V48.1411H148.986V43.8172H152.839V48.1411H156.534V43.8172H158.185V48.5342H157.713V50.6569H130.511V48.5342H130.04V43.8172H129.882ZM52.8375 48.5342H52.3658V50.6569H25.0856V48.5342H24.6139V43.8172H26.2649V48.1411H29.9599V43.8172H33.8121V48.1411H37.4285V43.8172H40.3373V48.1411H44.0323V43.8172H47.8846V48.1411H51.5796V43.8172H52.8375V48.5342ZM52.8375 42.6379H51.5796V42.009C51.5796 41.8517 51.6582 41.6945 51.6582 41.5373C51.6582 40.5152 50.7934 39.6505 49.7714 39.6505C48.7494 39.6505 47.8846 40.5152 47.8846 41.5373C47.8846 41.6159 47.8846 41.7731 47.8846 41.8517V42.6379H44.0323V42.009C44.0323 41.8517 44.111 41.6945 44.111 41.5373C44.111 40.5152 43.2462 39.6505 42.2241 39.6505C41.2021 39.6505 40.3373 40.5152 40.3373 41.5373C40.3373 41.6159 40.3373 41.7731 40.3373 41.8517V42.6379H37.4285V42.009C37.4285 41.8517 37.5071 41.6945 37.5071 41.5373C37.5071 40.5152 36.6423 39.6505 35.6203 39.6505C34.5983 39.6505 33.7335 40.5152 33.7335 41.5373C33.7335 41.6159 33.7335 41.7731 33.7335 41.8517V42.6379H29.8813V42.009C29.8813 41.8517 29.9599 41.6945 29.9599 41.5373C29.9599 40.5152 29.0951 39.6505 28.0731 39.6505C27.051 39.6505 26.1862 40.5152 26.1862 41.5373C26.1862 41.6159 26.1862 41.7731 26.1862 41.8517V42.6379H24.5353V38.8643H52.7589V42.6379H52.8375ZM105.039 73.8489C105.039 73.5345 105.039 73.1414 105.039 72.5911H110.936C111.25 72.5911 111.565 72.2766 111.565 71.9621C111.565 71.6477 111.25 71.3332 110.936 71.3332H104.882C104.568 69.2891 103.703 66.4589 101.266 63.8646C97.0203 59.3834 92.6964 58.8331 89.7876 58.8331C88.058 58.8331 82.712 58.8331 77.995 63.8646C75.6365 66.3803 74.6931 69.2891 74.3786 71.3332H69.1112C68.7968 71.3332 68.4823 71.6477 68.4823 71.9621C68.4823 72.2766 68.7968 72.5911 69.1112 72.5911H74.3C74.3 73.1414 74.3 73.6131 74.3 73.8489H61.4854V57.8896H120.055V73.8489H105.039ZM90.4951 22.5119C91.2027 22.5119 92.0675 21.883 92.0675 20.6251C92.0675 20.5465 92.0675 20.4679 92.0675 20.4679C92.1461 20.4679 92.1461 20.4679 92.2247 20.4679C93.4039 20.4679 94.1115 19.6031 94.1115 18.8955C94.1115 18.1093 93.3253 17.3232 92.2247 17.3232C92.1461 17.3232 92.1461 17.3232 92.0675 17.3232C92.0675 17.2445 92.0675 17.1659 92.0675 17.1659C92.0675 15.9867 91.2027 15.2791 90.4951 15.2791C89.7089 15.2791 88.9228 16.0653 88.9228 17.1659C88.9228 17.2446 88.9228 17.3232 88.9228 17.3232C88.8442 17.3232 88.7655 17.3232 88.7655 17.3232C87.6649 17.3232 86.8787 18.188 86.8787 18.8955C86.8787 19.6031 87.5077 20.4679 88.7655 20.4679C88.8442 20.4679 88.8442 20.4679 88.9228 20.4679C88.9228 20.5465 88.9228 20.6251 88.9228 20.6251C88.9228 21.7257 89.7089 22.4333 90.4951 22.5119ZM91.6744 18.0307C91.8316 17.8735 92.0675 17.7949 92.2247 17.7949C92.9322 17.7949 93.4826 18.3452 93.4826 18.7383C93.4826 19.21 93.0109 19.6817 92.2247 19.6817V19.9962V19.8389C92.0675 19.8389 91.9102 19.7603 91.6744 19.6031C91.4385 19.2886 91.2027 19.0527 90.9668 18.8169C91.2027 18.6597 91.4385 18.3452 91.6744 18.0307ZM90.4951 15.8294C90.9668 15.8294 91.4385 16.3011 91.4385 17.0873C91.4385 17.2446 91.3599 17.4018 91.2027 17.6376C90.8882 17.8735 90.6523 18.1093 90.4165 18.3452C90.2593 18.1093 89.9448 17.8735 89.6303 17.6376C89.4731 17.4018 89.3945 17.2446 89.3945 17.0873C89.5517 16.3798 90.0234 15.8294 90.4951 15.8294ZM89.2372 19.6031C89.08 19.7603 88.8441 19.8389 88.6869 19.8389V20.1534V19.8389C87.9007 19.8389 87.429 19.2886 87.429 18.8955C87.429 18.4238 87.9794 17.9521 88.6869 17.9521C88.8441 17.9521 89.0014 18.0307 89.2372 18.188C89.4731 18.5024 89.7089 18.7383 89.9448 18.9741C89.7876 19.0527 89.4731 19.2886 89.2372 19.6031ZM89.4731 20.6251C89.4731 20.4679 89.5517 20.3106 89.7089 20.0748C90.0234 19.8389 90.2593 19.6031 90.4951 19.3672C90.6523 19.6031 90.9668 19.8389 91.2813 20.0748C91.4385 20.232 91.5171 20.4679 91.5171 20.6251C91.5171 21.4113 90.9668 21.883 90.5737 21.883C90.0234 21.883 89.5517 21.3326 89.4731 20.6251ZM109.756 46.0971H106.926V44.682H107.87V43.6599H107.398V42.7951H107.791V42.5593V41.9304V41.6159H108.105V40.5152L108.734 40.8297V41.5373V41.8517V41.9304H109.127V42.7951H109.442V43.6599H108.734V44.682H109.835V46.0971H109.756ZM110.7 49.0059H110.149H105.668H102.759C102.759 46.0971 102.681 39.4146 102.602 35.641H102.995C103.31 35.641 103.546 35.4051 103.546 35.0907C103.546 34.7762 103.31 34.5403 102.995 34.5403H102.681C102.602 32.8894 102.524 31.2384 102.445 29.7447C102.13 24.949 101.187 21.8043 100.715 20.5465V19.8389H101.266V18.7383H100.794V18.4238V17.7163V17.3232H100.401V15.9867L99.6147 16.3798V17.3232V17.559V17.6376H99.143V18.7383H98.7499V19.2886H96.5486V16.0653H97.8851C97.9637 16.0653 98.0424 15.9081 98.0424 15.5936C98.0424 15.3577 97.9637 15.1219 97.8851 15.1219H95.3694L95.448 9.30421C95.448 9.06836 95.2908 8.83251 95.0549 8.67527C95.0549 8.67527 93.6398 7.96772 92.6178 6.23814C91.5171 4.42994 91.1241 1.0494 91.1241 1.0494C91.0454 0.734936 90.8096 0.499084 90.4951 0.499084C90.1806 0.499084 89.8662 0.734936 89.8662 1.0494C89.8662 1.0494 89.6303 3.09345 88.7655 5.29473C87.9794 7.4174 85.6995 9.2256 85.6995 9.30421C85.5422 9.46145 85.4636 9.61868 85.4636 9.85453V15.1219H83.2623C83.1837 15.1219 83.1051 15.2791 83.1051 15.5936C83.1051 15.8294 83.1837 16.0653 83.2623 16.0653H84.0485V19.2886H82.1617V22.3547C81.7686 20.7823 81.3755 19.9962 81.2969 19.9175L81.2183 19.8389H82.0045V18.7383H81.6114V17.6376H81.1397V17.559V17.3232V16.3798L80.3535 15.9867V17.3232H79.9604V17.7163V18.4238V18.7383H79.4887V19.8389H80.039V20.8609C79.5673 22.3547 78.7025 25.6566 78.4667 29.7447C78.3881 31.0026 78.3094 32.6535 78.2308 34.5403H77.5233C77.2088 34.5403 76.973 34.7762 76.973 35.0907C76.973 35.4051 77.2088 35.641 77.5233 35.641H78.2308C78.1522 39.1787 78.0736 46.0184 77.995 49.0059H74.3H69.8188V50.1852H110.778V49.0059H110.7ZM98.8285 19.8389H99.6147L99.5361 19.9962C99.5361 20.0748 99.2216 20.9396 98.8285 22.4333V19.8389ZM96.0769 16.1439C96.0769 16.1439 96.0769 19.6817 96.0769 19.7603H98.3568V24.6346C98.1996 25.4207 98.0424 26.3641 97.8851 27.3076C97.2562 23.0622 95.9983 20.0748 95.9197 19.9175L95.8411 19.6817C95.8411 19.6031 95.3694 18.1093 94.1901 16.1439H96.0769ZM83.4982 35.641H84.0485C84.363 35.641 84.5988 35.4051 84.5988 35.0907C84.5988 34.7762 84.363 34.5403 84.0485 34.5403H83.4982C83.4982 34.0686 83.4982 33.6755 83.4982 33.2038C83.5768 31.946 83.5768 30.7667 83.6554 29.8233C83.9699 25.7352 85.0705 22.4333 85.5422 21.0182C86.5642 22.0402 88.7655 24.8704 89.7876 29.3516C89.8662 29.5874 89.8662 29.9805 89.9448 30.3736C89.8662 31.4743 89.7876 32.8894 89.7089 34.5403H89.3159C89.0014 34.5403 88.7655 34.7762 88.7655 35.0907C88.7655 35.4051 89.0014 35.641 89.3159 35.641H89.7089C89.6303 39.0215 89.6303 45.9398 89.6303 49.0059H83.4982C83.4982 46.0971 83.4982 39.336 83.4982 35.641ZM85.8567 19.9962C85.8567 19.9175 86.407 18.3452 87.5863 16.3798C88.4511 14.886 89.7876 13.5495 90.4165 13.0778C91.0454 13.6282 92.3819 14.886 93.2467 16.3798C94.3474 18.2666 94.8977 19.7603 94.9763 19.9962C94.1901 20.7037 91.753 23.2981 90.4165 27.9365C89.08 23.3767 86.6429 20.7823 85.8567 19.9962ZM91.1241 35.641H91.5958C91.9102 35.641 92.1461 35.4051 92.1461 35.0907C92.1461 34.7762 91.9102 34.5403 91.5958 34.5403H91.0454C90.9668 32.8894 90.8882 31.4743 90.8096 30.3736C90.8882 29.9805 90.8882 29.5874 90.9668 29.3516C91.9888 24.8704 94.1901 22.1188 95.2121 21.0182C95.6838 22.4333 96.7845 25.7352 97.099 29.8233C97.1776 31.0812 97.2562 32.7321 97.3348 34.5403H96.5486C96.2342 34.5403 95.9983 34.7762 95.9983 35.0907C95.9983 35.4051 96.2342 35.641 96.5486 35.641H97.3348C97.3348 35.8768 97.3348 36.1127 97.3348 36.3485C97.3348 39.6505 97.3348 46.1757 97.3348 49.0059H91.0454C91.2027 45.9398 91.2027 39.0215 91.1241 35.641ZM86.7215 10.2476C87.3504 9.6973 89.1586 7.96772 89.9448 5.92367C90.102 5.37335 90.3379 4.90165 90.4165 4.42994C90.6523 5.37335 91.0454 6.31676 91.4385 7.10293C92.3033 8.67527 93.4826 9.54006 94.1115 9.85453L94.0329 15.2791H93.797C93.7184 15.2791 93.7184 15.3577 93.7184 15.4364C92.4605 13.5495 90.731 12.1344 90.6523 12.0558L90.3379 11.82L90.0234 12.0558C89.9448 12.1344 88.3724 13.4709 87.1146 15.2005H86.6429V10.2476H86.7215ZM82.5548 19.7603H84.4416C84.5202 19.6031 84.4416 16.1439 84.4416 16.1439H86.5643C85.6995 17.6376 85.2278 18.8955 84.9919 19.4458L84.7561 19.9175C84.6774 20.0748 83.4982 22.7478 82.8692 26.6786C82.7906 25.8138 82.6334 25.1063 82.4762 24.3987V19.7603H82.5548ZM78.9384 49.0059C78.9384 46.0184 79.017 39.1787 79.1742 35.641H79.8818C80.1963 35.641 80.4321 35.4051 80.4321 35.0907C80.4321 34.7762 80.1963 34.5403 79.8818 34.5403H79.1742C79.2529 32.7321 79.3315 31.0812 79.4101 29.8233C79.6459 26.2855 80.3535 23.3767 80.8252 21.7257C81.2969 23.2195 82.0045 25.9711 82.2403 29.8233C82.3189 30.9239 82.3189 32.0246 82.3975 33.2038C82.3975 33.6755 82.3975 34.0686 82.3189 34.5403H81.5328C81.2183 34.5403 80.9824 34.7762 80.9824 35.0907C80.9824 35.4051 81.2183 35.641 81.5328 35.641H82.2403C82.1617 39.1787 82.0831 46.0184 82.0045 49.0059H78.9384ZM98.5927 49.0059C98.5927 46.1757 98.5141 39.6505 98.4354 36.3485C98.4354 36.1127 98.4354 35.8768 98.4354 35.641H98.9858C99.3002 35.641 99.5361 35.4051 99.5361 35.0907C99.5361 34.7762 99.3002 34.5403 98.9858 34.5403H98.4354C98.4354 32.7321 98.5141 31.0812 98.5927 29.8233C98.8285 26.2855 99.5361 23.3767 100.008 21.7257C100.479 23.2195 101.187 25.9711 101.423 29.8233C101.502 31.317 101.58 32.8894 101.659 34.5403H100.637C100.322 34.5403 100.086 34.7762 100.086 35.0907C100.086 35.4051 100.322 35.641 100.637 35.641H101.659C101.737 39.4146 101.816 46.0971 101.816 49.0059H98.5927ZM73.4352 46.0971H70.605V44.682H71.7056V43.6599H70.998V42.7951H71.2339V41.9304H71.627V41.8517V41.6159V40.9083L72.2559 40.5939V41.6945H72.5704V42.009V42.6379V42.8738H72.9635V43.7385H72.4918V44.7606H73.4352V46.0971V46.0971Z" stroke="#091421" stroke-width="0.3" stroke-miterlimit="10"/>
<path d="M0.478394 88H180.197" stroke="#C59D6F" stroke-miterlimit="10"/>
</svg>
