<?xml version="1.0" encoding="utf-8"?>
<!-- Generator: Adobe Illustrator 23.0.1, SVG Export Plug-In . SVG Version: 6.00 Build 0)  -->
<svg version="1.1" id="Layer_1" xmlns="http://www.w3.org/2000/svg" xmlns:xlink="http://www.w3.org/1999/xlink" x="0px" y="0px"
	 viewBox="0 0 300 300" style="enable-background:new 0 0 300 300;" xml:space="preserve">
<style type="text/css">
	.st0{fill:#294D5D;}
</style>
<path class="st0" d="M292,168.7l0.8-0.5l2-0.9l0.8-0.9l-1.1-1.9l0.1-0.6l0.7-1.8l0-1.2l-1.6-0.5l-1.7,0.2l-0.8-0.5l-0.4-0.4
	l-1.6-0.3l-0.4-0.6l-0.9-1.3l-1.4,0.2l-1.1,0.4l-0.4-1.4l-1-0.4l-1.8,0.5l-1.6-0.6l-1.7,0.9l-1,1.4l-2.8,3.5l-1.7,2.1l-1.9,2.2
	l-4.4,3.5l-0.9,0.3l-0.5-1.1l0.3-0.4l2.3-1.8l0.8-0.6l2-1.9l2.8-3.1l0.4-0.6l1.1-2.5l1-3l0.8-2.2l0-1.1l-0.4-1.2l-0.2-0.2l-3.1,0
	l-1.1-0.8l-1.1-0.3l-0.5-1.4l-1.8,0.1l-0.6,0.4l-1.9-0.4l-0.7-0.9l-1.3-1.2l-0.6-0.1l-1,0.3l-0.9,1.2l-1,0.6l-0.5-0.1l-1.7,0.8
	l-0.2,2.3l-0.2,0.4l0,0.7l0.4,0.5l-0.2,1.9l-0.4,0.9l-0.4,0.1l0-0.5l0.5-2.8l0.1-0.2l0-0.7l-0.4-0.6l-0.2-0.7l-1.7-1.8l-1-0.1
	l-0.7,0.6l-0.1,0.2l-1.3,3.4l-0.1,0.2l-0.9,0.2l-1.1,0.5l-1.2,3.9l-0.2,1.7l-1.5,0.3l-0.6,1.7l0.9,3.6l2.5,2.8l0.9,2.5l-1.3,4.7
	l-1.1,0.8l-2,0.9l-3.3,1l-1.9,0.6l-0.4-0.1l1.1-0.9l1.2-1.5l0.5-1.9l-0.3-0.6l-0.8-0.9l-0.6-1l0.6-1.7l-1-1.2l-1.1-0.3l-6.2,2.4
	l-1.6,1.1l-1.4,0.9l-3.5,1.1l-0.3-0.3l0-0.2l0.2-0.4l1.6-1.5l3.5-1.4l3.4-1.3l1.5-0.9l1-1l1.5-1.4l1.5-3.9l-0.6-0.9l-1.4,0l-0.3-0.3
	l-0.6-1.4l-0.4-0.2l-2.4,0.7l-1.7,1.3l-0.9,0.1l-0.7-1.3l-2.9-0.3l-0.6-0.8l-0.5-0.8l-1.3-0.4l-1.3,0.3l-2.1,2l-2.3,0l-1.9,1l-1-2
	l-1.2,0.2l-0.1-0.4l1.3-2.6l0.7-1.8l0.3-0.7l0.4-0.9l1.6-3.6l1.1-3.3l0.4-2.1l0.7-0.1l1.3,1.2l2.2,0.9l2.1,0.3l2.1-0.6l0.5-0.5
	l0.6-0.6l1.5-0.5l0.5,0.1l3.3,0.6l1.4,0l1.9-0.9l0.9-0.8l2.8-3.8l-0.2-1l0.8-1.3l0.7-1.4l2.7-2.4l1.2-1.6l0.7-2.1l-0.4-1.1l-1.2-0.5
	l-1.2,0.1l-0.2,0.1l-1.5,2.3l-2.3,2.2l-1.5,0.9l-1.9,0.1l-0.9-0.7l0-0.5l1.4-1.3l2.5-1.2l1.5-1.2l0.6-1.3l2-1.9l0.9-2.2l-0.2-1.2
	l0.3-1.1l0.2-0.9l-0.6-1.9l-0.6-0.7l-1.5-0.2l-0.3-0.3l2.2-2.3l1.6-3l-0.2-2.5l1.8-3.5l0.1-1.9l-1.3-1.6l-0.9,0l-0.6,0.8l-1.3-0.9
	l-1.6,0.2l-0.3-0.4l1.6-2.5l0.1-1.4l-0.6,0.8l-1.3,2.3l-1.4,1.5l-1.4,1.7l-1.2,1.5l-0.2,0.8l-0.1,0.5l1,1l1.4-1.4l1.1-2.1l1.3-1.3
	l0.4-0.3l0.2-0.1l0.2,0l0.9,0.7l0.1,1.2l-0.2,0.2l-0.7,0.3l0.4,0.4l1.1-0.8l0.3-0.9l0.6-0.6l0.8,0.1l0.1,1.2l0.6,0.5l-0.7,1.3
	l-0.7,0.2l-0.3,0.4l0.1,0.9l-0.7,1.2l-0.8,0.4l-0.5,0.5l0,0.9l0.8-0.1l1,0.4l-0.3,1.2l-0.5,0.2l-0.5,0.7l0,0.6l-3.3,3.1l-0.6,0.4
	l-2.8,1.6l-1,0.7l-1.1,1l-0.6,0.3l-0.9-0.1l-2.8,1.8l-2,0.7l-2.5,2.3l-0.5,3l-0.9,0.8l0,0.4l0.2,0l2-0.6l0.5,0l1.4-0.4l1.5-1.3
	l1.2-1.3l1.8-2.7l0.6-0.7l3.7-3.4l0.4-0.2l0,0.2l-1.3,1.5l-0.2,0.4l-0.3,0.6l-1.2,1.3l-0.3,0.6l0.2,1l1.6-1.1l1.8-0.8l-0.9,1.4
	l0.5,0.4l-0.7,1.3l-0.8,0.9l-1.7,0.9l-1.9,1.2l-0.4,0.2l-2.1,1.7l-1.8,2.1L233,132l-3.8,3.6l-2.2,1.6l-0.1,0.2l0,0.2l0.4,0.2
	l1.2-0.8l1.3-0.7l0.2-0.1l0.4-0.6l1.1-0.9l2.1-2.5l1.6-1.9l1.3-1.1l0.9-0.7l1-0.7l1-0.6l3.3-2.1l0.2-0.1l1.7,0l-0.5,0.6l-1.6,0.7
	l-0.4,0.2l-0.2,0.4l0.3,0.3l1.2-0.5l-0.4,0.7l-1.2,0.9l-2,0.9l-0.4,0.3l-0.1,0.4l0.4,0.2l-0.2,1.6l1.1,1.1l1.6,0.5l1.7-0.7l-0.2,0.5
	l-1.3,0.3l-0.2-0.1l-1.9,0.7l-0.9-0.6l-1.8,1.1l-0.4,0.6l0.4,0.6l1-1l0.6-0.2l0.2,0.6l-0.5,0.5l0.7-0.1l2.2-1.1l3.6-1l-0.4,1.6
	l-0.8,0.4l-0.4,1l0.4-0.1l0,0.2l-0.4-0.1l-0.8,0.6l-0.9,0.4l-0.2,0.4l0.2,0.3l1.9-0.4l0.3,1.4l-0.8,0.9l-0.9,1.2l-0.7,0.3l-1.1,0.8
	l-2,0.3l-2-0.5l0-0.2l0.2-0.7l-0.2-0.4l-1.9,1.1l-0.5,0.1l-0.5,0l-1.3-1.4l-0.6-0.2l-0.7,0.7l0.4,1.1l0.4,0.2l0.3,0.7l-0.5,0.4
	l-2.9,0.4l-3.5-1.8l-1.1-1.6l-0.6-0.2l-0.4,1l-0.4,3.4l-1,2.5l-0.9,2.3l-1,2.5l-1.3,2.5l-1,1l0.1,0.4l-0.2,0l0.2-0.4l-0.1-0.2
	l0.8-2.8l0.3-0.6l1.1-2.2l1.2-3.4l0.2-1.5l0.6-2.4l0.2-2.1l-0.7-1.8l-0.9-1.6l-1-0.6l-0.9-0.6l-2.4-0.7l-0.2-0.4l0-0.2l0.6-1.1
	l2.3-2.6l-0.7,0.3l-3.6,3.5l-1.4,1.1l-0.3-0.1l1.1-1.9l1.4-1.4l1.4-1.4l0.2-0.4l-0.4,0.1l-3.2,3.1l-0.5,0.9l-1.9,1.9l-0.7,0.3
	l-1.5-2l1.3-0.7l1.3-1.5l1.2-1.6l1.1-1.3l1-1.6l-0.8-2.1l0.5-1.8l0.7-0.6l0.9,0.1l0.5-1.5l-1.3-2.7l0.9-1.4l0.3,1.2l0.8,0.3l0.1,0.7
	l0.6,0.1l1.6-1.9l0.4-0.2l-0.9,2.2l1.5-0.8l0.1,1.9l-0.1,0.8l0.7-0.3l2-2.2l0.5,0.4l1.1,4.6l0.3,1.7l0.6-0.4l0.3-0.7l0.5-0.8
	l-0.7-0.3l-0.5-2.3l0.1-0.5l0.6-0.8l0.2-2l-1.7-3.5l-1.2-0.7l-1.5-0.9l-2.4-2.4l-1.5-0.5l-0.6-1.7l-0.7-0.9l0.1-0.4l1.7-0.9l0.2,0.5
	l0.8,0l-0.8,1l0,0.7l-0.1,0l0.9-0.8l0.7-0.7l0.7-0.9l1-0.1l-0.1-0.7l0.1-0.9l-0.6-0.9l1.4-1.3l1.1,0.4l0.1,1.1l0.5,0.4l0,0.3l0,0.2
	l-0.3,0.4l-0.6-0.1l-0.5-1.6l-0.5,0.5l0.7,1.8l0.7,2l1.3-0.5l0,0.9l-0.8,1.2l0,0.1l0.2,0l0.9-0.8l0.5,0l1.1,0.8l-0.1-0.4l-0.6-0.8
	l0.1-0.7l0.6,0.1l0.5,0.8l0.8,1.1l0.3,0l-1.3-2.5l0-0.8l0.8-0.8l0.9,0.1l1.1-1.2l0.2-1.8l-0.1-2.1l0.1-0.3l1.5-2.3l1.9-3.4l0.5-0.4
	l0.6,0.5l-0.1,0l0.6-1.2l0.9-1.4l0.8-0.8l0.4-0.7l-0.5,0.7l0.1,0.2l-0.7,1.8l0,0.7l0.5,0l1-1.1l0.3-0.3l0.2,0.4l-0.4,1.9l-1.3,4
	l-0.2,1.9l0.8,0.1l0.6-0.5l0.8-1.8l0.8-1.8l0.6-1.9l1.3-2.4l0.4-0.3l2,0.5l0.9,1.5l0.7,0.3l-1.6,1.8l-0.9,0.2l-0.2,0.4l0.5,0.3
	l-0.4,1.2l2-2.2l1.5-1.5l1.3,0.5l0.1,1.4l0.5-1.5l-0.7-1.7l-0.8,0.4l-0.3-0.6l0.6-0.3l0.5,0.5l0.1-0.4l-0.7-0.9l-0.5-0.1l-1.2,0.8
	l-2.3-1.6l-0.2,0l-0.5,0.1l-1,0.4l-0.8,1.1l-0.8,0.9l0,0.6l-0.5,0.4l0.1,0.4l-0.2,0l0.2-0.4l0.3-1l-0.2-0.4l0.3-3.6l-1-2.4l-1.4-0.3
	l-1.4,0.7l-1.1,1.8l-1.7-0.3l-1.5-0.1l-2.4,2.2l-0.9,3.7l0.6,3.6l0.2,0.5l0.6,5.1l-0.1,0.2l-1.1-0.9l-0.8-5.8l-1.3-1.4l-1.4-0.6
	l-1.4-0.4l-1.4,1.1l-0.7,1.7l-2.4,0.2l-1.4,1.1l-0.8,1.3l-0.6,1.1l-0.9,2.2l-0.3,0.7l0.2,1.7l0.2,1.4l-1.5,0l-1.2,0.1l-0.6,0.5
	l-0.5,0.6l-0.2,1.9l-2.7-0.6l-1.1,1.8l0.5,2.2l0.8,1.4l0.5,0.5l2.2,1.7l2.5,1.5l0.5,1.1l0.6,1l-1.3-1l-1-0.9l-3.7-1.2l-1-0.8
	l-0.7-0.1l-1.2-0.1l-0.6,0.4l-0.6,0.8l-0.6,0.6l0.7,5.9l1,1.2l0,0.3l-0.7,1l-0.3,0.8l0.1,1.9l0.8,2.3l0.8,1.1l0.7,2l1.3,1.4l2.2,0.1
	l3.9-1.6l2.3,0.6l2,1.3l1.2,3l-0.2,2l-0.3,1.7l-0.4,1.9l-1.6,4.4l-1.3,3.2l-0.8,1.5l-0.2,0l-0.7-1.2l-2.6-0.2l-0.3-0.6l-0.2-0.2
	l-2.6-0.4l-1.2,1.2l-0.8,2l-0.2,2l-1.5,1.4l-0.6-0.1l-1-2.1l-0.5-0.1l-0.7,0l-1.3,1l-0.5,1.5l-0.2,3.1l0.7,1.7l0,0.6l0,3.3l-0.9,0.9
	l-0.7,0.8l-0.6,2.3l0.5,3.1l0.2,0.4l0.2,5.6l-0.2,0.6l-0.7,1.1l-1.4,1.3l-1.7,1.2l-2.4,1.1l-2.1,1.3l-0.8,0.5l-2,1.1l-1.9,1.2
	l-1.4,1l-1.4,1l-1.2,0.9l-2.8,2.5l-0.8,0.5l-0.2-0.6l1.2-1.3l1.3-1.8l0.6-0.8l1.4-2.3l1.3-2.1l0.4-0.6l1.4-2.6l1.5-3.1l0.8-1.5
	l0.7-1.3l0.9-1.7l2.5-6.2l-0.1-0.9l-0.5,0.6l-1.1,2.5l-3.3,7.1l-1.4,2.9l-1.4,2.6l-1.8,3.2l-1.4,2l-1.4,2l-0.5,0.9l-1.2,1.3
	l-1.1,1.6l-0.6,0.8l-2.9,4l-1.9,2.3l-1.2,0.3l-0.3,0l0.4-0.6l2.2-3l2.3-3.2l0.4-0.6l1.5-2.3l2.1-3l1.1-1.6l1.4-1.7l0.6-0.8l0.8-1.2
	l0.9-1.5l0.9-1.4l0.9-1.5l1.7-3l1-2.7l0.5-1.1l1-2l2-5l0.8-1.8l1.9-4.8l0.6-2.1l0.6-1.9l0.7-2l0.4-0.4l0-0.7l0.1-0.7l0.3-0.3
	l-0.4-0.5l0.9-3.3l0.4-0.3l-0.4-0.5l0.5-0.5l-0.2,1.1l0.1,0.4l-0.8,3.3l-0.2,0.4l-0.4,1l0,0.7l0.1,0.9l-0.7,2.1l-1.1,3.8l-0.8,2.6
	l-0.4,1.1l-1.8,4.8l0.1,0.2l0.5-0.5l0.3-0.4l2.2-5.5l0.2-0.7l1-3.3l0.5-1.9l0.4-0.6l0.1-0.5l1.2-5.7l0.3-1.4l0.5-2.9l0.3-2.4
	l0.3-2.2l0.4-2.9l0.4-2.8l-0.3-0.5l0,0l-0.5,0.5l-0.4,4l-0.5,0.5l0,0.7l0,0.7l0.2,0.4l-0.1,1.4l-0.5,0.6l0,0.7l0,0.7l0.1,0.4l-0.2,0
	l0.2-0.4l0-0.7l0-0.7l-0.2-0.4l0.1-1.4l0.5-0.5l0-0.7l0-0.7l-0.1-0.7l0.1-7l0-2.9l0.1-2.9l-0.1-2.9l-0.3-1.5l-0.4-0.4l0.1,0
	l-0.2,2.4l0.1,2.9l0.1,2.7l0,2.7l0,3.9l-0.1,2.7l-0.2,1.4l-0.2,0.7l-0.4,3.6l-0.8,3.6L198,151l-0.9,3.3l-1,3.3l-0.3,0.9l-1.4,4.2
	l-1.7,4.1l-0.5,1.4l-0.9,2.3l-1.6,3.9l-2.2,5l-2.1,3l-1.9,2.9l-1.5,2l-1.5,2l-2.7,4.1l-1.3,2.1l-0.3,0.4l-1.9,2.6l-1.1,1.6l-1,1.4
	l-1.2,0.8l-3.5,2.4l-2.8,2l-0.6,0.3l-0.3-0.5l2-3.3l1.1-1.9l2-4.2l1.7-3l1.5-3.6l-0.2-0.3l-0.2,0.1l-1.1,2.2l-1.4,3.1l-2.7,5.5
	l-0.5,0.8l-1.4,2l-0.6,0.8l-2.3,4.4l-2.1,1.7l1-2.1l0.2-0.5l1.1-1.6l0.8-1.8l1.1-2.7l1.1-2.3l0.1-1.1l-0.2-0.4l0.1,0l-0.3,0.3
	l-0.4,0.9l-1.7,4.1l-2.9,5.1l-0.4,0.6l-2.1,3.3l-1.7,1.1l-1.3,1.1l-3.1,2.8l-1.4,0.4l1-2.4l1.1-2.2l-0.1-0.9l0.1,0l-0.5,0.5
	l-0.8,1.5l-0.9,1.7l-0.8,1.8l0.1,0.7l0.1,0.7l-0.8,0.7l-1,1l-0.5-0.4l1-1.9l-0.1-0.4l0.1,0l-1.3,1.5l-1.3,2.4l-1.6,2.5l-1.2,1.2
	l-4.3,4.2l-1.9,2.2l-0.8,0.9l-2.4,2.8l-0.2,0.2l-1.7,2.1l-1.4,2l-1.9,2.6l-1.2,1.8l-2.6,4.4l-1.9,3.2l-1.4,2.3l-1.7,3l-1.7,0.9
	l-3.4,1.3l-2.5,1l-0.2,0.1l-5.2,1.9l-1.5,1l-1.3,0.7l-2.3,1.1l-2.4,2.1l-0.6,0.4l-2.3,2.2l-0.6,0.8l-1.3,1.3l-1,0.5l-1.4,1.7
	l-1.1,1.3l-1.5,1.9l-0.3,0.4l-1.5,1.6l-1.1,1.6l-1.2,1.9l-1.7,3l-2.1,4.2l-0.8,1.5l-0.3,0.7l-1.6,3.1l-1.4,2l-1.5,2.2l0.7,0.3
	l0.6-0.4l1.5-1.5l0.9-1.6l0.8-1.3l0.9-1.5l1.2-2.1l1.9-3.4l1-2l0.8-0.5l-0.1,0.9l-0.6,1.6l-0.9,2.5l-0.2,1.9l0.6,0.6l0.6-1.3
	l3.3-7.7l1.1-1.9l0.6-1.3l0.6-0.5l1-1.4l0.9-1.1l1.8-1.2l0.7-0.8l0.9-0.4l2.7-1.7l1.6-0.5l-0.6,1.3l-0.9,0.9l-0.3,0.8l-1.6,2.2
	l-2.3,2.9L90,285l-0.4,1l-1.6,0.5l0.2,0.4l1.2-0.2l1.6-0.8l6.2-5.8l0.4-1.4l1.4-2l0.2-0.1l0.1,1.3l-0.2,0.5l-1.8,3.5l-1.4,1.9
	l-1.2,1.5l0,0.4l-0.1,0l0.7-0.2l1-1.3l0.8-1.2l1-1.4l1-1.4l0.9-2l1-2.2l1-2.1l1-0.7l-0.7,1.8l-0.8,3.1l0.1,0.7l0.5-0.8l0.3-0.3
	l0.7,0.2l0.7-1l-0.8-0.4l1.3-2.9l0.4-0.6l1.2-1.5l0.4-0.2l0,0.2l-1.6,3l-0.9,1.7l0.3,0.3l0.4-0.2l1.5-2.5l0.8-1.8l0.6-1.9l0.5-2.1
	l0.5-1.6l2.6-0.7l0.3,0.2l-0.5,1.1l-1.2,2.4l-1.2,2.5l-0.8,1.1l-2,3.1l-0.3,0.4l-0.8,1.2l-1.1,1.1l-0.4,0.8l-2,1l0.3-0.9l-0.1-0.9
	l-0.5,0.6l-1.7,4.1l-1.1,1.9l-1.4,2l-1.1,1.6l-1.5,1.3l-0.8,0.8l-1.6,0.9l-1.1,0.9l-1.8,0.8l-3.6,1.7l-0.2,0.4l0.3,0.2l0.5-0.1
	l4.1-1.7l1.2-1l0.6-0.2l1.7-1.3l4-3.8l1-1.6l1.2-1.9l0.9-1.9l1.1-0.4l3.7-3.5l0.3-0.8l0.6-0.7l1.2-1.6l1.1-1.9l1.5-2.8l1.1-2.2
	l1.2-1.9l0.5-0.9l0.9-0.8l0.5-0.1l2.1-0.5l1.8-0.8l2.4-0.8l3.9-2.4l3.9-3.1l1-1.4l1.2-1.1l1.7-3.3l0.7-0.3l-0.5-0.5l0.4-0.9l1.6-0.5
	l0.9,0.3l0,0.4l-1.6,0.6l-0.9,0.4l1.4,0.2l3.3-1.4l3.4-2.4l1-0.4l2.9-2.7l1-1.4l2-2.8l0.9-1.7l1.8-1.9l1.8-1.2l1.7-1l2.1-1.3
	l1.9-1.6l0.7-0.3l1.4-1.3l1-0.7l2.8-2.5l1.1-1l1.3-0.2l2.1-1.1l0.4-0.2l9.6-2.8l2.7-0.5l5,0.2l2.9,0.1l0.6-0.5l0,0l-1.6-0.2
	l-2.5-0.6l-0.7,0l-0.4,0.1l0-0.2l0.4,0.2l0.7,0l0.5-0.5l1.7-0.1l3.6-0.3l2.2,0l2.6-0.5l1.6-1.8l0.3-1.2l1-0.3l1.1,0l0.9-1.7l0.5-1.8
	l-0.1-0.2l0.1,0l-0.9,0.4l0-1l0.1-1l-0.1-0.7l-0.7-0.6l0.1,1.4l-0.2,0.4l-0.4,0.7l0.5-0.7l-1.1-0.7l0.2-0.7l-0.5-0.2l0.1-0.4
	l0.8-0.4l-0.2-1.2l0-0.7l0.4-0.1l0.5,0.6l0.1,1.1l0.2,0.2l1.4-0.1l0.4-0.3l-0.3-0.6l-0.1-0.7l0.6-0.5l2.1-0.3l-0.2,1.7l-0.6,1
	l0.1,1.2l-0.3,0.4l-0.6-1.5l-0.4,0.2l-0.1,1.1l0.5,0.8l-0.4,2.7l0.1,0.4l0.7-0.6l1.6-3.6l0.2-1.6l0.1-1.4l-0.4-1.4l0-0.5l0.6-1.3
	l0.6,0.2l-0.1,0.4l-0.4,0.6l0,0.3l1.2,1.3l-0.1,1.2l0.2,0.4l0.5-1.1l0.7-2.1l0.8-0.4l-0.6,3.3l-0.4,0.6l-0.1,0.7l-0.2,1l-0.8,0.6
	l-0.4-0.1l0.7-1.8l-0.1-0.9l-0.5,0.8l-1.8,4.4l-0.9,0.4l0.1,1.1l-1.1,1l-0.3-0.9l-0.9,1.9l0.8,0.5l-0.2,0.6l-2.6,0.7l-0.4,0.2
	l-0.1,0.2l0.1,0.1l1.2,0l2.2-0.3l2.1-0.6l1.8-0.6l0.1-0.2l-0.1-0.1l-1.2-0.2l0.3-0.4l2.4-1.2l1.5-0.5l2.1-2.2l0.4-1.2l-0.7,0.2
	l-0.4-0.1l-0.5,0.4l-0.6-0.1l-1-0.4l-0.4,0.3l-0.2,0.1l-0.2-0.1l0.3-0.3l0.4,0.1l0.7,0l0.3,0.3l0.4-0.8l0.7,0.4l1.3-0.9l1.4,0.1
	l1.5-0.6l2.7-1.1l0.4,0.1l0.8-0.4l-0.8,0.4l-1,0.7l-1.8,1.1l-2.2,0.5l-0.3,0.4l0.8,0.4l0.3,0.4l-0.1,0.4l-1.1,0.2l-1.1,1.4l-0.7,0.2
	l-0.3,0.4l0.3,0.2l2.6-0.2l1-0.1l1.9-0.4l1.9-1.4l-2.4,2.4l-2.7,1.1l-2.7,1.2l-2,0.3l-2.2,2.1l-0.5,1.4l0.2,0.4l1.6,0.4l1.4-0.4
	l3.7-1.8l2.2-1.6l1.3-1.2l2-2.5l0.3-0.4l4.3-3.2l0.9,0.2l-0.2,2.1l-0.5,0.6l0-0.1l0.4,0.4l1.7,0l-1.2,2.2l0,0.6l2.1,0.2l2,0.7
	l-0.1,0.8l-1.7-0.2l-1.9,0l0,0.4l-0.2,0.7l-1.6-0.5l-0.1-0.7l-2.2,0.7l0.2,0.5l1.5,0.2l0.3,0.6l-0.8,0.1l-1.7,0l-0.1,0.5l1.8,0.4
	l1.9,0.3l-0.1,0.4l-2,0.8l0,0.2l0.9,0l2.8-1l4.1,0.9l0.9,1.2l-1.2,0.2l-1.5,0.2l-4.9-0.9l-0.7,1.3l-0.4,0.9l-1.2,0.3l-2.1-0.5
	l-2.4-0.4l-0.6-0.7l0.1,0l-0.6,0.4l-2.8-0.4l-3.3-0.2l-0.2,0.1l0,0l0.6,0.4l5.6,0.8l3.7,0.6l1.1,0.4l0.3,0.9l2.4-0.3l-0.4-0.8
	l0.7-0.1l1.9,0.5l0.3,0.3l-0.1,0.5l0.5,0.4l2.1,0.2l0.5,0.5l0.7,0l0.4-0.1l0,0.2l-0.4-0.2l-0.7,0l-0.4,0.4l0-0.1l0.6,0.5l1.4-0.1
	l0.1,0.1l-0.2,0.7l0.3,0.4l3.7,0.6l0.2,0.4l-2.2,0l-1.6-0.3l-0.5,0.1l0,0.2l0.4,0.6l0.1,1.2l-0.7,0l-0.2-0.1l-3.6-1.2l-0.1,0.4
	l0.5,0.5l3.2,1.6l0.9,1.1l0.8,1.1l-0.1,0l0.2-0.9l-0.5-1.1l0.8-0.8l2.6,0.8l1.7-0.2l3.2-1.5l0.7-2l-1-1.8l-1.4-0.7l-0.5,0.1l1.1,1.4
	l-0.8,0.4l0.8,0.5l0.9,0.1l-0.9,2l-1.2,0.3l-0.4-0.1l-1.4,0.9l-3-0.6l0-0.4l1.4,0.1l0.3-0.4l2.8,0.5l0.3-0.9l0.5-0.4l0.3-0.3
	l-0.3-0.3l-3-0.6l-0.5-0.5l-0.7,0l-1-0.4l-0.7,0l-0.4,0.1l0-0.2l0.4,0.1l0.7,0l0.7,0.1l0.3,0.3l0.7,0l0.7-0.2l1.1-0.2l-0.8-0.4
	l-1.1-0.1l-0.7-0.5l-1.4-0.3l-0.5-0.5l-0.7,0l-0.4,0.1l-0.2-0.1l-0.1-0.2l0.3,0l0.3,0.3l0.7,0l1.2-0.2l2,0l2.3,0.7l0.5,0l-0.6-0.4
	l-0.4-0.3l-0.5-0.4l0.1-0.2l3.4-1.4l1.7-1.6l0.1-0.8l-0.4-0.6l-0.5-0.5l0.9-1.5l-0.3-2.1l-2-0.6l-0.7,0.1l-2.4,0.5l-0.7,0l1-1.3
	l0.1-2l1-1.1l0.5-1.9l-0.3-1.2l-0.5-0.6l-0.9,0l-1.2,0.4l-2.6,1.1l-1.9,2.1l-1,1.1l-1.9,0.9l-0.4-0.3l0.7-1.2l0.2-0.8l0.2-0.9
	l-0.3-0.4l-1.6,0l0-2.4l-0.9-0.4l-2.3,0.7l0.7-2.5l0-1.5l-1.3-0.6l0.4-2.1l0-1.5l-1.1-1.8l-1.4-0.5l0-0.7l0.1-1.7l0.1-0.2l-1.4-1.1
	l0.6-0.4l0.9,1.2l-0.1,0.2l2.9,2.1l2.2,0.9l1.5-0.3l1.2-0.8l2.4,0l3.6-1.3l1.6-2.1l-0.2-1l-0.8-1.2l0-0.2l1.1-0.6l0.8-1.8l2.3-2
	l0-0.9l-1.5-1.6l-2.7,0l-1.7,0.4l-0.9-0.4l0.4-0.5l3.3-1.3l1.6-1.3l5.1-1.2l0.5-0.6l3.1-0.5l6.8-0.5l1.4,0.6l1,1.1l0.7,2.1l0,0.9
	l-1.9,1.7l-2.1,2.6l0.7,2l0.9,0.6l0,1.1l0.9,3.1l1.2,1.2l1,0.3l2.3-0.8l0.6,0.8l0.6,0.4l1.4,1.3l2,0.5l1.6-1.5l1.1,0.2l1.2-0.5
	l0.4,0.1l3,1.2l1.6,0l1.7-1.4l0.3-1.5l1.4-0.7l1-0.6l4-0.1l1.2-1.2l0.3-1.4l0.8-0.5l0.1-3.1l-1.6-1.9l-0.2-1l-0.7-0.4l0.7,0.5
	l0.4-0.1l3.8,0.8l0.5,0l1-0.7l1.7-0.1l2.2-0.5l1-0.8l1.5-0.2l2.7-2.5l-0.2-0.7l-0.2-0.6l1.5-1.8l-0.1-1.1l1.4-1.1l1.6-0.7l1.1-1.8
	l-0.1-0.5l-0.7-0.5l0-0.2l1.2-1.4l0.2-1.6l-1.5-1.7l-2.4-0.5l-3.4,0.2L292,168.7l-0.4,0.2l-0.7,0l-0.2,0.1l-0.2,0l0.4,0.1l0.5-0.4
	L292,168.7L292,168.7z M254.4,151.8l-0.1-0.2l0.1-0.2l-0.1,0.4l0.1,0.4l-0.2,0L254.4,151.8L254.4,151.8z M177.6,220.5l-0.7,0
	l-0.5,0.4l-0.6-0.1l-0.3,0.3l-1.4,0l-0.5,0.4l-0.6-0.1l-0.8,0.5l0.8-0.4l0.3-0.3l0.7,0l0.3-0.3l1.4,0l0.3-0.3l0.7,0l0.7,0l0.4-0.2
	l0,0.2L177.6,220.5L177.6,220.5z M290.9,176.2l-0.4,0.1l0-0.2L290.9,176.2l0.4,0l0,0.2L290.9,176.2L290.9,176.2z M227.8,221.7
	l-0.4,0.1l0-0.2L227.8,221.7l0.4,0l0,0.2L227.8,221.7L227.8,221.7z M210.3,201.6l-0.1-0.2l0.1-0.2l-0.1,0.4l0,0.7l-0.4,1.7l0.1,0.3
	l-0.1,0.1l0.1-0.4l0.4-1.7L210.3,201.6L210.3,201.6z M229.1,217.2l-0.4,0.1l0-0.2l0.4,0.2l0.4-0.1l0,0.2L229.1,217.2L229.1,217.2z
	 M235.3,223.1l-0.2,0.1l-0.2-0.1l0.4,0l0.2-0.1l0.1,0.1L235.3,223.1L235.3,223.1z M115.2,263.3l0.4-0.1l0,0.2L115.2,263.3l-1,0.2
	l-0.4,0.3l-1.8,0.6l-8.2,2.3l-4.5,2.4l-1.6,1.1l-0.6,0.4l-3.6,3.4l-0.3,0.4l-2.1,2.4l0,0.6l-1.1,1.1l0,0.6l-1.1,1.1l0,0.6l-0.8,0.5
	l0.9-1.1l0-0.6l1.1-1.1l0-0.6l1.1-1.1l-0.1-0.2l0.1-0.4l1-1.4l1.6-1.9l1.8-2l3.3-2.9l1-1.1l2.3-1.3l2.8-1.5l1.8-0.8l1.6-0.7l1.8-0.6
	l1.8-0.8l1.6-0.7l2-0.8l1.4-0.5l2.9-1l1.7-1.2l0.7,0.1l-1,1.1l-2,1.4l0-0.1l0.2,0.1l2.6-1.1l0.3,0.3l-0.2,0.4l-1.2,0.7l-4.6,2.1
	l-1.8,0.5l-0.4,1.1l0.5-0.4L115.2,263.3L115.2,263.3z M217.2,157.3l0.4-0.7L217.2,157.3l-0.5,0.8L217.2,157.3L217.2,157.3z
	 M252.5,160.8l0.4,0l-0.4-0.1l-0.7,0.5L252.5,160.8L252.5,160.8z M268.4,160.2l-0.5,0.4l-0.6-0.1l-0.8,1.1l2.5-0.4l-0.6,0.7l-2.8,1
	l-0.4,0.3l-0.2,1.1l-0.4,0.2l0.7,0.7l-0.1,0.4l-2.8,1l-0.4,2.4l0.6,0.4l0.8-0.5l-0.8,0.4l-0.6,0.5l-1.6,0.5l0.2,0.5l0.8,0.3l1.2-0.8
	l0.7-0.2l1.2,0l1,0.9l0.1,0.2l0.4-0.2l0,0.2l-0.4-0.1l-1.1,0.2l-0.1-0.7l-0.9,0.1l-1.6,0.5l-0.4-0.1l-1,0.6l0,0.4l0.6,0.3l-0.4,0.8
	l0,0l0.2,0.1l2.3-0.7l0.7-0.1l0.3,0.4l2.4-1.2l0.5,0.5l1.2-0.4l2.3-2l1.8-1l2.3-1.4l0.2,0l-0.6,1.4l-2.1,1.6l-1,0.7l-1.2,1.1
	l-1.3,0.4l-2.9,0.6l-3.1,0.8l-0.9,0.3l-4.5,1.1l-4.6,1l-0.5,0.2l-0.4,0.3l0,0l0.4,0.2l2.2-0.3l1.9-0.4l2.1-0.6l3.3-0.7l3.3-0.9
	l2.6-0.6l2.7-0.2l0.5,0l0.9,0.4l1.3-0.8l3.3-0.1l0.7-0.1l1.9-0.4l0.4-0.3l0,0l0-0.7l1.4-1.1l1.6-0.7l0.6,1.1l2.9,0.3l0.2,0.6
	l-0.7,0.7l-2.6,1.4l-1,0.7l-0.3,0.7l2.3-1.3l2.1-1.2l2.1-1.3l2.6-0.7l0.6,0.2l0.8-0.4l-0.8,0.3l-0.6,0.4l-3,0.9l-0.4,1.1l0.4-0.3
	l0.2-0.1l0.1,0.1l-0.3,0.3l-0.4-0.1l-1.7,1.4l-0.9,0.4l-0.1,0.2l0.3,0.2l0.7-0.2l1.4-1l1.5-0.9l2.2-1.1l0.4-0.5l0.9-0.3l0.4,0.1
	l0.3-0.3l0.7-0.1l0.6-0.4l2.3-0.8l0.3,0l0.3,0.2l-0.3,0.4l-1.6,0.5l-0.6,0.4l-0.1,0.9l-1.3,0.7l-0.3,0.5l-1.1,0.7l-1.7,1l-0.4,0.3
	l-0.2,0.6l0.3,0.4l-0.1,0.8l-1.5-0.6l-0.7-0.7l-0.1-0.5l0.5-0.5l-0.4-0.1l-0.8,0.9l0.3,0.5l1.4,1.4l1.5,0.4l1.5-0.8l0.5,0.4l1.7-1.9
	l1.3-0.7l0.6,0.1l-0.9,1.2l-0.8,1.3l-0.6,0.1l-1.2,0l-0.2-0.1l0,1.2l1.6,0l0.7,0.1l0.3,0.3l-0.2,0.4l-1.1,0.4l-0.6-0.1l-1.1-0.4
	l-0.9-0.3l-2.4-1l-2.3-1.7l-0.2-0.1l-1.3-0.2l1.5,1.4l1,0.7l1.1,1.2l4.8,1.6l0.4,0.6l-0.6,1.4l-1.6,0.9l-1.5-0.1l-0.3-0.9l-0.9-0.4
	l-1.5-0.8l-1.3-1l-1.4-0.9l-0.7-0.6l-1.9-1.4l-0.6-0.4l-0.5,0.5l1.4,0.9l3.8,2.8l2.2,1.4l0.1,0.8l0-0.1l0.7,0.9l-0.2,0.4l-2.3,0.5
	l-2.1-0.4l-1.7-1.1l-1.5-1.1l-1.7-1.3l-1.4-1.3l-0.4-0.2l-0.4,0.2l1.3,1.2l2.2,2l0.8,0.3l1.7,1.2l0.3,0.4l-0.2,0.6l-4.7-1.6l-1-0.9
	l-2.5-1.2l-0.9-1l-1.4-0.9l-1.1-1l-1.9-0.8l-2.3-0.7l-1.6-0.1l-1.4,1.6l0.2,0.4l1.4,1.2l2.6,1.1l5.9,1l1.8,0.6l0.5,0.5l-0.2,1.9
	l2.1,1.1l-0.1,0.9l0.9,0.7l1.2,1.1l-0.1,1.7l-1.1,0.3l-2.7-0.9l-0.4,0.2l0,0.4l0.3,0.3l2,0.9l0.4,0.8l-0.9,0.8l-0.5,0.1l-4.1-1.2
	l-0.3,0.3l0.3,1.2l-0.5,0.4l-1.3-0.7l-1.5-1l0.3,1.2l0.3,0.9l0.5,1l0,1.3l-0.6,0.7l-2.2-0.1l-0.7-0.3l-0.6-0.2l-1.2-1.8l-0.3-0.3
	l-0.7,0.3l-0.4,0.9l-1,0.2l-0.6-0.4l-0.7,0l-0.2,1l-1.5,1l-1.3-0.7l-0.6-0.6l-0.9-2l0.3-1.3l-0.3-0.9l-0.7,0l-0.8,2.4l-0.7,0.7
	l-1.3,0.1l-1.1-1.2l-0.1-1.5l-0.4-1.6l1.3-1.6l-0.1-0.7l-1,0.1l-1,0.8l-0.7-0.3l-0.3-1.4l0.6-1.1l0.2-0.2l1.6-1.4l0.7-0.3l0.9-1.9
	l-0.3-1.7l-0.7-0.9l-0.8-1.3l-0.8-0.4l-3-0.8l-2.9,0.1l-2.4,0.4l-6.2,1.3l-5,1.3l-6.4,1.7l-2.1,0.7l-0.9,0.3l-2.6,0.6l-2.8,0.7
	l-2.3,0.7l-0.9,0.2l-1.9,0.4l-2.2,1l-2.6,0.6l-0.2,0.1l-6.9,2.5l-4.7,2.1l-3.7,1.4l-2.3,0.8l-0.9,0.5l-1.3,0.2l-0.6,0.4l-2.4,0.8
	l-1.8,0.8l-2,0.9l-0.4-0.1l-1,0.9l-3,1.2l-0.2-0.1l-1.2,1.1l-0.8,0.2l-0.9,0.7l-2.3,1l-1.6,1.3l-2.3,1l-1.4,1.1l-1.8,1.2l-1.9,1.2
	l-1.6,1.1l-1.7,1l-0.8,0.5l-1.4,1.1l-1.4,0.8l-0.4,0.7l-0.7,0.7l-0.7,0.3l-1,0.8l-3.9,3.5l-0.6,0.3l-0.9-0.6l0.2-0.4l2-1.9l2.6-2.3
	l2.6-1.9l1.3-1.1l3.4-2.5l0.8-0.5l2.8-1.6l2.4-1.3l2.8-1.6l1.9-1.1l2-0.9l2.2-1.1l1.9-1l0.4,0.1l1.1-0.9l2.8-1.3l0.4,0.2l1.4-1.3
	l3.1-1l1-0.7l2.5-1.1l1.3-0.6l2.9-1.4l1.1-0.5l3.1-1.4l4.3-1.7l1.6-0.6l0.9-0.4l3.9-1.5l0.2,0l2.1-0.5l2.1-0.7l2.1-0.6l1.8-0.7
	l1.9-0.4l0.8-0.3l0.6-0.6l-1.2,0l-1.1,0.5l-2.4,0.6l-6.3,2l-2.1,0.7l-2.6,0.6l-0.6-1l-1.2-0.6l-0.1-0.5l0.9-1.2l0.8-1.2l0.5-0.6
	l1.4-2l0.7-1.3l0.9-1.7l2.8-5.4l0.3-0.4l1.5-2.5l1.2-2.4l1.3-2.7l1.6-3.3l1.2-0.9l0.6-0.3l0.9-1.3l0.3,0l-0.3,1.4l-0.2,0.7l-0.8,1.5
	l-0.9,1.7l-0.9,1.4l0.7,0.4l0.4-0.7l-0.5,0.7l0.1,0.4l-1.3,2.3l0,0.4l0.6-0.6l0.8,0l1.9-1.4l-0.5,1.2l-1.4,1.9l-1.8,1.7L215,172
	l0.1-0.2l1.1-1.3l0.8-1.5l-0.1-0.4l-0.8,0.7l-0.6-0.1l-0.5,0.8l-0.8,1.8l-0.4,0.6l-0.8,1.8l-0.6,2.3l-0.1,0.3l-2.4,2.3l-0.4,0.6
	l0.1,0.4l0.2,0l1.4-1.3l2-2.3l2.3-1.2l1.6-1.9l4.1-9.6l0-1.3l0.6-0.6l-0.5-0.6l0.5-1.2l0,1.5l-0.1,0.2l0.4,0.5l0,0.3l-1.4,5.7
	l-0.2,0.4l-1.5,3.4l-0.6,0.8l-1.6,2.1l-2.2,2l-1.4,1.4l-0.1,0.2l0.4,0l2.8-2l1.1-1.1l0.9-1.4l1.1-1.6l0.9-1.8l1.8-2.9l0.9-2l1-1.9
	l2.4-2.5l1.8-0.6l-0.2,1l-1.6,2.2l-1.8,2.6l0.1,0.4l-0.1,0l1.6-1.1l0,0.9l-0.5,1l0.2,0l1.1-1.1l0.5-1l5.1-4.6l0,1.6l-1.5,1.6
	l-0.1,0.4l0.4,0.3l0.6-0.4l1.1-1l0.8,0.2l0.4,0.5l1-0.7l0.6-0.4l0.4,0.1l0.3,0.6l1.3-0.6l1.5-0.8l0.4,0.1l0.1,0.4l-1.7,1.4l-0.6,0.4
	l0,0.2l0.8,0.6l-0.1,0.3l-1.1,0.5l-1.1,0.5l-4.8,2l-3.4,2.6l0,1.4l1,0.3l2-0.3l2.5-1.2l1.9-1.1l6.1-2.6l1.1,0.2l0.4,0.8l-0.4,0.8
	l-1.6,0.6l0.3,0.6l1.5,0.2l1.5,1.5l0.1,0.8l-0.6,1.3l-0.1,0.2l-1.1,1l-2.4,1.2l-0.4,0.6l-1.5,0.9l1.6,0.1l2.9-0.7l0.5-0.2l4.9-1.5
	l1.4-0.5l2-1.2l1.7-3.4l0.1-1.9l-0.3-1.2l-1.4-3.3l0.6-0.2l0.9,1l1.5,3.3l0.2,0.4l0.4,0.2l0.1-0.4l-1-2.7l0.1-0.4l-0.3-0.3l-0.1-0.4
	l0.2,0l0.3,0.3l-0.2,0.4l0.4,0.3l0.8-0.3l-0.4-0.8l0.2-0.6l1.1,0.1l1.2,2.6l0.5,0.1l-1-3.2l0.6-0.4l1.7-0.3l1.4-0.9l-0.1-0.7l0.1,0
	l-2.6,1.1l-1.2,0.2l-0.5-0.4l1-0.5l0.5-0.9l-0.4-1l0.2-0.4l-0.1-0.4l0.2,0l-0.1,0.4l0.8,0.4l0.1-0.2l-0.2-2.4l-0.3-0.4l-1.2-0.1
	l-0.1-0.1l0.8-0.8l-0.3-0.4l-0.7,0.2l-0.4-0.1l-1.5,0.4l0.2-0.4l1.3,0l0.7-0.7l0.5-0.1l1,0.5l0.9-0.3l0.6-1.8l0-4.1l0.1-1.4l0.7,0.5
	l0.3,2.8l0.2,0.9l-0.6,1l0.5,0.3l-0.6,1.1l1.2,0.2l-0.2,0.6l-2,0.8l0.4,0.4l1.2-0.2l0.2,0.5l-1.1,0.4l-1.2,0.8l0.7,0.1l3.5-1.1
	l1.2-0.1l0.2,0.4l0.2,0.1l0.6-0.4l-0.1-0.4l0.2,0l-0.1,0.4l0.1,0.2l-0.9,2.5l-2.3,4.3l-1,1.7l-0.8,1.5l-1.2,1.6l-1.5,1.9l-0.9,0.9
	l-0.2,0.4l1.4-0.9l1.2-1.3l1.5-2l0.5-0.8l3.9-7.1l2.1-0.7l0.4,0.1l0.5-0.4L268.4,160.2l0.8-0.4L268.4,160.2L268.4,160.2z
	 M221.7,100.2l0.2-0.7l0.2,0l0,0.2L221.7,100.2l-0.5,0.7L221.7,100.2L221.7,100.2z M237.7,223.5l-0.4,0.2l0-0.2L237.7,223.5l1.1,0.1
	l-0.7,0.2L237.7,223.5L237.7,223.5z M236.5,220.8l0.7,0l1.1,0l-0.7,0.2l-0.3-0.3L236.5,220.8l-1.1,0l0.5-0.7l-1.5,0.1l-0.6-0.1
	l-0.6,0.5l-0.9,0l0.2-0.5l1.1-0.2l0.2,0.2l1-0.8l2.5-0.1l0.9,0.6l0.4,0l-0.4-0.1l-0.9,0.2l-1.6,0.1L236.5,220.8L236.5,220.8z
	 M146.9,239.6l0.3-0.4l0.4-0.1l0,0.2l-0.3,0.3L146.9,239.6l-1.1,0.7l0.7-0.8L146.9,239.6L146.9,239.6z M210.4,111.4l-0.4,0.1
	l0.1-0.1L210.4,111.4l0.7,0.2l-0.4,0.6L210.4,111.4L210.4,111.4z M272.6,158.8l-0.6,0.4l-0.2,0l0.2-0.4L272.6,158.8l1.1-0.7
	l-0.7,0.8L272.6,158.8L272.6,158.8z M207.9,213.6l-0.8,0.5L207.9,213.6l1.1-0.7l-0.9,0.8L207.9,213.6L207.9,213.6z M202.7,202.9
	l-0.8-0.4l0.8-0.2L202.7,202.9l0.2,0.4l0.1,0.2l-0.1,0.1l-0.3-0.3L202.7,202.9L202.7,202.9z M272.1,160.5l-0.8,0.4L272.1,160.5
	l0.6-0.3l0.5,0.5L272.1,160.5L272.1,160.5z M231.5,97.5l-0.1-0.4l0.5-0.6l0.2-0.1l0,0.3L231.5,97.5l-0.5,0.8L231.5,97.5L231.5,97.5z
	 M218.4,165.2l-0.1,0.8l-0.7,0.6l0.1,0.4l-0.9,0.7l0.9-1.1l0.1-0.8L218.4,165.2l0.5-0.7L218.4,165.2L218.4,165.2z M213,120.8
	l-1.1-0.7l0.6-0.3l0.6,0.4L213,120.8l-0.5,0.7L213,120.8L213,120.8z M231.7,212.9l0.3-0.3l0.7,0.3l-1.1-0.1l-0.4,0.8l-0.7,0l0.9-0.8
	L231.7,212.9L231.7,212.9z M207.8,127.6l0.6,0l0.4,0.7L207.8,127.6l-0.3,0.8l-0.4,0.2l0-0.8l0.3-0.3L207.8,127.6L207.8,127.6z
	 M219.4,103.6l0,0.7l-1.1,1l-0.3-0.1l1.5-1.6l-0.1-0.4l0.8-0.7L219.4,103.6L219.4,103.6z M251.2,158.6l-0.4,0.1l0-0.2l0.4,0.1
	l0.9-0.7l1,0l-0.1,0.2l-1.6,0.5L251.2,158.6L251.2,158.6z M215.3,108.7l-0.4,0.1l-0.2-0.3l0.3,0L215.3,108.7l0.4,0l1,1.2l-0.2,0
	l-1-0.5L215.3,108.7L215.3,108.7z M202.6,159.9l0.8-1.8l-0.4,1.3L202.6,159.9l0,0.4l-0.2,0L202.6,159.9L202.6,159.9z M287.9,167.9
	l-0.4,0.2l0-0.2L287.9,167.9l0.5-0.4l1.5,0.5l0.5-0.5l3.4-0.7l-0.5,0.5l-0.2,0.1l-2.3,0.7L290,168l-1.2,0.5L287.9,167.9L287.9,167.9
	z M254.5,163.5l-0.4-0.1l-1.4,0.4l-0.4-0.2l0.5-0.5l1.4-0.4l0.2,0.8l0.8,0.3l-0.8,0.7l-0.4-0.2l0-0.4L254.5,163.5L254.5,163.5z
	 M285,164.9l0.8-0.4l-0.8,0.3l-1.7,1.5l-1.3,0.3l0.6-0.8l2.2-1L285,164.9L285,164.9z M167.7,209.4l0.6,1.2l0.1,0.6l-0.7,0.6
	l-0.7-0.2l-0.4,0.1l0.8,1.1l-0.8,0.4l-0.2,0.8l-0.9,1.7l-0.7,0.7l-0.4,0.8l-1,1.6l-1.1,1.6l-2.4,3.1l-1.3,1.3l-0.4,0.9l-2,1.8
	l-0.3,0l1-1.9l1.5-1.5l0.6-1.2l1.8-2.2l0.3-0.4l1-1.4l1.9-2.7l1.3-2.7l1.4-1.7l-0.1-0.4l1.2-2l0.1-0.6l0.3-0.1l0,0.2L167.7,209.4
	L167.7,209.4z M234,221.8l0.2-0.1l2.1,0.1l0.1,0.1l-0.3,0.3l-1.7,0L234,221.8l-0.4,0.2l-3.7-0.6l0.2-0.4l1.4-0.3l0.2,0.5l1.9,0.2
	L234,221.8L234,221.8z M225.5,119.5l-0.4-0.5l-0.8-2.2l-0.4-1.4l0.2,0l0.9,1l0.7,1.5l0,1.2L225.5,119.5l0,0.4l-0.2,0L225.5,119.5
	L225.5,119.5z M216.7,103.6l0-0.4l1.7-3.1l0.6-0.6l0.4-0.3l0.6,0.1l0,0.4l-1.1,1.3L216.7,103.6l0.3,0.5l0,0.2l-0.4-0.1L216.7,103.6
	L216.7,103.6z M211.6,203.7l1-4.8l0.8-0.7l0.3,0.1l-0.5,1.6l-0.6,0.4l-0.1,1.2l0.3,0.9L211.6,203.7l0.7,0.5l-0.5,0.8l-0.3,0.9
	l-0.8,0.6l0.6,0.4l1.6-0.5l1.2,0.1l0,1.4l-0.8,0.4l-1,0.8l-1.4,0.4l0.4-0.9l0-0.4l-1.2-0.1l-0.3-0.4l0.9-1.1l-0.1-0.2l0.5-2
	L211.6,203.7L211.6,203.7z M85.2,284.3l-0.8-0.4l0.1-0.8l1.5-1.7l0.4-1l1.8-1.3l-0.2,0.5l-0.9,1.4l-1.1,2.5L85.2,284.3l0.1,0.4
	l-0.2,0L85.2,284.3L85.2,284.3z M217.4,203.4l0,0.7l-1.6,1.3l-1.4,0.4l-0.3-0.4l0.4-2l0.6-0.3l0.8,0.6L217.4,203.4l0.6-1.7l0.9-0.2
	l0.3,0.5l-1,0.6L217.4,203.4L217.4,203.4z M276.1,170l1.2-1.5l0.6-0.4l0.5-0.9l0.9-0.4l0.8-0.6l0.4-0.1l-0.2,0.4l-3.2,3.1l-0.6,0.4
	L276.1,170l-3.6,2.4l-1.4,0l0.5-0.7l2.6-1.8l0.4-0.3l1.1-0.4l0.2,0.2L276.1,170L276.1,170z M267.2,149.5l0.4,0.5l-0.4,1.8l0.4,1.5
	l0.5,0.8l-0.2,1l0.9-0.2l0.3,0.3l-0.3,0.9l0.1,0.2l-0.2,0.8l-1.3,0.7l-0.4,0.5l0.5,0.1l1.9-0.5l0.7,0l0.1,0.3l-4.1,1.6l-0.7,0.1
	l0.3-2.6l-0.4-0.5l-0.2-0.1l-2.6,0.5l-0.2-0.6l3.2-1.1l0-0.6l-0.7,0.2l-0.4-0.1l-0.4,0.3l-0.2,0.1l-0.6-0.3l0.2-0.4l0.6,0l0.3,0.4
	l0.4-0.8l0.3-0.1l0.3-1.1l0-0.2l0.6-0.9l-0.1-0.8l0.5-0.6l0-0.7l-1.1,0.5l-0.3-0.1l0.3-0.4l0.2-0.2l0.7,0l0.3,0.3L267.2,149.5l0-0.4
	l0.2,0L267.2,149.5L267.2,149.5z M157.4,216.6l0.5,0.4l-0.2,1.2l-0.7,1l-1.9,4l-1.4,2.6l-1.6,2.7l-1.1,1.6l-1.4,2l-0.2,1.7l-3,1.8
	l-2.5,1.9l-2.5,1.7l0-0.4l3.2-3.1l0.8-0.9l1-1.4l1.3-1.3l1-0.4l-0.1-0.9l1.1-1.4l0.5-0.8l1.1-0.6l0.1-0.9l1-1.8l1.4-1.4l0.3-0.5
	l1-3.1l0.5-0.2l0.1-0.7l-0.1-0.7l0-0.2l1.1-1.6L157.4,216.6l0.1-1.1l0.9,0l0.2,0.4L157.4,216.6L157.4,216.6z M201.2,172.3l0.7-3.2
	l0.9,0l0.5,1.6l0.7,0.7l0.8-0.1l0.4-0.9l-0.5-1.3l-0.1-1l-0.2-0.1l-1.4-0.5l0.1-2.3l1.1,0.5l0.4-2.5l0.6-0.3l0.6,0.4l-0.1,0l0.2-0.2
	l1.9-2.1l0.1-0.4l-0.9-0.4l-0.1-0.6l0.5-0.5l0.6,0.3l0.4,0.9l0.6,0.3l0.3-0.3l-0.2-1.2l-0.5-1l1.4-4.8l1-0.1l1.3,0.6l0.2,0.6
	l0.2,0.7l-0.2,0.8l-0.9,1.3l0.3,0.4l0.2,0.1l2.1-0.3l1.1-0.3l-0.3,1.6l-0.8,1.2l-0.7-0.2l-0.3,0.5l0.4,0.2l-0.1,0.9l-1.5,2.8
	l-3.4,5.7l-0.7,1.3l-1.8,3l-1.7,2.3l-1.3,1.8l-1.1,1l0.1,0.4l-0.2,0l0.2-0.4l-0.2-0.2l-0.2-1.9l-0.6-2l-0.4-1.6l-0.1-1.2l0.2-0.4
	L201.2,172.3L201.2,172.3z M170.6,221.1l-0.4,0.1l0-0.2L170.6,221.1l0.3-0.8l0.8-0.5l0.5-0.8l1.5-0.9l1.2-1.5l1-0.5l0.7-0.8l3-2.9
	l0.6-0.7l2-1.9l2.3-2.3l0.8-1.1l1.3-1.3l0.8-0.9l1.7-2.1l1.2-1.2l2.5-3.1l0.2-0.4l0.1-0.2l0.9-0.4l3.6-1.5l1.3-0.6l1.8-0.8l2.3-0.9
	l2.8-0.8l0.5,0.1l2.1,3.7l0.1,0.5l-1.8,0.8l-0.8,1.5l-1.2,1.6l0,1.6l-0.2,1.4l-0.6,0.4l-0.4-1.6l-0.3-1.6l0-1.3l-1.5,0.7l-0.9,0.8
	l-1.9,4.8l-0.2,1l-0.4,0.6l-1.5,0.1l-1.7,1.5l-0.6,1.5l0,1.9l1.4,2.1l1.3,1.8l0.1,0.8l-0.1,0.7l-0.8,0.4l-0.9,0.7l-0.6,0.1l-6.3,0.3
	l-0.7,0.1l-2.4,0.2l-1,0.1l-1.7,0.2l-4.9,0.3l-1.9,0.3l-1.7,0.4l-3.2,1.1L170.6,221.1L170.6,221.1z M207.6,191.3l2.3-0.8l3.9-1.3
	l0.9-0.2l0.7-0.2l2.5-0.9l3.3-0.7l3.3-0.9l3.3-0.9l0.9-0.4l3.3-0.7l0.2,0.4l-1.6,0.6l-1.3,1.1l-0.1,0.5l1.2,1.2l1.4-0.2l2.1-0.5
	l1.2,0.2l0.5,0.4l0.3,0.4l-0.1,1.1l-1,0.8l-2.6,0l-0.4,0.3l-0.1,0.5l1.6,0.5l0.2,0.6l-0.5,0.6l-1.1,0.3l-1.9-0.2l-0.9,0.3l-0.1,0.6
	l2.1,0.4l1.9,1.4l0,1.2l-0.5,0.5l-0.7,0.6l-5.4,0.6l-0.9-0.6l-0.6,0.3l0.4,1l-0.3,0.4l-1.7,0l-3-1.8l-0.7-1.3l-0.8-1.4l-0.2-0.1
	l-0.2,0l-2.6,0.5l-1.2,0.6l-2.1-0.3l-2.4,0.4l-1.8-2.3l-0.7-1.8L207.6,191.3L207.6,191.3z M142.1,239.5l1-0.4l2.3-1.5l3-2.1l1.5-1.1
	l2.3-1.1l1.4-1.2l1.2-0.8l0.4-0.5l1.3-0.8l1.6-1.1l0.4-0.6l0.6-0.3l3.2-2.9l2.5-2l0.2-0.2l0.5-0.8l1.4-1l0.3-0.4l2.2-2.3l0.3-0.4
	l2.5-2.4l1.8-2l0.2-0.1l0.5-0.2l0.7-1.2l0.9-0.5l1-1.4l2.4-2.2l5-4.8l0.4-0.8l3.4-2.8l1-1.6l2.1-0.9l-0.4,1.2l-1.7,1.8l-1.7,2.1
	l-0.3,0.4l-2.4,2.8l-0.8,0.9l-1.7,1.8l-0.8,1.1l-1.2,0.8l-2.1,2.4l-11.6,10.8l-2.9,2.3l-0.8,0.6l-3.3,3l-2.7,2.2l-2.1,1.3l-2.4,1.7
	l-0.4,0.2l-1.7,1.1l-0.6,0.4l-2.6,1.4l-2.7,1.7l-2,1.4l-1.1,0.6l-2,0.9l-2.1,1.2l-2.2,1.2l-1.5,0.7l-1.4,1l-0.6,0.4l-1.9,0.9
	l-1.6,1.4l-1,0.7l-1.4,1l-2.4,2.2l-1.6,1.2l1-1.9l2.6-2.4l2.2-2l1.7-1l1.3-0.7l2.2-1.2l2.1-1.2l1.8-0.8l1.7-1l2.1-1.2L142.1,239.5
	L142.1,239.5z M181.8,205.3l-1.4,1.1l-0.4,0.2l-1,1.1l-0.6,0.7l-1.1,0.6l-1.3,1.4l-0.3,0.4l-0.7,0.3l-0.6,1l-1.1,1.1l-2.9,2.8
	l-0.8,0.9l-1.3,1.5l-4.7,4.4l-2.7,2.2l-0.2,0.2l-0.3,0.4l-1.8,1.2l-1.8,1.3l0-0.2l1.2-1.5l1.3-1.8l0.5-0.9l1.9-1.9l0.7-1l1-1.7
	l1.2-1.6l2-2.8l2-3.1l1.9-2.7l1-2.1l0.5-0.6l2.4-1.7l3.5-1.8l1.3-0.6l2.4-1.2l0.7-0.3l1.8-0.9l2.8-1l0.3,0.3l-0.1,0.3l-5.1,5.1
	L181.8,205.3L181.8,205.3z M165.9,211l-2.9,5.5l-1,1.4l-1.2,1.6l-1.6,2.1l-0.7,1.1l-1.5,1.6l-1.5,2l-0.5,0.6l-2.1,2.4l-0.4,0
	l1.1-1.7l1-2l1.1-2.2l1.2-2.4l1.6-2.4l1-2.6l1.4-2.7l0.7-0.6l1.7-1l0.2-0.1l2.1-1.2l0.2,0L165.9,211L165.9,211z M211.6,169.6
	l-1.6,2.5l-1.1,2.2l-1.4,2.3l-1.1,2.2l-1.7,2.7l-0.4,0.6l-1.8,2.6l-2.2,2.7l-0.5,0.6l-2.2,2l-0.6,0.2l-0.1-0.7l1.1-1.3l0.4-0.9
	l1.1-1.6l1.4-2l1.3-1.8l1.1-1.7l1.2-1.8l1.4-2l1.3-1.8l1.4-2l1.2-2.1l3.7-6.3l0.6-0.5l-0.6,2l-0.8,1.8L211.6,169.6L211.6,169.6z
	 M129.4,244l-1.5,1.7l-3,3.3l-0.3-0.1l1.5-2.7l1.7-2.7l1.1-1.6l1.1-1.6l1.3-1.8l1.1-1.3l1.7-2.1l0.8-0.9l0.4-0.8l1-0.5l0.6-1
	l0.8-0.9l0.5-0.5l2.1-2.4l0.8-0.9l0.9-0.9l1.8-1.7l2.4-2.2l0.4-0.1l0.1,0.2l-0.2,1.4l-2.7,2.5l-0.7,0.3l-1.1,1l-0.3,0.3l-1.1,1.3
	l-2.6,3l-0.3,0.4l-2.2,2.6l-0.8,0.6l-1.1,1.6l-1.3,1.8l-0.7,1l-1.2,1.4L129.4,244L129.4,244z M152.2,224.6l-0.7,0.9l-1.2,1.8
	l-0.4,0.6l-0.9,1.2l-0.7,1l-0.9,1.2l-1.1,1.4l-0.4,0.6l-1.9,1.9l-4.3,4.1l0.1,1l-1,0.6l-1.3,0.7l1-1.8l1.2-1.3l0.9-1.5l1.1-1.6
	l1.1-1.4l0.9-0.5l1.2-2.1l0.9-2.2l1.5-1.3l0.9-1.2l5.1-4.6l0.1,0.1l-0.6,1L152.2,224.6L152.2,224.6z M134.6,240.8l0.6-0.5l0.9-1.2
	l0.8-1.2l1.4-2l1.4-2l0.4-0.6l0.9-1.4l1.1-1.6l0.8-1.2l0.5-1.2l1.8-1.7l0.3,0.1l-1.2,2.9l-1.3,2.6l-1.4,2.3l-1.9,2.5l-0.4,0.6
	l-1.1,1.6l-1.2,1.5l-1.4,1.8l-1.6,1.5l-0.9-0.1l0.9-1.2L134.6,240.8L134.6,240.8z M180.4,199.3l0.2-0.4l1.4-1.4l2.3-1.5l0.6-0.4
	l3.3-2.2l0.4-0.3l2.4-1.3l3.7-1.9l0.4,0l-0.6,1.4l-2.8,2.7l-2.1,0.8l-1.5,0.8l-1.5,0.7l-2.2,1.1l-2.8,1l-1,0.6L180.4,199.3
	L180.4,199.3z M103.4,270.6l-0.7,0.2l-3.6,1.6l-0.5,0.1l-2.2,1.1l-1.9,1.1l-0.2,0l0.1-0.4l4-3.7l0.6-0.4l2-1.4l0.4-0.3l1.7-1
	l1.4-0.3l0.8-0.4l1.8-0.3l0.1,0.1l-0.1,0.2L103.4,270.6L103.4,270.6z M133.5,248.5l0-0.9l0-0.7l0.3-0.4l2.7-1.8l2.2-0.9l3.3-1.6
	l0.3,0.2l-0.7,1.2l-1,1l-1.8,1.3l-1.2,0.9l-1.7,1l-1.9,1L133.5,248.5L133.5,248.5z M236.2,121.7l1.6-1.1l-0.4,1.3l-1.8,2.6l-1.8,2
	l-1.4,0.1l-0.9-1.5l0.8-1.6L236.2,121.7L236.2,121.7z M138.6,233.2l-0.2,0.6l-0.4,0.9l-1.7,2.4l-1.2,1.9l-1.5,2l-1.1,1.6l-0.5,0.7
	l0,0.4l-0.8,1.4l-1.6,0.7l-0.1-0.8l1.4-2l1.9-2.6l0.8-1.2l0.9-1.1l1.4-1.7l1.7-2.1L138.6,233.2L138.6,233.2z M209.8,218.6l4.4-1.8
	l0.2-0.1l0.4,0.1l0,0.2l-2.3,2l-4.4,2.1l-1.2,0l-0.1-0.7l1.2-1.6l0.6-0.4L209.8,218.6L209.8,218.6z M268.2,181.6l-1.5-0.7l-0.9-0.8
	l0.1-0.6l0.6-0.4l1.5,0.3l2,0.7l2,1.3l1,0.7l0.1,0.3l-1.2,0.1L268.2,181.6L268.2,181.6z M206.3,123.7l-0.7-2.7l0.5-2.1l1.2-1.2
	l0.8,0l0.3,0.4l-0.8,0.9l-0.9,1l-0.5,1.2l0.3,0.9l0.4,0.8l0.3,0.8l0.6-0.1l2-2.2l0.2,0l-0.3,0.7l-0.3,0.7l-1.8,1.7l-0.5,0.1
	L206.3,123.7L206.3,123.7z M250.1,163.9l0.9-0.1l0,0.3l-0.5,0.6l-1.6-1.3l-0.2-1l-0.1-2.1l0.3-0.4l0.5,0l0.6,0.3l0.7,2.1l0.7,0
	l1.8-0.7l1.2-0.2l0.3,0.4l-0.1,0.2l-1.6,0.6l-3,1L250.1,163.9L250.1,163.9z M274.9,172l0.6-0.7l1.5-0.8l0.8-0.5l1.9-1.1l1-0.1
	l0.2-0.1l1-0.7l0.7,0.3l0,0.3l-1.1,0.8l-1.4,0.9l-1,0.6l-1.3,0.8L274.9,172L274.9,172z M229,227l-4-0.4l-2.4-1.1l-0.1-0.2l0.6-1
	l1.7,0l1.4,0.7l2.8,1.7L229,227L229,227z M213.2,117.3l-1.4-1.4l0-0.6l1.9-0.9l1.3,0.8l1.5-1.5l0.1,0.2l-0.5,1.1l-2.2,2.2
	L213.2,117.3L213.2,117.3z M214,126.3l0.3,1.5l-1.6,1.4l0.2-1.7l-1.7-2.2l0-1l0.6-0.6l0.8,0.4L214,126.3L214,126.3z M223,99.3l0-2.2
	l0.5-1.1l1.4,0.5l0.1,1.6l-0.1,0.7l-0.4,0.6l-0.2,0.4l0.2,0.7L223,99.3L223,99.3z M124.4,252.9l1.4-0.9l1.5-1.3l0.2,0l0.1,0.1
	l-0.4,0.6l-3.8,3.6l-0.7,0.9l0.1,0.8l-1.4-0.6l-0.1-0.2l0.7-0.9l1-0.7l1-0.8L124.4,252.9L124.4,252.9z M198,191l2.9-2.8l1.5,0.2
	l0.4,0.2l0.2,0.4l-0.1,0.2l-3.1,1.3L198,191L198,191z M210.3,125.3l0.6,0.5l1.1,1.5L212,128l-1.2,0l-1.8-1.3l-0.5-0.7l0.8,0.1
	L210.3,125.3L210.3,125.3z M229.1,163.7l-0.9,0L228,163l1.5-1.6l0.5-0.3l0.8,0.1l-0.1,1L229.1,163.7L229.1,163.7z M212.8,122.3
	l0.9-0.8l0.6,0l0.6,1.4l-1.1,1.1l-0.5-0.1L212.8,122.3L212.8,122.3z M251.3,156.4l-0.4-0.4l0.8-2.2l0.6-0.3l0.6,2.3l-0.2,0.2
	L251.3,156.4L251.3,156.4z M213.3,196.7l-1.6,2.2l-0.7,0.7l-0.3,0l-0.3-1.8l0.2-0.4L213.3,196.7L213.3,196.7z M227.4,158.7l-0.7,0.7
	l-0.9,1.4l-0.8-0.7l0.4-0.3l1.7-2.1l0.4-0.1L227.4,158.7L227.4,158.7z M262.7,148.7l-0.2,1.1l-0.4,0.3l-0.2,0l0.2-1.6l0.8-1.5
	l1.5-0.5l0.2,0.6L262.7,148.7L262.7,148.7z M215.1,174.8l-1.3,0.3l0.2-1l1.2-1.1l1.4-0.3l-0.4,0.6l-0.6,0.8L215.1,174.8L215.1,174.8
	z M219.9,111.5l0.8,0.9l-0.9,1.6l0.3-1.2l-0.2-0.3l-0.2,0.1l-0.5,0.8l-0.8,0.5l0.8-2.3L219.9,111.5L219.9,111.5z M166.1,206.8
	l1.9-1.5l1.1-1.1l1.7-0.6l0,0.2l-0.3,0.4l-1.9,1.1L166.1,206.8L166.1,206.8z M279.9,164.8l0,0.2l-2.3,2.2l-1.1,0.1l2.2-2.2
	L279.9,164.8L279.9,164.8z M196,210.9l-0.2,0.2l-0.6-0.1l0.1-1.6l1-1.7l0.7,0l0.2,0.1l-0.9,1.4L196,210.9L196,210.9z M244.4,119.9
	l-1.3,0.7l-1.5,0.8l-1.3,0.8l1.3-1.4l0.8-0.3l2-1.5L244.4,119.9L244.4,119.9z M230,92.8l1.1-2.6l0.6-0.3l0.7,0l-0.2,0.8l-0.6,0.2
	l-0.7,1.1l-0.4,0.6L230,92.8L230,92.8z M233.1,226.2l-0.2,0.4l-3.5-0.4l-0.2-0.4L233.1,226.2L233.1,226.2z M209.8,132.5l0-0.2
	l1.6-2.2l0.4-0.2l0.3,0.3l-0.1,0.2l-1.8,2L209.8,132.5L209.8,132.5z M227.7,220.4l-2.1-0.3l-0.2-0.4l1.2-0.5l1.7,0.4L227.7,220.4
	L227.7,220.4z M214.3,162.7l0.1-0.7l1.2-2.4l0.3-0.4l0.6-0.2l-1.8,3.7L214.3,162.7L214.3,162.7z M285.2,166.3l0.6-0.7l3.1-1.4l0,0.8
	l-1.9,0.7L285.2,166.3L285.2,166.3z M236.2,160.9l-1.8,0.9l0.1-0.5l1.5-1.3l1.1-0.5l0.8-0.3L236.2,160.9L236.2,160.9z M229.7,95.3
	l0.6,0.3l0.3,1.6l-0.2,0.7l-0.2,0.1l-0.2,0l-0.6-1.3L229.7,95.3L229.7,95.3z M288.3,169.3l-0.2,0.4l-2.6,0.5l-0.7-0.1l-0.1-0.2
	l0.1-0.2l2.6-0.6L288.3,169.3L288.3,169.3z M215.1,118.1l-0.6-0.2l0.1-0.3l0.5-0.5l1.2-1.2l0,1L215.1,118.1L215.1,118.1z
	 M235.8,90.3l0.8-2.2l0.7-0.3l-0.1,0.8l-0.9,1.7L235.8,90.3L235.8,90.3z M234.1,93.7l-0.1-0.8l0.6-1.8l0.7,0.8L234.1,93.7
	L234.1,93.7z M220.4,116.1l-0.1-0.7l0.9-1.5l0.6,0.5L220.4,116.1L220.4,116.1z M275.2,156.2l0.1,0.5L275,157l-1.9,0.5l-0.1-0.1
	L275.2,156.2L275.2,156.2z M244.7,102.4l-0.3,0.6l-0.3,0.6l-0.3,0.6l-0.7,0.6l-0.3-0.1l0.8-1.4L244.7,102.4L244.7,102.4z
	 M237.1,161.2l-0.4,0.6l-2,1.8l-0.2,0l-0.1-0.1L237.1,161.2L237.1,161.2z M229.3,159l-1.3,1.1l-0.2,0.1l0-0.3l0.7-1.2l0.4-0.2
	L229.3,159L229.3,159z M221.9,115.8l0.4-0.1l1,1.5l-0.3,0.3l-0.3-0.3l-0.1-0.7L221.9,115.8L221.9,115.8z M253.3,159l-0.4,0.7
	l-1.6,0.5l0.5-0.7L253.3,159L253.3,159z M220.3,203l0,0.8l-0.9-0.1l0-0.6l0.3-0.4L220.3,203L220.3,203z M225.5,220.8l-0.1,0.4
	l-1.6-0.2l-0.1-0.4L225.5,220.8L225.5,220.8z M281,163l-1.4,0.8l-0.1-0.1l0.2-0.4L281,163L281,163z M226.5,100.6l1-1.6l-0.6,1.4
	L226.5,100.6L226.5,100.6z M212.8,109.6l0.9-1l0,0.8l-0.5,0.4L212.8,109.6L212.8,109.6z M292.8,175.6l-0.9,0l-0.2-0.6l0.4-0.2
	L292.8,175.6L292.8,175.6z M286,168.5l-1.3,0l1.6-0.6L286,168.5L286,168.5z M247.2,118l-0.3,0l-0.1-0.3l0.8-0.8l0.3,0l0.1,0.3
	L247.2,118L247.2,118z M169.4,208.9l-0.2-0.6l0.6-0.2l0.2,0.3l-0.4,0.5L169.4,208.9L169.4,208.9z M256,160.9l-0.3,0.6l-0.5-0.3
	l0.2-0.4L256,160.9L256,160.9z M147.3,224.7l1.2-0.8l-0.8,1.1l-0.5,0.1L147.3,224.7L147.3,224.7z M245,122.3l-1.3,1.2L245,122.3
	L245,122.3z M276.1,152.7l0,0.2l-0.7,0.5l-0.1-0.1L276.1,152.7L276.1,152.7z M219.3,105.3l1.1-1L219.3,105.3L219.3,105.3z
	 M283.5,161.4l-1.2,1L283.5,161.4L283.5,161.4z M290.3,162.9l0.1-0.4l0.7-0.6l0.3,0l0,0.2L290.3,162.9L290.3,162.9z M233.4,217.2
	l-0.7,0l-0.3-0.3l0.3-0.3l0.4-0.1l0.4,0.1L233.4,217.2L233.4,217.2z M278.2,164.3l-0.7,0.8l-0.4-0.1l0.1-0.4L278.2,164.3
	L278.2,164.3z M214.9,154.5l-0.4,0.7l-0.3,0l0-0.2L214.9,154.5L214.9,154.5z M271.9,151.4l0-0.9l0.4,0.5L271.9,151.4L271.9,151.4z
	 M281.8,161l-0.8,0.8L281.8,161L281.8,161z M195.6,192.3l-0.1-0.5l0.2-0.3l0.3,0.3L195.6,192.3L195.6,192.3z M210.4,123.5l0.5-0.7
	l0.2,0l0,0.3L210.4,123.5L210.4,123.5z M217.1,113.3l0.4-0.7l0.4,0l0,0.2L217.1,113.3L217.1,113.3z M270.5,153.6l0.4-0.3l0.2,0
	l0,0.3l-0.3,0.3l-0.4,0.2L270.5,153.6L270.5,153.6z M218.4,117.7l0.2-0.1l0.2,0.6l-0.3,0.3l-0.2-0.1L218.4,117.7L218.4,117.7z
	 M219.3,117.1l0.1-0.8l0.4,0.4L219.3,117.1L219.3,117.1z M219.7,210l0.9-0.8L219.7,210L219.7,210z M154.3,219.4l-0.6-0.2l0.3-0.6
	l0.2,0L154.3,219.4L154.3,219.4z M216.5,201.3l-0.2,0.4l-0.7,0.5L216.5,201.3L216.5,201.3z M203.3,216.4l0.8-0.7L203.3,216.4
	L203.3,216.4z M204.6,160.5l0.4,0.1l-0.1,0.4l-0.4,0.3l-0.4-0.1l0-0.2L204.6,160.5L204.6,160.5z M254.7,158.3l0.4,0.2l0,0.4
	l-0.4,0.2l-0.1-0.4L254.7,158.3L254.7,158.3z M276.9,160.9l0.4,0.3l-0.5,0.5L276.9,160.9L276.9,160.9z M225.1,106.4l-0.4-0.2
	l0.2-0.4l0.2-0.1l0.2,0.3L225.1,106.4L225.1,106.4z M202.5,161.6l0.3,0.2l0,0.2l-0.2,0l-0.2-0.3L202.5,161.6L202.5,161.6z
	 M216.8,200.3l0-0.2l0.4-0.2l0.1,0.3l-0.4,0.2L216.8,200.3L216.8,200.3z M230.1,218.6l0,0.2l-0.4,0.2l0-0.2l0.3-0.3L230.1,218.6
	L230.1,218.6z M200.5,202.6l0.2-0.4l0.3,0l-0.1,0.2L200.5,202.6L200.5,202.6z M198.6,214.2l-0.2,0.3l-0.2,0l0-0.2l0.3-0.2
	L198.6,214.2L198.6,214.2z M178.7,198.9l0.2-0.4l0.3,0l-0.1,0.2L178.7,198.9L178.7,198.9z M176.3,200.9l0.2,0l0,0.2l-0.2,0.2l-0.2,0
	L176.3,200.9L176.3,200.9z M286.1,158.9l-0.2,0.4l-0.3,0l0.1-0.2L286.1,158.9L286.1,158.9z M227.3,100.9l0.2,0l0,0.2l-0.2,0.2
	l-0.2,0L227.3,100.9L227.3,100.9z M227.6,104.7l0-0.2l0.4-0.2l0,0.1l-0.3,0.3L227.6,104.7L227.6,104.7z M225.8,103l0.2,0l-0.2,0.4
	l-0.2,0L225.8,103L225.8,103z M248.4,128.2l0.4-0.2l-0.1,0.4l-0.3,0L248.4,128.2L248.4,128.2z M283.8,167l0.2-0.4l0.3,0l-0.1,0.2
	L283.8,167L283.8,167z M222.3,101l0.2-0.2l0.2,0l-0.1,0.3l-0.3,0.1L222.3,101L222.3,101z M264.6,148.2l0.4-0.2l0,0.2l-0.3,0.2
	l-0.1-0.1L264.6,148.2L264.6,148.2z M221.5,102.6l0-0.2l0.4-0.2l0,0.2L221.5,102.6L221.5,102.6z M221.1,104.9l0,0.3l-0.4,0.2l0-0.3
	L221.1,104.9L221.1,104.9z M272.9,165.8l0.2-0.1l0.2,0l0,0.2l-0.4,0.2L272.9,165.8L272.9,165.8z M257.2,152.5l0.2,0l-0.2,0.4l-0.2,0
	L257.2,152.5L257.2,152.5z M256.2,155.4l0.2-0.2l0.2,0l-0.2,0.4l-0.2,0.1L256.2,155.4L256.2,155.4z M252.6,157l0-0.2l0.2-0.1l0.2,0
	l-0.1,0.3L252.6,157L252.6,157z M212.5,113.5l0.2,0l-0.2,0.4l-0.2,0L212.5,113.5L212.5,113.5z M255,159.8l0.4-0.2l0,0.2l-0.3,0.2
	l-0.1-0.1L255,159.8L255,159.8z M241.9,160.5l-0.1,0.4l-0.4,0.1l0.1-0.4L241.9,160.5L241.9,160.5z M211.2,129.3l0,0.2l-0.2,0.2
	l-0.2,0l0.1-0.3L211.2,129.3L211.2,129.3z M238.3,160.7l0.2-0.4l0.3,0l-0.1,0.2L238.3,160.7L238.3,160.7z M237.9,162.4l0.1-0.2
	l0.2-0.2l0.2-0.1l-0.1,0.2L237.9,162.4L237.9,162.4z M204.4,158.3l0.3-0.1l-0.2,0.4l-0.2,0L204.4,158.3L204.4,158.3z M125,255.6
	l0.2-0.1l0.2,0l0,0.2l-0.4,0.2L125,255.6L125,255.6z M122.7,257.9l0.2-0.4l0.3,0l-0.1,0.2L122.7,257.9L122.7,257.9z M262.3,172.1
	l0,0.2l-0.2-0.1L262.3,172.1L262.3,172.1z M210.7,120.1l-0.2,0l0.1-0.1L210.7,120.1L210.7,120.1z M209.4,124.6l-0.1,0l0.1-0.1
	L209.4,124.6L209.4,124.6z M231.2,159.5l-0.1,0l0.1-0.1L231.2,159.5L231.2,159.5z M223.3,159.6l0,0.2l-0.2-0.2L223.3,159.6
	L223.3,159.6z M223.9,161.7l-0.1,0.2l-0.1-0.1L223.9,161.7L223.9,161.7z M213.8,156.8l-0.1,0.2l-0.1-0.1L213.8,156.8L213.8,156.8z
	 M217.8,164.1l0.1,0l-0.1,0.1L217.8,164.1L217.8,164.1z M219.1,166.2l0,0.1l-0.1-0.1L219.1,166.2L219.1,166.2z M237.5,89.7l-0.1,0
	l0.1-0.1L237.5,89.7L237.5,89.7z M234.8,212.8l0.1,0l-0.1,0.1L234.8,212.8L234.8,212.8z M234.5,213.8l0,0.2l-0.2-0.2L234.5,213.8
	L234.5,213.8z M233,95.1l0,0.1l-0.1-0.1L233,95.1L233,95.1z M231.3,219.3l0.2,0l-0.1,0.1L231.3,219.3L231.3,219.3z M227.8,217
	l-0.2,0l0.1-0.1L227.8,217L227.8,217z M230.1,222.4l0.2,0l-0.2,0.2L230.1,222.4L230.1,222.4z M219,211.3l0.1,0l-0.1,0.1L219,211.3
	L219,211.3z M208.8,202.7l0-0.2l0.2,0l0,0.2L208.8,202.7L208.8,202.7z M230.3,99l0-0.2l0.1,0.1L230.3,99L230.3,99z M246.2,116.7
	l0-0.2l0.1,0.1L246.2,116.7L246.2,116.7z M283.6,157.2l0.2,0l0,0.2l-0.2,0L283.6,157.2L283.6,157.2z M287.8,162.4l0.1,0l-0.1,0.1
	L287.8,162.4L287.8,162.4z M297.4,173.2l0,0.1l-0.1-0.1L297.4,173.2L297.4,173.2z M206.5,213.2l0.2,0l-0.1,0.1L206.5,213.2
	L206.5,213.2z M204.9,213.5l0,0.1l-0.1-0.1L204.9,213.5L204.9,213.5z M280.2,157.3l0-0.1l0.1,0.1L280.2,157.3L280.2,157.3z
	 M243.7,118.3l0.1,0l-0.1,0.1L243.7,118.3L243.7,118.3z M273.9,151.4l0.1-0.2l0.1,0.1L273.9,151.4L273.9,151.4z M294.6,174l-0.2,0
	l0.1-0.1L294.6,174L294.6,174z M288.1,167l-0.2,0l0.1-0.1L288.1,167L288.1,167z M225.2,100l-0.2,0l0.1-0.1L225.2,100L225.2,100z
	 M249.4,127.3l0.2,0l-0.1,0.1L249.4,127.3L249.4,127.3z M225.3,101.7l0-0.2l0.2,0l0,0.2L225.3,101.7L225.3,101.7z M227,106l-0.2,0.2
	l0-0.2L227,106L227,106z M283.8,168.9l-0.1,0.2l-0.1-0.1L283.8,168.9L283.8,168.9z M281,167l0.1-0.2l0.1,0.1L281,167L281,167z
	 M274,165.1l-0.2,0l0.1-0.1L274,165.1L274,165.1z M171.2,222.3l0.1-0.2l0.1,0.1L171.2,222.3L171.2,222.3z M262.3,155.8l0-0.2
	l0.1,0.1L262.3,155.8L262.3,155.8z M269.5,163.9l0.1,0l-0.1,0.1L269.5,163.9L269.5,163.9z M267.5,164.7l-0.1,0l0.1-0.1L267.5,164.7
	L267.5,164.7z M217.3,111.2l-0.1,0l0.1-0.1L217.3,111.2L217.3,111.2z M267.8,165.7l-0.1,0l0.1-0.1L267.8,165.7L267.8,165.7z
	 M257,154.3l-0.2,0l0.1-0.1L257,154.3L257,154.3z M221.6,116.4l-0.2,0l0.1-0.1L221.6,116.4L221.6,116.4z M216.3,110.9l-0.2,0
	l0.1-0.1L216.3,110.9L216.3,110.9z M266.5,165.1l-0.2,0l0.1-0.1L266.5,165.1L266.5,165.1z M155,228.9l0.1,0L155,229L155,228.9
	L155,228.9z M221.9,118.3l0.2,0.2l-0.2,0L221.9,118.3L221.9,118.3z M215.3,113.6l0.1-0.2l0.1,0.1L215.3,113.6L215.3,113.6z
	 M265.2,167.5l0-0.2l0.1,0.1L265.2,167.5L265.2,167.5z M139.3,232.5l0.1,0l-0.1,0.1L139.3,232.5L139.3,232.5z M211.7,112.4l-0.1,0.2
	l-0.1-0.1L211.7,112.4L211.7,112.4z M251.7,157.3l-0.1,0l0.1-0.1L251.7,157.3L251.7,157.3z M87.6,282.2l0.2,0.2l-0.2,0L87.6,282.2
	L87.6,282.2z M202.4,124.1l0.2-0.4l-0.3-3.8l-1.1-5.9l-0.6-3l0.3-0.5l2.9-0.8l3.2-3l1.4-7.1l0.6-2.4l0.8-1.4l1.9-1.2l2.6-0.9
	l1.4-0.8l3.1-1.9l0.2-0.2l3.3-4.3l0.9-0.9l0.4-2.1l0.4-0.9l-0.2-0.9l-0.7-0.6l-1.1-0.9l-0.9-0.7l-0.1-1.3l-1.3-2.1l-1.9-1.4
	l-0.9-0.4l-0.3-0.4l-1.3-1.5l-0.3-0.9l-5.2-1.4l-1,0.3l-2.2,1.8l-0.2,0.1l0.5-1.4l1-1l0.7-0.2l0.7-0.2l5.3,0.4l2.8,1.5l3.1,0.9
	l1.2-1.3l1.1-0.5l0.9-1.5l-0.3-0.9l-2.3-2l0.1-0.4l1-0.5l0.7-1.3l0-1.2l-0.2-0.7l-2.6-2.1l-1.3-0.3l-0.5-1.1l-1.1-1.1l-3.5-0.6
	l-2.2-0.5l-1.4,0.2l-1.2,0.1l-1.9,0.9l-2.3,2.5l-1.1-0.4l-1.9,0l-0.3,0l-0.5-0.4l-1.2-0.7l-1.2-0.1l-0.2,0.1l-4.7,2.5l-1.1,3.4
	l-1.7,0.6l-0.9,1.6l-0.6,2.6l0.3,1.1l0.1,1.2l-0.2,0l-1.7-1.4l-0.6-0.2l-1.7,0l-1.6,1.3l-1.4,0.1l-1.3,1.2l-0.1,2.9l-1.5,0.7
	l-1.1,0.9l-1.8-0.6l-0.9,0l-2.1,1.9l0.2,3.2l0.5,1.1l1.5,2.4l0.8,1.6l-0.2,1.6l2.1,3.3l1.1,1.7l2,1.4l1.7,0.6l0.4,1.7l0.8,0.9
	l1.2,0.4l1.6-0.5l2.1,0.2l0.8,0.3l2.2,2.3l1.7,2.3l1.3,1.8l0.1,0.9l0.7,2l0.7,1.4l0.8,0.3l0.9,1.6l0.7,3.5l0.1,1.7l0.4,2.6l0,0
	l0.4-0.5l0-2.2l0.2-0.4l-0.1-0.4l0.2,0l-0.1,0.4l0.4,0.6l0.2,1.2l0.7,5.6l0.3,1.4L202.4,124.1L202.4,124.1L202.4,124.1z M194.6,91
	l-0.1-0.4l0.2,0L194.6,91l0,0.4l-0.1,0.1L194.6,91L194.6,91z M217.4,59.2l0.1-0.4L217.4,59.2l-0.1,0.7l0.5,0.4l1.5-0.2L221,61
	l1.1,1.1l-0.1,1.7l-1,0.7l-1.6,0.7l-1.5,0.9l0,0.7l0.9-0.2l3,0.5l0.7,0.9l0.1,0.9l-0.3,0.5l-2.1-0.3l-1.6-0.6l-0.3,0.3l0.1,0.2
	l1.9,1.7l0,0.2l-0.4,0.2l-0.9,0l-3.8-2l-6.5-0.4l-0.7,0.3l-0.7,0.3l-0.7,0.7l-0.7,1.2l-0.4,1.2l0.6,1.1l0.9-0.3l2.1-1.9l1.8-0.1
	l1.9,0.3l0.7,0.2l0.1,0.4l-1.4,0.1l-0.5,0.1l-0.1,0.4l1.6,0.3l1.9,0.3l-0.4,0.6l-2.1,0.8l-1.2,1l-2.7,0.7l-1,0.7l-1.8,1.2l-1.5,1.4
	l-3,3.6l-0.3,0.7l-0.7,1.7l-0.3,3.3l-0.6,2.9l-0.1,1.2l0.1,3.9l0.1,1.2l0.1,1.4l0.2,1.7l-0.2,0.6l0.7,0.8l0.3-1.2l0.2-0.4l0.5-0.2
	l0.8-1.2l1-1.4l0.7,0.1l-1.1,2.4l-1.8,1.9l-0.4-0.1l-0.3,0.7l-0.2,0.8l-0.3-0.3l0-1.7l0.2-0.2l-0.5-0.7l-1.1-2.5l-0.2,0.6l-0.3,0.5
	l0.6,0.6l0.1,0.8l0.4,0.5l0,0.2l-0.4-0.2l0.1-0.6l-0.7-0.8l0-0.6l-0.3-0.3l-1-1.9l-0.3-1.1l0.4-1.2l0.5,0.2l0.6,2.6l0.5,0.8l0.2-0.4
	l-0.1-0.9l-0.6-5.4l0.4-6.2l0-0.9l-0.1-0.2l-0.5,0.8l-0.4,2l0.1,0.2l-0.1,0.2l0.1-0.4l-0.7-0.7l-0.2,0.4l0.1,2.1l-0.2,0.9l0.1,0.4
	l-0.2,0l0.1-0.4l-0.5-0.8l-0.5-1l-0.5,1.2l-0.7,0.7l-0.7,0.2l-0.5,0.4l-0.7-1.1l-0.9-0.4l-1.2-2l-4-4.3l-0.4-0.2l-0.2,0l-0.1,0.2
	l0.1,0.6l1.4,1l1,1.1l1.1,1.4l0,0.6l-0.5,0.4l-0.7-0.8l-0.7,0.2l-0.1-0.9l-0.2-0.3l-0.9,0l-0.9-1.4l-0.9,0.2l0.3-2l-0.5-1.4
	l-2.5-2.8l-1.4-0.9l0.4-1.3l2,0.4l1.4,0.8l0.3,0.8l1,0.9l1.1,1l0.8-0.8l1,0.6l0.1-1.7l0.5,0.5l1.4,2.7l1,0.4l-0.4-0.5l0.1-0.6
	l-0.8-0.8l0.1-1l0.4,0.2l0.3,1.4l-0.1,0.2l0.4,0.5l-0.1,0.6l1.4,1.4l0.5,1l0.5-0.7l-0.1-0.4l0.2,0l-0.2,0.4l0.5,0.5l0.1,1.4l0,1.4
	l1.6,1.2l0.2-0.4l-0.3-1.2l-0.5-1.6l-0.2-4.3l0-1.2l-0.7-2.5l-1-2.6l0.1-2l0.2-0.4l-0.1-0.4l0.2,0l-0.2,0.4l0.4,0.6l0.5,3l0.7,1
	l0.6,3l0.3,1.6l0.6,4.5l0.4,0.8l0.2-0.4l0.1-1.2l0.5-1.3l0.4-0.3l-0.4-0.5l-0.2-2l0.4-1l0.9,0.5l0.2,1.6l0.5-0.8l0.9-3.5l0-0.5
	l-0.1-0.1l-0.2,0.1l-0.7,1.8l-0.6-0.2l-0.2-1.3l2.3-5.8l1.2-2.4l1.6-2.1l0.5-0.9l0.6-0.8l1.1-0.9l1.2-0.4l0.3,0.1l-1.5,2.2l-0.6,0.8
	l-1.3,1.8l-1.3,1.8l-1.1,1.9l-0.6,2.1l0.4,0.3l0.8-1.7l0.9-1.5l1-1.7l3.1-3.2l0.9-0.7l1.2-1.3l1.4-0.2l0.7-1l1.5-1.3l0.4-0.2
	l0.1-0.6l-0.3-0.4l-1.9,1.8l-1.3,0.4l0-0.2l1.4-2l1.5-1.4l1.5-1l0.4-1.1l0.7-0.2l-0.5,1.2l-1.8,1.9l-0.1,0.7l1.6-0.8l1.7,0.8
	l1.7-1.4L217.4,59.2L217.4,59.2z M191.8,78.6l-0.2-0.4l0.3,0L191.8,78.6l-0.1,0.7l1.1,1.4l-0.2,1.5l-0.3,0.3l-0.2-0.1l-0.7-2.5
	l0.3-0.6L191.8,78.6L191.8,78.6z M176.5,81.8l0.1-0.7l0.2,0l0.1,0.3L176.5,81.8l0,0.4l-0.2,0L176.5,81.8L176.5,81.8z M196.9,74.5
	l-0.3-1l-0.1-0.2l0.1-0.2l-0.1,0.4l0.7,0.7l0.2-0.6l0-1.2l0.3-0.6l-0.1-0.4l0.4,0.1l0.3-0.6l0.2-0.4l0-0.7l0-3.8l0.6-1.1l0.4,0.3
	l-0.3,2.2l0.1,0.4l0.8-1.2l1.1,1.2l-1.4,2.6l-0.3,0.1l-0.2-1.5l-0.8,0.7l0,0.7l0.9,0.8l-0.1,1l-0.9,3l-0.4,0.2l-0.6-1.2L196.9,74.5
	l0,0.4l-0.2,0L196.9,74.5L196.9,74.5z M210.6,81.8l0.1-0.7l0.3-0.3l-0.1-0.4l0.2,0l-0.2,0.4l-0.1,0.7L210.6,81.8l0,0.4l-0.2,0
	L210.6,81.8L210.6,81.8z M212.1,81.2l-0.1-0.6l0.5-0.5l0.1-0.6l0.7-0.7l-0.2-0.4l-0.1-1.4l-0.8,0.7l0.1,0.4l-0.3,0.7l-0.6,0l0.9-1.1
	l-0.1-0.6l0.4-0.2l0.4,0.1l0.5-0.5l2.1,0.3l-1,1.8l0,0.6l-0.8,0.8l0.1,0.2l-1.3,2.2l0.1,0.4l-0.2,0l0.1-0.3l-0.1-0.4l0.4-0.9
	l0.9-1.1l0-0.6l0.8-0.8l-0.2-0.4l-0.2-0.6l0.1,0l-1.2,1l0,0.6l-0.8,0.8l0.1,0.6L212.1,81.2l-0.5,0.7L212.1,81.2L212.1,81.2z
	 M204.5,62.2l-0.1-0.2l0.8-0.9L204.5,62.2l-0.1,0.6l-0.8,0.8l-0.1,0.7l-0.7,0.7l0.1,0.4l-0.9,0.7l0.9-1.1l0-0.6l0.8-0.8l0-0.6
	L204.5,62.2L204.5,62.2z M196.2,98.6l0.7,1.1l-0.7-0.9l0.1-0.2l-0.1-0.4l0.2,0L196.2,98.6L196.2,98.6z M203.9,102.4l-0.1,0.7
	l-0.7,0.7l0,0.6l-1.5,1.4l-0.4,0.7l0.5-0.7l0-0.6l1.5-1.4l0-0.6l0.8-0.8L204,102l0.1-0.2l0.2-0.1l-0.1,0.3L203.9,102.4L203.9,102.4z
	 M196.2,69.3l-0.4-0.6l0.4-0.5l0.1,0.7L196.2,69.3l0,0.4l-0.2,0L196.2,69.3L196.2,69.3z M209.2,83.2l-0.2-0.6l0.7-1.1l-0.1-0.4
	l0.2,0l-0.2,0.4l0.1,0.2L209.2,83.2l-0.1,0.6l-0.4,0.1l0-0.2L209.2,83.2L209.2,83.2z M195,70.3l0.2,1.6L195,70.3l0-0.4l0.2,0
	L195,70.3L195,70.3z M218.6,81l0.6-0.7l0.6-0.1l0.2,0.5l-1.5,0.1l-1.3,0.4l-0.2-0.2l0.4-1L218.6,81L218.6,81z M190.6,68.6l0.2,0.1
	l1.2,2.5l-0.1,0.7l-0.6-0.5l-0.8-2.6L190.6,68.6l0-0.4l0.2,0L190.6,68.6L190.6,68.6z M202.7,89.3l-0.4-0.4l-0.4,0.6l-0.2,2l-0.6,1.8
	l-0.4,0.2l0.4-3.6l0.9-3.6l-0.2-1.1l1.4-2.9l2.9-2.7l0.9-0.2l0.3-0.7l0.8-0.4l1.8-0.6l0.2,0.1l0.5-0.4l0.2,0l-0.2,0.4l-0.6-0.1
	l-1.9,1.1l-1.8,1.7l0.7,0.9l-1.2,1.5l-0.5,0l0.7-2.1l0.4-0.3l-1.2,0.5l-0.3,1.2l-0.6,1.8l-0.6-0.4l-0.8,0.2l-0.8,3.2l-0.3,1.6
	l0.2,0.4l0.5-0.6l0.7-2.5l0.4-0.1l0,0.2l-0.5,2.4l-0.9,0.8l0.1,0.2l-0.1,0.2l0-0.2L202.7,89.3L202.7,89.3z M212.8,85.6l0.4,0.5
	l1-0.8l-0.6-1.8l0-0.5l1.8-0.9l1.1,0.5l1.1-0.5l1.3-0.4l2.7,1.1l0.5,1.4l-2.1,4.6l-2.8,2.7l-6,2.5l-2.1,1.4l-0.8,2l-0.6,2.9
	l-0.1,2.4l-0.5,1.9l-1,1.7l-1.3,1.8l-0.2,0l0.1-0.9l0.9-2.3l0.5-4.1l-1-2.6l-3.2-3l-0.1-0.5l1-0.9l0.4,0.2l1.2,2.3l0.6,0.1l0.3-0.6
	l-0.2-1.1l-0.9-1.2l-0.9-1.1l0.3-2.5l0.8-0.8l1.9,0.6l0.5-0.2l0-0.7l0.1-0.7l0.9-0.6l0.6,1.5l0.8-1.2l-0.2-1.2l0.1-0.5l0.4-1.1
	l2.5-0.9l0.4,0.2L212.8,85.6L212.8,85.6z M180.1,79.3l-0.8,2.5l-0.5,0.2l-0.1-0.7l0.7-1.6l0-0.4l-1.5,0.7l-0.8-1l0.3-2l1.1,0.3
	L180.1,79.3L180.1,79.3z M203.5,61.5l-2,2.1l-1.2,2l1-3.6l0-0.8l1.4-1.4l0.9,0.1L203.5,61.5L203.5,61.5z M183.9,92.1l0.2,0.7
	l0.1,0.5l-2.7-0.4l-2.5-2.7l-0.1-0.6l0.5-0.4l0.4,0.1l1,2.1l1.9,0.9L183.9,92.1L183.9,92.1z M204.4,87.3l0.5-2l1.5-1.2l0.1,0.2
	l-0.5,2.8l-0.2,0.5l-1.1,0.2L204.4,87.3L204.4,87.3z M217.1,76.6l0.1,0.5l-0.9,2l-0.9,1.4l-0.4,0.3l-0.4,0l0.1-0.7l1.7-3.2
	L217.1,76.6L217.1,76.6z M197.2,103.6l0.2,0l0.2,0.2l1.3,3.8l-0.5,0l-1-1.3l-0.6-1.6L197.2,103.6L197.2,103.6z M206.1,61.3l1.6-2.1
	l0.7-0.7l0.4,0l-0.6,1l-2,3.3l-0.2,0l-0.1-0.2L206.1,61.3L206.1,61.3z M184.9,94.8l1.2-0.1l-0.2,0.7l0.5,0.3l1.1-0.4l0,0.8l-1.6,0.4
	l-0.5-0.1L184.9,94.8L184.9,94.8z M212.3,57l-1.2,1.9l-1,1.1l-0.8,0.5l-0.1-0.1l0.9-1.7L212.3,57L212.3,57z M203.7,101l-0.6,1.3
	l-1.3,2.1l-0.2,0.2l-0.6,0.4l0.1-1.2l1.6-2.1l0.7-0.6L203.7,101L203.7,101z M202.5,97.6l-0.7,1.5L201,100l-0.4,0l0-1.4l1.5-1.3
	L202.5,97.6L202.5,97.6z M180,84l1.1-1.9l0.6-0.3l0.1,0.5l-0.1,0.5l-0.9,1.7l-0.6,0.2L180,84L180,84z M206.8,85.9l0.6-3.1l0.4-0.4
	l0.2,0l0.2,0.3l-0.7,2.5L206.8,85.9L206.8,85.9z M184.6,72.7l-1.4-0.1l-0.8,0.8l0.1-1.1l0.8-0.5L184.6,72.7L184.6,72.7z M200.7,97.3
	l-0.2-2l1.1,1L200.7,97.3L200.7,97.3z M194.2,99.6l-0.2,0l-1.5-1.7l0-0.2L194.2,99.6L194.2,99.6z M207.4,58.4l-0.4,0.8l-0.6,0.7
	l-0.3,0.2l-0.2-0.4L207.4,58.4L207.4,58.4z M218.7,77.8l0.6,0.5l-0.2,0.6l-0.9-0.1L218.7,77.8L218.7,77.8z M209.1,79.7l-0.1,0.7
	l-0.5,0.4l-0.3-0.3L209.1,79.7L209.1,79.7z M189.7,89.3l-0.1-1.3l0.6,0.4l0.1,0.7L189.7,89.3L189.7,89.3z M177.8,84l0,0.2l-0.5,0.4
	l-0.4-0.5l0.1-0.6L177.8,84L177.8,84z M181.9,84.1l-0.3,1.3l-0.6,0.1l0.4-1.1L181.9,84.1L181.9,84.1z M185.4,93.3l-0.2-0.3l0.4-0.5
	l0.5-0.1l0.2,0.1l0,0.4L185.4,93.3L185.4,93.3z M189.4,95l0.1,1.2l-0.7-0.5l0.1-0.6L189.4,95L189.4,95z M182.7,88.1l-0.4-0.6
	l0.5-0.5l0.4,0L182.7,88.1L182.7,88.1z M188.8,91.2l-0.1-0.2l0.5-0.6l0.1,0.6l-0.1,0.2L188.8,91.2L188.8,91.2z M188.2,89.6l-0.3-0.6
	l0.4-0.2l0.1,0.2L188.2,89.6L188.2,89.6z M223,82l0,0.4l-0.5,0l-0.3-0.3l0.1-0.2l0.4-0.1L223,82L223,82z M189.5,72.8l-0.2,0.1
	l-0.4-0.2l0.1-0.4l0.5,0.3L189.5,72.8L189.5,72.8z M207.9,63l0.2-0.1l0.2,0l-0.2,0.4l-0.2,0.1L207.9,63L207.9,63z M198.8,58.7l0,0.2
	l-0.4,0.2l0-0.2l0.3-0.3L198.8,58.7L198.8,58.7z M196.7,78.6l-0.1-0.4l0.2,0l0.2,0.3l-0.1,0.1L196.7,78.6L196.7,78.6z M184.2,74.1
	l0.3-0.1l-0.2,0.4l-0.2,0L184.2,74.1L184.2,74.1z M195.2,94.5l-0.1-0.2l0-0.2l0.3,0l0.2,0.4L195.2,94.5L195.2,94.5z M204.1,105.7
	l0.4-0.2l-0.2,0.4l-0.3,0L204.1,105.7L204.1,105.7z M203,105.5l0-0.2l0.2-0.2l0.2,0l0,0.3L203,105.5L203,105.5z M195,96.1l0.2,0
	l0.2,0.4l-0.2,0L195,96.1L195,96.1z M182.3,83.2l0.2,0.1l0.1,0.4l-0.2,0l-0.2-0.3L182.3,83.2L182.3,83.2z M185.5,89.5l0.3,0.2
	l-0.2,0.2l-0.2-0.3L185.5,89.5L185.5,89.5z M197.1,102.8l-0.4-0.2l0-0.3l0.2,0.1L197.1,102.8L197.1,102.8z M190.9,96.8l-0.4-0.2
	l0-0.2L190.9,96.8L190.9,96.8z M183.4,88.7l0,0.2l-0.4,0.2l0-0.2L183.4,88.7L183.4,88.7z M187.4,90.3l-0.1,0l0.1-0.1L187.4,90.3
	L187.4,90.3z M202.4,106.9l-0.2,0l0.1-0.1L202.4,106.9L202.4,106.9z M185,88.4l0.1,0l-0.1,0.1L185,88.4L185,88.4z M196.4,101.3
	l0.2,0l-0.1,0.1L196.4,101.3L196.4,101.3z M187.9,92.4l0-0.2l0.1,0.1L187.9,92.4L187.9,92.4z M202.3,108.3l-0.2,0l0.1-0.1
	L202.3,108.3L202.3,108.3z M178.7,85.9l0,0.1l-0.1-0.1L178.7,85.9L178.7,85.9z M178.6,88.7l0,0.2l-0.1-0.1L178.6,88.7L178.6,88.7z
	 M218.2,77.2l-0.2,0l0.1-0.1L218.2,77.2L218.2,77.2z M217.8,78l-0.1,0.2l-0.1-0.1L217.8,78L217.8,78z M210.4,79l0,0.1l-0.1-0.1
	L210.4,79L210.4,79z M185.6,70.8l0.2,0l0,0.2l-0.2,0L185.6,70.8L185.6,70.8z M186.6,78.4l0.2,0l-0.1,0.1L186.6,78.4L186.6,78.4z
	 M195.4,90l-0.2,0l0.1-0.1L195.4,90L195.4,90z M192.1,91.5l0.1,0.1l0,0.2l-0.2,0L192.1,91.5L192.1,91.5z M189.6,91.9l0.2,0l-0.1,0.1
	L189.6,91.9L189.6,91.9z M186.5,88.5l-0.1,0l0.1-0.1L186.5,88.5L186.5,88.5z M188.8,126.4l1.1-1l0.7-1.3l3.1-4.6l0-0.5l-0.1-0.1
	l-0.2,0.1l-1,1.9l-0.8,1l-0.5,0.2l0.9-3.1l1.2-2.5l1.2-0.2l0.5,0.5l0.4,1.4l-0.1,3.1l-2.6,4.1l-0.4,0.6l1.5,0.1l-1.8,2.6l-0.9,0.9
	l-0.3,0.6l-0.2,0.7l0.6,0.3l1.1-1.3l0.2-0.1l0.5,0l0,1.6l-0.3,0.4l-2.5,2.4l-1.4,0.2l-0.9,0l0.1,0l-0.5,0.5l-0.1,0.9l0.4,0.3
	l1.4-0.1l-0.1,1.2l-2,1.6l-0.6,0.4l-2.9,1.8l-1.6,0.5l-0.6,0.1l-0.3,0.7l0-0.1l0.9,0.1l1.4-0.4l1.7-1l1.6-0.8l3.7-3.5l0.1-0.8
	l0.1-0.7l2.6-2.4l1-2l0-0.7l-0.7-1l0.1-0.5l0.8-1.5l0.6-2.8l0.3-1.2l1.1-4.2l-0.4-1.4l-1.7-1.9l-0.2-0.1l-0.3,0l-0.6,0.4l-1.4,1.4
	l-1.7,5.4l-1.1,0.8l0.5-2.9l1-2.5l1.1-1.3l1.1-2.2l0.5-2.2l-0.2-1.2l-1.1-0.5l-1-0.4l-1-1.7l-1-1.1l-1.7-0.6l-1.5-1.1l-1.3-1
	l-1.1,0.3l-0.3,0.7l-0.5,1.9l-0.4,0.2l-0.4-0.2l-0.1-0.2l-1-3.6l-0.9-1l-0.9-0.1l-0.9,0l-3.4-4L173,98l-1,0l-1-1.4l-0.8-1.1
	l-1.7-0.9l-2.1-0.7l-1.8,0.3l-1.3-0.8l-1-0.6l-1.2-0.7l-2-0.7l-2.1-0.7l-1.5,0.1l-0.4,0.3l-0.5,0.8l-1.1,1.9l0.2,3.3l0.7,0.9
	l-0.1,0.5l-1.6,1.7l-2,0.8l-2.5,5.6l0.2,1.9l0.3,1.2l-0.3,2.1l0.7,2.3l2.7,2.9l2,0.9l0,1.1l-0.2,0.2L152,120l-1.8,1.6l-0.5,2.2
	l1.7,1.4l0.6,1.5l0,2.3l0.9,1.1l2.1,0.3l0.6,1l2.1,1.1l0,1.7l1.2,1.5l1.5,0.6l5.6,0l3.1-0.6l3.4,0.2l1,0.9l1.6,0.5l1.3,1.2l0.3,0.5
	l0.3,1.2l0.6,1.3l0.2,2.3l0,0.5l-0.1,4.9l0,3.1l-0.1,2.4l-0.1,0.5l-0.3,2.2l-0.3,1.9l-0.3,3.4l0.1,0.2l0,0l0.4-0.6l0.3-1.9l0.3-1.9
	l0.4-2.4l0.1-1l0.2-3.4l-0.1-2.6l0.2-4.9l-0.2-3.1L178,140l-0.8-1.9l-1.9-2.2l-2.4-1.2l-0.2-0.7l-0.8-0.5l0.4-0.6l0.9-0.4l1-1.1
	l-1.5,0.6l-1.2,0.8l-0.1-0.2l0-0.2l1.2-1.3l-2.4,1l-0.9-0.9l1.6-1.1l0.5-0.5l-0.5-0.3l-1.6,1.1l-0.9,0l0.4-1.2l-1.5,0.1l-0.9-1.2
	l0.8,0.1l0.3-0.3l-0.1-0.2l-0.8-0.5l-0.1-0.6l0.4-0.2l0.4,0.2l1.4,1.2l0.2,0l0.3-0.3l-0.1-0.7l0.9-0.4l0,0l-0.6-0.7l-1.9,0l-1.5-1.5
	l0-0.2l0.4,0l1.9,0.9l1.1,0.9l-0.1-0.7l-0.2-0.8l1.4,0.9l1.4,0.7l-0.1-0.3l-1.5-1.6l-0.6-0.3L167,121l0.8-0.1l0.6,0.4l1.7,1.7
	l1.2,0.1l1.8,1.4l-0.8-1.2l-0.8-0.9l-0.3-1l-2.9-2.5l-1.3-1l-1.4-1l-2.2-0.7l-2.1-0.6l-1.7,0.4l-1.2,1.1l-0.5,0.1l-1.9-0.1l-0.3-0.5
	l-1.8,0.4l-1.8-0.9l0.3-1.7l-1.8-0.9l1.2-1.1l0-0.7l-1.1-0.4l-1.2,0.5l-0.3-0.4l0.4-1.2l1.2-0.2l2.7-1.5l4.1,0l0.8,0.7l0.2,0.4
	l-0.8,0.1l-0.3,0.4l-0.6-0.3l-0.9-0.2l-0.7,0.5l-0.2,0.3l-0.7-0.2l-0.3,0.7l-1.2,0.6l0.6,2.1l1.1-0.3l0.4,0.5l-0.1,0.7l0.3,0.3
	l1.1-0.5l1.1-0.5l-1.4-0.2l-0.4-0.6l1.9-0.3l0.4,0.6l-0.6,0.5l3.8-0.3l0,0.1l-0.4-0.6l0.4-0.5l1-0.3l1,0.1l0.5-0.4l0,0.1l-1-1
	l-0.6-1.1l-0.1-0.1l-3.9-4.1l1.7,0.7l4.6,4.7l0.2-1.3l0.7-0.1l0-0.8l-1-0.6l-0.7-1.2l-0.8-1.2l0.2-1l-1.1-0.9l-1-0.7l-2.2-1.7
	l-2.2-1.4l-2.4,0.1l-0.4-0.5l1.1-0.5l2.1,0.4l0.4,0.2l1.3,0.6l1.2,0.2l2.3,2.2l0.6,0.3l2,1.3l1.8,1.1l0.2,0.2l-0.1,0l0.2-1.1
	l-0.2-0.4l-0.9-1l0.1-1.3l0,0.1l-0.7-2.7l0.5-0.5l0,0.1l0.4-0.4l-0.1,0l0.2-0.4l-0.3-1.1l-1-1.3l0-0.5l0.6-0.3l0.5,0l1.3,0.1
	l0.9,0.6l2.2,2l0.9,1.6l-0.3,1l0.4,2.3l0.3,0.6l0,0l0.2-0.4l0.1-0.9l0.4,0l0.4,1.3l0,2.2l-0.1,1.6l0.8,0.3l0,0.1l0.1-0.7l0-0.7
	l0-0.7l0-0.7l-0.1-0.4l0.2,0l-0.1,0.4l0,0.7l-0.1,0.7l0,0.7l0.4,0.3l-0.1,0l0.5-0.6l0.1-2.1l-0.8-2.7l-1.4-0.5l0.7-1.8l0.5,0
	l3.4,3.7l0.2,2.1l0.4,0.2l0.8-1.7l1.3,0.8l0.2,0.4l0.9,4.7l0.3,1.2l-0.2,2.2l0.5,2.4l-0.9,2.8l-1.9,2.4l-1.2,0.2l-0.7,0.7l0.3,2.1
	l1.6,0.9l0.5-0.2l0.7-0.6l-0.9,0l-0.9,0l-0.2-1.2l0.4-0.5l2.5-2.4l0.8-1.2l0.4-0.2l-0.6,3.4l-1.5,2.1l0.4,0.1l0.4-0.2l0.9-0.9
	l0.9-2.2l0.2-3.2l-0.8-3.2l0-1.2l-0.1-1.2l1-3.3l0.7-2.4l0.4-0.2l2,2l0.1,1.3l-0.7,1.9l0.3,0.4l0.6-0.3l0.1-0.2l1-2.6l0.6-0.1l0.9,1
	l0.5,1.6l-0.3,2l0.6-0.2l0.7-1.3l1.7,1l-0.2,1.9l-0.6,1.4l-2.7,3.2l-0.4,2.5l-0.4,2.6l0.1,0.5l-0.5,1.3l-0.2,0.4l0.4-0.1l1.1-1
	l0.6-0.4l0,0.4l-0.7,1L188.8,126.4L188.8,126.4L188.8,126.4z M162.6,102l-0.4,0.1l0-0.2L162.6,102l0.4,0l1.7,0.9l0.9,1.4l-0.6-0.4
	l-0.4-0.2l-0.7-0.3L162.6,102L162.6,102z M164.3,135l-0.4,0.1l0-0.2L164.3,135l0.8-1.1l2.3,0.9l0.5-0.4l0.2,0l-0.2,0.4l-0.6-0.1
	L167,135l-2.6,0.2L164.3,135L164.3,135z M164.6,101.8l-2.2-0.9l-1.5-0.7l-3.1-1.3l-2.2-0.8l-1.6-1.6l-0.2-0.4l0.4-0.4l1,1.2l1.3,0.6
	l0.3-1.2l1.2,0.9l1-0.1l-0.5-1.1l1.6,1.9l0.6-0.6l0-0.6l1,1l0.6,2.3l0.2,0.3l0.4-0.4l-0.4-1.3l-0.5-1.6l-0.4-1.3l2,2l0.7,2.1
	l0.3,1.7L164.6,101.8L164.6,101.8z M159,131.8l-2.1-0.5l-0.7-0.7l1.3-1.3l0.9,0.3l2.1,1l1.4-0.3l1.6,0.5l0.1,0.2l-0.7,0.6L159,131.8
	L159,131.8z M162.1,119.2l0.4,0.2l2.6,2.7l0.4,0.5l0.1,0.5l-1.2-0.7l-1.3-0.6l-1.3-1.7L162.1,119.2L162.1,119.2z M150.9,122.4
	l0.8,0.1l1.4,1.9l-1.7,0l-0.8-0.7L150.9,122.4L150.9,122.4z M157.9,127.9l-1.8-2l1.3-0.4l0.9,1.1L157.9,127.9L157.9,127.9z
	 M160.4,122.6l1.7,0.8l1.7,2.2l-0.6-0.3l-1-1l-0.3-0.3l-0.6-0.3l-0.8-0.9L160.4,122.6L160.4,122.6z M161.3,124.6l0.4,0.3l0.1,0.4
	l-0.3,0.2l-0.8-0.1l-1.6-2l0.1-0.2l1.4,1.2L161.3,124.6L161.3,124.6z M158.8,108.8l0.7-0.7l1.1,1.4l-0.7,0.4L158.8,108.8
	L158.8,108.8z M158.1,104.7l-1.5-0.5l-0.6-1.5l0.1-0.2L158.1,104.7L158.1,104.7z M157.4,106.5l0.5,0.5l0.1,0.5l-1.6,0.1l-0.7-0.1
	L157.4,106.5L157.4,106.5z M151.8,102.5l-1.4,0.8l0.5-1.1l1.5-0.7l0.4,0.3l-0.3,0.6L151.8,102.5L151.8,102.5z M154.3,106.8l-0.9-1.2
	l1.2,0.4L154.3,106.8L154.3,106.8z M163.4,127.4l-0.6,0.3L162,127l-0.1-0.2l0-0.4L163.4,127.4L163.4,127.4z M158.5,125.3l0-0.5
	l0.1-0.4l0.2-0.1l1,1.1l-0.3,0.3L158.5,125.3L158.5,125.3z M154.5,111.8l0.2-0.1l0.2,0l0.6,0.3l-0.3,0.6L154.5,111.8L154.5,111.8z
	 M166,121.3l1.4,1.2l-0.1,0.3l-0.2,0L166,121.3L166,121.3z M164.9,124.9l0.4-0.1l0.4,0.2l0.2,0.4l-0.4,0.1l-0.5-0.1L164.9,124.9
	L164.9,124.9z M168.5,133.3l-0.4-0.1l-0.7-0.6l0-0.2l0.3,0L168.5,133.3L168.5,133.3z M161,110.8l0.8,0.9L161,110.8L161,110.8z
	 M165.4,127.2l-0.8-0.5l0.1-0.4l0.2,0L165.4,127.2L165.4,127.2z M170.8,134.4l0-0.2l0.6-0.1l0.1,0.2l-0.5,0.2L170.8,134.4
	L170.8,134.4z M153,125.6l0.6,0l0.1,0.1l0,0.2L153,125.6L153,125.6z M154,123.4l0.1,0.5l-0.4-0.2l-0.1-0.5L154,123.4L154,123.4z
	 M165.2,131l-0.2,0.4l-0.4-0.1l0.3-0.5L165.2,131L165.2,131z M156.3,111.5l0.2,0l0.2,0.4l-0.3-0.1L156.3,111.5L156.3,111.5z
	 M149.6,107.3l-0.1,0.1l-0.4-0.4l0.1-0.1L149.6,107.3L149.6,107.3z M153.5,112.2l0.4,0.2l-0.2,0.2l-0.2-0.3L153.5,112.2L153.5,112.2
	z M152.7,120.8l-0.1,0.4l-0.4,0.1l0.1-0.4L152.7,120.8L152.7,120.8z M152.2,104.3l0.3,0.2l-0.2,0.2l-0.2-0.3L152.2,104.3
	L152.2,104.3z M155.3,92.4l-0.1,0l0.1-0.1L155.3,92.4L155.3,92.4z M164.4,117.4l0.2,0l-0.1,0.1L164.4,117.4L164.4,117.4z
	 M158.7,111.3l-0.1,0l0.1-0.1L158.7,111.3L158.7,111.3z M164.6,120.5l0.2,0l-0.1,0.1L164.6,120.5L164.6,120.5z M157.3,118.4l0,0.2
	l-0.1-0.1L157.3,118.4L157.3,118.4z M155.4,118.7l0.2,0l0,0.2l-0.2,0L155.4,118.7L155.4,118.7z M163.8,131.9l0,0.2l-0.1-0.1
	L163.8,131.9L163.8,131.9z M155.4,125.3l0.2,0.1l-0.1,0.1L155.4,125.3L155.4,125.3z M161.6,132.5l0.2,0l-0.2,0.2L161.6,132.5
	L161.6,132.5z M160.6,135.1l-0.1,0l0.1-0.1L160.6,135.1L160.6,135.1z M153.9,128.1l0-0.1l0.1,0.1L153.9,128.1L153.9,128.1z
	 M170.3,164l0.2-0.4l0-1.2l-0.7-1.6l-1.8-1.5l-3-3.2l-0.5-1.1l-1.3-0.6l-1.6,0.2l-1.4-2l-1.1-0.8l-1-0.8l-1.2-0.2l-1.2,0.8l-0.4,1.3
	l0.2,2.1l1.1,2.2l1.3,3l0,0.2l-0.3,0.5l-0.3-0.3l-0.5-1.6l-1.4-1.5l-0.5-0.1l-0.6,0.4l-0.4,0l-1.6-1l-2.1-0.6l-1.3,1l-0.3,4
	l-1.6,3.2l-0.2,0.7l1.2,3.3l0.1,0.9l-0.2,0l-1.2-0.9l-0.9,0l-1.2,0.9l-2.3-0.8l-1.1,0.3l-1.4,2.6l0.7,5.1l-1.4,2.2l-0.3,1.6l2,4.8
	l1.9,2.2l1.4,0.2l0.5,0.4l0.7,0.7l3.1,2.9l2.2,2.2l1.8,0.3l2.2-0.1l-0.1,1l-0.6,2.4l-1.1,4.3l0.1,0.7l-0.1,0l0.6-0.8l1.3-4.6
	l0.6-0.8l-0.1-0.4l0.2,0l-0.2,0.4l0.2,0.4l-0.4,3.4l-0.3,1.9l-0.5,0.6l-0.4,2.1l-1.3,3.5l0.1,0.4l-0.1,0l0.8-0.7l0.3-0.6l1.3-3.7
	l0.6-2.1l0.5-2.9l0.4-2.9l0-0.7l0.5-0.8l3.2,0.2l4.9-2l0.6-0.9l1-0.4l0,1.1l-0.1,0l0.7-0.3l0.8-1.7l1.1-1.3l0.8-1.5l-0.1-1.8l1-2.3
	l0.8-2.2l-0.5-0.6l0.1,0l-0.5,0.8l-1.7,4.1l-0.7,1.6l-1.3,2.7l-1.4,0.5l-1.7-0.1l-0.4,0.8l0.2,0.9l-0.1,0.3l-3.7,1.4l-3.6-0.6
	l-1,0.3l-0.3-0.4l-2.1,0.6l-1.9-0.1l-1.3-0.5l-0.6-1l0-0.2l1.2-0.7l1.4-0.1l0.2-1.4l0.4-1.4l0.7-0.3l-1.6-2.5l-0.8,1.1l0.1,0.4
	l-0.2,0l0.1-0.4l0.1-1.5l0.3-0.4l-0.7-1.7l-0.9-0.7l-0.4-1.1l-0.7-0.2l-1.6-1.7l0.2-1.6l0.8-0.1l0.8,1.2l1,1.3l1.6-0.5l0.2-0.1
	l0.2-0.2l0.8-4.5l0.4,0.2l0.5,3.1l0.4,0.6l0,0l0.5-0.5l-0.4-2.5l0.1-0.4l-0.1-0.4l0.2,0l-0.1,0.4l0.9,0.4l0-0.7l-1.2-2.3l-0.9-1.3
	l-1.2-0.2l-0.8-0.9l0-0.7l0.7-2.1l0.6-0.3l0.6,1.2l-0.3,1.7l0.6-0.2l0.8-0.5l0.9,1.3l0.6,1l0.8,1.7l0.3,0.4l0.4,0.1l-0.9-2.5
	l-1.1-1.6l-0.3-1.1l0.3-0.4l0.2,0l0.6,1.3l0.9,1.6l0.7,1.8l0.3,1.6l0.2,0.3l0.4-0.4l-0.1-1l0.7-0.9l-0.1-0.7l0.4-2.8l0.5-2.6
	l-0.1-0.2l-0.4,0.1l-0.3-0.3l-0.3-1.1l0.9-3.6l0.8,0l-0.1,0.9l-0.7,3.1l0.1,0.9l0.4-0.5l1.2-4.1l0.7,0.5l0,0l0.2-1.1l-0.6-1l0.6-2.7
	l0.3-0.9l1-0.7l0.7,0.2l0.7,0.9l0.1,1l0.2,0.4l0.5-0.1l0.2-0.1l0.7,0.2l1.1,2.5l-0.5,2.3l0.9,0.5l-1,1.8l-1.4,1.5l0,0.2l0.4-0.1
	l2.2-2l0.4-0.8l-0.5,0.8l0,0.6l-1.4,1.5l-0.4,0.9l-2.3,2.1l0,0.2l0.4,0l2.6-2.5l0.3-0.8l1.2-0.9l0.3,0.8l0.6-1l0-1l0.1-1.4l-0.6-0.5
	l-0.2-1.8l0.4-0.3l0.6,0.3l0.5,0.8l0.5,1.6L170.3,164L170.3,164L170.3,164z M141.1,180.9l0-0.7l-0.1-0.2l0-1.7l1-0.6l-0.3,1.4
	l0.1,0.4l0.8-0.7l-0.1-0.4l0.2,0l-0.1,0.4l0.2,0.4l-0.1,2.1l0.1,0.7l0.3-0.3l0.7-0.1l0.5-0.6l0.4-4.1l0.2-0.7l0.4-0.2l0,0.7
	l-0.1,1.9l-0.8,7.5l-0.1,0.2l-0.4,0.2l-0.1-0.7l0.2-2.9l-0.1-0.7L143,183l0.1,0.4l-0.2,0l0.2-0.4l-0.4-0.4l-0.7,0.7l-0.1,1.8
	l-0.7-0.8l0.8-0.9l-0.2-0.6l0.1-3.2l-0.8,0.7L141.1,180.9l0,0.4l-0.2,0L141.1,180.9L141.1,180.9z M145.4,185.5l0-0.7l0-0.7l-0.1-0.4
	l0.2,0l-0.2,0.4l-0.1,0.7L145.4,185.5l0,0.4l-0.2,0L145.4,185.5L145.4,185.5z M146.2,177.5l0-0.7l-0.1-0.4l0.2,0l-0.2,0.3l0,0.7
	l0.1,0.4l-0.2,0L146.2,177.5L146.2,177.5z M148.1,173.1l-0.1-0.2l0.1-0.2l-0.1,0.4l0.1,0.4l-0.2,0L148.1,173.1L148.1,173.1z
	 M147.2,171.4l-0.1-0.4l0.2,0l-0.2,0.4l0.1,0.4l-0.2,0L147.2,171.4L147.2,171.4z M151.5,173.8l0.1-0.7l-0.1-0.4l0.2,0l-0.2,0.4
	L151.5,173.8l-0.1,0.7l0,1l-0.2,0.1l-0.1-0.8l0.3-0.3L151.5,173.8L151.5,173.8z M142.3,170.6l-0.1,0.7l-0.3,0.3l0,0.7l-0.5,1.7
	l0,0.7l0.3,1.6l-1-1.2l0.8-0.3l0-0.7l0.5-1.7l0-0.7L142.3,170.6l0-0.4l0.2,0L142.3,170.6L142.3,170.6z M140.1,181.3l0.1-1.4l0-0.4
	l0.1,0.1l-0.2,0.4L140.1,181.3l0,0.4l-0.2,0L140.1,181.3L140.1,181.3z M144.6,173.1l-0.4,1.7l-0.1,0.4l0.2-0.4L144.6,173.1l0-0.4
	l0.2,0L144.6,173.1L144.6,173.1z M148.9,183.4l-0.6,0l-0.2-0.4l0.1-0.5l0.1-0.1l0.2,0.1l0.4,1.1l0.8-0.5l0.3,0.3l-0.4,1.4l-0.5-0.4
	L148.9,183.4L148.9,183.4z M152.2,160.8l0.4-1.7l0.4-0.1l-0.1,1.5L152.2,160.8l0.3,0.6l-0.1,0.4l-0.2,0.2l-0.4-0.2l0.1-0.6
	L152.2,160.8L152.2,160.8z M147.5,184.8L147.5,184.8l0.8,0.2l-0.1,3.3l0.5-0.1l0.2-0.4l0.3-1.7l0.5,0.3l0,2.7l0.8-0.4l0-1.1l0.4,0.5
	l-0.4,0.6l-0.2,1.4l-1.7,0l-1.6-1l-1.3-1.6l0.6-0.5l0.1-1.2l0.1-1.7l0.3-0.6l0.6,0.3L147.5,184.8L147.5,184.8z M149,164.3l0.2-0.8
	l0.6-0.3l1,0l0.7-0.2l0.3,0.6l0,1l0.9-0.1l0.3,0.7l-0.1,1.1l-2.1-0.9l-0.4,1.7l-0.7,1.6l-0.5,0.1l-0.5-0.1l-1.1-2.1l0.1-2.2l0.3-0.3
	l0.5,0.4L149,164.3L149,164.3z M149.1,174.5l-0.1-0.2l0.2-3.4l0.3-0.3l0.4,0.1l0.1,0.2l-0.4,1.8l-0.2,1.4L149.1,174.5L149.1,174.5z
	 M150.3,162.1l1-3.7l0.4-0.2l0,0.2l-0.9,3.5L150.3,162.1L150.3,162.1z M156.5,163.9l0.6,0.2l-0.1,1.9l-0.3,0.3l-0.4,0l-0.3-0.9
	L156.5,163.9L156.5,163.9z M153.5,161l0.6-1.1l0.7,0l-0.4,1.9L153.5,161L153.5,161z M158.1,168.8l-0.6-0.6l0.2-1.9l0.2-0.1l0.4,0.3
	l0,1.4L158.1,168.8L158.1,168.8z M147.4,180.5l0.2,1.4l-0.6,0.2l-0.4-1l0.3-0.9L147.4,180.5L147.4,180.5z M153.6,162.5l0.2,1.1
	l-0.6,0.3l-0.3-0.3l0-0.9L153.6,162.5L153.6,162.5z M155.8,168.7l-0.1-0.2l0.1-0.9l0.3-0.2l0.2,0.1l0.1,1.1l-0.4,0.2L155.8,168.7
	L155.8,168.7z M156.9,169.7l0.2,0l0.2,1.1l-0.4,0.1l-0.2-1.1L156.9,169.7L156.9,169.7z M148.6,176.2l0.2,0.1l0.1,0.4l-0.3,0.3
	l-0.1-0.4L148.6,176.2L148.6,176.2z M156.9,155.9l0.2,0l0.5,0.5l0,0.2l-0.3,0L156.9,155.9L156.9,155.9z M158.3,158.4l0.2-0.1
	l0.2,0.1l0.1,0.6l-0.4,0.2l-0.1-0.1L158.3,158.4L158.3,158.4z M155.9,162.8l0.2,0l0.1,0.2l0,0.2l-0.3,0L155.9,162.8L155.9,162.8z
	 M146.9,173l0.2,0l0,0.2l-0.3,0.3l-0.1-0.1L146.9,173L146.9,173z M149.8,178.7l0.1,0.2l0,0.2l-0.2,0l-0.2-0.3L149.8,178.7
	L149.8,178.7z M140.7,182.8l0,0.2l-0.1,0.1l-0.4-0.4l0.1-0.1L140.7,182.8L140.7,182.8z M156.2,161.1l0.2,0l-0.1,0.1L156.2,161.1
	L156.2,161.1z M157.5,163.3l0-0.1l0.1,0.1L157.5,163.3L157.5,163.3z M149.8,159.3l0.1,0l-0.1,0.1L149.8,159.3L149.8,159.3z M155,167
	l-0.2,0l0.1-0.1L155,167L155,167z M153.5,166.9l0.1,0l-0.1,0.1L153.5,166.9L153.5,166.9z M147.9,174.9l0.1-0.2l0.1,0.1L147.9,174.9
	L147.9,174.9z M146.5,175.6l0-0.1l0.1,0.1L146.5,175.6L146.5,175.6z M145.9,179.9l0.1,0L146,180L145.9,179.9L145.9,179.9z
	 M189.9,220.7l0.3,0.4l0.4,0.2l2.9,0.3l3.7,0.5l0.2,0.8l-0.4,0.9l-1.6,1.5l-3.3,2.6L192,228l-0.4,2.6l-0.9,2.3l-1.9,1.9l-0.4,3.6
	l0.4,1.4l1.2,0.8l1.2,0l0.1,0.5l-0.2,1.2l0.1,1.6l1.6,1.3l0.3,1.6l0.5,0.7l0.2,1.3l0.4,0.5l2.1-0.2l1.3-0.8l1.2,1.3l1.5,0.1l1.4,1.2
	l1.7,0.1l1.9,0.2l2.2-2l0.4-1.6l1.8-0.7l1.2-1.2l2.1,0.1l1.1-1.3l0.9-1l0.8-1.9l1.3,0.7l0.9,0.7l2.7-0.2l0.7-0.7l1.8-0.6l0.7-0.4
	l4.8-0.2l1.3-1.2l-0.6-2.6l0.1,0l-0.2,0.4l0,1.4l-1,1l-3.9,0.2l-1.1-0.5l-0.9,1.2l-0.9,0l-0.4-0.8l-2.2-1.4l1.6,0.2l0.3-0.4
	l-1.1-1.2l0.6-0.2l1.2,0.7l1.2,0.7l-0.1-0.9l0.4-0.1l1.2,0.3l2.9,1.1l1.1,0.3l-1.2-1.4l-2.7-1l-0.9-0.8l0-0.2l0.1-0.1l2.3,0.4
	l0.4-0.3l-0.3-0.3L225,235l-3.5-0.9l-0.8-0.8l-1-0.6l-0.7-0.8l-0.2-0.8l-2.7-3.6l-1.4-0.2l-3.6-0.6l-1.9-0.1l-2.8,0.6l-0.5,0.2
	l-1.3,1.4l0.1,1.7l1.3,2l1.8,0.5l1.8,0.6l1.7,0.8l1.1,0.3l-0.6-0.7l-1.9-0.9l-2-0.7l-0.2-0.5l2.4-0.3l3,1.6l0.6,0.9l0.8,0.8l0.7,3
	l-0.1,3.4l-0.6,1.4l-1.2,1.6l-1.2,0.7l-0.5-0.1l-1.2-0.8l-0.4,0.3l-0.6,1.6l-1.2-0.3l-0.1-1.4l-1-1l0.1,1.7l-0.1,2.4l-1.2,2.5
	l-1.4,0.4l-1-0.5l-1.8,0.4l-0.4-0.5l0.3-2.3l0.2-2.9l-0.1-0.2l-0.6,1l-0.9,2.8l-0.3,0.4l-1.3-0.2l0.2-1.4l0.2-1.3l0.6-1l2.3-5.1
	l0.4,0l-0.6,2.8l-0.3,1.7l0.1,0.4l1.8-1.1l0,0.1l-0.9-0.3l-0.2-0.4l0.5-2.1l0.6-3.1l-0.2-0.7l-1.4,0.3l-0.8,0.8l-1.4,4.3l-0.4,1.1
	l-1.4,3.1l-0.3,0.5l-1.3,1.3l-1.2,0.3l-0.2-0.1l0.2-1.1l1-1l1.2-3l0.2-0.9l-0.2-0.4l0.1,0l-0.5,0.5l-1.4,3.7l-0.3,0.4l-1,0l-0.4-0.6
	l0.6-1.8l1.6-1.9l-0.4-0.3l-0.4,0.5l-0.9,0.1l1.8-3l-0.6-0.1l-1.7,2.7l0,0.9l-0.8,1l-0.7,0l-0.4-0.4l0.1-1.8l1-2.2l0.7-0.7l1.2-0.4
	l1-1.4l2.6-5l0.1-0.7l-0.7,0.2l-0.8,1.7l-0.8,1.5l-1.1,1.7l-1.2,0.2l-2.6,2.8l-1.5,0.4l-0.5-0.4l-0.2-3.5l2.1-2.2l0.3-0.4l0.2-1.3
	l2.2-1.6l-0.1-1.3l-1.4,0.4l-0.2-0.4l0.2-0.4l1.4-1.6l3.2-2.1l0.3-0.4l0.6-1.6l-0.4-1.6l-0.7-0.2l-4.1-0.5l-2.4-0.1L189.9,220.7
	L189.9,220.7L189.9,220.7z M214.5,232.2l-0.4,0.1l0-0.2l0.4,0.2l0.4-0.1l0,0.2L214.5,232.2L214.5,232.2z M216.2,232.6l-0.2,0.1
	l-0.2-0.1l0.2,0.1l0.2,0.1l0.7,0l0.4-0.4l-0.8-0.5l-1.1-0.2l-0.5-0.4l-1.7-0.4l-0.4,0.1l0-0.2l0.4,0.1l0.4-0.2l0.7-0.2l-0.5-0.4
	l-2.7-0.2l-0.3-0.6l0.7-0.1l1.9,0.1l2.8,0.5l0.2,0.1l0.1,0.2l-0.1,0.1l-1.4,0l-0.7,0.2l0.7,0.7l0.4-0.2l2.2,0.2l3.5,3.5l0.9,0.4
	l0.7,1.1l-1,0.1l-2.3-0.5l-0.3-0.3l0.1-0.4l0,0.1l-0.7-0.5l-1.5-0.5l-0.5-0.5l-0.7,0l-0.6,0l-0.1-0.4l0.2,0l0.5,0.4l0.7,0l0.6-0.2
	l1.1-0.2l0,0.1l-0.3-0.9l-0.7-0.2l0,0.4l-0.3-0.1L216.2,232.6L216.2,232.6z M205.3,228.7l1.3-0.7l1.8,0.1l1.3,1.4l0,1.1l-3.1,0.3
	l-0.4-0.2l-1-1.4L205.3,228.7L205.3,228.7z M215.8,228.9l-1,0l-4.5-0.7l-0.6-0.3l-0.1-0.6l1,0l5,0.9L215.8,228.9L215.8,228.9z
	 M217.6,241.1l0.7,0l0.7,0.2l0.7,0.1l0.7,0.1l0.1,0.2l-0.3,0.7l-1.6-0.1l-0.9-1L217.6,241.1L217.6,241.1z M217.1,237.3l0.9,0.9
	l0,0.2l-0.3,0.2l-0.9-0.3l-0.3-0.8L217.1,237.3L217.1,237.3z M215.9,234.9l0.4,0.1l0.4,1.5L215.9,234.9L215.9,234.9z M216.5,239.1
	l0.4,0.2l0,0.9l-0.4,0L216.5,239.1L216.5,239.1z M218,236.4l0.2,0l0.2,0.4l-0.1,0l-0.3-0.3L218,236.4L218,236.4z M217.5,235.2
	l-0.1,0l0.1-0.1L217.5,235.2L217.5,235.2z M171.4,180.6l0.9-0.8l0.5-1.6l0.4-1.2l0.4-1.1l0.3-0.7l0.6-2.6l0.2-0.5l0.5-2.6l0.7-2.6
	l0.2-1l0.5-2.6l-0.2-0.7l0,0l-0.5,0.6l-0.9,3.3l-0.7,3.1l-2.3,0l-0.4,0.3l-0.7,0.5l-0.6-0.3l-0.3-0.4l-0.7-0.9l1.1-3.5l-0.4-0.6
	l0.1,0l-0.5,0.7l-0.6,2l-0.7,1l-0.7,1.2l-0.2,0.1l0.1,0.4l-1.3,2.1l-0.9,1.6l-2.1,1.7l-2.9,2.2l-0.3,0.5l-0.4,1.3l0.3,1.4l0.8,1.1
	l1.2,0l1.5-1.4l0.8-1.9l1.8-2l0.1-1.7l0.4-1.7l0.3-0.6l1.8-2.7l0.6-0.3l0.5,0.2l0,1.2l0,1.5l0.6-0.3l1.3-1.7l2,0.1l0,1.7l-0.8,1.7
	l-0.3,1.9l-1.3,4l0.1,0.5L171.4,180.6L171.4,180.6z M160.7,181.3l-0.2-2l0.5-1.2l1.4-1.1l0.6,0l0.1,0.2l0,1.9l-0.6,1.5l-1.1,0.9
	L160.7,181.3L160.7,181.3z M164.5,175.6l0.8-0.1l0,1.1l-0.4,0.2l-0.1-0.1L164.5,175.6L164.5,175.6z M173.5,185.7L173.5,185.7l0-0.2
	l1.8-6l0.6-2.6l0.2-0.7l0.4-1.4l1.2-5.4l0.5-2.6l0.4-1.9l0.5-2.4l0.3-1.9l0.3-0.3l0,0l0.5,0.6l-0.1,1.1l-0.9,4l-0.2,0.9l-0.7,3.6
	l-0.8,3.5l-0.5,2.4l-1.1,3.7l-0.5,1.4l-1.1,3.4L173.5,185.7L173.5,185.7z M202.1,135.4L202.1,135.4l-0.4-0.6l0.1-2.4l0.4-5.3l0-2.7
	l0.2-0.4l0,0l0.5,0.6l0.1,4.6l-0.4,4.7l-0.2,0.7L202.1,135.4L202.1,135.4z M83.5,294.9L83.5,294.9l2.4-1.6l1.7-1.4l1-0.4l6.1-5.7
	l-0.1,0l0,0.6l-2.1,2.4l-0.2,0.1l-1.9,1.5l-2,1.8l-1.5,0.9l-1.8,1.6l-1.2,0.4L83.5,294.9L83.5,294.9z M166.9,105.8l-0.1,0l0.8,0.3
	l0.2,0.7l1.3,1.4l1.3,1.4l0.9,1.6l1.6,2.6l1,2.6l-0.1,0.4l0.1,0l-1-1.2l-1-2.4l-1.5-2.4l-0.5-1l-2.7-3l-0.4-0.6L166.9,105.8
	L166.9,105.8z M180.9,147.6L180.9,147.6l0.3,0.6l0,3.1l-0.2,3.1l-0.1,1.4l-0.5,0.8l0,0l-0.2-0.7l0.2-3.4l0-4.4L180.9,147.6
	L180.9,147.6z M188.1,134.3l0.1,0l-0.9-0.3l1.3-1l-0.1-0.4l-0.4,0l-0.9,0.3l1.9-1.8l0.6,1.7L188.1,134.3L188.1,134.3z M169.6,99.3
	L169.6,99.3l-0.3-0.1l0,0.5l0-0.1l-0.2,0.4l-0.2,2.2l-0.2,0.4l-0.2,0.1l-0.2-0.1l0-0.9l0-4.3l0.1-0.2l-0.1,0l1.1,1.1l0.3,0.4
	L169.6,99.3L169.6,99.3z M181.1,142.1L181.1,142.1l-0.1,2l0,3l-0.2,0.4l0.1,0l-0.5-0.6l-0.1-2.5l0.1-2.8l0.1-0.1l0.2,0L181.1,142.1
	L181.1,142.1z M164.6,198L164.6,198l0-0.4l0.5-2.3l0.9-1.7l0.4-0.1l-0.2,1.6l-0.7,1.3l-0.6,1.3L164.6,198L164.6,198z M175.3,122.1
	L175.3,122.1l0.6,0.7l0.9,2.7l0.1,1.4l-0.4,0.1l-1.4-4.4l0-0.2L175.3,122.1L175.3,122.1z M200,117.9L200,117.9l0.4,0.5l-0.2,3.6
	l-0.2,0.4l0.1,0l-0.5-1l0.2-3.3L200,117.9L200,117.9z M152.7,208.6L152.7,208.6l0.1,0.4l-0.8,2.8l-0.6,0.6l0.1,0l-0.2-0.6l1-2.8
	L152.7,208.6L152.7,208.6z M178,111.1L178,111.1l-0.1-0.4l-0.1-3.3l0.1-0.4l0.4,0.2l0.6,1.2l0-0.1l-0.2,0.4l-0.1,1.6L178,111.1
	L178,111.1z M190.2,128l-0.4,1.3l-1.8,1.2l-0.4,0l0-0.2l2.3-2.1L190.2,128L190.2,128z M149,214.1L149,214.1l0.1,0.9l-1,2.4l-0.8,0.9
	l0.1,0l-0.1-0.2l0.8-2.3l0.6-1.3L149,214.1L149,214.1z M173.9,116.9L173.9,116.9l0.9,1.9l0.4,1.9l-0.2,0.4l0.1,0l-0.3-0.3l-1-2.9
	l0-0.7L173.9,116.9L173.9,116.9z M166.1,102L166.1,102l0.2-2.5l-0.4-0.6l0,0.1l0.4-0.4l-0.1,0l0.7,0.8l0,1.2l-0.1,1.1L166.1,102
	L166.1,102z M180.3,157.3L180.3,157.3l0.3,0.5l-0.4,2l-0.3,0.4l-0.2,0.1l0,0l-0.1-0.2l0.3-2.6L180.3,157.3L180.3,157.3z
	 M173.6,185.7L173.6,185.7l0.1,0.9l-0.9,2.2l-0.2,0.1l-0.2-0.4l0.8-2.2L173.6,185.7L173.6,185.7z M150.5,209.3L150.5,209.3l0-0.4
	l0.5-1.9l0.7-0.8l-0.1,0l0.1,0.6l-0.6,1.7L150.5,209.3L150.5,209.3z M170,100.4L170,100.4l0.3,0.6l-0.2,2.4l-0.4,0.2l-0.1-0.2
	l0.2-2.8L170,100.4L170,100.4z M179.3,111.8L179.3,111.8l0.1,0.2l-0.3,2.6l-0.3,0.3l0.1,0l-0.2-0.2l0.2-2.4L179.3,111.8L179.3,111.8
	z M165.1,114.1l-0.1,0l1.4,0.6l1,0.5l0-0.1l-0.2,0.1l-2.7-0.5L165.1,114.1L165.1,114.1z M161.3,113.7L161.3,113.7l0.8-0.4l2.1,0
	l0.2,0.1l0-0.1l-0.8,0.4l-2.1,0L161.3,113.7L161.3,113.7z M188.9,126.4L188.9,126.4l0,0.4l-1,1.1l-1.1,1.2l-0.2-0.5L188.9,126.4
	L188.9,126.4z M183.5,130.1L183.5,130.1l0,0.4l-0.6,1.3l-1.1,1l0.1,0l-0.1-0.4l0.8-1.4L183.5,130.1L183.5,130.1z M185.1,119.4
	L185.1,119.4l0-0.2l0.7-2.2l0.2,0l0.1,0.1l-0.8,2.2L185.1,119.4L185.1,119.4z M170.9,126.9L170.9,126.9l0.2-0.1l1.5,0.6l0.7,1
	l-1.7-0.8L170.9,126.9L170.9,126.9z M184.4,127.4L184.4,127.4l0,0.4l-0.6,2l-0.3,0.3l0.1,0l-0.1-0.2l0.7-2.2L184.4,127.4
	L184.4,127.4z M150.2,210.3L150.2,210.3l0.1,0.4l-0.1,1.5l-0.9,0.9l0.1,0l-0.1-0.4l0.5-1.8L150.2,210.3L150.2,210.3z M151.8,206.2
	L151.8,206.2l-0.1-0.4l0.4-1.6l0.5,0.4L151.8,206.2L151.8,206.2z M178.8,108.3l0,0.1l0.2-0.4l0.1-1.3l0.6,0.5l-0.1,1.4l-0.2,0.4
	l0.1,0L178.8,108.3L178.8,108.3z M169.3,113.8l-1.2-0.6l0.6-0.1L169.3,113.8L169.3,113.8z M180,138L180,138l0.3,0.8l-0.2,0.9
	l-0.3,0.1l0-1.6L180,138L180,138z M171.9,103.8L171.9,103.8l0.1,0.2l-0.2,1.6l-0.4-0.2l0-0.5l0.1-0.5L171.9,103.8L171.9,103.8z
	 M176.8,107.7L176.8,107.7l-0.1,2.1l-0.1,0l-0.3-1.3L176.8,107.7L176.8,107.7z M184.9,124.9l-0.5,1.7l-0.1,0L184.9,124.9
	L184.9,124.9L184.9,124.9z M184.8,123.6l-0.3-1.7l0.1,0L184.8,123.6L184.8,123.6L184.8,123.6z M178,111.1L178,111.1l-0.3,1.4l-0.2,0
	L178,111.1L178,111.1z M180,137.3L180,137.3l-0.3-1.6l0.2-0.2l-0.1,0l0.4,1.5L180,137.3L180,137.3z M188.2,114L188.2,114l0,1
	l-0.4-0.5L188.2,114L188.2,114z M164.4,113.4L164.4,113.4l0.9-0.1l0.2,0.1l-0.1,0.4l-0.3,0.3l0.1,0L164.4,113.4L164.4,113.4z
	 M179.7,135.6L179.7,135.6l-0.3-0.5l0.1-0.6l-0.1,0l0.4,0.5L179.7,135.6L179.7,135.6z M169.9,126.5L169.9,126.5l0.6-0.1l0.4,0.4l0,0
	l-0.6,0.1L169.9,126.5L169.9,126.5z M153.1,202.4l-0.5,0.7L153.1,202.4L153.1,202.4L153.1,202.4z M150.6,209.3L150.6,209.3l-0.1,0.8
	l-0.4,0.3l0.1,0L150.6,209.3L150.6,209.3z M148.9,214.1L148.9,214.1l0-0.6l0.5-0.5l-0.1,0l0.1,0.6L148.9,214.1L148.9,214.1z
	 M169.9,100.4L169.9,100.4l-0.6-0.7l0,0.1l0.4-0.4l-0.1,0l0.3,0.3L169.9,100.4L169.9,100.4z M184.6,121.1l0.1,0l0.4-1l-0.1,0l0,0.6
	L184.6,121.1L184.6,121.1z M178.8,114.9L178.8,114.9l0,0.6l-0.3,0.2l-0.1-0.3L178.8,114.9L178.8,114.9z M175.1,121.1L175.1,121.1
	l0.3,0.5l-0.1,0.6l0.1,0l-0.4-0.5L175.1,121.1L175.1,121.1z M179.4,134.5L179.4,134.5l-0.3-0.6l0-0.2l0.4,0.1L179.4,134.5
	L179.4,134.5z M188.2,114L188.2,114l-0.1-0.4l0.3,0L188.2,114L188.2,114z M168.4,97.3L168.4,97.3l0-0.2l0.1-0.2L168.4,97.3
	L168.4,97.3z M179.4,109.7l0-0.7l0.1,0L179.4,109.7L179.4,109.7L179.4,109.7z M176.8,107L176.8,107l0-0.4l0.1,0.1L176.8,107
	L176.8,107z M179.5,109.7l0,0.7l-0.1,0L179.5,109.7L179.5,109.7L179.5,109.7z M176.9,107l0,0.7l-0.1,0L176.9,107L176.9,107
	L176.9,107z M179.4,111.1l0-0.7l0.1,0L179.4,111.1L179.4,111.1L179.4,111.1z M179.3,111.8l0-0.7l0,0L179.3,111.8L179.3,111.8
	L179.3,111.8z M171.8,103.8l0.1-0.7l0,0L171.8,103.8L171.8,103.8L171.8,103.8z M176.7,109.7L176.7,109.7l0.2,0.4l-0.3,0L176.7,109.7
	L176.7,109.7z M173.7,107.2L173.7,107.2l0.4-0.3l-0.1,0l0,0.7l0.1,0L173.7,107.2L173.7,107.2z M185,120.1l0-0.7l0.1,0L185,120.1
	L185,120.1L185,120.1z M174,108.3l0-0.7l0.1,0L174,108.3L174,108.3L174,108.3z M174,108.3L174,108.3l-0.1,0.4l-0.1-0.1L174,108.3
	L174,108.3z M184.7,121.2l0,0.7l-0.1,0l0-0.7L184.7,121.2L184.7,121.2z M184.8,124.3l0-0.7l0.1,0L184.8,124.3L184.8,124.3
	L184.8,124.3z M184.8,124.9l0-0.7l0.1,0L184.8,124.9L184.8,124.9L184.8,124.9z M184.3,127.4l0-0.7l0.1,0L184.3,127.4L184.3,127.4
	L184.3,127.4z M167.4,115.1L167.4,115.1l0.4,0l0,0.2L167.4,115.1L167.4,115.1z M163.8,112L163.8,112l0.4,0l0,0.2L163.8,112
	L163.8,112z M182,132.8L182,132.8l0,0.4l-0.2,0L182,132.8L182,132.8z M179.9,138l0-0.7l0.1,0L179.9,138L179.9,138L179.9,138z
	 M180.4,156.6l0,0.7l-0.1,0L180.4,156.6L180.4,156.6L180.4,156.6z M170.2,164.7l0-0.7l0.1,0L170.2,164.7L170.2,164.7L170.2,164.7z
	 M166.7,192.2l-0.1,0l0.1,0.4l-0.2,0L166.7,192.2L166.7,192.2z M83.5,295L83.5,295l-0.4,0.1l0-0.2L83.5,295L83.5,295z M237.8,179.2
	l-0.4-0.1l-1,0.2l-2.6,0.7l-2.6,0.7l-2,0.2l-2.3-0.1l-0.5,0l-2.8-0.5l-0.9-0.1l-0.8,0.1l-0.7,0.6l-0.3,1.3l0.2,1.2l-1.2,0.7l0.7,0.2
	l0.7-0.2l6.4-1.8l1.2-0.3l2.8-0.9l1.6-0.5l4-1.1L237.8,179.2L237.8,179.2z M225.8,181.8l0.4-0.1l0,0.2L225.8,181.8l-0.4,0.3
	l-2.1,0.4l-1.4-0.7l0.8-0.9l2.9,0.7L225.8,181.8L225.8,181.8z M266.3,185.6L266.3,185.6l0.4,0l1.4,0l1.1,0.4l1.2,1l0.9,0.4l2.7,2.8
	l0.9,1.1l-0.1,0.4l-0.2,0l-3-3.2l-0.9-0.4l-1.5-1.4l-1.3-0.4l0.1,0.5l0.7,0.6l1.5,1.1l1.5,1.5l0.7,0.6l1.8,1.5l0.6,1.1l-0.6,0.3
	l-4.1-4.3l-1.1-0.8l-0.6-0.4L266.3,185.6L266.3,185.6z M264.1,188.5l-1.2-1.5l-1.1-1.8l-1-1.7l-2.9-3.1l-1.7-1.1l-0.2-0.6l1.4,0.5
	l4.4,4.6l0.5,0.8l0.8,1.4l1,1.6l1.6,2.6l1,2.7l-0.3,0.1l-1.6-2.9L264.1,188.5L264.1,188.5z M288.1,184.2L288.1,184.2l-0.6,0.2
	l-1.2-0.3l-1,0.5l-2.7-1.2l-1.7-1.6l0.3-0.4l1.2,1.2l1.6,1l1.3,0.4l-0.1-0.4l-0.8-0.5l-1.1-0.9l-0.1-0.4l1.5,0.6l1.2,0.8l1.5,0.7
	L288.1,184.2L288.1,184.2z M293.6,171.1l0.5,0.2l0.5,0.2l-1.2,0.8l-0.7,0.3l-2.9,1.8l-1.7,0.9l-0.4-0.1l1.7-1.4l2-1.4l1.1-1l0.6,0.1
	L293.6,171.1L293.6,171.1z M287.7,180.4l-0.9,0l-1.1-0.9l-1.2-0.7l-0.4-0.3l-0.8-0.8l-0.8-0.8l-0.9-0.7l0.3-0.3l0.8,0.5l1.4,1.3
	l2.4,1.8L287.7,180.4L287.7,180.4z M270.5,193.4l-0.7-0.2l-0.7,0.2l-0.4-0.1l-1.1-2l0.7-0.2l0.3,0.6l0.9-0.1l0.9,1.1L270.5,193.4
	L270.5,193.4z M262.7,194.9L262.7,194.9l-0.1-0.2l-1.1-4.1l0.1-0.9l0.3,0l0.5,1.8l0.3,1.1l0.2,2.1L262.7,194.9L262.7,194.9z
	 M264.2,193.1l0.7,0.5l0.4,1.3l-0.2,0.7l0,0.8l-1.2-2.9L264.2,193.1L264.2,193.1z M256.9,187.6l0.1,0.7l-0.2,3.4l-0.1,0.1l-0.2,0
	l-0.5-1l0.3-1.2l0.2-1.7l0.1-0.2L256.9,187.6L256.9,187.6z M266.3,185.7L266.3,185.7l-0.4,0l-2.1-1.4l-1.7-1.2l0-0.4l0.2-0.1
	l0.5,0.1l1.1,0.8L266.3,185.7L266.3,185.7z M280.3,177.7l-3.4-2.8l0.2-0.6l0.9,0.1l0.3,0.7l1.1,1.2L280.3,177.7L280.3,177.7z
	 M271.8,186.7l1.2,0.4l1.7,1.8l0.1,0.4l-0.2,0l-1.4-1.4l-1.1-0.6L271.8,186.7L271.8,186.7z M252,176.9L252,176.9l-0.6,0.4l-2.5,0.7
	l-0.4-0.1l0.2-0.4l2.7-0.8L252,176.9L252,176.9z M260.3,162.5l0.1,0l-0.1-0.2l0.4-0.8l1.2-0.2l0.2,0.6l-0.9,0.1L260.3,162.5
	L260.3,162.5z M259.4,192.2L259.4,192.2l-0.6-0.1l-0.2-1.4l0.2-0.3l0.3,0.2L259.4,192.2L259.4,192.2z M259.4,192.1L259.4,192.1
	l0.6-0.3l0.4,0.1l-0.1,0.6l-0.4,0.1L259.4,192.1L259.4,192.1z M279.4,172L279.4,172l1.5-0.4l0,0.2L279.4,172L279.4,172z
	 M262.7,194.9L262.7,194.9l0.3,0.6l-0.5,0.5L262.7,194.9L262.7,194.9z M271.8,192.4l0.4-0.1l0.1,0.4l-0.1,0.2l-0.4-0.1L271.8,192.4
	L271.8,192.4z M260.8,173.2l-0.8,0.4L260.8,173.2L260.8,173.2L260.8,173.2z M243,114.1l-2,1.4l-2.6,1.3l0.4,0.4l2.9-1.3l1.7-1
	l1.2-0.9l1.2-0.8l0.6-0.4l0.1-0.2l1.2-1.8l-0.7,0.1l-0.2-1.3l-0.4-0.2l-0.8,0.5l-0.6,0.5l-0.9,0.4l-0.6,0.5l-0.3,0.4l0,0.2l0.1,0.2
	l0.4,0.1l1.7-1.4l0.7-0.4l0,0.4l-3.1,2.4l-0.9,0.8l0,0.3l0.7-0.1L243,114.1l2-1.7l0.2,0l-0.2,0.4l-1.4,1.3L243,114.1L243,114.1z
	 M246.3,111.5l-0.2,0l0.1-0.1L246.3,111.5L246.3,111.5z M219.8,128.3l-0.6-0.2l-1.4-1.2l-1,0.5l-0.1-0.2l0-0.6l1.1-1.2l1.7-1.4
	l0.2,0l-1.2,1.9l0.8,1l0.5,0l1.4-1.1l0.1,0.1l-0.9,2l0.4,1.2l1.4,1.1l-0.2,1.1l0.1,2.4l-0.4-0.2l-0.9-3.6L219.8,128.3L219.8,128.3z
	 M245,109l-1,1l-0.2,0.1l-1.3,1.1l-1.7,1l-3.1,1.4l-0.5,0l-0.1-0.3l2.7-1.2l2.6-1.3l6.6-6.1l0.2-0.1l0.3-0.1l-1.1,1.8l-0.6,0.4
	l-1.7,1.9L245,109L245,109z M235.5,99L235.5,99l0.3,0.8l-0.3,1.9l-0.2,1.9l-0.1,0.2l0.1,0l-0.4-0.8l-0.2-1l-0.2,0.1l-1.2,2.1
	l-0.2,0.1l-0.3-0.3l0.1-0.7l1.2-1.5l1.3-1.7L235.5,99L235.5,99z M213.7,132.3l-2.5,2.9l-0.9,0l1-1.1l0.8-0.9l0.9-1.2l2-2l1.1-1.3
	l0,0.5l-0.2,0.5l-1.8,2L213.7,132.3L213.7,132.3z M226.6,129.5L226.6,129.5l-0.1-0.4l0.1-0.7l2.5-5.7l0.3-0.3l-0.1,0l0.2,0.4
	l-0.4,1.4l-1.1,2.4l-1.1,2.7L226.6,129.5L226.6,129.5z M229.8,132.3l1.7-1.4l1.7-1.4l0.7,0l-1.4,1.4l-1.8,1.2l-2.7,1.6l0.1-0.4
	L229.8,132.3L229.8,132.3z M231,136.5l2.4-2l2.4-1.7l0.5-0.1l-0.4,0.6l-1.5,1.3l-1,0.8l-1.9,1.1L231,136.5L231,136.5z M242.6,108.4
	l-0.1,0.2l-1.5,1.3l-2.1,1.2l-0.5,0l-0.2-0.3l3.9-2.5L242.6,108.4L242.6,108.4z M225.7,133.6L225.7,133.6l0.1,0.2l-0.6,3.4l-0.8,0.9
	l0,0l-0.1-0.2l1-3.7L225.7,133.6L225.7,133.6z M238.2,137.3l0.2-0.6l3.5-1.7l0.2,0l0.3,0.2l-0.1,0.2l-3.3,1.6L238.2,137.3
	L238.2,137.3z M229.5,139.1L229.5,139.1l1.3-1.1l1.5-0.8l1.3-1.1l0.2,0l-2.2,2.3l-1.7,0.9L229.5,139.1L229.5,139.1z M234.6,108.2
	L234.6,108.2l-0.1-0.4l0.3-3.3l0.2-0.5l0.3-0.3l-0.1,0l0.1,0.2l-0.2,3.8L234.6,108.2L234.6,108.2z M232.6,114.8L232.6,114.8l0.1,0.4
	l-0.9,2.8l-0.8,0.9l0.1,0l-0.1-0.2l1.2-3.3L232.6,114.8L232.6,114.8z M240.8,137.5l-0.2,0.4l-2.8,0.8l-0.2,0l-0.1-0.1l0.1-0.2l3-0.9
	L240.8,137.5L240.8,137.5z M229.6,130.5l2.2-1.7l0.5,0.4l-0.6,0.3l-2.1,1.8l-0.4,0l-0.1-0.4L229.6,130.5L229.6,130.5z M232.6,100.7
	l0-0.2l1.2-1.8l0.8-0.5l0,0.7l-1.6,1.8L232.6,100.7L232.6,100.7z M239.1,135.5l-1.2,0.8l-1.3,0.6l-0.3-0.5l1.4-1l0.6,0.1
	L239.1,135.5L239.1,135.5z M234.7,108.2L234.7,108.2l0.1,0.2l-0.6,2.2l-0.3,0.3l0.1,0l-0.1-0.4L234.7,108.2L234.7,108.2z
	 M229.4,122.3L229.4,122.3l0-0.2l1.3-2.2l-0.1,0l0.1,0.2L229.4,122.3L229.4,122.3z M226.6,129.5L226.6,129.5l0.1,0.2l-0.2,1.6
	l-0.4,0.6l0,0l-0.1-0.2l0.2-1.6L226.6,129.5L226.6,129.5z M240.4,100.5l2.1-1.8L240.4,100.5L240.4,100.5z M242,100.8L242,100.8
	l0,0.4l-0.6,0.8l-0.7,0.9l-0.3-0.3l0.1-0.2L242,100.8L242,100.8z M232.5,114.8L232.5,114.8l0-0.2l0.9-1.9l-0.1,0l0.1,0.2
	L232.5,114.8L232.5,114.8z M226.8,112.5l1-0.2l-0.8,0.8l-0.2-0.3L226.8,112.5L226.8,112.5z M235.6,96.2L235.6,96.2l-0.3-1.6l0.1-0.2
	l-0.1,0L235.6,96.2L235.6,96.2z M240.6,107.6l-0.8,1.1l-0.3,0l0-0.2L240.6,107.6L240.6,107.6z M226.2,131.9L226.2,131.9l0.1,0.2
	l-0.6,1.5l0,0l-0.1-0.2L226.2,131.9L226.2,131.9z M235.6,117.4l0,0.2l-0.3,0.4l-0.4-0.1l-0.1-0.2l0.3-0.3L235.6,117.4L235.6,117.4z
	 M239.6,100l0,0.6l-0.3,0L239.6,100L239.6,100z M233.8,111.7L233.8,111.7l-0.2,0.7l-0.3,0.3l0.1,0L233.8,111.7L233.8,111.7z
	 M239.2,103l-0.1,0.4l-0.4,0.1l0.1-0.4L239.2,103L239.2,103z M236.6,109.8l0.2-0.2l0.2,0L237,110l-0.3,0L236.6,109.8L236.6,109.8z
	 M229.8,115.5l0.4-0.1l0,0.2l-0.4,0.2L229.8,115.5L229.8,115.5z M231,118.9L231,118.9l0,0.6l-0.5,0.5l0.1,0l0-0.6L231,118.9
	L231,118.9z M224.4,138.1L224.4,138.1l0,0.6l-0.4,0.1l0-0.2L224.4,138.1L224.4,138.1z M229.5,139.2L229.5,139.2l-0.4,0.1l0-0.2
	L229.5,139.2L229.5,139.2z M220.4,134.1l0.2,0l0,0.2l-0.2,0L220.4,134.1L220.4,134.1z M246,97.2l-0.1,0.2l-0.1-0.1L246,97.2
	L246,97.2z M237.6,94.8l0,0.2l-0.2-0.2L237.6,94.8L237.6,94.8z M241.9,100.7L241.9,100.7l0-0.4l0.2,0L241.9,100.7L241.9,100.7z
	 M235.6,96.9l0-0.7l0.1,0L235.6,96.9L235.6,96.9L235.6,96.9z M235.5,97.6l0-0.7l0.1,0L235.5,97.6L235.5,97.6L235.5,97.6z
	 M235.6,97.6l-0.1,0.7l-0.1,0L235.6,97.6L235.6,97.6L235.6,97.6z M235.5,99l0-0.7l0.1,0L235.5,99L235.5,99L235.5,99z M233.1,98.2
	l0.2,0l-0.2,0.2L233.1,98.2L233.1,98.2z M233.7,105.4l0.2,0l0,0.2l-0.2,0L233.7,105.4L233.7,105.4z M233.9,111l0,0.7l-0.1,0
	L233.9,111L233.9,111L233.9,111z M235.2,115l0.2,0l0,0.2l-0.2,0L235.2,115L235.2,115z M230.9,112.8l0-0.2l0.2,0l0,0.2L230.9,112.8
	L230.9,112.8z M219.2,108.4L219.2,108.4l0,0.4l-0.2,0L219.2,108.4L219.2,108.4z M210.3,239.5l-0.4-0.2l0,0.2L210.3,239.5l1.6,1.7
	l0,0.5l-1.4-1l-1.6-0.9l-0.3,0.1l-0.3,0.4l-0.2,0.3l-0.4-0.3l-0.6-1.9l-1.9-2l-1.9-1.6l2.1,1l1.4-0.2l2.6,1.1l0.9,0.8l0-0.1
	l-0.4,0.1l-2.7-0.9l-0.7,0l0.1,0.4l1.5,1.8l0.4,0.1l0.2-0.4l3.1,0.8l1,1.4l-2.3-1.2L210.3,239.5L210.3,239.5z M197.1,229l-0.6,0.6
	l-0.1,0.8l-0.1,0.2l0,0.2l0.2-0.2l-0.1-0.2l0.8-0.8L197.1,229l0.5-0.7l1-1.4l0.4,0.1l-0.2,0.6l-4,7.2l-0.8,0.9l-0.3,0l0-0.2l1.3-2.1
	l-0.1-0.4l0.8-1.1l-0.7,0.5l0,0.6l-1.5,1.3l-1.5,1.3l-0.3-0.1l1.8-1.9l1.5-2.1l0-1l1.6-1.7L197.1,229L197.1,229z M212.2,222.6
	L212.2,222.6l1-0.7l1.5-0.7l1.7-1l0.7-0.3l1.8-1.6l0.8-0.6l1.2-0.8l1.7-1.4l0.2,0l0,0.4l-0.3,0.4l-4.4,3.5l-0.4,0.3l-2.7,1.7
	l-2.5,1.1L212.2,222.6L212.2,222.6z M208,224.6L208,224.6l-0.4,0.2l-2.8-0.6l-3.4-1.6l-1-0.5l0.2-0.7l0.2,0l3.3,1.8l3.2,0.9
	L208,224.6L208,224.6z M209.8,235.3L209.8,235.3l0.2,0l0.9,0.3l2.2,1.2l0.2,0.1l0.2,0.4l0.1,1l-2.4,0l-0.8-0.8l0,0.1l1.1-0.2
	l0.4-0.2l-0.4-0.5l-0.8-0.4L209.8,235.3L209.8,235.3z M197.4,241.7L197.4,241.7l-0.1-0.2l0.1-2.3l0.5-1.2l1.7-1.5l0.2,0l-0.7,1.3
	l-1,1.4l-0.2,1.9L197.4,241.7L197.4,241.7z M200.8,230.8L200.8,230.8l0.6,0.9l-0.1,0.2l-1,0.7l-1.2,2.2l-0.6-0.1l0.8-1.2l0.7-1.6
	l0.7-0.8L200.8,230.8L200.8,230.8z M223.1,213.8l0-0.1l-3.5,3.1l-1.3,0.4l0.8-0.9l3-2.2l0.6-0.4L223.1,213.8L223.1,213.8z
	 M216.6,223L216.6,223l-0.3-0.1l-1.6,0.5l0.1-0.6l1.5-0.8l2-0.9l0.2,0.4l-1,0.6L216.6,223L216.6,223z M214.8,224.7L214.8,224.7
	l0-0.4l0.3-0.3l1.6-1l-0.1,0l0.5,0.1l1.8-0.8l0.4,0l-0.2,0.4l-2.4,1.2L214.8,224.7L214.8,224.7z M204.3,241.8L204.3,241.8l0.2,0.6
	l0.1,1.2l0-0.1l-0.2,0.6l-0.2,1.4l-0.5,0.8l0,0l-0.2-0.4l0.2-2.1l-0.2-0.6l0,0.1l0.2-0.7L204.3,241.8L204.3,241.8z M205.2,244.9
	L205.2,244.9l0.4,0.5l-0.1,2.7l-0.2,0.5l-0.4,0.1l0.2-3.6L205.2,244.9L205.2,244.9z M200.6,227L200.6,227l0.4,0.6l-0.1,3l-0.2,0.2
	l0.1,0l-0.4-0.5l0.1-2.8L200.6,227L200.6,227z M201.4,219.8L201.4,219.8l-0.6,0.3l-2.5,0.4l-0.3-0.6l3-0.4L201.4,219.8L201.4,219.8z
	 M201.4,219.7L201.4,219.7l0.6-0.4l2.4-0.4l0.4,0.1l0.1,0.4l-1.6,0.3l-1.4,0.1L201.4,219.7L201.4,219.7z M203.7,246.3L203.7,246.3
	l0.1,0.2l-0.2,2.3l-0.3,0.3l-0.4-0.2l-0.1-0.2l0.4-1.8L203.7,246.3L203.7,246.3z M208.8,235L208.8,235l-0.4,0.1l-2.7-0.8l0-0.2
	l0.4-0.3l2.2,0.7L208.8,235L208.8,235z M200.6,227L200.6,227l-0.4-1.1l0.4-1.4l0.4,0.1l0,0.2l-0.3,1.9L200.6,227L200.6,227z
	 M198.1,236.1l0,0.8l-1.2,1L198.1,236.1L198.1,236.1z M206.2,243.9L206.2,243.9l-0.6-0.7l0,0.1l0.3-1.6l0.5-0.2l0,2.3L206.2,243.9
	L206.2,243.9z M222.1,231.7L222.1,231.7l-0.4,0.1l-1.5-1.4l-0.1-0.4l0.4,0.1L222.1,231.7L222.1,231.7z M196.3,226.2l-1.1,1.8l-0.2,0
	l-0.1-0.1l0.1-0.7l0.9-1.1L196.3,226.2L196.3,226.2z M205.1,244.9L205.1,244.9l-0.2-0.6l-0.4-0.8l0,0.1l0.3-0.3l0.8,0l0-0.1l0.3,1.1
	l0-0.1L205.1,244.9L205.1,244.9z M221.4,213.8l-0.8,0.7l-0.3-0.3l0.1-0.2L221.4,213.8L221.4,213.8z M223.4,227.9l-1.8-0.4
	L223.4,227.9L223.4,227.9z M204.3,241.8l0.1-1.4l0,0L204.3,241.8L204.3,241.8L204.3,241.8z M209.2,215.7l1.4,0l0,0L209.2,215.7
	L209.2,215.7L209.2,215.7z M224.3,231.4l-0.8-0.8L224.3,231.4L224.3,231.4z M222.1,231.6L222.1,231.6l0.2,0l0.8,0.8L222.1,231.6
	L222.1,231.6z M212.2,222.6L212.2,222.6l-1.1,0.6l0.7-0.8L212.2,222.6L212.2,222.6z M211.2,215.7L211.2,215.7l0.6-0.4l0.2,0
	l-0.2,0.4L211.2,215.7L211.2,215.7z M201.8,211.5L201.8,211.5l0-0.6l0.5-0.5l-0.1,0l0,0.6L201.8,211.5L201.8,211.5z M202.3,214.3
	l0.1-0.8l0.3-0.3L202.3,214.3L202.3,214.3z M209.8,235.4L209.8,235.4l-0.6,0l-0.4-0.4l0,0.1l0.6-0.1L209.8,235.4L209.8,235.4z
	 M204.4,240.4L204.4,240.4l-0.3-0.5l0-0.2l0.4,0.1L204.4,240.4L204.4,240.4z M226,229.2l0.7,0l0,0.1l-0.7,0L226,229.2L226,229.2z
	 M226,229.4l0-0.1l-0.4,0.2l0-0.2L226,229.4L226,229.4z M224.1,227.9l-0.8,0L224.1,227.9L224.1,227.9z M210.5,215.7l0.7,0l0,0
	L210.5,215.7L210.5,215.7L210.5,215.7z M209.2,215.7L209.2,215.7l-0.4,0.1l-0.1-0.2L209.2,215.7L209.2,215.7z M202.2,210.5l0.2-0.4
	L202.2,210.5L202.2,210.5L202.2,210.5z M205.9,244.2L205.9,244.2l0.4-0.3l-0.1,0l0.1,0.3L205.9,244.2L205.9,244.2z M219.6,176.6
	l1.2-1l1.2-0.8l1.2-0.8l0.9-2.1l1.2-0.7l0.3,0.3l-1,1.1l-0.7,1.3l-2.3,2.1l-0.8,0.3l-1.3,1.1l-1.3,0.4L219.6,176.6L219.6,176.6z
	 M228.6,176l1.1-0.1l3.4,1l2.2,0.8l-0.3,0.4l-2.5-0.5l-3.4-1.1L228.6,176L228.6,176z M233.5,175.6l0.5-0.1l3.7,0.9l0.3,0.3l-0.3,0.3
	l-4.1-1.1L233.5,175.6L233.5,175.6z M209.9,183.1l0-0.1l-0.7,0.7l-2.9,1.2l-0.2,0l-0.4-0.1l0.2-0.4l1.4-0.4l1.6-0.7l0.9-0.2
	L209.9,183.1L209.9,183.1z M239.4,175.5l-1.6,0l-0.4-0.2l-0.2-0.4l0.3-0.2l1.8,0.6L239.4,175.5L239.4,175.5z M223.7,168.7
	L223.7,168.7l0.1-0.6l0.8-0.8l-0.1,0l0,0.6L223.7,168.7L223.7,168.7z M209.9,183l0,0.1l0.5-0.4l0.2,0l-0.1,0.4L209.9,183L209.9,183z
	 M225.6,177.6l0.5,0.5L225.6,177.6L225.6,177.6z M241,174.5l0-0.2l0.1,0.1L241,174.5L241,174.5z M223.8,168.7L223.8,168.7l0,0.4
	l-0.2,0L223.8,168.7L223.8,168.7z M222.5,194.2l-0.7-0.6l-2.4-0.9l-0.2,0.5l-0.2,0l-1.4-1l-0.7,0.1l0.2,0.4l1.4,0.9l1.6,0.9l1.1,0.4
	l0.9,0.3l1.1,0.5l0.9,0.3l3,0.7l0.9-0.1l0.2-0.4l-1.9-0.3l-0.5-0.4l-0.4,0.1l0-0.2l0.4,0.2l0.4-0.5l0-0.2l-3.6-0.8l-0.2,0.1l0.4,0.5
	l0,0.2l-0.4-0.1L222.5,194.2L222.5,194.2z M224.5,195.3l-0.2,0l0.1-0.1L224.5,195.3L224.5,195.3z M226.6,193.9l-0.2,0.1l-2.1-0.4
	l-2.6-1.1l0-0.3l0.7,0l4,1.3L226.6,193.9L226.6,193.9z M224.9,192.1l-0.1-0.2l0.4-0.5l2.9,1l0,0.2l-0.4,0.2L224.9,192.1L224.9,192.1
	z M228.5,191.5l-1,0l-0.5-0.7L228.5,191.5L228.5,191.5z M201.2,172.2l0,0.1l0.8-1.2l0.2-0.1l0.5,0.1l-0.1,2.3l-0.4,0.2l-0.4-0.2
	L201.2,172.2L201.2,172.2z M211.3,155.3l0.7,0.2l0.2,0.4L212,156l-1.6,0.1l-0.4-0.2l0.5-1.8L211.3,155.3L211.3,155.3z M203.8,175.4
	l-0.2-0.4l-0.2-0.4l0-0.4l0.4-0.2l0.7-0.8l-0.4,2L203.8,175.4L203.8,175.4z M211.2,162l0.1,0.6l-0.4,0.1l-0.1-0.6L211.2,162
	L211.2,162z M207.5,167.2l0.5,0.2l-0.5,0.6L207.5,167.2L207.5,167.2z M208.9,163.4l0.1,0.4l-0.2,0.3l-0.2-0.1l-0.1-0.4L208.9,163.4
	L208.9,163.4z M205.8,163.4l0.3,0.7L205.8,163.4L205.8,163.4L205.8,163.4z M210.1,158.9l0-0.2l0.6-0.1l0,0.2l-0.4,0.2L210.1,158.9
	L210.1,158.9z M119.2,259.6L119.2,259.6l-1.1,0.9l-1.3,0.4l-0.4-0.1l0,0.1l0.2-0.2l2.2-1.3l0.2,0L119.2,259.6L119.2,259.6z
	 M115,261.5L115,261.5l0.8-0.5l0.7-0.1l0-0.1l-0.8,0.8L115,261.5L115,261.5z M113.6,262.2L113.6,262.2l0.8-0.6l0.6,0l0-0.1l-0.6,0.7
	L113.6,262.2L113.6,262.2z M113.6,262.3l-0.8,0.4L113.6,262.3L113.6,262.3L113.6,262.3z M111.9,262.8l0,0.1l-0.1-0.1L111.9,262.8
	L111.9,262.8z M234.2,230.1l0.4-0.2l1.4,0.5L234.2,230.1L234.2,230.1z M203.6,74.9l0.7,0.2l-0.4,0.6l-2.1,2.7L201,79l-0.3,0l0.8-1.7
	l1.2-1.6L203.6,74.9L203.6,74.9z M214.4,64L214.4,64l0.7,0l-0.1,0l1.4,0.4l-0.2,0.4l-0.9,0.3l0,0l-0.8,0l0.1,0l-0.7,0l0,0l-0.7,0
	l0,0l-0.3-0.7L214.4,64L214.4,64z M215,64L215,64l-0.7,0l0.1,0l-0.4-0.9l2.5-0.2l0,0.4L215,64L215,64z M213.3,65L213.3,65l0.7,0l0,0
	l0.7,0l-0.1,0l0.4,0.3l0,0l-0.6,0.4l-2.1,0.1l-0.4-0.2l0,0l0.8-0.5L213.3,65L213.3,65z M197.7,83.4L198,83l0.6-1l-0.1,2l-0.4,0.5
	l-0.2-0.7L197.7,83.4L197.7,83.4z M202,74.5l0.1-0.2l1-1l0.3-0.1l0.1,0.3l-1,1L202,74.5L202,74.5z M211.8,65.7L211.8,65.7l-0.6,0.4
	l-0.5-0.4L211.8,65.7L211.8,65.7z M211.6,74.3l0.1,0.2l0,0.2l-0.4-0.1l0-0.2L211.6,74.3L211.6,74.3z M203.9,78.7l-0.2,0.4l-0.2,0
	l-0.1-0.2l0.3-0.3L203.9,78.7L203.9,78.7z M218.2,63.9l-0.2,0.2l0-0.2L218.2,63.9L218.2,63.9z M214.9,65.4L214.9,65.4l0.4-0.3l0,0
	l0,0.5L214.9,65.4L214.9,65.4z M207.7,75l0-0.2l0.2,0l0,0.2L207.7,75L207.7,75z M198.1,71.3l0.1,0.4l-0.5,0L198.1,71.3L198.1,71.3z
	 M199.3,67.6l0,0.8L199.3,67.6L199.3,67.6z M199.3,68.2l0,0.8L199.3,68.2L199.3,68.2z M214.2,77.8L214.2,77.8l-0.1-0.3l0.1-0.1
	L214.2,77.8L214.2,77.8z M167.6,169.9l-0.5-0.5l0.1-0.9l0.9-1.1l0-0.6l-2.6,2.7l-0.3,0.7l-1,0.6l-1.8,1.6l-0.1,0.2l0.3,0l1.1-0.9
	l1.1,0l-1.4,1.5l-1,1.3l0.4-0.1l1.3-1.1L167.6,169.9L167.6,169.9z M165.9,170.4l-0.1,0.2l-0.1-0.1L165.9,170.4L165.9,170.4z
	 M170.5,178.8L170.5,178.8l0,0.2l-0.5,1.3l-1,1.6l-1.1,1.6l-0.3,0.1l0.2-1.1l0.8-1.2l0.8-1.5L170.5,178.8L170.5,178.8z M170.5,178.8
	L170.5,178.8l0-0.2l0.8-2.4l0.5-0.5l-0.1,0l0.1,0.7L170.5,178.8L170.5,178.8z M159.8,172.5L159.8,172.5l0.1,0.4l-0.6,1.8l-0.8,0.5
	l0.8-2.2L159.8,172.5L159.8,172.5z M153.7,178.3L153.7,178.3l1,0.7l-0.6,0.7l-0.8-0.9L153.7,178.3L153.7,178.3z M160.8,167
	L160.8,167l0-0.2l0.2-1.7l0.4-0.5l-0.1,0l0.1,0.2l-0.1,1.4L160.8,167L160.8,167z M160.3,170.1L160.3,170.1l-0.1-0.4l0.1-1.2l0.5-0.8
	l-0.1,0l0.1,0.2l-0.2,1.7L160.3,170.1L160.3,170.1z M166.9,181.5l0,0.1l1-1.3l0.6-0.8l-0.1,0l0.2,0.4l-0.2,0.9l-1.1,1.1l0.1,0
	L166.9,181.5L166.9,181.5z M166.9,182.9L166.9,182.9l0,0.2l-0.6,1.5L166,185l-0.3-0.1l0.5-1.2L166.9,182.9L166.9,182.9z
	 M164.2,182.2L164.2,182.2l-0.1,1.1l-0.8,0.9l0.1,0l-0.1-0.2L164.2,182.2L164.2,182.2z M166.9,181.6l0-0.1l-1.2,0.8l0.5-1.4l0.4-0.2
	L166.9,181.6L166.9,181.6z M163.6,186.7L163.6,186.7l0,0.2l-0.7,1.5l-0.2,0.1l0-0.9L163.6,186.7L163.6,186.7z M156.7,187.3l-0.5,1.7
	l-0.1,0L156.7,187.3L156.7,187.3L156.7,187.3z M160.3,170.8L160.3,170.8l0,0.9l-0.5,0.8l0,0l-0.1-0.2L160.3,170.8L160.3,170.8z
	 M156.6,185.9L156.6,185.9l0-1.1l0.3-0.2l0.1,0.4L156.6,185.9L156.6,185.9z M165.1,183.9L165.1,183.9l0,0.4l-0.9,0.7L165.1,183.9
	L165.1,183.9z M163.4,184.3L163.4,184.3l-0.1,0.6l-0.8,0.8l0.1,0l0-0.6L163.4,184.3L163.4,184.3z M156.2,181.2l0,0.4l-0.4,0.2
	l-0.1-0.4l0.3-0.3L156.2,181.2L156.2,181.2z M161.3,163.9l0.1-1.4l0,0L161.3,163.9L161.3,163.9L161.3,163.9z M169.5,177.1
	L169.5,177.1l0.1-1.1l0.3,0.5L169.5,177.1L169.5,177.1z M169.2,178.1L169.2,178.1l0,0.6l-0.8,0.8l0.1,0l0.1-0.7L169.2,178.1
	L169.2,178.1z M169.1,178.1L169.1,178.1l0-0.6l0.5-0.5l-0.1,0l0.1,0.6L169.1,178.1L169.1,178.1z M166.8,182.9L166.8,182.9l0.2-0.7
	l0.3-0.3l-0.1,0l0.1,0.6L166.8,182.9L166.8,182.9z M165,183.9L165,183.9l0.5-0.8l-0.2,0.4L165,183.9L165,183.9z M164.9,186.1
	l0.2-0.2l0.2,0l-0.1,0.3l-0.3,0.1L164.9,186.1L164.9,186.1z M163.5,186.7L163.5,186.7l0.1-0.6l0.1-0.2l0.2,0l0,0.3L163.5,186.7
	L163.5,186.7z M154.7,184.2l-0.4-0.2l0-0.2l0.3,0L154.7,184.2L154.7,184.2z M154.4,188.4l0-0.2l0.2-0.1l0.2,0l-0.1,0.3L154.4,188.4
	L154.4,188.4z M154.6,191.1l0.1,0.3l-0.3-0.1l0-0.2L154.6,191.1L154.6,191.1z M161.5,161.9l0,0.7l0,0L161.5,161.9L161.5,161.9
	L161.5,161.9z M171.7,175.1L171.7,175.1l0.1-0.4l0.1,0.1L171.7,175.1L171.7,175.1z M171.8,175.1l0,0.7l-0.1,0L171.8,175.1
	L171.8,175.1L171.8,175.1z M161.4,163.9l0,0.7l-0.1,0L161.4,163.9L161.4,163.9L161.4,163.9z M160.7,167.7l0-0.7l0.1,0L160.7,167.7
	L160.7,167.7L160.7,167.7z M160.2,170.8l0-0.7l0.1,0L160.2,170.8L160.2,170.8L160.2,170.8z M164.1,182.2l0.1-0.4l-0.1,0.2
	L164.1,182.2L164.1,182.2L164.1,182.2z M162.6,185.6l-0.2,0.4L162.6,185.6L162.6,185.6L162.6,185.6z M158.9,187.2l0.2,0l0,0.2
	l-0.2,0L158.9,187.2L158.9,187.2z M156.6,186.6l0-0.7l0.1,0L156.6,186.6L156.6,186.6L156.6,186.6z M156.7,186.6l0,0.7l-0.1,0
	L156.7,186.6L156.7,186.6L156.7,186.6z M156.2,189L156.2,189l0,0.4l-0.2,0L156.2,189L156.2,189z M149.3,165.3l1.1-1.2l-0.4,1.7
	l-0.1,0.2l-0.9,0.6l-0.5-1L149.3,165.3L149.3,165.3z M147.5,184.8L147.5,184.8l0.1,0.2l0,1.4l-0.3,0.9l-0.4-0.2l0.2-1.9L147.5,184.8
	L147.5,184.8z M143.8,181.6l0,0.8L143.8,181.6L143.8,181.6z M142.7,182.7l0-0.8L142.7,182.7L142.7,182.7z M218.2,233.3L218.2,233.3
	l0.4,0l0,0.2L218.2,233.3L218.2,233.3z M219.1,235l0.4,0l-0.2-0.1l-0.2,0.1L219.1,235L219.1,235z"/>
<path class="st0" d="M77.5,154.3l0.2-2l-1.7-1l0.2-2.6l1.1,0.3l0.5-1l1-5.7l3.4-3.5l2.6,5.8l-0.2,1.9l-0.2,1.5l0.3,1.2l0,0.8
	l-1.3,8.8l-0.2,2l-0.1,4l0,4l-0.1,2l1.6,2.7l2.8,1.8l2.3,1.6l1.9,4.4l-0.1,2l-0.5,0.6l-2-1l-6.7-7.4l-2.2-0.3l-4.6,1.3l-5.2-0.7
	l-6.1-2l-3.9-2.9l-3.7-3.4l-0.8-2l2.3-2.2l0.8-0.1l4.3,0.8l3.7,1.4l3.6,1.8l0.4-0.9l-0.7-1l-2.3-2.8l-0.7-1.9l0.2-1.9l-1.2-0.8
	l-2.3,0.4l-4.2-2.9l-1-2.4l0.3-1.5l2.1-0.8l3.5,1.4l2.7,1.5l0.1-0.7l-1.4-2l-4-5.5l-0.9-1.4l-4.9-8.7l-0.2-0.4l-3.1-5.2l-3.2-4.5
	l-3.9-1.4l-3.6-1.6l-2.9-2.1l-3.4-3.4l-1.1-1.1l-1.4-2.8l0-0.4l0.3-2.1l1.5-0.7l2.4,0.4l1.4,0.9l1.2-0.2l-1-3.8l0.4-2.9l0.6-0.9
	l1.6,0.2l2.5,2.6l0.7,0.3l0.6,1.7l0.2,0.7l0.2,0l-0.5-0.5l0.1-1l-0.6-0.7l0-2.8l-1.4-5.4l-1.7-5.4l-0.8-3.5l-0.9-2.7l-1.1-2.2
	l-1.5,0l-1.5-2.2l-0.3,0.7l0.7,2.3l1.4,1.5l-1.6,0.2l-2.2-4.2l0.3-1.9l2.3-0.9l0.3-1.7l-3.6-5.1l-3.3-4.6l-3.7-6.2l-1.2-6.2l0.2-1.4
	l1.3-1.7l2.5,0l1.6,1.2l0.6,1l1.9,3.1l1.2-1.9l2.2,0.3l1.5,1.7l2.6-2.6l0.1-5.1l0.2-1.9l-2.2-6.1l-2.4-5.6L37,36l-0.9-2.1l-0.3-3.2
	l0.2-2.9l0.9-0.9l2.2-0.2l0.5-0.6l1.4-8l1.2-1.6l1.7-0.4l1.8,1.4l0.8,2l-0.1,1.8l0.3,1.6l-0.6,6l0.2,0.3l1.5-0.1l1.1,2.1l-0.3,2
	l0.3,0.7l2.4,1.3L49.7,40l-1,1.7l-3.3,4.4l-0.8,5l-0.1,5.9l0.5,2.3l3.5,0.4l-0.6,5.6l1.2,1.1l0.5,2.7L49.4,70l-1.4,4.1l-1.2,1.8
	l-1.4,1.3L45,77.9l-0.7,1.9L44,82.8L43.2,84L43,85.8l0.6,4l1,3.5l1,3.9l0.9,3.9l0.9,3.9l1,3l0.6,2.3l1.2,0.9l0.4-0.1l1.6-1.9
	l0.3-1.9l-0.1-0.4l-1.1,0.1l-0.2-2.6l-0.7-0.5l-0.6,1.1l-0.8-0.3l0.4-2.7l1.8-0.3l2.2,3.5l1.2-1l0.8-0.1l0.5,0.1l1.4,1.8l0.7,2.4
	l-0.1,1.2l-1.1,6l-0.5,1.5l-0.9,2.7l-0.8,4.7l-0.8,1l2.8,5.7l4,4.6l0.9,3.1l7.6,10.5l1.1-2.8l0.9-0.7l1.6,1.3l0.5,3.1l-0.9,0.5
	l-0.3-0.2l-0.2-1.5l-0.2-0.4l-0.5,0.3l-0.9,2.1l0.2,2.4l0.4,0.9l0.6-1.5l2.2-0.9l1.4,0.8l1.5,0.5l1.2,1l0.2,0.7l0.3-0.2L77.5,154.3
	L77.5,154.3z M51.6,117.2l0.1-1l-0.6-0.7l0-2.2l-0.4,1.7l0.5,0.4l-0.1,1l0.6,0.7l-0.1,1.1l0.6,0.7l0.9,3.4l0.1-3.1l-1.1-0.3l0.1-1.1
	L51.6,117.2L51.6,117.2z M80.2,167.8l0-1.5l-3.5-9.6l-1.1-0.3l-0.3-0.6l-0.1,0.2l0.5,0.3l-0.1,1.2l2.9,7.8l1.5,2.3l0.4,0.1l0.2,0.7
	l0.3-0.2L80.2,167.8L80.2,167.8z M42.5,37.8l0.6-0.3L43,37.3L42.6,38l-1.9-0.5l-0.9-2.3l-0.3-4.9l-1.7-1.8l-0.7,3l4.1,11.7l0.5-0.4
	l-0.2-2l0.6-2.2L42.5,37.8L42.5,37.8z M28.4,55.2l-0.7,4.2l0.8,2.3l4.2,6.8l4.3,5.8l2.4,1.5l1-0.5l-1.6-4l-1.4-4l-2-1.4l-2.6-5.9
	l-3.3-4.5L28.4,55.2L28.4,55.2z M77.9,174.5l0.2-1l-6-3.1l-3.2-1.7l-2.9-1.3l-3.3-1.5l-3.5-0.6l-0.7,0.4l-0.2,0.8l3.5,3.8l2.3,1.6
	l2.5,1.2l1.5,0.5l3.8,1.1L75,175L77.9,174.5L77.9,174.5z M48.1,120.4l-1.8-1.5l-3.8-3.5l-5.3-3.7l-1.1-0.3l-0.7,0.4l-0.1,1.2
	l3.2,4.1l2.7,2.4l3,2l3.5,1.6l2.4-0.5l0.4-0.1l0.3-0.7l-0.8-1.3l-1.1-0.1L48.1,120.4L48.1,120.4z M83.1,144.9l-1.5-3.9l-1,0.3
	l-1.6,9.1l0.4,1.6l1.1,7.1l-0.6,1l0.4,2.7l0.7,0.8l0.7-1.1l-0.2-2.1l1.1-7.5l0.3-3.2l0.1-2.3L83.1,144.9L83.1,144.9z M42.5,36.1
	l0.3-0.3L45,21.6l-1.3-3.8l-1,0.2l-1.1,6l-0.4,3.6l0.2,2.8L42.5,36.1L42.5,36.1z M45.7,61.5l-2.3,4.1l-0.8,3.1l0.1,2.4l-0.2,2.4
	l0.3,4l0.2,0.3l1.6-2.1l1.7-1.6l0.5-2l0.9-2.2l-0.7-0.7l-0.6,0.4L46,71.4L45.4,72l-0.7,0.3l-0.3-0.6l1.7-6.1l0.6-3.5l-0.2-0.4
	L45.7,61.5L45.7,61.5z M41.8,105.3l-0.6,0.3l-0.1,2l2.4,5.5l4.5,5.1l0.7,0l0-0.3l-2.4-4.6l-1.3-2.9L41.8,105.3L41.8,105.3z
	 M54.4,106.4l-1.2,2.8l-0.2,2.3l1,4.2l0.7,0.9l0.3-0.2l1.1-4l0.6-0.9l-0.3-1.8l-0.1-2.2l-0.7-1.1L54.4,106.4L54.4,106.4z
	 M78.8,170.5l-5.9-7.4l-2.6-1.8l-1,0.4l3.2,4l3.5,3.3l2.3,1.5L78.8,170.5L78.8,170.5z M44.3,42.4l0.9,0.8l3.7-4.5l0.2-2.8l-1,0.4
	l-1.8,2.6l-1.5,0.7L44.3,42.4L44.3,42.4z M38.6,66.6l0.9,2.6l0.9,0.6l1.1-6.7l-0.1-1.2l0.6-1.4l-1.1-2.1L40,63.9l0.2,1.9L38.6,66.6
	L38.6,66.6z M38.7,64.8l-2.1-6.5l-1.3,0.9l0.2,1.2l1.7,4.8l0.8,0.2L38.7,64.8L38.7,64.8z M64.2,153.8l-3.3-1.1l-0.4,0.8l1.5,2
	l2.1,1.4l3.4,0l-1.7-1.8L64.2,153.8L64.2,153.8z M71.8,160.2l3.1,2.3l0.5-0.4l-1-3l-0.5-0.4l-1.9,0.6L71.8,160.2L71.8,160.2z
	 M46.5,31.5l-1.8,4.7l0.9,1.1L46.5,31.5L46.5,31.5z M73.5,156.3l-0.2,0.2l0.2,0.1L73.5,156.3L73.5,156.3z M71.9,97.3l-0.3-4l1.4-2.1
	l1,0.6l1.7,2.1l0.3-0.4l0.7-4.1l-0.4-1.5l2-11.9l-0.9-3l-1.1-3.5L76,68.7l-0.7-4.7l-0.3-3.6l0.3-2.4l2.4-2l2.9,1.5l1.4,3.2L82,63.2
	l1,0.6l2-4.3l0.1-0.8L85,55.9l1.5-5.4l0.4-1.1l1.2-3.3l5.3-5.4l1.5,1l0.1,1.1l-0.6,4l-1.5,2.9l-1.5,2.8l-1.8,3.1L88,58.4l-1.4,2.7
	l1.5,0.7l0.7,1.1l-0.7,2l-0.9,2.2l-0.7,1.9l1,1.6l-0.1,2.5l-1.8,2.3l-4.6,2.8l-0.6,1.4l-1.7,1.5l-1.4,9l0.3,1.5l-0.5,4.8l0.5,3.2
	l0.4,0.3l2,0.5l1.6,1.7l1.9,0.4l0.5,0.8l0.2,4.8l0.1,2.4l-0.5,1.5l-0.4,6l0.1,1.6l0.1,3l1.8,5.6l0.9,3.9l0.6,2l1.4,2.3l1.7,2.3
	l2,2.5l1.9,2l2,2.1l0,0.6l-1.1,0l-0.6-0.5l-0.8-0.5l-1.9-2.4l-2.2-2.4l-2.9-4.3l-0.6-1.5l-4.2-5.2L80,127l-5.3-7.5l-3.7-7.1l-1.2-3
	l-0.3-1.2l-1-2.6l-0.4-2.8l-0.2-1.2L68,99l1.9-1.5L71.9,97.3L71.9,97.3z M76.9,113.9l-0.1,1.2l0.9,1.2L78,116l-0.9-2l-0.4-0.1
	l-0.1-1.4L76.9,113.9L76.9,113.9z M82.2,71.5l-0.7,0.2l0.2,0.3l0.4-0.6l0.4,0l3.4-4.4l0.6-2.3l-0.4-0.5l-1.9,1.3l-1.5,2.5L82.2,71.5
	L82.2,71.5z M81.3,126.2l0.1-1.2l-2.2-4.1l-0.8-0.9l-2.9-3.1l-0.1-1.6l-0.9-2.7l0.4-2.4l1-1.7l-0.2-0.8l-3-6.9l-1.4-1.9L70,99.1
	l-1.1,3l1,4.1l0.2,0.8l1.8,4.4l2,3.9l1.2,1.6l0.4,0.1l-0.1,1.1l1.5,2.8l2.6,3.7L81,126l0.4,0.1l0.2,0.7l0.2-0.2L81.3,126.2
	L81.3,126.2z M81.8,118.1l0.8-5.1l-0.2-0.4l-1.5-0.5l-0.8-2.3l0.5-4.3l-1.5-3.2l-0.5,0.6l0.1,6.3l2.8,8.7l0.4,0.1l0.1,1.5
	L81.8,118.1L81.8,118.1z M79.4,72.2l1.3-7.4l-1-6l-0.8-0.9L77,58.2l-0.3,2.7l0.3,3.6l0.7,3.9l1.1,3.4L79.4,72.2L79.4,72.2z
	 M87.6,52.6l-0.8,1.6l0.1,0.8l0.8,0.6l5.1-9.2l0.3-3L92.9,43l-3.3,3.2L87.6,52.6L87.6,52.6z M76.4,104.5l0.2-0.3l-0.3-3.1l-0.9-1.2
	l-0.8,0l-0.3,0.6l1.9,3.9L76.4,104.5L76.4,104.5z M73.3,94l-0.4,0.4l1.2,4.2l0.5-1l-0.8-3L73.3,94L73.3,94z M83.5,74l2.1-0.8
	L85.6,73l-0.3-0.2L83.5,74L83.5,74z M82.3,108.2l0.3-2.8L82.3,108.2L82.3,108.2z M37.3,93.1l-1.6,1.4l-0.1,1.4l2,1.9l2-1.7l-0.8-2
	L37.3,93.1L37.3,93.1z M81.4,98.2l0.6-0.9l0.2-3.4l-0.4-0.8l-0.3-0.3L80.3,93l0,1.5l0.4,1l0,2.4L81.4,98.2L81.4,98.2z M63.1,162.9
	l3.3-0.5l0.4-2.7l-0.2-0.3l-0.6,0l-2.8,3.2L63.1,162.9L63.1,162.9z M48.9,92.5l-1.5,1.5l1.3,0.7l1-1L48.9,92.5L48.9,92.5z
	 M50.8,137.9l0.6,1l0.9-0.1l-0.2-1.5l-0.7-0.3l-0.5,0.5L50.8,137.9L50.8,137.9z M71.6,84.4l1-0.1l0.1-0.4l-0.6-0.7l-0.8,0.6
	L71.6,84.4L71.6,84.4z M82.8,53.8l0,0.3l0.4,0.6l0.9-0.2L84,53.1L82.8,53.8L82.8,53.8z M75.7,143.6l-1.2,0.7l0.5,0.4l0.8-0.5
	L75.7,143.6L75.7,143.6z"/>
</svg>
