<?xml version="1.0" encoding="utf-8"?>
<!-- Generator: Adobe Illustrator 23.0.1, SVG Export Plug-In . SVG Version: 6.00 Build 0)  -->
<svg version="1.1" id="Layer_1" xmlns="http://www.w3.org/2000/svg" xmlns:xlink="http://www.w3.org/1999/xlink" x="0px" y="0px"
	 viewBox="0 0 300 300" style="enable-background:new 0 0 300 300;" xml:space="preserve">
<style type="text/css">
	.st0{fill:#294D5D;}
</style>
<path class="st0" d="M3.6,141.3l1.7-5.2l0.2-1.2l0.7-4.3L7,128l0.9-2.6l0.3-0.8l1.5-4l2.3-5.3l0.3-0.8l3.1-8l1.1-2.8l0.4-0.8
	l0.8-1.7l0.9-1.9l0.3-0.5l1.6-3.6l1.8-3.2l2.3-5l0.5-0.8l1.1-1.8l0.9-1.9l1.1-1.8l2.3-4.3l2-3.4l2.2-3.3l1.8-2.4l1.6-2.3l1.4-1.6
	l1.2-1.4l1.3-1.7l1.1-1.5l1.2-1.4l0.8-0.9l2.6-3l0.4-0.8l1.9-1.6l1.6-1.9l2.7-2.9l1.5-1.7l2.3-1.9l1.3-1.3l0.9-0.9l4.1-3.2l6.1-4.6
	l0.5-0.8l2.2-1.6l2.5-1.7l6.1-4.3l1.3-0.4l1.6-1.1l2.9-1.6l2.1-1.3l2.2-1.1l1.3-0.8l2.1-1.3l2.2-1l2.2-0.9l2.3-0.9l2.3-0.9l2-0.7
	l2.3-0.8l2.2-1l1.1-0.5l6.6-2.3l0.6-0.2l4.7-1.4l5-1.5l3.6-0.6l3.7-0.4l3.7,0l3.7,0.1l2.4,0.2l2.1,0.3l4.2,0.7L153,5l6,1.3l3.3,0.9
	l2.6,0.9l4.7,2.2l4.1,2.1l3.7,2.1l3.3,2.2l2.1,1.8l1.7,1.7l2.2,2.1l1.9,2.1l0.9,0.5l5.8,7.3l1,0.6l1.5,2l0.7,1.4l1.1,1l1.1,1.8
	l1.8,2.4l0.8,1.2l0.8,0.6l0.4,1.3l2.4,3.3l2.5,3.5l1.2,2.1l1.4,2.1l1.5,2.7l0.3,0.5l1.7,2.9l1.5,2.7l1.6,3l1.8,2.5l0.4,2.4l2.2,3.2
	l0.3,1.1l1,1.5l2.3,3.9l0.5,0.8l1.2,2.5l0.8,1.2l1.6,0.4l0.4,1.1l0.3,0.1l1.8-2.1l1.9-2.4l1.6-2.2l2.3-3.2l1.3-1.2l1.9-2.4l1.1-1.8
	l1.3-2.4l1.4-5l-1.2-2l-0.2-1.5l0.2-0.4l2.5-1.7l2.6-0.7l2.5-2l3-3l3.8-2.6l0.9,0.3l0.2,0.7l-1.1,2.1l-1,2.3l-0.2,3.6l-0.1,2.1
	l-0.5,2.7l-0.8,2.6l-3.8,8.1l-3.3,3.5l-0.5,0.7l-2.7,3.3l-1.3,1.7l-1.4,1.6l-0.9,0.8l-4.1,3.3l-0.5,0.7l-0.9,0.3l-1.1,0.8l0.2,0.9
	l0.8,0.5l0.2,1.3l1.9,2.3l1.1,0.6l5.3,4.5l1,0.7l3.3,3.2l1.9,1.5l1.8,1.6l1.6,2l3.1,2.3l4.3,3.4l1.7,1.3l0.4,0.4l3.8,4l0.6,0.7
	l1.1,0.7l1.6,2.2l2.4,2.4l1.2,2l0.9,0.8l0.7,1l1.2,2.1l3.9,5.2l3.3,4.4l0.4,1.3l5.2,7.3l0.9,1.6l1.7,3.9l1.2,3.1l1,2.5l0.9,2.6
	l1.4,5.3l1.2,4.1l0.3,0.9l0.3,3l0.2,3.1l0,1.2l0.3,1.8l0,1.8l0,1.8l0.1,1.8l0,2.8l-0.6,3.9l-1.4,5.3L297,208l-1.6,4l-1.8,3.6
	l-1.9,3.2l-2.6,4.5l-2.6,3.8l-1.7,2.2l-1.7,2.1l-0.9,1.2l-1.6,2.2l-1.6,2.3l-2.8,3.2l-0.5,0.4l-3.3,3.2l-1.7,1.7l-0.9,0.8l-4.9,3.8
	l-5.4,4.1l-0.4,0.4l-2.7,2.5l-7.3,5.4l-1,0.3l-2.3,1.5l-1.6,0.8l-1.6,0.9l-1.2,0.9l-1.5,1.1l-0.9,0.6l-2.4,0.5l-0.9,0.5l-3,1.4
	l-1.7,0.7l-1.7,0.7l-2,0.8l-1.7,0.8l-2.5,1.1l-2.6,0.9l-3.1,1.2l-2.6,0.9l-5,1.5l-3.5,1.2l-3.5,0.9l-2.3,0.7l-2.3,0.7l-4.1,1.1
	l-4.1,1.3l-3.5,0.9l-3.2,1l-1.5,0.4l-5,1.2l-5,1.2l-5.3,1.3l-2.9,0.8l-0.9,0.1l-4.5,0.9l-0.9,0.1l-10,1.6l-3.6,0.6l-4,0.4l-6.1,0.3
	l-4.6-0.1l-6.1-0.3l-3.1,0l-4.3,0.1l-1.8-0.1l-4.6-0.2l-9.7-1.6l-0.9-0.2l-4.7-1.3l-1.7-0.7l-3.8-2l-3-2.1l-2.6-2.1l-1.7-1.3
	l-1.4-1.6l-0.5-0.4l-1.8-1.6l-0.6-0.7l-3.3-3.7l-0.5-1.4l-1.2-1.6l-2.6-1.4l-3.6-2.9l-2-1.4l-0.9-0.3l-0.2-1.3l-2.3-3.1l-2.7-2
	l-2.4-1.9l-2.4-2.3l-2.1-2.3l-0.9-0.5l-2.5-3l-0.8-0.5l-2.5-3l-3.5-3.9l-0.5-1.4l-1.1-2.5l-1.2-2.8l-0.6-2.5l-1.5-1.3l-1.4-1.2
	l-1.4-1.2l-3.6-3.8l-3.6-5l-1.4-2.4l-1.4-2.4l-0.3-1.3l-1.5-2.1l-1.4-3.8l-1.2-2.5l-0.8-1.7l-0.5-2.2l-1.9-2.5l-0.9-0.6l-8.2-10.9
	l-0.5-1.3l-2-4.1l-1.7-5.9l-1.1-4.8l-0.3-2.4L0.1,168l0-3.7l-0.2-3.4l0.1-1.5l0.4-2.1l0.2-1.8l0.3-2.1l1.1-7.9l1.4-3.7L3.6,141.3
	L3.6,141.3z M45.5,217.9l-0.5-0.2l0,0.3L45.5,217.9l0.4,0.2l0.2,0l-0.2-0.4L45.5,217.9L45.5,217.9z M71.1,269.5l0.3-0.4l-0.3-0.1
	l0.1,0.5l-0.2,0.4l0.2,0L71.1,269.5L71.1,269.5z M130.2,293.7l0.5,0.3l0.1-0.2l-0.5,0.1l-0.5-0.2l0,0.2L130.2,293.7L130.2,293.7z
	 M39.6,219.3l-0.9-0.1l-0.6-0.7l-2.8-1.3l-9.3-3.8l-0.4-1.9l1.5,1.3l3.5,1.8l4.3,1.1l0.2-0.2l0.5,0.6l0.7,0l0.9,0.7l-0.9-0.6
	l-0.5-0.6l-0.7,0l-0.6-0.7l-3.5-1.9l-2.5-1.2l-3-1.5l-2.7-2l-3-2.5l-0.5-0.3l-0.5,0.2l0,0.3l1.4,2l2.4,1.9l-0.3,0.7l-0.5-0.3
	l-0.5-0.4l-0.8,0.1l0,0.6l1.2,1.8l1,2.2l0.6,0.3l3.5,1.8l6.4,2.1l1.2,0.3l3.7,0.5l0.6-0.2l0.9,0.1l0.5,0.2l0-0.2L39.6,219.3
	L39.6,219.3z M213.4,108l0.9,0.1l0.3,0.4l0.9,0.2l0.9,0.1l0.9,0.1l0.9,0.1l0.9,0.1l0.9,0.1l0.4,0.2l0-0.2l-0.5,0.1l-0.9-0.1
	l-0.9-0.1l-0.9-0.1l-0.9-0.1l-0.9-0.1l-1.2-0.6l-0.9-0.1l-0.5-0.3l0,0.2L213.4,108L213.4,108z M224.5,110.4l0.4,0.3l0-0.2l-0.5,0.1
	l-0.5-0.2l0,0.2L224.5,110.4L224.5,110.4z M213,92.1l-0.3,0.5l0.4,0L213,92.1l0.2-0.4l-0.4-0.1L213,92.1L213,92.1z M246.1,112.6
	l0.9,0.1l0.5,0.3l0.1-0.2l-0.5,0.1l-0.9-0.1l-0.6-0.1l0.1,0.2L246.1,112.6L246.1,112.6z M259.5,118l0.2,0.2l0.2,0l-0.5,0l-0.5-0.3
	l0,0.2L259.5,118L259.5,118z M65.2,255.5l0.2-0.4l-0.2,0L65.2,255.5l-0.6,0.5l0,0.3l0.4,0.1L65.2,255.5L65.2,255.5z M143.8,294.3
	l0.8,0.1l0.2-0.5l-0.3,0l-0.7,0.5l-0.9-0.2l-0.4-0.3l-0.9,0l0.8,0.6l0.5-0.4L143.8,294.3L143.8,294.3z M28.6,83.4l1-0.4l-1,0.5
	l-0.4-0.2l0,0.2L28.6,83.4L28.6,83.4z M30.1,81.6l-1,0.3l1-0.4l0.5,0.2l0-0.2L30.1,81.6L30.1,81.6z M54.6,48.6l-1,0.3l1-0.5l0.5,0.2
	l0-0.2L54.6,48.6L54.6,48.6z M81.5,26.7l1.3-0.2l0.7,0.2l0.3-0.5l-0.3,0l-0.8,0.4l-0.7-0.2l-0.7,0.5L81,26.6L81,26.9L81.5,26.7
	L81.5,26.7z M99.2,16.5l1.3-0.2l0.9,0.7l1-1.1l-1.9,0.4l-0.9-0.1l-0.4,0.3l-0.4-0.2l-0.1,0.2L99.2,16.5L99.2,16.5z M103.4,14.9
	l0.9,0.1l0-0.5l-0.3,0L103.4,14.9l-0.6,0.1L103.4,14.9L103.4,14.9z M142.6,5.6l-0.3-0.5L141.3,5l-0.4-0.2l-0.1,0.2h0.6l0.3,0.5
	L142.6,5.6l0.5,0.2l0-0.2L142.6,5.6L142.6,5.6z M84.8,25l1,0.4l0.3-0.3l-0.4-0.4l-0.3,0l-0.7,0.4l-0.5-0.2l0,0.2L84.8,25L84.8,25z
	 M74.1,32.4l-0.3-0.2l-1.3,0.9l1.6-0.9l0.5,0.2l0.1-0.2L74.1,32.4L74.1,32.4z M69.5,265.3l0.2-0.5l-0.2,0l0.1,0.5l-0.7,0.5l0.6,0.8
	l0.2-0.9L69.5,265.3L69.5,265.3z M282.9,145.2l0.2-0.4l-0.4-0.1L282.9,145.2l-0.7,0.5l0.6,0.9l0.3-0.8L282.9,145.2L282.9,145.2z
	 M90.6,21.4l0.2,0.2l1.4,0l0.4-0.5L91.4,21l-0.8,0.5l-0.8-0.1l-0.2,0.4h0.3L90.6,21.4L90.6,21.4z M93.7,290.3l0.6,0.7l1.1,0.2
	l0.1-0.4l-1.5-0.6L93.7,290.3l-1.9-0.8l-0.2,0.1l-0.8-0.9l-1.7-0.3l-0.9-0.8l0.9,0.6l0.7,0.9l1.7,0.4L93.7,290.3L93.7,290.3z
	 M253.1,58.2l-0.3,0.4l0.2,0l-0.1-0.5l2.2-2l-0.3,0l-1.9,1.5L253.1,58.2L253.1,58.2z M97.3,18l0.5,0.7l1.5-0.9L97.3,18l-0.8-0.1
	l-0.2,0.5l0.3,0L97.3,18L97.3,18z M75.2,30.7l0.2,0.2l2-0.3l0.7-0.9l-2.9,1.1l-0.4-0.2l0,0.2L75.2,30.7L75.2,30.7z M136.1,5l0.9,0.7
	l1.5,0.3l0.6-0.1l0.5,0.2l0-0.2L139,6l-0.9-0.8L136.3,5L136,5.1l-0.4-0.2l0,0.2L136.1,5L136.1,5z M20.6,204.3l-0.2-1.3l-0.2-0.3
	l-0.2-0.2l-0.5-0.1l-0.4,0.7l1.2,1.3L20.6,204.3l1.6,1.8L23,206l0-0.3l-1.6-1.4L20.6,204.3L20.6,204.3z M127.3,7.8l-0.6-0.6
	l-2.1-0.3l-0.4,0.4l0.2,0.2l2.7,0.4L127.3,7.8l0.4,0.2l0.1-0.3L127.3,7.8L127.3,7.8z M275.8,135.8l0.4,0.8l-0.4,2l0.5-0.2l0.7-1.6
	l-0.7-1l-0.5,0.1l-0.6-0.6l-1.3,1l0.7,0.5L275.8,135.8L275.8,135.8z M249.1,113.5l0.9,1.2l2,0.4l0.5-0.2l0.5,0.6l0.7,0l1.5,1.3
	l1.9,0.7l0.3-0.1l0.5,0.3l0-0.2l-0.5,0.1l-0.8-1.1l-2.3-0.9l-0.5,0.1l-0.5-0.6l-0.7,0l-0.4-0.5l-2.4-1L249.1,113.5l-0.6-0.1l0.1,0.2
	L249.1,113.5L249.1,113.5z M89.5,23.1L89,22.8l-2.7,0.5l-0.2,0.4l2.2,0.2L89.5,23.1l0.5,0.1l0-0.2L89.5,23.1L89.5,23.1z M131.4,7.1
	l-0.5-0.7L128.1,6l-0.3,0.4l0.2,0.2l2.6,0.8L131.4,7.1l0.5,0.2l0-0.3L131.4,7.1L131.4,7.1z M8.7,133.9l-1.6,0.6l0,1.1l1.4-0.1
	l0.1-1.6l0.7-0.5l0.2-1.2L9,131.6l-1.8,1.3l0.7,0.6L8.7,133.9L8.7,133.9z M238.7,81.3l2.7-2.3l-1.1-0.3l-0.9,0.7l-0.7,1.6l0.1,0.3
	l-2.4,2.7l0.1,0.5l-2.7,2.3l2-0.5l0.8-1.2l-0.2-0.6l2-1.3l0.6-0.6l0.1-0.5L238.7,81.3L238.7,81.3z M280.9,230.7l-1.7,1.5l0.6,1
	l1.1-0.4l0.4-1.5l-0.5-0.7l1.3-0.2l1.8-2.4l-0.5-0.6l-0.9,1.1l-1.6,1.3L280.9,230.7L280.9,230.7z M57.9,227.1l-0.2,0.5l0.2,0
	l-0.1-0.5l2.3-1.8l0.8-1.2l1.2-1.2l-0.4-0.2l-1.5,1.1l-0.4,0.4l-1.9,2.3L57.9,227.1L57.9,227.1z M154.6,292.4l-1-1.2l-1.1,1l-1-0.5
	l-0.5,1.6l2.9-0.5L154.6,292.4l0.4,0.3l0.9,0l0.1-0.5l-0.9-0.8L154.6,292.4L154.6,292.4z M246,70.4l-0.1,0.5l0.2-0.1L246,70.4
	l1.3-1.5l0.4-2.5l0.9-1.4l-1.6,0.9l-1.1,4.3L246,70.4L246,70.4z M293.7,208.8l-0.7,0.6l-0.4,2.1l1.4,0.1l0.9-1.8l-1.4-1l0.9-0.1
	l1.5-0.9l0.2-1.7l1.3-3.6l0.2-1.5l-0.2-0.5l0.7-0.6l0.8-4.8l0-3.9l-1-0.3l-1.1,1.4l0.5,1.1l0.1,1.8l-0.8,0.9l-0.1,1.1l0.5,0.9
	l-0.4,1.2l1,1.3l-0.9,0.1l-1,0.7l0,2l-0.7,1.8l1.4,0.9l-1.2,0.2L293.7,208.8L293.7,208.8z M232.2,99.2l0.4,0.4l4.9,0.1l0.3-1
	l-0.7-0.7l-2,0.6l-2.1,0.2l-0.8,0.5l-0.5-0.2l0,0.2L232.2,99.2L232.2,99.2z M207.7,277.8l1.1,1.2l3.9-1.2l0.1-2l-1.5,0.1l-0.5,1.5
	l-0.9-1.1l-1.3,0.2l-1,1.4l-0.6-0.6l-1.2,0.4l-0.7,1.5l0.3,0.5l0.5,0l1.6-0.7l-0.1-0.9L207.7,277.8L207.7,277.8z M2.8,171.4l0.3-1.4
	l-0.9-0.8l0.3-1.1l-1.3-0.6l0.6,3.4l1.1,0.4l-1,2.7l1.1,4.7l1.1,3.4l0.3,0.1l0.5-0.3l0.1-0.3l-1.7-9.2L2.8,171.4L2.8,171.4z
	 M164.1,290.6l0.2,0.2l6.7-1.5l0.5-2l1.3,1.6l0.8-0.2l-0.5-1.3l-0.8-0.3l-0.3,0l-0.5,0.2l-0.2-0.2l-3,1l0.1,0l-0.5-0.2l-3.3,0.8
	l0.1,1.2L164.1,290.6l-1.2-1.1l-0.5,0.7l-1.1-0.5L160,291l-1.2-0.9l-2.1,0.5l-0.1,1.4l0.8,0.4l5.6-1L164.1,290.6L164.1,290.6z
	 M37,70.3l-0.8-0.1l-0.9,0.7l-1.8,2.8l-1.3,2.4l-1.9,3.5l1.2,0.2l0.7-0.7l1-1.9l1.5-3l1.1-1.8l0.7-1.9l0.5-0.5l0.4,0.2l0-0.2
	L37,70.3L37,70.3z M202,280.7l-0.4-0.8l0.3-1.1l-1.2,0l-0.4,1.1l-0.2,0.1l-2.5,0l-0.8,0.6l-1.5-0.2l-1.1,0.5l-0.6,1.1l-0.5,0.1
	l-0.1-0.6l-1.1-0.2l-0.6,1l-0.6-0.1l-0.7-0.3l-1.6,1.4l-0.5,0.7l-0.3,0l-0.2-0.9l-0.7-0.4l-1.4,2.4l0.4,0.3l1.3-0.4l1.6,0l2.2-1
	l2.1-0.5l2.6-0.9l2.6-0.8l2.7-0.6l1-0.7l0.2,0.2l1.8-0.3l0.3-0.2l0-0.8l0.3-1.1l-1.5,0l-0.5,1.7L202,280.7L202,280.7z M269,242.7
	l0-0.1l-3.6,3.2l1.4,1.5l3.3-2.6l1.2-1.2l1.1-1.1l1.4-1.2l1.1-0.9l1.6-2l0.5-1.1l-0.3-1.2l0.5,0.1l0.6,0.2l0.5-0.3l1.1-1.9l-0.5-0.9
	l-1.3,0.6l-1.3,1.7l-2.1,2.5l0.3,0.9l-0.7,0.3l-0.8-0.3l-0.5,1.2l0.4,0.8l-0.5,0.5l-1.4-0.9l-1.6,1l-0.4,0.5L269,242.7L269,242.7z
	 M256,114.6l-1-1.2l-1.7-0.5l-2.2-1.7l-2.9-1.7l-1.4-0.7l-0.6-0.2l-2-0.6l-2.1-0.4l-2-0.6l-1.5-0.2l-5.5-0.1l-0.3,0l-0.7-0.5
	l0.4-0.6l3.1,0l6.1,0.8l1.4,0.5l5.6,1.6l-0.7-1.3l-2.8-1.7l-1.7-0.7l-2-0.6l-1.8-0.3l-5.5-0.4l-5.4,0.9l-1.1-0.2l0.8-0.8l2.4-0.5
	l6-0.5l6,1.1l0.3,0l0.1-0.5l-2.5-1.8l-1,0.2l-6.1-0.3l-3.3,0.4l-6,1.4l-2.3,0.8l0,0.5l1.7,0L223,105l1.5,0.4l0.3,1.3l6.4,1.1
	l4.6,0.7l4.8,1.1l0.9,0.2l2.6,0.7l2.6,0.9l1.5,0.5l5.4,2l2,0.8l0.5-0.2l0.5,0.3l0-0.3L256,114.6L256,114.6z M33.7,226.7l1,0.1
	l0.4-0.3l1,0.6l-0.8,0.8l-2.7,0.2l-0.4,0.3l0.8,1.2l2.6,2.1l1.3,1.3l1.7,1.2l0.6,1.1l-0.5,0.9l0.5,1.9l0.9,0.7l1-1.1l0.8-0.9
	l0.6-0.1l0.4,0.5l-1,1.5l-0.9,1.5l-0.9-0.3l0.9,2.7l1.3,1.7l3.4,3.5l0,0l1.3,1.7l0.5,0l0.1-0.6l0.9-6.3L50,237l-0.1-0.5l-1.6,0.8
	l-2.6,0.2l-1.2-0.7l-0.4-1.7l0.6-3.1l1.1-3.1l-0.4-0.6l-2.3-0.4l-0.4-0.5l0.1-2.5l-3.3-0.6l-0.6-0.7l-0.3-1l-4.9,0.9l-2.7-0.3
	l-0.4-0.7l0.2-0.1l6.4-0.5l2.7,0l2.3-0.8l0.3-0.6l-0.9,0l-3.4,0L35,220l-2.4-0.6l-2-0.6l-6.7-2.3l0.8,2l2,0.8l2.4,0.6l-0.5,0.6
	l-2.6-0.1l0.4,0.8l1.1,2.2l1.4,1.3l1.5,2L33.7,226.7L33.7,226.7z M207.6,52.2l0.2-0.5l-1.4-1.6l1.3,2.1l-0.2,0.5l0.4,0.8l0.6,1.4
	l0.8,1.6l0.7,2l0.3,0.9l1.4,4.3l0.7,2.3l0.5,3.9l1,7.6l0.2,2.1l0.3,7l0.1,3.4l-0.2,3.7l0,0.6l-0.2,1.8l-0.4,1.8l-0.6,3l0.2,0.5
	l1.5-1.1l-0.1-1.2l1.4-10.4l0.3-7.6l-0.3-3.7l-0.4-3.6l-0.3-1.4l0.2-0.6l0.7,0.3l0.3,1.5l0.9,6.3l0,2.8l0,2.7l-0.1,3.1l-0.9,6.4
	l-0.3,3.4l0.2,0.5l0.8-0.3l1.6-1.8l1.2-0.2l0.4-0.2l1.3-2.2l0.9,0.2l-0.1,1.2l-1.3,1.3l1,0.3l0.5-0.8l2.4-1.9l2.3-2.4l1.3-1.2
	l0.3-0.6l0.1-0.3l-0.6-0.9l-0.6,0.6l-0.9-0.1l0.7-1.8l-1.1-2.5l-0.7-0.7l-0.5,0.8l-0.4,2.7l-1.2,2.1l-1.5,2.3l-1.5,1l0.3-1.4
	l1.6-2.2l1.5-2.9l0-6.2l-1.7-2.4l-1.4-2.4l-0.2,1.2l0.3,4.9l-0.1,1.8l-0.8,0.4l-0.7-8.2l-0.6-4.1l-1.7-2.7l-1.4-2.7l-0.4-0.8l-1-2.2
	l-0.4-0.8l-1.1-2.2l-2-2.7l-0.8-1.3L207.6,52.2L207.6,52.2z M58.9,232.5l-0.2,0.4l0.1,0.1L58.9,232.5l0.6-0.6l1.6-2.6l0.6-0.1
	l-1.7,3.5l-0.3,1.4l-0.8,0.1l0.1,0.4l0.7,0.3l0.7-0.6l1.3-2.1l1.7-2.1l0.4-0.5l1.3-0.8L65,230l-1.3,1.2l-0.3,1.5l-0.9,0.2l-2.1,3.4
	l0,2.2l0.9,1.4l0.3,0.2l0.3,1l0.3,1.7l1.1,1.9l0.1,1.8l1.7,3.9l0.5,1.4l0.6,1.7l1.1,2.5l0.5,1.1l1.2,2.4l0.5,2.2l1.2,2.4l1,2.2
	l1.2,2.5l0.3,1.1l1.3,1.7l0.7,0.6l0.5,0.7l0.6,1.1l4.8,6.4l3.1,3.1l1,0.6l3.6,2.1L90,287l1.6,0.9l1.7,0.7l7,2.7l1,0l1.5,0.4l1.5,0.2
	l1.2,0.1l1.2,0.4l3.1,0.1l0.6-0.1l0.3-0.6l1.3,0.6l4.6,0.3l3.4-0.1l3-0.1l3.4,0l3,0l9.5-0.5l5.9-0.6l0.7-0.3l3.1-0.2l2.1-0.3
	l5.3-1.2l3-0.6l1.2-0.4l0.9-0.2l3-0.5l2.1-0.4l4.9-1.6l3.3-0.7l3.8-1.2l1-1.1l0.2-0.3l1.1,0.6l0.9-0.1l6.2-1.6l3.8-1.2l4.1-1.2l2-1
	l2-0.3l2.1-0.5l1.7-0.5l2-0.2l3.6-1.2l3.8-1l2.4-0.6l1.4-0.7l0.6-0.2l2.9-1l3-1.5l1.6-0.8l2-0.8l2.6-0.8l2.8-1.2l1.7-0.7l1.9-1
	l2.5-1.2l0.8-0.5l3.5-1.9l1-0.6l1.5-0.9l1.8-1.1l1.5-1.1l2.6-1.5l1.1-0.9l1.5-0.9l4.5-3.2l2.6-1.9l0.6-1l3.9-3.2l0.6-1l2.4-2
	l0.5-0.8l1.3-1.1l1.4-1.1l0.7-0.3l0.9-1l2.2-2.1l1.4-1.6l1.5-1.9l1.6-2.2l0.4-0.7l1.9-1.6l3.9-5.3l1.1-2.3l1.2-1.7l1.4-2l1-2.6
	l1-2.9l2.6-6.9l0.5-1.8l1.2-8.5l0.2-4.9l0-1.2l0-4.6l-0.7-5.8l-0.1-0.3l-0.7-2.7l-1.4-5l-0.3-0.9l-0.2-0.2l0,0.1l0.1-0.9L291,165
	l-0.2-0.9l-1.4-2.4l-1.2-2.5l-0.2-0.6l-1.9-4.5l-0.9-1.9l-8.9-11.6l-0.8-0.5l-3.6-4.4l-1.4-1.2l-2.3-1.9l-2.3-2l-6.2-3.9l-1.3-0.7
	l-0.6,0.1l0.1,0l-0.4-0.5l-3.1-1.9l-1-0.6l-3.4-2l-2.4-1.4l-4-1.6l-6.8-2.8l-1.7-0.6l-6.5-1.9l-0.8-0.3l-6-1.3l-3.6-0.6l-2.4-0.4
	l-2-0.6l-2.4-0.7l-2.2,1.5l-2.3,1.5l-0.6,0l-0.4-0.3l0.1-0.3l1-0.8l3.2-2.4l0.7-0.6l0.2-0.5l-0.8-0.3l-1.2,0.9l-0.8,0.9l-1.7,1.6
	l-3.9,3l-0.6,0l0-1.1l0.7-0.6l3.3-2.7l1.2-1.2l1.6-1.4l0.7-0.7l0.5-4.5l0.1-3.5l1-3.7l-0.1-5.8l-0.1-2.4l-0.5-2.7l-0.1-1.2L210,76
	l-0.5-3.6l-0.6-3.9l-0.8-1.6l-0.3-3.1l-1-3.8l-1.6-4.9l-0.4-1.2l-1.4-2.3l-1.2-3.1l-3.1-4.6l-0.2-1l-6.2-8.7l-0.2-0.9l-1.8-1.6
	l-2-0.8l0-0.3l0.4-0.8l-0.5-0.8l-1.9-1.6l-1.2-0.7l-2.6-3l-1.3-1l-1.2-1l-2.1-1.4l-1.7-2l-2.3-1.7l-1.6,0.1l-0.5-0.4l-1.4-1.6
	l-2.6-1.6l-6.4-3L157.9,9l-1.8-0.3l-7.6-1.1l-0.9-0.1l-2.8-0.1l-5.2-0.1l-4.6,0.5l-1.7,0.5l-2.7,0.4l-3,0.7l-1.8,0.2l-5.1,0.8
	l-1.2,0.3l-3.5,1.6l-5.2,1.1l-1.4,0.7l-2,0.8l-0.8,0.5l-2.7,1.5l-1.5,1l-1.6,0.4l-1.2,0.9l-1.4,0.6l-2.1,1.2l-2.5,1.1l-2.3,1.6
	l-1.2,0.4l-2.7,1.4l-2.8,1.9l-1.3,0.8l-4.1,2.6l-9.6,7.1l-1.9,1.4l-1.2,0.3l-2.4,1.8l-0.7,1l-3.1,2.8L57.5,48l-0.2,0.2l-1.8,2.1
	l-0.9,1.3l-2.3,1.9L50,56l-1.6,2.5l-2.4,2l-2.1,2.7l-1.6,2.2l-2.8,4l-2.4,3.2l-1.2,2.1l-1.1,2.2l-0.3,0.5l-1.8,3.2l-1.2,2.1
	l-1.5,2.7l-1.7,2.9l-0.3,0.5l-1.7,3.6l-3.8,7.7l0,0.3l0-0.1l-0.7,0.9l-1.8,4.2l-0.5,1.8l-1,2.9l-1,2.2l-0.7,2l-1.1,2.2l-1.6,4.6
	l-1.3,4.1l-3.1,10.9L9.6,137l-1.5,4.6l-0.9,3.2l-0.9,2.9l-0.4,1.8l0.8,1.7L5.6,151l-0.6,3.3l-0.7,4.2l-0.5,1.7l-0.1,2.1l-0.2,1.8
	l0.6,4.8l0.2,1.5l0.8,7.3l0.8,2.9l1.3,2.8l1.1,2.8l1.6,2.9l0.8,2l1.6,2.2l1.4,1.6l0.9,0.5l1,1.4l1.3,1.1l1.4,2.4l2.3,1.2l1.3,1.5
	l1.3,0.8l2.3,2l2.1,1.2l2.1,1.2l5.3,3l0.9,0.2l3,0l1.8-0.1l0.1,0.2l-0.1,0.3l-0.9,0.3l-1.1,0.5l-0.5-0.2l0,0.2l0.5-0.1l0.6,0.7
	l1.4,0.6l0.5-0.5l1.7-0.1l2.1-0.4l0.6,0.1l0,0.5l-2.6,0.6l-0.3,0.5l2.8,1.8l1.5,0.1l-0.1,0l1,1.1l3.6-0.7l2-0.8l2.2-0.9l1.3-0.8
	l-0.1,0l0.5,0.2l2-0.8l3.4-1.2l1.9-0.9l2.2-1l3-1.5l1.9-1l1.2,0.1l-0.1,0.3l-2.6,2.1l-0.2,0.2l-0.3,0.1l-1.2,0.3l-2.5,1.1l-0.1,0.8
	l0-0.1l-1.7,0.1l-2.8,1.2l0.5,1.2l0.3,0l2.2-1.1l1.5-0.2l0.4,0.7l-1,0.2l-1.6,1l-3.5,1.8l-0.6,0.1l-0.3,0.1l-0.4,1l0,0.6l-1.3,0
	l-0.4-0.1l1.6,2.5l0.6,0.2l1.4-1.5l-0.4-0.8l-0.3-1l3.1,1l-0.8,1.5l2-1.3l0.7-1.2l3.8-2.8l0,0l0.4,0.7l-1.3,1.9l0.1,0.9l-1.6,1.9
	l-2,1.9l-2.4,2.7l-1.5,1.9l-0.4,0.9l-1.6,1.3l-0.1-0.6l0.9-1.6l1.1-1.1l0.1-0.3l-0.3,0l-2.2,2.1l-0.8,0.9l-0.5,0.8l0.7,0.5l1.3-1
	l0.1,0.5l-0.5,1.3L58.9,232.5L58.9,232.5z M69,270.3l0.1-1.5l-1.7-3.2l-1.3-2.7l-1.4-3l-0.9-1.9l-0.6-2l-0.8-2.3l-0.4-1.2l-0.5-1.9
	l-1.2-1.7l-1.3-4.7l-1.2-1.9l-0.8-3.6l-1.3-2.1l-0.6-2.6l-0.5-0.3l-0.6,1.7l-0.9,1.8l-0.1,1.9l-0.1,0.9l-0.5,2.4l-0.6,3.9l-0.8,0.1
	l0-0.9l0.3-2.7l0-0.9l0.3-1.5l0.4-1.8l-0.2-0.6l-0.9-0.1l-1.3,3.9l-1.1,6.4l0.6,3.1l2.8,3.2l0.4-0.3l-0.6-3.9l0.9,0.7l1.4,4.3
	l2.4,3.1l0.9,0.8l0.5,0.2l0.1-0.3l-1.1-6.3l1.6,2.1l0.8,4.2l0.5,2.1l1.6,1.2l1.5,2l3.4,3.5L69,270.3L69,270.3z M239.8,263.9l-2,1.4
	l-2.5,1.2l-1.7,0.6l-0.7,0.5l-0.1,1.2l-0.3-0.1l-0.5-0.4l-1,0l0,1.2l-1.1-0.5l-2.7,1.2l-0.6,1.6l-0.8-1.3l-2.3,1l-0.4,1.5l-1.1-0.8
	l-1.4,0.6l-0.2,2.1l0.6-0.1l2.2-0.9l2.3-0.8l2.3-0.8l2.2-0.9l0.8-0.2l2.1-1.4l2.8-1.2l0.9-0.2l2.4-1.5l2.7-1.4l1.9-0.9l1.3-0.8
	l0.3-0.6l-0.7-1l-0.8-0.3l-0.8,0.5l-0.7,1.6l-0.9-0.4L239.8,263.9L239.8,263.9z M13.6,118.5l1.8-3.8l1.8-4.2l0.3-0.9l1.8-5.2
	l1.9-5.1l-0.3-1.1l-0.3,0l-1.3,2.4L17,106l-1.7,3.9l-1.7,4.2l-0.3,0.9l-0.9,2.6l-0.4,1L13.6,118.5L13.6,118.5z M296.7,176.6
	l-0.5,1.4l0.5,1.1l0.3,3.2l0.5,0.8l0,0.9l0.6,1l-0.8,0.5l0.2,1.4l0.8-0.1l0.6-1.1l-0.3-3.9l-0.2-1.5l-0.2-2.1l-0.2-0.7l-0.7-0.9
	L296.7,176.6L296.7,176.6z M248.9,259l-0.6,0l-2.7,1.9l0.3,1.9l1.1,0.1l2.8-2.1l0.1-0.6L248.9,259L248.9,259z M3.4,149.3l-0.6,0.5
	l-0.3,1.6l0.4,1.1l-0.6,0.2l-0.2,0.5l-0.2,2l0.5,0.2l1.4-2l0.9-5.4L3.4,148L3.4,149.3L3.4,149.3z M245.7,62.2l0.1,0.8l1.6,0.7
	l2.1-1.3l-0.1-1.1l0.4-0.9l-0.6,0.1l-0.8,0.3L245.7,62.2L245.7,62.2z M287.1,224.1l1-1.5l0.1-1.2l1.1-0.5l0.6-1.3l-1.3-0.7l-2.6,4.3
	L287.1,224.1L287.1,224.1z M282.4,143.6l-3.3-3.8l-0.6,1.3l0.3,0.6l1.1-0.2l0.1,0.2l-0.1,1.4l1.5,1.9l0.2,0L282.4,143.6L282.4,143.6
	z M10.6,127.3L9.8,127l-1.2,0.2l-0.3,1.1l0.8,0.3l0.1,0.7l-1.1,0.2L8,130.9l1.6-0.3L10.6,127.3L10.6,127.3z M11.5,125.7l0.9-2.8
	l-0.4-0.7l-1.7,0.5l-0.3,0.5l0.5,0.3l0.2,0.2l-0.2,1l-1.1,0.3l-0.2,1.3L11.5,125.7L11.5,125.7z M292.9,162.8l-0.8-0.3l0-1.2
	l-0.4-2.2l-0.3-0.1l-0.1,0.1l-0.2,2.3L291,162l1,2.2l1.3,1.6l0.5-0.4l0.1-0.3l-0.3-0.1l-0.6-1.1L292.9,162.8L292.9,162.8z
	 M254.5,255.4l-0.5-0.1l-1.7,1l0.4,1.6l0.2,0.2l0.6,0l1.6-1.3l0.1-0.4L254.5,255.4L254.5,255.4z M57.7,216l-0.2,0.1l-0.5,1.5
	l-0.6,0.6l-0.1,0.3l0.3,0.1l2.7-1.8l1.6-0.6l0.2-1l-1.7,0.1l-0.6,1L57.7,216L57.7,216z M268.5,129.4l-1.3,0.1l-0.4-1.4l-0.6-0.7
	l-0.6-0.1l-0.5,0.3l-0.4,0.7l1.7,1.3l0.8,0.9l0.5,0.3l0.6-0.2L268.5,129.4L268.5,129.4z M255.3,255.1l0.6,0.8l0.5,0.1l1.8-1.4
	l0.1-0.5l-0.6-0.8l-0.6-0.1l-1.7,0.8l-0.2,0.5L255.3,255.1L255.3,255.1z M250,257.7l0.6,2.2l1.6-1.1l0-0.4l-0.6-1l-0.8-0.3
	L250,257.7L250,257.7z M54.9,217.3l-1,0l-2,0.6l-1.3,0.8l-0.1,0.5l0.3,0l0.9-0.4l2.7,0l0.5-0.4L54.9,217.3L54.9,217.3z M174.9,288.4
	l2-0.6l-0.1-1.7l-2.3,0.8L174.9,288.4L174.9,288.4z M216.9,274.3l-0.3,2l1.7-0.4l0.9-0.9l-0.3-1.4L216.9,274.3L216.9,274.3z
	 M184.4,286l-0.2-2.3l-1.8,1l0.2,1.7L184.4,286L184.4,286z M286.4,151.5l0-0.6l-1-1.5l-1-2.8l-1.1,0.6l0.2,0.8L286.4,151.5
	L286.4,151.5z M263.8,249.1l0.7,0l1.1-0.9l0.1-0.6l-1.1-0.9l-1.5,1.5L263.8,249.1L263.8,249.1z M65.9,259.7l0.1,0.8l1.2-0.1
	l-0.4,1.1l0.4,0.6l0.7-0.2l-0.7-2.8L65.9,259.7L65.9,259.7z M189.2,26.3l-1.8-1.3l-1-1.1l-0.7-0.5l-0.3,1.1L189.2,26.3L189.2,26.3z
	 M292.1,212.4l-0.8,2.3l0.4,0.5l0.8-0.2l1-2.1L292.1,212.4L292.1,212.4z M294.2,169.1l0.8,2.3l0.7,1l0.5,0.1l0.2-1l-0.5-1l-0.6-1.4
	L294.2,169.1L294.2,169.1z M59.1,239.4l0,1.3l0.5,0.7l0.7,1.3l0.8,0.5l-0.4-2L59.1,239.4L59.1,239.4z M6,139.3l0.8,0.3l0.8-0.3
	l0.3-2.2l-1.1,0l0,1.1L6,139.3L6,139.3z M288.5,153.8l-0.8,0.2l1.2,2.8l0.6-1.7L288.5,153.8L288.5,153.8z M181.3,284.8L180,285
	l-0.3,1.8l1.7-0.3L181.3,284.8L181.3,284.8z M290.6,215.7l-0.9,1.9l1.3,0.5l0.7-1.4L290.6,215.7L290.6,215.7z M261.3,251.4l1.4-1
	l-0.5-1.3l-1.3,0.9L261.3,251.4L261.3,251.4z M252.5,120.8l0.2-1.1l-1.6-0.6l-0.4,0.8l1.2,1.2L252.5,120.8L252.5,120.8z
	 M215.6,275.3l-1-0.3l-0.7,0.9l-0.1,0.9l0.3,0.4l1.4-0.5L215.6,275.3L215.6,275.3z M234.2,94.3l-4,3L234.2,94.3L234.2,94.3z
	 M258.7,253.2l1.5-0.2l0.3-0.8l-0.1-0.6l-0.8-0.3L258.7,253.2L258.7,253.2z M135.1,6.4L135,5.9l-2.9-0.6l-0.2,0.2l0,0.3l1.9,0.8
	L135.1,6.4L135.1,6.4z M77.1,279.1l1.2,0.9l1,1.1l0.4,0l0-0.3l-2-2.6l-0.3-0.1L77.1,279.1L77.1,279.1z M5.9,144.2l0.2-0.8l0-0.3
	l-0.3-0.5l-1.2-0.1l-0.3,1.1l0.4,0.6L5.9,144.2L5.9,144.2z M285.7,224.2l-1.3,1.9l0.3,0.5l1.3-1L285.7,224.2L285.7,224.2z
	 M270.1,130.6l-0.6,0l-0.4,1.4l0.7,0.5L270.1,130.6L270.1,130.6z M147.3,293.7l1.5-0.1l0.1-1.3l-1.5,0.1L147.3,293.7L147.3,293.7z
	 M252.4,67.5l2.3-1.6l-1.7,0.1L252.4,67.5L252.4,67.5z M298.9,188.3l-0.4-0.5l-0.5,0.2l-0.9,1.5l1.8-0.2L298.9,188.3L298.9,188.3z
	 M250.6,65.7l-1.7,1.4l0.4,0.4L250.6,65.7L250.6,65.7z M249,76.9l-1.5,0.3l-0.8,0.5l-0.1,0.5l0.3,0.1l0.3,0L249,76.9L249,76.9z
	 M277,140.1l0.8,0.1l0.8-1.5l-1-0.2L277,140.1L277,140.1z M39.1,66.8l-1.5,1.4l0.3,0.4l1.5-1.3L39.1,66.8L39.1,66.8z M258.8,122.7
	l-1.5,1.1l0.2,0.5l0.5,0.2l0.9-0.7L258.8,122.7L258.8,122.7z M256.7,123.1l0.2-1.1l-0.9-0.4l-0.3,0.2l-0.3,0.8l0.4,0.8L256.7,123.1
	L256.7,123.1z M253.8,120.2l-0.2,2l0.8-0.4l0.4-1.4L253.8,120.2L253.8,120.2z M57.8,235.7l-0.2,0.9l1,1.4L57.8,235.7L57.8,235.7z
	 M178.8,287.2l0-2.1l-0.6,0.2l-0.2,2.1L178.8,287.2L178.8,287.2z M71.7,34.6L70,34.9l-0.3,0.5l0.2,0.2l0.5,0.1L71.7,34.6L71.7,34.6z
	 M14.3,197.6l-0.3,0.9l0.4,0.4L15,199l0.2-0.8L14.3,197.6L14.3,197.6z M117.9,9.9l-2.1-0.2l-0.4,0.4l2,0.2L117.9,9.9L117.9,9.9z
	 M21.1,97.2l0.7,0.5l0.8-1.7l-0.7-0.5L21.1,97.2L21.1,97.2z M23.1,93.2l-0.7,1.4l1.1,0.2l0.7-1.3L23.1,93.2L23.1,93.2z M26.3,209.1
	l0.6-1.4l-1.2,1L26.3,209.1L26.3,209.1z M252.5,70.2l-1.5,1.4l1.2,0.2L252.5,70.2L252.5,70.2z M272.4,132.9l-0.1-0.5l-0.7-0.2
	l-0.5,1l0.6,0.4L272.4,132.9L272.4,132.9z M289.3,158.4l0.5,0l0.8-1.8l-0.5,0.1L289.3,158.4L289.3,158.4z M262.9,126.7l0.1,0.3
	l0.7,0.5l0.4-0.7l-0.1-0.6l-0.8-0.3L262.9,126.7L262.9,126.7z M5.4,140.3l-0.2,1.2l1.4-0.3l-0.1-0.8L5.4,140.3L5.4,140.3z
	 M260.2,125.9l0.3-1.5l-0.2-0.5l-0.7,0.4l-0.1,1.2L260.2,125.9L260.2,125.9z M175.6,14.9l-1-0.6l-0.4,0.2l0,0.3l0.4,0.5L175.6,14.9
	L175.6,14.9z M12.6,120.9l0.5-0.6l-0.4-0.5l-1.4,0.8L12.6,120.9L12.6,120.9z M95.9,19.5l-0.6-0.2l-0.6,0l-0.5,0.3l0.3,0.7L95.9,19.5
	L95.9,19.5z M5.5,184.6l0.2-0.2l-0.2-1l-0.9-0.1L5.5,184.6L5.5,184.6z M150.2,6.8l0.7-0.6l0-0.5L150,5.6l-0.5,0.2l-0.1,0.6
	L150.2,6.8L150.2,6.8z M25.2,91.9l0.6-1.4l-1.7,1.1L25.2,91.9L25.2,91.9z M80.4,27.9l-1.7,0.4l-0.1,0.2l0.1,0.2l1.4-0.1L80.4,27.9
	L80.4,27.9z M40.2,65l1.3-1l-0.5-0.3l-0.7,0.5L40.2,65L40.2,65z M3.7,146.5l1.5-0.2l0.1-1.1L3.8,146L3.7,146.5L3.7,146.5z
	 M42.1,62.1l2-1.1l0-0.5l-0.3,0L42.1,62.1L42.1,62.1z M30.7,210.9l-0.6-0.9l-0.8,0.2l0.3,0.7L30.7,210.9L30.7,210.9z M240.9,77.7
	l1.6-1.1l-0.1-0.1L240.9,77.7L240.9,77.7z M286.6,152.5l0.1,0.6l0.4,0.3l0.5-0.6l-0.3-0.5L286.6,152.5L286.6,152.5z M262.1,125
	l-0.7,0.2l-0.3,0.8l0.3,0.4l0.3-0.1L262.1,125L262.1,125z M75.8,276.3l-0.2,1.1l0.7,0.3l0.2-1l-0.5-0.4L75.8,276.3L75.8,276.3z
	 M182.9,22.1l0.5,0.3l0.5-0.6l-0.7-0.3L182.9,22.1L182.9,22.1z M296.8,174.4l-0.7,0.1l-0.3,0.8l0.4,0.4L296.8,174.4L296.8,174.4z
	 M249,119.3l0.6,0l0.2-0.7l-0.7-0.2l-0.2,0.7L249,119.3L249,119.3z M211.6,68.9l-0.9,1.5l0.9-0.6L211.6,68.9L211.6,68.9z
	 M247.3,118.3l0.3,0l0.5-0.3l-0.2-0.8l-0.5,0.1L247.3,118.3L247.3,118.3z M245.2,117.5l0.7-0.3l-0.1-0.7l-0.5,0L245,117L245.2,117.5
	L245.2,117.5z M212.2,73.8l-0.2-0.2l-0.7,0l0,0.7l0.7,0L212.2,73.8L212.2,73.8z M230.8,112.3l-0.3-0.7l-1.1,0L230.8,112.3
	L230.8,112.3z M148.5,5.5l-1.2-0.3l-0.5,0.7l1.2,0.3L148.5,5.5L148.5,5.5z M145.8,5l-0.6-0.2L144.7,5l0.2,0.5l0.7,0.6L145.8,5
	L145.8,5z M36.2,214l0.5-0.6l-0.4-0.4l-0.7,0.3l0.1,0.5L36.2,214L36.2,214z M6.6,185.8l-0.2-0.2l-0.5-0.2l-0.3,0.7l0.6,0.4l0.3-0.4
	L6.6,185.8L6.6,185.8z M64,254.5l0.8-1.2l-0.2-0.1l-0.3,0L64,254.5L64,254.5z M15.5,200.3l0.5,0.3l0.5-0.6l-0.7-0.4L15.5,200.3
	L15.5,200.3z M66.3,257.3l-1,0.7l-0.1,0.3l0.1,0.3l0.4,0.1L66.3,257.3L66.3,257.3z M61.5,225.5l0.3,0l1.2-0.9l0-0.4l-0.3,0
	L61.5,225.5L61.5,225.5z M28.5,209.8l0.3-0.5l-0.6-0.4l-0.4,0.7L28.5,209.8L28.5,209.8z M32,212.1l0.6,0l0.3-0.4l-0.6-0.5l-0.6,0.3
	L32,212.1L32,212.1z M75.1,274.6l-0.7-0.4l0,1.5l0.5,0.1L75.1,274.6L75.1,274.6z M249.7,68.7l-1.1,1l0.8-0.3L249.7,68.7L249.7,68.7z
	 M249.6,75l1.3-0.9L249.6,75L249.6,75z M243.6,74.1l1-0.8L243.6,74.1L243.6,74.1z M272.8,134.8l0.7-0.3l-0.1-0.8l-0.5,0L272.8,134.8
	L272.8,134.8z M231.9,89.3l0.8-0.4l0.2-0.5l-0.5,0L231.9,89.3L231.9,89.3z M208.7,62.6l1.1-0.9L208.7,62.6L208.7,62.6z M210.4,63.6
	l-1,0.7l0.1,0.2l0.3,0.1l0.7-0.8L210.4,63.6L210.4,63.6z M235.8,97l-0.8-0.1l-0.3,0.4l0.2,0.2L235.8,97L235.8,97z M25,207.1
	l-0.2-0.2l-0.5,0l-0.3,0.4l0.4,0.3l0.3,0l0.4-0.2L25,207.1L25,207.1z M58.2,45.4l-1,0.5l-0.1,0.3l0.4,0L58.2,45.4L58.2,45.4z
	 M33.9,212.2l0.2,0.7l0.8-0.5L33.9,212.2L33.9,212.2z M121.9,8.5l0.8,0.1l0.2-0.1L122.8,8L121.9,8.5L121.9,8.5z M61.8,248.5l0.7-0.4
	l-0.4-0.7L61.8,248.5L61.8,248.5z M37.5,215l0.2-0.5l-0.1-0.5l-0.3,0.1l-0.2,0.5L37.5,215L37.5,215z M17,201l0.3,0.9l0.7,0.5L17,201
	L17,201z M61.8,246.2l0.2-0.9l-0.1-0.2l-0.3,0L61.8,246.2L61.8,246.2z M26.1,87.2l0.9,0.2l0.3-0.1l-0.2-0.5L26.1,87.2L26.1,87.2z
	 M2.1,165.3l-0.7,0.9l0.2,0.2l0.4-0.3L2.1,165.3L2.1,165.3z M26.5,89.4l-0.4-0.6l-0.7,0.5L26.5,89.4L26.5,89.4z M58.4,223.2l-0.2,1
	l0.6-0.5L58.4,223.2L58.4,223.2z M39.8,214.8l-1,0.7l0.4,0.2l0.7-0.5L39.8,214.8L39.8,214.8z M68.7,263.2l-0.7,0.7l0.3,0.4l0.3-0.3
	L68.7,263.2L68.7,263.2z M152.2,6.1l-0.2,0.2l0,0.5l0.4,0.3l0.3-0.6L152.2,6.1L152.2,6.1z M155.1,7.5l-0.4-0.8l-0.3,0.1l-0.3,0.4
	l0.2,0.2L155.1,7.5L155.1,7.5z M213.1,82.3l-1.1,0.8l0.1,0.2l0.3,0L213.1,82.3L213.1,82.3z M240.1,115.4l0.2-0.5l0-0.3l-0.1-0.2
	l-0.5,0.2L240.1,115.4L240.1,115.4z M13.4,197.2l-0.6-1.2l-0.4,0l0,0.3L13.4,197.2L13.4,197.2z M47.5,55.9l1-0.8L47.5,55.9
	L47.5,55.9z M2.1,161.3l-0.5-0.2l-0.2,0.3l-0.1,0.3l0.2,0.4l0.5-0.3L2.1,161.3L2.1,161.3z M7.7,189.5l0.5,1.1l0.3,0.1l0.1-0.4
	L7.7,189.5L7.7,189.5z M9.3,192.1l0.4,0.5l0.4,0l0-0.3l-0.3-0.5l-0.6-0.2L9.3,192.1L9.3,192.1z M255,63.3l-0.3,0l-0.3,0.5l0.3,0
	L255,63.3L255,63.3z M250.4,64.4l-0.5,0.2l-0.1,0.3l0.5-0.1L250.4,64.4L250.4,64.4z M199.7,40.2l0-0.3l-0.2-0.2l-0.2-0.1l0,0.4
	L199.7,40.2L199.7,40.2z M190,27.8l-0.2-0.2l-0.3,0l0,0.3l0.5,0.3L190,27.8L190,27.8z M201.4,43.4l0,0.3l0.2,0.2l0.3,0.1l-0.1-0.4
	L201.4,43.4L201.4,43.4z M184.5,23.1l0.3,0l0.3-0.4l-0.2-0.1l-0.4,0.3L184.5,23.1L184.5,23.1z M203.7,48.2l0.2-0.2l0-0.3l-0.5,0
	l-0.1,0.4L203.7,48.2L203.7,48.2z M294.2,168l0-0.3l-0.5-0.3l-0.1,0.2l0.3,0.5L294.2,168L294.2,168z M204.4,49.4l0.1,0.5l0.4,0.2
	l0-0.5L204.4,49.4L204.4,49.4z M210.6,66l0.1-0.3l-0.3,0l-0.4,0.4l0.1,0.1L210.6,66L210.6,66z M211.3,67.6l-0.7,0.5L211.3,67.6
	L211.3,67.6z M167.8,10.9l-0.2-0.5l-0.3-0.1l-0.1,0.2l0.3,0.4L167.8,10.9L167.8,10.9z M165.2,9.9l0.5,0.3l0.1-0.2l-0.4-0.4l-0.2,0.1
	L165.2,9.9L165.2,9.9z M243.3,116.7l0.5-0.1l0.1-0.5l-0.5,0.1L243.3,116.7L243.3,116.7z M242.6,114.9l-0.9,0.4l0,0.3l0.4,0.2
	L242.6,114.9L242.6,114.9z M211.9,79.6l0.3-0.4l-0.4,0l-0.2,0.4L211.9,79.6L211.9,79.6z M238.2,114.6l0.2-0.2l0.1-0.3l-0.5,0.1
	l0,0.4L238.2,114.6L238.2,114.6z M157.2,7.5l0.2,0.2l0.3,0.1l0-0.4l-0.5-0.1L157.2,7.5L157.2,7.5z M212.3,81l0.3-0.5l-0.5,0.1
	l-0.1,0.2L212.3,81L212.3,81z M224.9,100.5l0.5-0.1l0.1-0.4l-0.3,0.1L224.9,100.5L224.9,100.5z M234.7,113.4l-0.6-0.8L234.7,113.4
	L234.7,113.4z M212.9,86.3l-0.5,0.2l-0.1,0.3l0.2,0.1l0.4-0.3L212.9,86.3L212.9,86.3z M64,222.8l0.5-0.2l0.1-0.4l-0.3,0.1L64,222.8
	L64,222.8z M67.8,37.5L67,38L67.8,37.5L67.8,37.5z M60.4,43.3l0.2-0.2l0.1-0.4l-0.5,0.1l-0.1,0.5L60.4,43.3L60.4,43.3z M45.6,59
	l0.2-0.2l0-0.2l-0.3,0L45.2,59L45.6,59L45.6,59z M6.9,188.2l0.3-0.2l0.1-0.3l-0.5,0l-0.1,0.5L6.9,188.2L6.9,188.2z M80.7,281.7
	l0.5,0.8L80.7,281.7L80.7,281.7z M84,285v-0.3l-0.2-0.2l-0.3-0.1l0,0.4L84,285L84,285z M64,251.3l-0.5,0.2l-0.1,0.3l0.3,0l0.4-0.4
	L64,251.3L64,251.3z M62.8,250l0.7-0.5L62.8,250L62.8,250z M1.4,159.8l0.3,0l0.2-0.2l0.1-0.3l-0.4,0L1.4,159.8L1.4,159.8z M1.7,158
	l0.3,0l0.3-0.4l-0.4-0.1L1.7,158L1.7,158z M256.1,60.1l0.2,0.1l0-0.2l-0.2,0L256.1,60.1L256.1,60.1z M252.4,69.2l0-0.2l-0.2,0.1
	L252.4,69.2L252.4,69.2z M247.6,72.1l0-0.2l-0.2,0.1L247.6,72.1L247.6,72.1z M246.4,74.6l0.1-0.2l-0.2,0l-0.1,0.2L246.4,74.6
	L246.4,74.6z M244.1,77.8l-0.1-0.2l-0.1,0.2L244.1,77.8L244.1,77.8z M244.5,81.4l-0.1-0.2l-0.1,0.2L244.5,81.4L244.5,81.4z
	 M290.5,160l0-0.2l-0.2,0.1L290.5,160L290.5,160z M190.8,29.1l-0.2,0l0.1,0.1L190.8,29.1L190.8,29.1z M249.9,108.7l-0.2,0.2l0.2,0.1
	L249.9,108.7L249.9,108.7z M181.2,19.5l0-0.2l-0.3,0.2L181.2,19.5L181.2,19.5z M207.6,56.5l-0.2,0l0.1,0.2L207.6,56.5L207.6,56.5z
	 M173,13.7l0,0.2l0.2-0.1L173,13.7L173,13.7z M170.7,12.5l-0.2,0l0.1,0.2L170.7,12.5L170.7,12.5z M169.2,11.4l-0.3,0.2l0.2,0.1
	L169.2,11.4L169.2,11.4z M244.6,112.2l0-0.2l-0.2-0.1l0,0.2L244.6,112.2L244.6,112.2z M163.3,8.9l-0.2,0l0.1,0.2L163.3,8.9
	L163.3,8.9z M211.9,75.9l-0.2-0.3l-0.1,0.3L211.9,75.9L211.9,75.9z M160.4,8l-0.2-0.1l0.2,0.3L160.4,8L160.4,8z M212.2,77.6l0.2,0
	l-0.1-0.2L212.2,77.6L212.2,77.6z M227.4,99.6l-0.2-0.2l-0.1,0.2L227.4,99.6L227.4,99.6z M236.2,113.6h0.2l-0.1-0.2L236.2,113.6
	L236.2,113.6z M213,84.6l0,0.2l0.2-0.1L213,84.6L213,84.6z M232.6,112.6l0-0.2l-0.2-0.1l0.1,0.3L232.6,112.6L232.6,112.6z
	 M220.8,98.2l0.2,0l-0.1-0.1L220.8,98.2L220.8,98.2z M222.2,110.2l0.2,0l-0.1-0.2L222.2,110.2L222.2,110.2z M38.6,217.2l-0.2,0
	l0.1,0.2L38.6,217.2L38.6,217.2z M52.1,232.4l0,0.2l0.2-0.1L52.1,232.4L52.1,232.4z M1.4,163.7l0-0.2l-0.2,0.1L1.4,163.7L1.4,163.7z
	 M73.5,272.9l0-0.2l-0.2,0l-0.1,0.2L73.5,272.9L73.5,272.9z M132.1,295l0.2,0l-0.1-0.2L132.1,295L132.1,295z M136,294.4l-0.3,0
	l0.2,0.3L136,294.4L136,294.4z M41.9,216.6l0.1-0.2l-0.3,0.2L41.9,216.6L41.9,216.6z M72.4,271.4l0-0.2l-0.2-0.1l0.1,0.3L72.4,271.4
	L72.4,271.4z M139.4,294.3l0-0.2l-0.2,0.1L139.4,294.3L139.4,294.3z M27.7,85.3l0.2,0l0.1-0.2l-0.2,0L27.7,85.3L27.7,85.3z
	 M70.4,267.3l0.2,0l0.1-0.2l-0.2,0L70.4,267.3L70.4,267.3z M50.2,53l-0.2,0.1l0.1,0.1L50.2,53L50.2,53z M112.3,293.7l-0.2,0l0.2,0.3
	L112.3,293.7L112.3,293.7z M51.9,50.9l0.3,0l0.1-0.3l-0.3,0L51.9,50.9L51.9,50.9z M53.3,50.6l0.2,0l-0.1-0.2L53.3,50.6L53.3,50.6z
	 M40.7,223.4l0.2,0l-0.1-0.2L40.7,223.4L40.7,223.4z M106.3,13.9l-0.2,0l0.2,0.3L106.3,13.9L106.3,13.9z M165,175.1l-2.3,1.7
	l-1.3,0.8l-2,0.7l-3.8-0.4l-0.7-0.4l-0.9-2.4l0.1-4.3l0.1-1.2l2.2-4.2l2.5-2.1l0.6-0.9l3.3-2.5l1-0.6l2.1-1.2l3.1-2.1l1.9-0.9
	l1.9-0.9l0.3-0.1l3-1.5l1-0.7l0.5,0l-0.2,1.8l-0.3,0.5l-1.2,1.4l-1.4,1.6l-2.1,4l-0.2,0.6l-2.1,5.1l-2.5,4.5l-1.9,2.4L165,175.1
	L165,175.1z M156.6,173l-0.5-0.2l0,0.2l0.5-0.1l0.5,0.2l0.1-0.2L156.6,173L156.6,173z M158.8,166.7l-1.7,2.3l-0.4,1.4l0,0.7l0.8,0.4
	l3.2-2.4l0.9-0.8l1.5-1.9l1.7-2.1l2.3-2.4l0.9-0.7l0.2-0.7l-0.2-0.4l-0.3,0.1l-0.5,0.6l-2.4,1.5L158.8,166.7L158.8,166.7z
	 M156.8,177.1l1.2,0.1l1.2-0.2l2.2-1l0.8-0.4l1.5-1.5l0.8-0.9l2.3-2.8l-0.5-0.1l-1.7,1.9l-4.4,3.3L156.8,177.1L156.8,177.1z
	 M174.4,155.3l0.2,0l-0.1-0.1L174.4,155.3L174.4,155.3z M131.6,145.8l-1.6-2.2l1.1-3.8l2.1-3.1l2.9-2.2l6.5-1.7l0.9-0.1l4.3-0.4
	l1.2-0.2l4.5-0.2l6.2-0.7l0.3,0.4l-0.9,1.5l-4.8,3.8l-0.7,0.6l-0.5,0.8l-5.6,4.3l-2.9,1.6l-1,0.6l-4.9,1.8l-2.8,0.2l-2.1-0.3
	L131.6,145.8L131.6,145.8z M152.1,133.4l-3-0.2l-5.7,1l-3.1,1.2l-0.8,0.4l-1.6,1.4l-0.1,1.4l1.5,0.9l5.6-1.5l1.5-1.1l1.9-1l2.7-1.6
	l1.1-0.4L152.1,133.4L152.1,133.4z M148.6,137l-1.7,1.1l0.1,0.1L148.6,137L148.6,137z M133.8,144.1l0.3,0.7l0.9,0.2l0.2-0.1
	l-0.2-0.5L133.8,144.1L133.8,144.1z M137.5,144.7l-0.8-0.1l-0.3,0.3l0.2,0.2L137.5,144.7L137.5,144.7z M138.6,144.4l0,0.2l0.2-0.1
	L138.6,144.4L138.6,144.4z M133.1,169.7l3.2-2.3l3.2-2.4l3.5-2.6l3.2-2.3l3.2-2.4l0.2,0.6l1,0.6l1.4-2l0.2-1.3l0.5-0.5l0.5-0.7
	l-1.2-0.1l-1.3,0.8l-1.3,1.6l-2-0.5l0,1.8l-1,0.6l-0.6-0.2l-0.3-0.7l-2.3,1.2l-3.8,0.5l-6,1.1l0,0.8l0.3,0.2l1.7-0.4l2.1-0.4
	l1.8-0.5l3.9-0.1l0.6,0.1l0.2,0.2l0,0.3l-2.1,1.1l-1.3,0.3l-0.4,1l-4.1,3.1l-1.3,0.2l-0.6,1l-1.2,0.9l-1.1,0.1l-0.4,0.8l0.4,0.6
	L133.1,169.7L133.1,169.7z M75.9,211.8l-0.7-0.5l-1.7-0.6l0.3,0.8l0.4,0.8l-0.3,0.9l1.8-0.3l4-2.9l1.1-0.4l7.4-5.3l1.5-0.7l1.1-0.9
	l0-0.3l-0.2-0.2l-1.2,0l0.1-0.5l0.2-0.8l0.1-0.8l1.9-1.5L92,198l-1.3-0.1l-2.2,1.5l-1.3,0.8l-4.2,2.5l-3.2,1.7l-0.7,0.7l1.3,0.2
	l2.2-1.1l2.1-1.3l1.9-1.3l1.7-0.4l0.2,1.6l-2.2,1.2l-1.5-0.1l-0.1,0.5l-0.1,0.9l-3.5,2.3l-1.2-0.8l-0.6,2.3l-0.4,0.5L75.9,211.8
	L75.9,211.8z M115.1,179.7l0,1.1l-1.7,1.3l-3,1.7l-1.2,0.3l-0.6,1l-4,3l-1.9,0.8l-0.7,1.4l1.3,0.2l2-1.5l2.1-1.3l0.5,0.6l0.5-0.3
	l0-0.6l0.1-0.6l0.7-0.6l3.8-2.9l1.5-0.4l1.1-1.4l0.5-0.7L115.1,179.7L115.1,179.7z M201.8,115.9l0.1-0.3l-0.8-0.5l-1.3,0.9l-11,8.2
	l-0.3,0.5l1.6-0.3l0.3-0.5l1-0.2L201.8,115.9L201.8,115.9z M167.8,140.7l0-0.1l0.4,0.4l1.2,0l5.5-4l2.8-2.4l0.3-0.5l-0.4-0.5
	l-1.7-0.1l-0.1,0.1l0.1,0.8l-1.3,1.3l-1.2,1.4l-0.6,0.2l-2.2,1.4L167.8,140.7L167.8,140.7z M192.9,151.9l-0.4,1.6l-0.5,1.4l0.3,1.3
	l0,0.3l-0.9,6.4l0,0.6l0.5,0.6l0.6-0.4l0.4-2.9l0-2.4l0.3-2.4l0.4-3.4L192.9,151.9L192.9,151.9z M120.7,92.5l-0.2-0.1l-3.1,1.3
	l-1.1,0.5l-2.2,1.1l-5.1,3.9l-0.2,0.3l0.1,0.3l1,0l1.8-1.3l0.5-0.9l2.6-1.5l0.8-0.4l2.4-1.2l2.5-1.7L120.7,92.5L120.7,92.5z
	 M209.7,205.9l1.9-1.3l0.7-1l2-2.3l1.9-2.3l1.9-2.8l1.1-2.1l-0.4-0.4l-1,1.5l-1.2,1.7l-0.3,0.5l-1.2,1.4l-1.3,1.7l-1.9,2.4l-1.4,1.3
	L209.7,205.9L209.7,205.9z M194.5,217.6l-4.3,2.5l-2.1,1l0,0.4l1.1-0.4l1-0.2l3.2-2.2l1.6-0.6l2.7-1.9l0.5-0.3l1-0.2l1.3-1.2
	l-1.3-0.1L194.5,217.6L194.5,217.6z M154.7,199l0,0.1l-2.4-0.5l-5-1.2l-1.6-0.4l0.6,1l3.1,1.3l4.5,0.3L154.7,199L154.7,199z
	 M142,83.9l0-0.1l0.2,0.2l1.5-0.1l5.1-0.7l3.6-0.7l0-0.8l-3,0.4l-3,0.3l-3.5,0.8L142,83.9L142,83.9z M145.1,114.1l0.2-0.9l-2.7-0.3
	l-5,0.8l0.3,0.6l0.9,0.2l3-0.3l2.2,0.2l1,0.9L145.1,114.1L145.1,114.1z M47.2,211.5l0.6,0l3.6-0.6l3.8-1.1l1.7-0.6L57,209l-0.4-0.3
	l-0.9,0.1l-5,1.4l-2.7,0.5l-1.3-0.6L47.2,211.5L47.2,211.5z M142.2,193.5l0.3-1.1l-1.5-1.9l-2.1-2.2l-0.7-0.6l-0.1,1.4l2,2.6
	L142.2,193.5L142.2,193.5z M55.2,211.4L55.2,211.4l0.5,0.2l4.3-0.9l1.8-0.8l1.6-0.8l0.3-0.5l-1.3,0.4l-1.7,0.3l-0.3-0.2l-0.9,0.4
	l-0.3,0.6l-3.4,0.5L55.2,211.4L55.2,211.4z M97,113.4l-0.4,0.3l-1.4,2.3l-1.6,2.5l-1.3,2.3l0.6,0.5l1.4-2.3l2.3-3.5l0.9-1.6
	L97,113.4L97,113.4z M114.5,155l-2.1-0.3l0.4,1l4.1,2.6l0.6,0.1l0.8-0.1l-0.5-0.7l-3-1.4L114.5,155L114.5,155z M163.3,112.3l-6-0.5
	l0.2,0.7l5.7,0.7l0.3-0.7L163.3,112.3L163.3,112.3z M174.1,226.5l-0.9,0.1l-1.7,0.6l-5.2,1.3l0.5,0.6l3.8-1l3.2-1L174.1,226.5
	L174.1,226.5z M198.9,122.2v0.6l0.7,0.6l4.9,1.8l1,0.5l-0.4-0.9l-0.7-0.5l-3.7-1.8L198.9,122.2L198.9,122.2z M190.2,137.8l1,4.2
	l0.2,0.2l0.3,0.1l0.2-0.1l0.2-0.6l-0.2-1.2l-0.4-1.1l-0.3-1.5l-0.3-1.2l-0.2-0.3l-1.5-1.1l-0.5,0l0,0.3L190.2,137.8L190.2,137.8z
	 M154.6,199.1l0-0.1l0.9,1.1l2.4,0.8l3.6-0.4l-0.4-0.7l-0.6,0l-4.8-0.4L154.6,199.1L154.6,199.1z M79.5,214l-3.2,2.8l0.8,0.4
	l3.7-2.8l0.1-0.3L79.5,214L79.5,214z M126.5,118.6l0-0.1l0.4,0.4l0.8,0l2.3-1l2-1.3l0.1-0.3l-0.5-0.1l-2.9,0.9L126.5,118.6
	L126.5,118.6z M122.8,159.9l0-0.1l1,1.2l4.4,0.2l0.3-0.4l-0.4-0.3l-5.1-0.6L122.8,159.9L122.8,159.9z M170.3,197.3l3-2.2l0-0.4
	l-0.3,0l-1.3,0.7l-1,0.2l-2,1.3l-0.8,0.3l-0.1,0.9L170.3,197.3L170.3,197.3z M196.2,113.6l1.8-0.2l2.3-0.9l0.2-0.2l0.1-0.3l-0.4-0.3
	l-3.2,0.7l-0.9-0.3l-0.3,0.5L196.2,113.6L196.2,113.6z M188.4,175.7l-0.5,0.1l-1.9,3.1l-0.6,1.3l0.4,0.5l0.5-0.2l1.4-2.3
	L188.4,175.7L188.4,175.7z M181.8,187.1l0.1,0l-1.4,1.7l-1.3,1.1l-0.7,1.6l2.5-1.7l1.3-2L181.8,187.1L181.8,187.1z M141.2,170.2
	l-0.6,0.1l-1.2,1.3l-0.3,0.5l-0.3,0.5l-0.1,0.3l-0.6,2l1-0.4l1.9-3.4L141.2,170.2L141.2,170.2z M120.6,122.3l-0.5-0.3l-1.7,1.1
	l-1.3,1.9l0.2,0.5l0.5,0l1.1-1.4l1.6-1.4l0.1-0.3L120.6,122.3L120.6,122.3z M110,149.3l0.1-0.9l-1.1-3.8l-0.2-0.1l-0.2,0.1l0.9,4.6
	l0.3,0.1L110,149.3L110,149.3z M145.4,165.8l0.6-1.2l1.1-1.8l-0.7-0.2l-1.5,1.5l-0.4,0.4l-0.7,1.6l0.7,0.1L145.4,165.8L145.4,165.8z
	 M204.4,117.8l-0.8,2l-0.5,0.2l-0.4,0.3l0.3,0.4l1.1,0.1l0.8-1.6l1-1.5l-0.4-0.7L204.4,117.8L204.4,117.8z M137.4,184l0.3-0.4
	l-0.4-3.5l-0.2-0.2l-0.3-0.1l-0.2,0.1l0.3,3.8L137.4,184L137.4,184z M191.2,171.5l0.4-2.4l-0.4-2.1l-0.2-0.2l-0.2,0.1l-0.1,1.5
	l-0.3,1.5l-0.2,1.5l0.7,0.3L191.2,171.5L191.2,171.5z M187.1,134.6l0,0.1l-0.2-0.3l-3.3-2.1l-1.2-0.3l0.1,0.6l1.7,1.2l2.1,1.2
	L187.1,134.6L187.1,134.6z M178.4,128.6l0-3.3l-0.7-0.3l-0.5,3.5L178.4,128.6L178.4,128.6z M112.1,133.7l-0.3-0.5l-0.4,0.3l-0.6,1.1
	l-1.2,3.1l0.4,0.3l0.9-0.8L112.1,133.7L112.1,133.7z M124.6,212.9v-0.3l-1.4-2.3l-0.9-1.4l-0.8,0.1l0.7,1.3l1.9,2.4L124.6,212.9
	L124.6,212.9z M223.2,143.7L223.2,143.7l-4.2-5l0.1,0.6l3.3,4.4l0.3,0.2L223.2,143.7L223.2,143.7z M228.2,170.8L228.2,170.8
	l-1.2,4.5l0.5,0.7l0,0l0.3-0.4l0.8-4L228.2,170.8L228.2,170.8z M189.8,115.6L189.8,115.6l-0.2-0.2l-4.5-0.7l-0.2,0.1l0.2,0.5
	l4.2,0.6L189.8,115.6L189.8,115.6z M201.1,130.2l-0.5-3.2l-0.5-0.3l-0.2,2.3l0.4,1.4L201.1,130.2L201.1,130.2z M55.2,211.3
	L55.2,211.3l-0.5-0.1l-3.7,1.1l-0.1,0.3l0.7,0.4L55.2,211.3L55.2,211.3z M172.1,116.7l0-0.1l2.4,3.1l0.3,0.1l0.1-0.3l-0.3-1.5
	l-1.9-1.4L172.1,116.7L172.1,116.7z M193.7,147.9l-0.3-2.6l-0.5-0.3l-0.3,2.7L193.7,147.9L193.7,147.9z M68.6,222.6l1.1,0.2l1.3-1.2
	l-0.8-0.4l-0.7,0.9L68.6,222.6L68.6,222.6z M194.5,127.2l-0.6,0.1l-0.2,0.2l-0.7,1.6l-0.1,0.6l0.1,0.2l0.3,0L194.5,127.2
	L194.5,127.2z M143.8,180.1l0.4-0.6l-1.3-1.8l-0.4-0.1l-0.2,0.5L143.8,180.1L143.8,180.1z M141.9,186.3l0.1,0l-0.8,0.5l-1.6,0.1
	l0.5,0.7l1.8,0.2L141.9,186.3L141.9,186.3z M47.5,216.4l-0.1,0l1.6-0.6l0.4-0.7l-0.5-0.3l-1.9,0.6L47.5,216.4L47.5,216.4z
	 M143.3,182.4l-0.2,0.9l1.2,0.7l0.2,0l-0.2-1.5l-0.2-0.2L143.3,182.4L143.3,182.4z M90.7,163.2L90.7,163.2l0.1-0.2l-1.1-3l0.1,0
	l-0.2,0.2L90.7,163.2L90.7,163.2z M70.7,214.2l1.4,0.1l0.4-0.2l-0.3-0.5l-1.3-0.7L70.7,214.2L70.7,214.2z M171.3,87.9L171.3,87.9
	l-0.6-0.6l-1.7-0.6l-0.4,0.5l2.1,0.9L171.3,87.9L171.3,87.9z M147.1,184.7l0.3-0.8l-0.1-0.5l-0.5,0.2l-0.5,1.1l-0.7,0.9L147.1,184.7
	L147.1,184.7z M186.7,120l-1.7-0.3l-0.6,0.1l-0.3,0.5l2.3,0.2L186.7,120L186.7,120z M118.5,146.5l1.1,0.2l0.4-0.4l-0.2-0.5l-0.5-0.1
	L118.5,146.5L118.5,146.5z M118.1,138.6l-0.2-1.1l-0.8-0.1l0.4,1.6L118.1,138.6L118.1,138.6z M90.6,163.2L90.6,163.2l-0.1,0.5
	l1.4,1.9l0.4,0.1L90.6,163.2L90.6,163.2z M187.1,109.6l1.2,1.5l0.5-0.2l-0.2-0.5L187.1,109.6L187.1,109.6z M69.5,216L69.5,216
	l0.3-0.4l0-0.9l-1.5-0.7L69.5,216L69.5,216z M122.8,174.7l0.1,0.5l1.1,0.3l0.3-1L122.8,174.7L122.8,174.7z M64.9,217.4l-1.9,0.4
	l-0.1,0.6l1.7-0.3L64.9,217.4L64.9,217.4z M156.5,194l0.5,1l1.1,0.3l0.2-0.4L156.5,194L156.5,194z M68.3,227.5l0.7,0.3l0.3-0.5
	l-0.2-0.5l-0.5,0.1L68.3,227.5L68.3,227.5z M289.7,174.4l0.3,0l0.2-0.2l0.2-1.1l-0.2-0.1l-0.5,0.3L289.7,174.4L289.7,174.4z M86,279
	l0.1-0.7l-0.5-0.1l-0.3,0.7L86,279L86,279z M245.1,169.4l-0.2-0.7l-0.9-0.1l-0.2,0.1l0.1,0.5L245.1,169.4L245.1,169.4z M145,174.3
	l-1.4,0.2l-0.1,0.2l0.1,0.2l0.5,0.2L145,174.3L145,174.3z M146,188.3l-0.2-0.7l-1,0l0.4,0.7L146,188.3L146,188.3z M88.2,135.5
	l0.2-0.9l-0.6-0.6l-0.3,1L88.2,135.5L88.2,135.5z M94.6,278.9l0.8,0.1l0.1-0.5l-1-0.1L94.6,278.9L94.6,278.9z M101.4,192.8
	L101.4,192.8l-0.5-0.2l-1.4,0.3l0.7,0.7L101.4,192.8L101.4,192.8z M25.1,104.4l-0.2-0.7l-0.7,0.2l0.1,0.5L25.1,104.4L25.1,104.4z
	 M285.7,158.8l0.6-0.4l-0.3-0.4l-0.3,0.3L285.7,158.8L285.7,158.8z M189.1,34.2l-0.2-0.5l-0.5,0.1l-0.1,0.2l0.4,0.3L189.1,34.2
	L189.1,34.2z M92.9,226l-0.4-0.1l-0.1,0.7l0.2,0.2l0.4-0.3L92.9,226L92.9,226z M115.3,146.9l0.2-0.8l-0.2-0.2l-0.5,0.6l0.2,0.4
	L115.3,146.9L115.3,146.9z M77.9,271.8l-0.2-0.5l-0.5,0l-0.2,0.2l0.3,0.3L77.9,271.8L77.9,271.8z M116.4,151.8l0.4,0.7l0.3,0
	l0.4-0.6L116.4,151.8L116.4,151.8z M185.5,131.8l-0.8-1.1l-0.2,0.1l0,0.3L185.5,131.8L185.5,131.8z M129.5,171l-0.2-0.2l-0.3,0.3
	l0.2,0.6l0.4-0.3L129.5,171L129.5,171z M266.5,238l0.8,0.2l0.2-0.4L266.5,238L266.5,238z M47.6,64.9l-0.7,0.4l0.4,0.7L47.6,64.9
	L47.6,64.9z M177.9,239.3l0.2-0.2l-0.6-0.3l-0.4,0.3l0.1,0.3L177.9,239.3L177.9,239.3z M171.6,141.3l0.6-0.4l-0.4-0.6L171.6,141.3
	L171.6,141.3z M12.3,139.4l0.1-0.2l-0.6-0.5l-0.4,0.3l0.3,0.4L12.3,139.4L12.3,139.4z M116,22.8l-0.7,0.3l0.1,0.5l0.4,0.2l0.1-0.2
	L116,22.8L116,22.8z M194.4,117.6L194.4,117.6l-0.5,0.3l-0.3,0.5l0.5,0.3l0.6-0.1L194.4,117.6L194.4,117.6z M79.7,275l-0.9-0.2
	l-0.2,0.1l0.2,0.5L79.7,275L79.7,275z M192.8,112.9l-0.2,0.6l0.2,0.4l0.5-0.2l-0.1-0.5L192.8,112.9L192.8,112.9z M154.4,154.2
	l0.6-0.5l-0.3-0.4l-0.3,0.3L154.4,154.2L154.4,154.2z M93.3,274.7l-0.8-0.1l-0.2,0.1l0.2,0.5l0.9-0.3L93.3,274.7L93.3,274.7z
	 M116.6,178l0.8-0.4l-0.1-0.5L117,177l-0.4,0.3L116.6,178L116.6,178z M117.3,179.5l0,0.6l0.7,0.2l0.3-0.5l-0.2-0.2L117.3,179.5
	L117.3,179.5z M143.9,172l0.3,0.7l0.5-0.1l0.1-0.2l-0.4-0.3L143.9,172L143.9,172z M85.4,146.7l0.6-0.7l-0.4-0.3l-0.2,0.2L85.4,146.7
	L85.4,146.7z M223.2,143.8L223.2,143.8l1.2,1.1l-0.7-1.2L223.2,143.8L223.2,143.8z M161.2,147.6l-0.6,0.5l0.3,0.5l0.3-0.3
	L161.2,147.6L161.2,147.6z M8.9,164.2l-0.7,0.7l0.4,0.3l0.2-0.2L8.9,164.2L8.9,164.2z M206.2,115.3l-0.5-0.2l-0.4,0.2l0.2,0.5l0.3,0
	L206.2,115.3L206.2,115.3z M126.8,10.6l0.4,0.7l0.6-0.5L126.8,10.6L126.8,10.6z M89.9,160L89.9,160l0.1-0.5l-0.6-1l-0.3-0.1
	l-0.1,0.4L89.9,160L89.9,160z M204.4,103.6l-0.6,0.4l0.3,0.5l0.3-0.3L204.4,103.6L204.4,103.6z M101.7,178.7l0.1-0.3l-0.1-0.2
	l-0.6-0.2l-0.4,0.2l0.2,0.5L101.7,178.7L101.7,178.7z M69.2,255l-0.2,0.8l0.1,0.2l0.5-0.2L69.2,255L69.2,255z M289.2,211.7l0.6-0.5
	l-0.5-0.6L289.2,211.7L289.2,211.7z M148.1,180.7l-0.8-0.6l-0.3,0.4l0.2,0.2L148.1,180.7L148.1,180.7z M142.5,120l0.4,0.6l0.6-0.5
	L142.5,120L142.5,120z M220.2,113.5l-0.4-0.7l-0.5,0.1l-0.1,0.4l0.2,0.1L220.2,113.5L220.2,113.5z M155.3,191.2l0.7,1.1l0.2,0l0-0.3
	L155.3,191.2L155.3,191.2z M10.5,175.6l-0.2-0.2l-0.4,0.6l0.1,0.3l0.5,0L10.5,175.6L10.5,175.6z M114.6,140.2l0.6-0.4l-0.5-0.6
	L114.6,140.2L114.6,140.2z M129.1,158.6l0.1-0.2l-0.6-0.5l-0.4,0.4l0.3,0.4L129.1,158.6L129.1,158.6z M106.9,290l0.3,0l0.2-0.7
	l-0.2-0.2l-0.3,0.7L106.9,290L106.9,290z M119.5,130.3l-0.2,0.5l0.2,0.4l0.5-0.2l0-0.3L119.5,130.3L119.5,130.3z M116.4,142.8
	l0.1-0.5l-0.7-0.3l-0.3,0.4l0.2,0.2L116.4,142.8L116.4,142.8z M69.7,212.5l0-0.3l-0.7-0.3l-0.4,0.4l0,0.2L69.7,212.5L69.7,212.5z
	 M95.7,196.7l-0.6-0.3l-0.2,0.5l0.2,0.4l0.5-0.2L95.7,196.7L95.7,196.7z M120,124.5l-0.1,0.2l0.2,0.5l0.5-0.1l0.2-0.5l-0.2-0.2
	L120,124.5L120,124.5z M120.8,149.3l-0.8-0.1l-0.2,0.1l0.2,0.5l0.9-0.2L120.8,149.3L120.8,149.3z M78.2,222.2l0.7-0.7l-0.4-0.3
	l-0.2,0.2L78.2,222.2L78.2,222.2z M290.6,186l0.6-0.4l-0.4-0.6L290.6,186L290.6,186z M211.8,271.4l-0.5,0.1l-0.1,0.7l0.5,0.2
	L211.8,271.4L211.8,271.4z M141.5,180l0.5,0.6l0.5-0.3l-0.3-0.3L141.5,180L141.5,180z M75.3,207.8l-0.2,0.2l0.1,0.7l0.8-0.1
	L75.3,207.8L75.3,207.8z M10.8,188.8l0.5,0.3l0.3,0l0.3-0.1l-0.2-0.5L10.8,188.8L10.8,188.8z M94,214.2l-1,0.4l0,0.5l0.3,0L94,214.2
	L94,214.2z M16.4,195.1l-0.4,0.6l1.1,0.1L16.4,195.1L16.4,195.1z M35.9,88.5l-0.3,0l-0.1,0.9l0.5-0.1L35.9,88.5L35.9,88.5z
	 M83,253.6l0.2-0.2l0-0.3l-0.5,0l-0.1,0.4L83,253.6L83,253.6z M96.9,269.2l0-0.3l-0.6-0.3l0.1,0.5L96.9,269.2L96.9,269.2z
	 M271.8,139.5l0.1-0.3l-0.5,0.1l-0.1,0.3L271.8,139.5L271.8,139.5z M278.1,148.4l-0.1,0.1l0.2,0.5l0.4-0.1l-0.2-0.5L278.1,148.4
	L278.1,148.4z M281.6,154.2l-0.2-0.5l-0.3-0.1l-0.1,0.2l0.3,0.4L281.6,154.2L281.6,154.2z M292.4,168l0,0.1l-0.5-0.6l-0.3,0l0.1,0.5
	L292.4,168L292.4,168z M289,166.9l-0.2-0.2l-0.2,0l0.1,0.5l0.3,0.1L289,166.9L289,166.9z M257.8,126.2l0.1,0l-0.2,0.8l0.5,0.2l0-0.3
	L257.8,126.2L257.8,126.2z M192.4,41.7l0.3,0l0.3-0.4l-0.1-0.1l-0.5,0.3L192.4,41.7L192.4,41.7z M282.7,161.9l0-0.3l-0.5-0.3l0,0.3
	L282.7,161.9L282.7,161.9z M201.6,54.9l-0.2-0.5l-0.2-0.1l-0.1,0.2l0.3,0.4L201.6,54.9L201.6,54.9z M47.9,203.4l0.5-0.1l0.2-0.5
	l-0.5,0.1L47.9,203.4L47.9,203.4z M179.5,27.6l0.5-0.1l0.1-0.3l-0.3,0L179.5,27.6L179.5,27.6z M260.2,134l-0.5,0.1l0,0.3l0.5,0
	L260.2,134L260.2,134z M187,38.3l0.2-0.1l0.1-0.3l-0.4,0l-0.1,0.4L187,38.3L187,38.3z M41.7,195l0.3,0l0.2-0.2l0.1-0.2l-0.4,0
	L41.7,195L41.7,195z M199.8,57.3l0.2-0.2l0-0.3l-0.6,0.1l-0.1,0.3L199.8,57.3L199.8,57.3z M171,19l-0.5-0.2l0,0.3l0.2,0.2l0.3,0.1
	L171,19L171,19z M196.7,54.6l-0.5,0.2l0,0.2l0.4,0L196.7,54.6L196.7,54.6z M293,182.7l0-0.3l-0.2-0.2l-0.2-0.1l0,0.4L293,182.7
	L293,182.7z M174.2,26.9l0.7-0.5L174.2,26.9L174.2,26.9z M164.3,13.4l-0.5,0.2l-0.1,0.3l0.5,0L164.3,13.4L164.3,13.4z M170.2,24.5
	l0.2,0.5l0.3,0.1l0.1-0.2l-0.3-0.4L170.2,24.5L170.2,24.5z M287.6,182.9l0.3,0l0.2-0.2l0.1-0.2l-0.4-0.1L287.6,182.9L287.6,182.9z
	 M242.4,123.5l-0.3,0l-0.3,0.5l0.2,0.1l0.4-0.3L242.4,123.5L242.4,123.5z M207.1,78.6l0-0.3l-0.5-0.3l-0.1,0.2l0.3,0.4L207.1,78.6
	L207.1,78.6z M57.5,214.3l-0.4-1l0.3,1L57.5,214.3L57.5,214.3z M154.6,10.2l0.4,0.3L155,10l-0.4-0.1L154.6,10.2L154.6,10.2z
	 M238.4,121.3l0-0.3l-0.5-0.3l-0.1,0.2l0.3,0.4L238.4,121.3L238.4,121.3z M154.2,14.2l-0.6,0.1l-0.2,0.5l0.5,0L154.2,14.2
	L154.2,14.2z M157.5,18.6l-0.1,0.4l0.4,0.3l0.1-0.4L157.5,18.6L157.5,18.6z M292.1,199.4l0.7-0.5L292.1,199.4L292.1,199.4z
	 M290.5,196.8l-0.1,0.1l0.2,0.5l0.4,0l-0.2-0.5L290.5,196.8L290.5,196.8z M148.8,10.5l0.8-0.5L148.8,10.5L148.8,10.5z M288.9,195.7
	l-0.2-0.5l-0.3,0.2l0.4,0.4L288.9,195.7L288.9,195.7z M231.7,121.7l0-0.3l-0.5-0.3l-0.1,0.2l0.3,0.4L231.7,121.7L231.7,121.7z
	 M250.2,146.3l-0.2-0.5l-0.3-0.1l-0.1,0.2l0.3,0.4L250.2,146.3L250.2,146.3z M204.9,87.1l0.1-0.4l-0.4-0.3l-0.1,0.4L204.9,87.1
	L204.9,87.1z M290.2,205.6l0-0.3l-0.5-0.3l-0.1,0.2l0.3,0.5L290.2,205.6L290.2,205.6z M9.9,147.2l0-0.3l-0.5-0.3l0,0.3l0.4,0.4
	L9.9,147.2L9.9,147.2z M73.5,230.7l-0.4-0.1l0,0.2l0.4,0.3L73.5,230.7L73.5,230.7z M207.6,99.9l-0.5-0.7L207.6,99.9L207.6,99.9z
	 M8.3,144.7l0.2,0.2l0.3,0.1l0.1-0.4l-0.4-0.3l-0.1,0.2L8.3,144.7L8.3,144.7z M272.9,187.7l0-0.3l-0.5-0.3l-0.1,0.3l0.4,0.4
	L272.9,187.7L272.9,187.7z M69,223.8l-0.5,0l-0.2,0.5l0.5,0L69,223.8L69,223.8z M111.2,280l0.2-0.2l0.1-0.3l-0.3-0.1l-0.3,0.5
	L111.2,280L111.2,280z M139.1,14.2l0.2,0.2l0.3,0.1l0-0.5l-0.4-0.1L139.1,14.2L139.1,14.2z M206,106.2l0.7-0.2l-0.1-0.4l-0.3,0
	L206,106.2L206,106.2z M210.6,112.5l-0.1,0l0.1-0.8l-0.4-0.2l0,0.3L210.6,112.5L210.6,112.5z M210.4,112.4l0.1,0l-0.1,0.8l0.5,0.2
	l0-0.3L210.4,112.4L210.4,112.4z M211.8,116.5l0-0.2l-0.4-0.3l0,0.3l0.3,0.3L211.8,116.5L211.8,116.5z M259.7,181.5l-0.2-0.5
	l-0.3-0.1l0.3,0.6L259.7,181.5L259.7,181.5z M65.4,216.6l0.5,0.3l0.1-0.4l-0.4-0.3L65.4,216.6L65.4,216.6z M201.1,104.2l-0.2-0.2
	l-0.2,0l0.1,0.5l0.2,0.1L201.1,104.2L201.1,104.2z M122.3,289.5l0.3-0.5l-0.3-0.1l-0.4,0.4l0.1,0.2L122.3,289.5L122.3,289.5z
	 M88.7,244.7l0.2-0.4l-0.3,0l-0.3,0.4L88.7,244.7L88.7,244.7z M84.3,238.6l0.2,0.2l0.3,0.1l-0.1-0.5l-0.4-0.1L84.3,238.6L84.3,238.6
	z M126.8,15.5l-0.5,0L126,16l0.5,0L126.8,15.5L126.8,15.5z M277.9,217l-0.3,0l-0.2,0.2l0.2,0.3l0.3-0.3L277.9,217L277.9,217z
	 M66.7,216.2l0.6-0.1l0.2-0.2l0-0.3l-0.5,0L66.7,216.2L66.7,216.2z M121.1,285.9l-0.4-0.1l0,0.3l0.4,0.3L121.1,285.9L121.1,285.9z
	 M153.2,54.4l0.5,0.3l0-0.3l-0.4-0.4l-0.2,0.1L153.2,54.4L153.2,54.4z M195.5,110.3l0-0.2l-0.4-0.3l0,0.3l0.3,0.4L195.5,110.3
	L195.5,110.3z M201.3,118.5l0.2,0.2l0.3,0.1l0-0.5l-0.4-0.1L201.3,118.5L201.3,118.5z M192,108.6l0.2-0.6l-0.3-0.1l-0.3,0.4l0,0.2
	L192,108.6L192,108.6z M78.5,228.3l0-0.3l-0.2-0.2l-0.3,0l0,0.5L78.5,228.3L78.5,228.3z M66.4,213l0-0.1l0.5,0.6l0.3,0.1l0.2-0.1
	l-0.2-0.5L66.4,213L66.4,213z M125.6,21.3l0.2-0.6l-0.3,0l-0.3,0.4l0.1,0.2L125.6,21.3L125.6,21.3z M122,16.7l0.2,0.5l0.3,0.1
	l0.1-0.2l-0.3-0.4L122,16.7L122,16.7z M63.4,206.4l0-0.3l-0.4-0.3L63,206l0.3,0.4L63.4,206.4L63.4,206.4z M117.3,16.4l-0.5,0.1
	l0,0.3l0.5,0L117.3,16.4L117.3,16.4z M190.8,120.6l-0.2,0l-0.2,0.2l0.2,0.3l0.3-0.3L190.8,120.6L190.8,120.6z M228.2,170.8
	L228.2,170.8l0.1-0.9l-0.4,0l0,0.3L228.2,170.8L228.2,170.8z M248.1,203.6l-0.2-0.2l-0.2,0l0.1,0.5l0.3,0.1L248.1,203.6L248.1,203.6
	z M190.8,130.8l-0.1-0.5l-0.4-0.1l0.2,0.5L190.8,130.8L190.8,130.8z M107.7,22.3l0.1-0.2l0-0.2l-0.4-0.3l-0.1,0.4L107.7,22.3
	L107.7,22.3z M102.9,21.3l0.2,0.2l0.3,0.1l-0.2-0.5l-0.3-0.1L102.9,21.3L102.9,21.3z M264.1,236.2l0.2-0.2l0.1-0.3l-0.5,0.1
	l-0.1,0.2L264.1,236.2L264.1,236.2z M168,116.5l0.3-0.4L168,116l-0.4,0.3l0,0.2L168,116.5L168,116.5z M97.4,22.9l-0.5,0.2l0.2,0.3
	l0.4-0.4L97.4,22.9L97.4,22.9z M190.3,146.6l0-0.3l-0.2-0.2l-0.3-0.1l0,0.3L190.3,146.6L190.3,146.6z M179.8,133.7l0-0.3l-0.2-0.2
	l-0.3-0.1l0,0.4L179.8,133.7L179.8,133.7z M176.3,130.3l0.4,0.3l-0.1-0.5l-0.4,0L176.3,130.3L176.3,130.3z M246.8,224.6l0.3-0.2
	l0-0.3l-0.5,0l-0.1,0.5L246.8,224.6L246.8,224.6z M165.6,119.7l0-0.3l-0.2-0.2l-0.3-0.1l0,0.4L165.6,119.7L165.6,119.7z M127.6,70.3
	l0.2,0.5l0.3,0l-0.2-0.6L127.6,70.3L127.6,70.3z M172.2,134.8l0-0.5l-0.5-0.2l0,0.5L172.2,134.8L172.2,134.8z M160.9,121.1l0.5,0.3
	l0.1-0.3l-0.4-0.4l-0.2,0.1L160.9,121.1L160.9,121.1z M257.1,248.5l-0.4-0.2l0,0.3l0.4,0.3L257.1,248.5L257.1,248.5z M189.1,160
	l0.3-0.4l-0.2-0.1l-0.4,0.3l0,0.2L189.1,160L189.1,160z M88.3,31.3l0,0.3l0.4,0.3l0.1-0.2l-0.3-0.4L88.3,31.3L88.3,31.3z M188.9,168
	l-0.4-0.2l0,0.3l0.4,0.3L188.9,168L188.9,168z M110,64.3l0.2,0.5l0.3,0l-0.2-0.6L110,64.3L110,64.3z M167.8,140.6l0,0.1l-0.8-0.1
	l-0.2,0.4l0.3,0L167.8,140.6L167.8,140.6z M165.8,142.6l-0.2-0.5l-0.3-0.1l-0.1,0.2l0.3,0.4L165.8,142.6L165.8,142.6z M147.9,119.9
	l0-0.3l-0.2-0.2l-0.3-0.1l0.2,0.6L147.9,119.9L147.9,119.9z M244.5,248.4l-0.2-0.5l-0.3-0.1l0.2,0.6L244.5,248.4L244.5,248.4z
	 M168.4,148.7l0.2-0.2l0-0.2l-0.3,0l-0.3,0.5L168.4,148.7L168.4,148.7z M81,33.1l0.2,0.2l0.3,0.1l0-0.5L81,32.9L81,33.1L81,33.1z
	 M165.4,144.9l-0.4-0.2l0,0.3l0.1,0.3l0.3,0.1L165.4,144.9L165.4,144.9z M160.4,145.9l0.3,0.1l0.2-0.2l0.1-0.3l-0.4-0.1L160.4,145.9
	L160.4,145.9z M243.8,255.8l0-0.3l-0.4-0.3l-0.1,0.1l0.3,0.4L243.8,255.8L243.8,255.8z M140.1,120.5l0.3-0.5l-0.3,0l-0.2,0.2
	l-0.1,0.3L140.1,120.5L140.1,120.5z M163.5,152.3l0.4,0.3l-0.1-0.5l-0.4,0L163.5,152.3L163.5,152.3z M158.1,147.7l-0.1-0.5l-0.5,0
	l0.2,0.5L158.1,147.7L158.1,147.7z M179.2,178.3l0.2,0.2l0.3,0.1l-0.1-0.5l-0.4,0L179.2,178.3L179.2,178.3z M239.7,259.5l-0.5,0.1
	l0,0.3l0.2,0.1l0.4-0.3L239.7,259.5L239.7,259.5z M139,126.1l-0.2-0.2l-0.2,0l0.2,0.5l0.2,0.1L139,126.1L139,126.1z M155,150.8
	l-0.4-0.1l-0.3,0.4l0.4,0.1L155,150.8L155,150.8z M237.1,262.4l0.5-0.1l0.2-0.5l-0.5,0.1L237.1,262.4L237.1,262.4z M131.8,121.9
	l-0.2-0.5l-0.3,0.2l0.3,0.4L131.8,121.9L131.8,121.9z M178.2,184.9l0,0.3l0.2,0.2l0.3,0.1l0-0.5L178.2,184.9L178.2,184.9z M129,120
	l-0.6-0.3l0,0.3l0.6,0.3L129,120L129,120z M133.3,126.4l0.4,0.3l-0.1-0.5l-0.4,0L133.3,126.4L133.3,126.4z M176,182.8l0-0.3
	l-0.5-0.3l-0.1,0.2l0.3,0.4L176,182.8L176,182.8z M156.2,157.5l0-0.3l-0.5-0.3l0,0.3l0.3,0.4L156.2,157.5L156.2,157.5z M157.3,158.9
	l-0.2-0.4l-0.3,0.2l0.3,0.4L157.3,158.9L157.3,158.9z M68.2,42.1l0.2-0.2v-0.3l-0.6,0.1L67.8,42L68.2,42.1L68.2,42.1z M85.9,67.1
	l0-0.3l-0.5-0.3l-0.1,0.2l0.3,0.4L85.9,67.1L85.9,67.1z M127.6,125.3l0.3-0.5l-0.3-0.1l-0.4,0.4l0.1,0.2L127.6,125.3L127.6,125.3z
	 M208.9,232.8l0-0.3l-0.4-0.3l-0.1,0.1l0.3,0.4L208.9,232.8L208.9,232.8z M65.1,45.5l-0.4,0.2L64.6,46l0.3,0l0.3-0.4L65.1,45.5
	L65.1,45.5z M162.7,183.5l0-0.3l-0.5-0.3l0,0.3l0.4,0.4L162.7,183.5L162.7,183.5z M141.3,156.7l0.2-0.1l0-0.3l-0.1-0.1l-0.5,0.2
	l-0.1,0.3L141.3,156.7L141.3,156.7z M148.4,165.6l-0.5,0.1l0,0.3l0.5,0L148.4,165.6L148.4,165.6z M117.3,127.3l0.1,0.5l0.4,0l0-0.3
	L117.3,127.3L117.3,127.3z M151.8,173.3l0.1-0.4l-0.4-0.3l-0.1,0.4L151.8,173.3L151.8,173.3z M217.2,263.5l0.3,0l0.2-0.2l0.1-0.2
	l-0.4,0L217.2,263.5L217.2,263.5z M160.7,187.8l-0.2-0.2l-0.2,0l0.1,0.5l0.3,0.1L160.7,187.8L160.7,187.8z M118.7,133.3l0.2,0.6
	l0.3,0l0.1-0.2l-0.3-0.4L118.7,133.3L118.7,133.3z M151.2,176.6l0.1,0.6l0.4,0l0-0.3L151.2,176.6L151.2,176.6z M125.3,142.8
	l-0.2-0.2l-0.3-0.1l0.2,0.5l0.3,0.1L125.3,142.8L125.3,142.8z M134.5,156.8l0.6-0.1l0.2-0.5l-0.5,0L134.5,156.8L134.5,156.8z
	 M145.2,169.6l0-0.3l-0.2-0.2l-0.2-0.1l0,0.4L145.2,169.6L145.2,169.6z M163,193.2l-0.3-0.1l-0.3,0.5l0.3,0L163,193.2L163,193.2z
	 M218.4,267l0.1,0.5l0.4,0.2l0-0.5L218.4,267L218.4,267z M116.3,131.7l-0.2-0.2l-0.2,0l0,0.3l0.4,0.3L116.3,131.7L116.3,131.7z
	 M118,135.4l-0.1-0.5l-0.4-0.1l0.1,0.5L118,135.4L118,135.4z M149,176.8l0.2,0.5l0.2,0l-0.2-0.6L149,176.8L149,176.8z M133,156
	l-0.4-0.1l0,0.3l0.4,0.3L133,156L133,156z M114.5,132.7l0-0.3l-0.5-0.3l-0.1,0.2l0.3,0.4L114.5,132.7L114.5,132.7z M147.7,176.9
	l-0.3,0l-0.2,0.1l0,0.3l0.4,0L147.7,176.9L147.7,176.9z M124.5,148.3l0.5-0.1l0-0.4l-0.5,0.1L124.5,148.3L124.5,148.3z M161.7,196.5
	l-0.3,0l-0.3,0.5l0.3,0L161.7,196.5L161.7,196.5z M216.3,270.4l0-0.3l-0.5-0.3l-0.1,0.2l0.3,0.5L216.3,270.4L216.3,270.4z
	 M125.5,150.5l-0.2-0.4l-0.3,0.2l0.3,0.3L125.5,150.5L125.5,150.5z M114.1,137.6l0.3,0l0.2-0.2l0.1-0.3l-0.4,0L114.1,137.6
	L114.1,137.6z M117.4,141.5l0.2-0.2l0.1-0.3l-0.5,0l0,0.4L117.4,141.5L117.4,141.5z M142,173.2l-0.2-0.2l-0.2,0l0.1,0.5l0.3,0.1
	L142,173.2L142,173.2z M154.2,193l0.3,0.1l0.3-0.5l-0.2-0.1l-0.4,0.3L154.2,193L154.2,193z M113.2,138.2l-0.1-0.5l-0.3,0l-0.1,0.2
	l0.3,0.4L113.2,138.2L113.2,138.2z M148.7,185.5l-0.2-0.5l-0.3,0.2l0.4,0.4L148.7,185.5L148.7,185.5z M149.5,186.8l0-0.4l-0.3-0.1
	l-0.2,0.6l0.3,0L149.5,186.8L149.5,186.8z M144.9,181.5l-0.1-0.5l-0.4,0l0.2,0.5L144.9,181.5L144.9,181.5z M152,190.6l-0.2-0.2
	l-0.2-0.1l-0.2,0l0.1,0.5l0.4,0.1L152,190.6L152,190.6z M54.5,62l-0.1,0.2l0,0.3l0.4,0.3l0.1-0.4L54.5,62L54.5,62z M152.2,192.1
	l-0.5,0l-0.2,0.5l0.5,0L152.2,192.1L152.2,192.1z M141.3,178.8l-0.2-0.5l-0.3-0.1l0.2,0.5L141.3,178.8L141.3,178.8z M120.5,152
	l-0.2-0.5l-0.3-0.1l0.3,0.6L120.5,152L120.5,152z M154.1,196.8v-0.3l-0.1-0.3l-0.3,0l0,0.5L154.1,196.8L154.1,196.8z M50.5,59.7
	l-0.7,0.5L50.5,59.7L50.5,59.7z M111,140.6l0.1-0.1l-0.4-0.5l-0.1,0.1l0.2,0.5L111,140.6L111,140.6z M118.9,150.9l-0.2-0.5l-0.3,0.2
	l0.4,0.4L118.9,150.9L118.9,150.9z M209.9,272l-0.2-0.4l-0.3,0.2l0.3,0.3L209.9,272L209.9,272z M113.4,144.7l0,0.4l0.4,0.3l0-0.4
	L113.4,144.7L113.4,144.7z M116.3,150l0.5,0.3l-0.1-0.5l-0.4,0L116.3,150L116.3,150z M121.9,157.4l0.5,0.2l0-0.5l-0.4-0.2
	L121.9,157.4L121.9,157.4z M140.6,182.6l0.2-0.2l0.1-0.3l-0.4-0.1l-0.3,0.5L140.6,182.6L140.6,182.6z M114.2,148.8l0.5,0.8
	L114.2,148.8L114.2,148.8z M143.6,190.1l0.3,0l0.3-0.2l0.1-0.3l-0.6,0.1L143.6,190.1L143.6,190.1z M112.3,148.6l0.3,0.1l0-0.3
	l-0.2-0.2l-0.3-0.1L112.3,148.6L112.3,148.6z M139.6,184.3l-0.2-0.2l-0.2,0l0.1,0.5l0.3,0.1L139.6,184.3L139.6,184.3z M146.3,193.6
	l-0.5-0.7L146.3,193.6L146.3,193.6z M204.6,274.6l0.2,0.2l0.3,0.1l0-0.5l-0.4-0.1L204.6,274.6L204.6,274.6z M201.3,275.7l0.3-0.4
	l-0.5,0.1l0,0.4L201.3,275.7L201.3,275.7z M198.5,275.3l-0.2-0.1l-0.3,0l-0.3,0.4l0.4,0.1L198.5,275.3L198.5,275.3z M45,72.1l0,0.5
	l0.4,0.2l0-0.5L45,72.1L45,72.1z M43.3,72.9l0.1-0.3l-0.2-0.2l-0.3-0.1l0,0.4L43.3,72.9L43.3,72.9z M41.3,71.2l-0.3,0l-0.2,0.1
	l-0.1,0.3l0.4,0L41.3,71.2L41.3,71.2z M121,177l-0.7,0.5L121,177L121,177z M177.7,260l-0.2-0.5l-0.3-0.1l0.2,0.6L177.7,260
	L177.7,260z M114.8,188.7l0.3,0.1l0.3-0.7l-0.3-0.1l-0.3,0.4L114.8,188.7L114.8,188.7z M141,224.4l-0.3,0l-0.3,0.4l0.3,0L141,224.4
	L141,224.4z M105.3,180.8l-0.2-0.2l-0.2,0l0,0.3l0.4,0.3L105.3,180.8L105.3,180.8z M134.4,220.8l-0.5,0.2l-0.1,0.3l0.6-0.3
	L134.4,220.8L134.4,220.8z M175.6,279.5l0.3-0.4l-0.2-0.1l-0.3,0.5L175.6,279.5L175.6,279.5z M173.1,278.3l0.2-0.2l0.1-0.3l-0.5,0
	l-0.1,0.4L173.1,278.3L173.1,278.3z M113.4,199.1l0-0.6l-0.5-0.2l0,0.5L113.4,199.1L113.4,199.1z M64.4,137.8l-0.2-0.5l-0.3-0.1
	l0,0.3l0.4,0.4L64.4,137.8L64.4,137.8z M132.9,229l-0.1-0.5l-0.4,0l0.1,0.5L132.9,229L132.9,229z M28.9,92.9l0.1-0.4l-0.4-0.3
	l-0.1,0.4L28.9,92.9L28.9,92.9z M28.7,97.9l0.4,0.3L29,97.7l-0.4,0L28.7,97.9L28.7,97.9z M147.1,256.1l-0.2-0.1l-0.3,0l-0.3,0.4
	l0.4,0.1L147.1,256.1L147.1,256.1z M165.3,282.5l0-0.3l-0.5-0.3l-0.1,0.2l0.3,0.4L165.3,282.5L165.3,282.5z M95,194l0.5,0.7L95,194
	L95,194z M22.6,100.3l0-0.1l0.8,0.2l0.2-0.5l-0.3,0L22.6,100.3L22.6,100.3z M160.9,284.8l0.1,0.5l0.5,0.2l0-0.5L160.9,284.8
	L160.9,284.8z M158.5,283.7l0-0.3l-0.5-0.3l0,0.3l0.4,0.4L158.5,283.7L158.5,283.7z M155.2,281.8l0.4,0.3l-0.1-0.5l-0.4,0
	L155.2,281.8L155.2,281.8z M96.3,205.8l0.2-0.2l0.1-0.3l-0.5,0l-0.1,0.4L96.3,205.8L96.3,205.8z M152.5,286l-0.1-0.5l-0.5-0.2
	l0.1,0.5L152.5,286L152.5,286z M23,116.6l0-0.3l-0.2-0.2l-0.3-0.1l0,0.4L23,116.6L23,116.6z M96.9,218.2l0.2,0.5l0.2,0.1l-0.2-0.6
	L96.9,218.2L96.9,218.2z M19.1,115.8l0.5,0.3l-0.1-0.5l-0.4,0L19.1,115.8L19.1,115.8z M20.2,119.8l-0.2-0.2l-0.2,0l0,0.3l0.5,0.3
	L20.2,119.8L20.2,119.8z M88.4,210.8l0-0.3l-0.4-0.3l-0.1,0.2l0.3,0.5L88.4,210.8L88.4,210.8z M143.5,286.3l-0.2,0l-0.3,0.4l0.3,0
	l0.4-0.3L143.5,286.3L143.5,286.3z M40.9,151.1l0.2,0.2l0.3,0.1l-0.1-0.5l-0.4,0L40.9,151.1L40.9,151.1z M88,213.4l-0.1-0.1
	l-0.5,0.4l0.1,0.1L88,213.4L88,213.4z M20,125l0-0.3l-0.1-0.2l-0.3-0.1l0,0.4L20,125L20,125z M140.1,286l-0.2-0.5l-0.3-0.1l0.2,0.5
	L140.1,286L140.1,286z M142.4,288.8l-0.2-0.5l-0.3,0.2l0.4,0.4L142.4,288.8L142.4,288.8z M18.1,125.1l0.2-0.2l0.1-0.3l-0.5,0.1
	l0,0.4L18.1,125.1L18.1,125.1z M113.2,255.3l0-0.3l-0.5-0.3l0,0.3L113.2,255.3L113.2,255.3z M77.7,208.8l-0.1-0.5l-0.4,0l0.1,0.5
	L77.7,208.8L77.7,208.8z M84.9,219.6l0.3,0l0.2-0.2l0.1-0.3l-0.4,0L84.9,219.6L84.9,219.6z M14.2,125.4l0,0.3l0.4,0.3l0.1-0.2
	l-0.3-0.4L14.2,125.4L14.2,125.4z M82,217.4l0.2-0.2l0-0.3l-0.6,0.1l-0.1,0.3L82,217.4L82,217.4z M17,134.2l0-0.3l-0.2-0.2l-0.2-0.1
	l0,0.4L17,134.2L17,134.2z M62.9,196.2l0.3-0.5l-0.3,0l-0.4,0.4l0.1,0.2L62.9,196.2L62.9,196.2z M126.8,282.3l0.2-0.2l0.1-0.3
	l-0.5,0.1l-0.1,0.3L126.8,282.3L126.8,282.3z M132.2,288.8l0,0.3l0.1,0.2l0.3,0l0-0.4L132.2,288.8L132.2,288.8z M67.9,205.3l0.5-0.1
	l0-0.4l-0.5,0.1L67.9,205.3L67.9,205.3z M128.5,286.3l0.2,0.2l0.3,0.1l0-0.5l-0.4-0.1L128.5,286.3L128.5,286.3z M72.1,212.5l0.2-0.6
	l-0.3,0l-0.2,0.6L72.1,212.5L72.1,212.5z M68.2,207.5l0-0.3l-0.5-0.3l0,0.3l0.4,0.4L68.2,207.5L68.2,207.5z M81.3,277.4l0.1,0.5
	l0.5,0.2l-0.1-0.5L81.3,277.4L81.3,277.4z M10.4,183.1l0.1-0.2l0-0.3l-0.4-0.3l-0.1,0.4L10.4,183.1L10.4,183.1z M7.4,178.9l0.6,0.8
	L7.4,178.9L7.4,178.9z M23.9,199.6l-0.2-0.2l-0.3,0l0.1,0.5l0.3,0.1L23.9,199.6L23.9,199.6z M74.8,266.7l-0.6-0.8L74.8,266.7
	L74.8,266.7z M13.2,184.3l-0.4-0.1l0,0.3l0.2,0.2l0.3,0.1L13.2,184.3L13.2,184.3z M89,284.2l-0.2-0.2l-0.2-0.1l-0.2,0l0.1,0.5
	l0.5,0.1L89,284.2L89,284.2z M82.3,276.4l0.3-0.5l-0.3,0l-0.2,0.2l-0.1,0.3L82.3,276.4L82.3,276.4z M76.5,268.5l0.2-0.5l-0.3-0.1
	l-0.3,0.4L76.5,268.5L76.5,268.5z M6.9,175l-0.2-0.5H6.3l0.2,0.5L6.9,175L6.9,175z M29.9,204.7l-0.1-0.5l-0.4,0l0.1,0.5L29.9,204.7
	L29.9,204.7z M91.4,285.6l0-0.3l-0.2-0.2L91,285l0,0.4L91.4,285.6L91.4,285.6z M81.1,273.3l0.7-0.3l0-0.3l-0.4-0.2L81.1,273.3
	L81.1,273.3z M73.7,262.9l0.2-0.2l0-0.3l-0.4-0.1l-0.3,0.4l0.2,0.1L73.7,262.9L73.7,262.9z M21.6,193.4l0.2-0.2l0.1-0.2l-0.1-0.2
	l-0.5,0.1l0,0.5L21.6,193.4L21.6,193.4z M15.8,185.4l0.2-0.2l-0.1-0.2l-0.5,0.2l-0.1,0.3L15.8,185.4L15.8,185.4z M12.7,180.6
	l-0.5-0.1L12,181l0.4,0L12.7,180.6L12.7,180.6z M79.4,269.8l0.5-0.1l0.2-0.4l-0.5,0L79.4,269.8L79.4,269.8z M19.7,189.1l-0.1-0.5
	l-0.3,0l0.2,0.6L19.7,189.1L19.7,189.1z M73.2,259.4l-0.5-0.8L73.2,259.4L73.2,259.4z M95.9,287.6l0-0.3l-0.2-0.2l-0.3-0.1l0,0.4
	L95.9,287.6L95.9,287.6z M30.7,200.1l0.3,0.1l0-0.3l-0.4-0.4l-0.1,0.1L30.7,200.1L30.7,200.1z M8.4,171l0.3-0.6l-0.3,0l-0.3,0.6
	L8.4,171L8.4,171z M29.5,196.8l-0.4-0.2l0,0.3l0.2,0.2l0.3,0.1L29.5,196.8L29.5,196.8z M77.6,260.3l-0.5,0.2l0.2,0.3l0.4-0.4
	L77.6,260.3L77.6,260.3z M67.1,245.1l-0.1,0.4l0.4,0.3l0.1-0.4L67.1,245.1L67.1,245.1z M64.9,241.7l0.1-0.4l-0.3-0.1l-0.2,0.2
	l-0.1,0.3L64.9,241.7L64.9,241.7z M77.1,256.3l0-0.3l-0.5-0.3l-0.1,0.2l0.3,0.4L77.1,256.3L77.1,256.3z M11.5,169l0.5,0.8L11.5,169
	L11.5,169z M6.4,162.2l-0.1-0.5l-0.4,0l0.1,0.5L6.4,162.2L6.4,162.2z M37.6,202.7l-0.2-0.5l-0.3,0.2l0.4,0.4L37.6,202.7L37.6,202.7z
	 M42.8,208.7l0.3,0l0.2-0.2l0.1-0.3l-0.4,0L42.8,208.7L42.8,208.7z M34.9,197l-0.2-0.5l-0.3,0.2l0.3,0.4L34.9,197L34.9,197z
	 M100.5,283.7l0-0.4l-0.3,0l-0.3,0.4l0.1,0.2L100.5,283.7L100.5,283.7z M37.2,199l-0.1,0.2l0,0.3l0.4,0.3l0.1-0.4L37.2,199L37.2,199
	z M77,251l0-0.3l-0.5-0.3l0,0.3l0.4,0.4L77,251L77,251z M67.3,238.2l0-0.3l-0.4-0.3l-0.1,0.1l0.3,0.4L67.3,238.2L67.3,238.2z
	 M11.3,162.5l0-0.3l-0.2-0.2l-0.3-0.1l0,0.5L11.3,162.5L11.3,162.5z M44.5,205.8l-0.3,0l-0.2,0.2l0.2,0.3l0.3-0.3L44.5,205.8
	L44.5,205.8z M7.2,156.2l0-0.3l-0.5-0.3l0,0.3L7.2,156.2L7.2,156.2z M105,285.2l-0.5,0.1l-0.1,0.3l0.2,0.1l0.4-0.3L105,285.2
	L105,285.2z M107.2,286.1l0-0.3l-0.5-0.3l-0.1,0.2l0.3,0.4L107.2,286.1L107.2,286.1z M277.2,145.2H277l0.1,0.2L277.2,145.2
	L277.2,145.2z M289.4,164.7l0.1-0.2l-0.3,0.2L289.4,164.7L289.4,164.7z M273.8,144.7l-0.2,0l0.1,0.2L273.8,144.7L273.8,144.7z
	 M192.5,38.6l-0.2,0l0.1,0.2L192.5,38.6L192.5,38.6z M264.6,134.5l-0.2,0l0.2,0.3l0.1-0.2L264.6,134.5L264.6,134.5z M260.8,130.4
	l-0.2,0l0,0.3l0.2,0.1L260.8,130.4L260.8,130.4z M285.6,163.7l0-0.2l-0.2,0.1L285.6,163.7L285.6,163.7z M198,48.2l0.2,0l-0.1-0.2
	L198,48.2L198,48.2z M276.6,153.4l-0.2-0.1l0.2,0.3L276.6,153.4L276.6,153.4z M264.5,138.7l0-0.2l-0.3,0.2L264.5,138.7L264.5,138.7z
	 M267.7,143.1l0.2,0l-0.1-0.2L267.7,143.1L267.7,143.1z M177.9,24.4l0-0.3l-0.3-0.1l0,0.3L177.9,24.4L177.9,24.4z M182.8,31.2
	l0.3,0.1l0-0.3l-0.3-0.1L182.8,31.2L182.8,31.2z M198.1,52.3l0.1-0.3l-0.3,0l-0.1,0.2L198.1,52.3L198.1,52.3z M253,126.6l0-0.3
	l-0.2-0.1l0,0.2L253,126.6L253,126.6z M293.4,180.1l-0.2,0l0.1,0.2L293.4,180.1L293.4,180.1z M193.4,48.1l0.1-0.3l-0.3,0l0,0.3
	L193.4,48.1L193.4,48.1z M205.3,63.7l-0.2,0l0.1,0.2L205.3,63.7L205.3,63.7z M178.5,29.8l0.3,0l0.1-0.3l-0.3,0L178.5,29.8
	L178.5,29.8z M200.6,59.5l-0.2,0l0.2,0.3L200.6,59.5L200.6,59.5z M203,63.7l-0.2,0l0,0.2L203,64L203,63.7L203,63.7z M246,120.9
	l-0.3,0.2l0.2,0L246,120.9L246,120.9z M254.1,132l0.1-0.3l-0.3-0.1l0,0.2L254.1,132L254.1,132z M255.9,134.4v-0.2l-0.2,0.1
	L255.9,134.4L255.9,134.4z M247.3,125.2l0.2,0l-0.1-0.2L247.3,125.2L247.3,125.2z M206.7,72l0-0.3l-0.3-0.1l0,0.3L206.7,72L206.7,72
	z M293.2,187l-0.2,0l0,0.2l0.2,0L293.2,187L293.2,187z M166,20.6l-0.2,0l0,0.3L166,21L166,20.6L166,20.6z M248.2,130.2l0-0.2
	l-0.2-0.1l0.1,0.4L248.2,130.2L248.2,130.2z M162.6,17.4l0-0.3l-0.3-0.1l0,0.3L162.6,17.4L162.6,17.4z M237.7,118.4l0,0.2l0.2-0.1
	L237.7,118.4L237.7,118.4z M244,127l0.2,0l-0.1-0.2L244,127L244,127z M249.1,133.5l0-0.3l-0.3-0.1l0,0.3L249.1,133.5L249.1,133.5z
	 M202,71.8l0-0.3l-0.3-0.1l0,0.3L202,71.8L202,71.8z M290.3,189.5l0.1-0.3l-0.3,0.2L290.3,189.5L290.3,189.5z M291.9,191.9l0.2,0.1
	l0-0.2l-0.2-0.1L291.9,191.9L291.9,191.9z M265.6,159.5l0-0.2l-0.2-0.1l0,0.3L265.6,159.5L265.6,159.5z M203.4,78.1l0.3,0.1l0-0.3
	l-0.3,0L203.4,78.1L203.4,78.1z M233.1,118.2l-0.2,0l0.1,0.2L233.1,118.2L233.1,118.2z M248.8,139.5h0.2l-0.1-0.2L248.8,139.5
	L248.8,139.5z M199.8,75l0-0.2l-0.2-0.1l-0.1,0.2L199.8,75L199.8,75z M208.3,86.3l0-0.3L208,86l-0.1,0.2L208.3,86.3L208.3,86.3z
	 M230,115.3l0-0.2l-0.2,0.1L230,115.3L230,115.3z M204.9,83.2l0.2,0l-0.1-0.2L204.9,83.2L204.9,83.2z M206.9,91l0.3,0.1l0-0.2
	l-0.3,0L206.9,91L206.9,91z M224.2,114.7l0,0.2l0.2-0.1L224.2,114.7L224.2,114.7z M290.6,203.1l0-0.2l-0.2-0.1l0,0.3L290.6,203.1
	L290.6,203.1z M226.3,119.5l-0.2,0l0.1,0.2L226.3,119.5L226.3,119.5z M288.4,203h-0.2l0.1,0.2L288.4,203L288.4,203z M143.2,12
	l0.1-0.3l-0.3,0l-0.1,0.2L143.2,12L143.2,12z M183.8,65.9l-0.3,0.2l0.2,0.1L183.8,65.9L183.8,65.9z M205.8,95.7l0.3,0.1l0-0.3
	l-0.3,0L205.8,95.7L205.8,95.7z M207.5,97.6l0.1-0.3l-0.3-0.1l0,0.3L207.5,97.6L207.5,97.6z M144.4,14.8l-0.2-0.3l0,0.2L144.4,14.8
	L144.4,14.8z M289.2,207.8l0.2,0l-0.1-0.2L289.2,207.8L289.2,207.8z M215.6,111.6l0-0.2l-0.2,0.1L215.6,111.6L215.6,111.6z
	 M138.6,9.7l-0.3,0.2l0.3,0.1L138.6,9.7L138.6,9.7z M205.3,99.9l0-0.2l-0.2,0.1L205.3,99.9L205.3,99.9z M217.7,116.7l0.3,0.1l0-0.3
	l-0.3-0.1L217.7,116.7L217.7,116.7z M284.8,205.9l0-0.2l-0.2,0.1L284.8,205.9L284.8,205.9z M214.9,113.7l-0.2-0.3l0,0.3L214.9,113.7
	L214.9,113.7z M200.7,95.8l0.1-0.3l-0.3-0.1l0,0.3L200.7,95.8L200.7,95.8z M211.6,110.3l0,0.2l0.2-0.1L211.6,110.3L211.6,110.3z
	 M226.6,130l-0.2-0.1l0.2,0.3L226.6,130L226.6,130z M287.2,211.9l0-0.3l-0.3,0.2L287.2,211.9L287.2,211.9z M288,215.1l0-0.2
	l-0.2-0.1l0,0.2L288,215.1L288,215.1z M132.7,11.2l0-0.2l-0.3,0l0,0.2L132.7,11.2L132.7,11.2z M286.2,217.1l0.2,0.1l0-0.2l-0.3,0
	L286.2,217.1L286.2,217.1z M133.4,15.1l-0.2,0l0,0.3l0.3,0L133.4,15.1L133.4,15.1z M203.7,108.8l-0.3,0.2l0.2,0.1L203.7,108.8
	L203.7,108.8z M208.1,114.6l-0.3-0.1l0.2,0.3L208.1,114.6L208.1,114.6z M283.6,215.4l0-0.2l-0.2-0.1l0,0.2L283.6,215.4L283.6,215.4z
	 M211.1,120l0.2,0l-0.1-0.2L211.1,120L211.1,120z M201.1,108.6l0-0.3l-0.3-0.1l0,0.3L201.1,108.6L201.1,108.6z M282.9,217.2
	l-0.2-0.1l0.2,0.3L282.9,217.2L282.9,217.2z M202,110.7l-0.2,0l-0.1,0.3l0.3,0L202,110.7L202,110.7z M198.4,108.9l-0.2,0l0.1,0.2
	L198.4,108.9L198.4,108.9z M188.9,101.6l0-0.2l-0.3,0.2L188.9,101.6L188.9,101.6z M280.1,223l0,0.2l0.2-0.1L280.1,223L280.1,223z
	 M183.6,95.5l0-0.2l-0.2,0.2L183.6,95.5L183.6,95.5z M276.2,220.9l0-0.3l-0.3,0l0,0.4L276.2,220.9L276.2,220.9z M199.4,119.8l0-0.2
	l-0.2,0.1L199.4,119.8L199.4,119.8z M87,281.1l0.2,0.1l0-0.2l-0.2,0L87,281.1L87,281.1z M20.8,191.6l0.1-0.3l-0.3,0l0,0.3
	L20.8,191.6L20.8,191.6z M129,290.4l-0.2,0l0.1,0.2L129,290.4L129,290.4z M125.7,286.2l0-0.2l-0.2-0.1l0,0.2L125.7,286.2
	L125.7,286.2z M65,202.3l0-0.3l-0.2-0.1l0,0.3L65,202.3L65,202.3z M77.3,263.9l0.1-0.3l-0.3-0.1l0,0.3L77.3,263.9L77.3,263.9z
	 M64.5,199.6l0-0.3l-0.3-0.1l0,0.3L64.5,199.6L64.5,199.6z M14,132.6l0.3,0.1l0-0.3l-0.3,0L14,132.6L14,132.6z M89.9,232.7l0.3,0.1
	l0-0.3l-0.3,0L89.9,232.7L89.9,232.7z M5.3,167.6L5,167.5l0.2,0.3L5.3,167.6L5.3,167.6z M132.9,285.4l0-0.2l-0.2,0l-0.1,0.2
	L132.9,285.4L132.9,285.4z M136.7,289.5l0-0.3l-0.3-0.1l0,0.4L136.7,289.5L136.7,289.5z M88,223.6l0.1-0.3l-0.3,0l-0.1,0.3L88,223.6
	L88,223.6z M132.4,281.6l-0.2,0l0.1,0.2L132.4,281.6L132.4,281.6z M74.7,203.2l0.3,0.1l0-0.3l-0.3-0.1L74.7,203.2L74.7,203.2z
	 M70,196.6l0,0.2l0.2-0.1L70,196.6L70,196.6z M68.7,251.7l0.2,0.1l0-0.2l-0.3,0L68.7,251.7L68.7,251.7z M73.1,197.8l0-0.3l-0.3-0.1
	l0,0.3L73.1,197.8L73.1,197.8z M33.5,204.2l-0.2-0.1l0.2,0.3L33.5,204.2L33.5,204.2z M27.2,195.8l-0.3,0l0.2,0.3L27.2,195.8
	L27.2,195.8z M82.5,206.1l0-0.3l-0.3,0.2L82.5,206.1L82.5,206.1z M146.3,288.8l-0.2,0l0,0.3l0.3,0L146.3,288.8L146.3,288.8z
	 M32.4,135.2l-0.2-0.3l-0.1,0.3L32.4,135.2L32.4,135.2z M147.8,287.7l-0.2,0l-0.1,0.2l0.2,0L147.8,287.7L147.8,287.7z M147.6,283.5
	l0-0.3l-0.2,0.1L147.6,283.5L147.6,283.5z M151.9,288.1l0-0.3l-0.4,0.1l0,0.2L151.9,288.1L151.9,288.1z M38.1,208.6l0-0.2l-0.3,0.2
	L38.1,208.6L38.1,208.6z M22.1,111.3l0-0.3l-0.3-0.1l0,0.3L22.1,111.3L22.1,111.3z M157.6,286.8l0-0.2l-0.2,0.1L157.6,286.8
	L157.6,286.8z M92.4,200.1l0.3,0l0.1-0.3l-0.4,0L92.4,200.1L92.4,200.1z M98.9,288.2l-0.2,0l0,0.2l0.2,0.1L98.9,288.2L98.9,288.2z
	 M27.1,192.7l-0.2,0l0,0.3l0.3,0.1L27.1,192.7L27.1,192.7z M65.5,161.9l0-0.3l-0.3-0.1l0,0.3L65.5,161.9L65.5,161.9z M69.8,248.7
	l0-0.3l-0.3-0.1l0,0.3L69.8,248.7L69.8,248.7z M163.3,286.2l0.3,0.1l0-0.3l-0.3-0.1L163.3,286.2L163.3,286.2z M28.5,106.1l-0.2,0
	l-0.1,0.3l0.3,0L28.5,106.1L28.5,106.1z M97.7,195.2l-0.2,0l-0.1,0.2l0.2,0L97.7,195.2L97.7,195.2z M162.6,281.2l0.2,0.1l0-0.2
	l-0.2-0.1L162.6,281.2L162.6,281.2z M24.5,187.4l0.1-0.3l-0.3-0.1l-0.1,0.3L24.5,187.4L24.5,187.4z M169.5,284.7l-0.2,0l0.1,0.3
	L169.5,284.7L169.5,284.7z M99.4,190.8l0.2,0l-0.1-0.2L99.4,190.8L99.4,190.8z M169,282.2l0-0.2l-0.2-0.1l-0.1,0.2L169,282.2
	L169,282.2z M101.4,192.9L101.4,192.9l0.6,0.1l-0.1-0.2L101.4,192.9L101.4,192.9z M167.5,279.4l0-0.2l-0.2-0.1l0,0.2L167.5,279.4
	L167.5,279.4z M173.9,281.3l-0.3-0.1l0.2,0.3L173.9,281.3L173.9,281.3z M105.8,190.9l0.1-0.3l-0.3,0l0,0.3L105.8,190.9L105.8,190.9z
	 M104.8,186.9l0.2,0l0-0.2l-0.3,0L104.8,186.9L104.8,186.9z M31.7,87.2l0-0.2l-0.2-0.1l0,0.2L31.7,87.2L31.7,87.2z M45.7,104
	l0.2,0.1l0-0.2l-0.2-0.1L45.7,104L45.7,104z M181.1,279.7l-0.2,0l0,0.2l0.2,0.1L181.1,279.7L181.1,279.7z M184.4,277.6L184.4,277.6
	l-0.4-0.2l0,0.3L184.4,277.6L184.4,277.6z M184.4,277.7L184.4,277.7l0.5,0.1l0-0.2L184.4,277.7L184.4,277.7z M186.9,279.2l-0.2,0
	l-0.1,0.3l0.3,0L186.9,279.2L186.9,279.2z M37.9,81l0-0.3l-0.3-0.1l0,0.3L37.9,81L37.9,81z M63,235.5l0-0.2l-0.2,0.1L63,235.5
	L63,235.5z M188.9,278l0-0.3l-0.3-0.1l0,0.3L188.9,278L188.9,278z M68.9,116.2L69,116l-0.3,0l0,0.2L68.9,116.2L68.9,116.2z
	 M38.6,75.6l-0.2-0.1l0.2,0.3L38.6,75.6L38.6,75.6z M191.5,278.3l0-0.2l-0.2-0.1l0.1,0.3L191.5,278.3L191.5,278.3z M195.9,275l0-0.3
	l-0.3,0.2L195.9,275L195.9,275z M122.8,176.5l-0.2,0l0.1,0.2L122.8,176.5L122.8,176.5z M199.4,272.2l-0.3,0.2l0.3,0.1L199.4,272.2
	L199.4,272.2z M128.1,172.6l0-0.2l-0.3,0.2L128.1,172.6L128.1,172.6z M205.9,271.2l0.3,0.1l0-0.3h-0.3L205.9,271.2L205.9,271.2z
	 M148.6,194.6l0,0.2l0.2-0.1L148.6,194.6L148.6,194.6z M142,186.3l-0.1,0l0.3-0.5l-0.2-0.1L142,186.3L142,186.3z M122.8,159.8l0,0.1
	l-0.5-0.3l0,0.2L122.8,159.8L122.8,159.8z M119.1,155.5l0-0.2l-0.2-0.1l0,0.2L119.1,155.5L119.1,155.5z M115.3,150.2l0,0.2l0.1-0.1
	L115.3,150.2L115.3,150.2z M147.9,192.3l-0.3-0.1l-0.1,0.3l0.3,0.1L147.9,192.3L147.9,192.3z M112.3,145l-0.2,0l0.1,0.2L112.3,145
	L112.3,145z M147.2,190.4l-0.3,0.2l0.3,0.1L147.2,190.4L147.2,190.4z M19.6,199l-0.2,0l-0.1,0.2l0.2,0L19.6,199L19.6,199z
	 M111.1,142.6l0,0.2l0.2-0.1L111.1,142.6L111.1,142.6z M65.5,235.8l0-0.2l-0.1,0.1L65.5,235.8L65.5,235.8z M150.8,194.5l0,0.2
	l0.2-0.1L150.8,194.5L150.8,194.5z M122.8,156.4l0.2,0l-0.1-0.1L122.8,156.4L122.8,156.4z M120.8,153.4l0.1-0.2l-0.2,0l0,0.2
	L120.8,153.4L120.8,153.4z M149,190.1l0-0.3l-0.3-0.1l0,0.3L149,190.1L149,190.1z M147.9,188.4l-0.3,0.2l0.2,0.1L147.9,188.4
	L147.9,188.4z M114,143.7l0.3,0.1l0-0.3l-0.2-0.1L114,143.7L114,143.7z M123.3,154.7l0-0.2l-0.3,0.2L123.3,154.7L123.3,154.7z
	 M118.2,148.2l0.2,0l-0.1-0.2L118.2,148.2L118.2,148.2z M114,142.4l0.1-0.3l-0.3,0v0.4L114,142.4L114,142.4z M116.8,145.4l0.2,0
	l-0.1-0.2L116.8,145.4L116.8,145.4z M141.4,177.1h0.2l-0.1-0.2L141.4,177.1L141.4,177.1z M140.9,176l-0.2,0l0.1,0.2L140.9,176
	L140.9,176z M82.1,98.3l0.3,0.1l0.1-0.3l-0.3,0L82.1,98.3L82.1,98.3z M127.1,157.1l0.2,0.1l0-0.2l-0.3,0L127.1,157.1L127.1,157.1z
	 M150.7,187.3l0-0.2l-0.2-0.1l0,0.2L150.7,187.3L150.7,187.3z M41.5,202h0.2l-0.1-0.2L41.5,202L41.5,202z M144.6,178l0-0.2l-0.2-0.1
	l0,0.3L144.6,178L144.6,178z M127.7,154.3l-0.3,0.2l0.2,0.1L127.7,154.3L127.7,154.3z M119.1,143.1l0-0.2l-0.2,0.1L119.1,143.1
	L119.1,143.1z M54.4,56.6l-0.2,0l0,0.2l0.2,0.1L54.4,56.6L54.4,56.6z M152,186.1l0.3,0.1l0.1-0.3l-0.3,0L152,186.1L152,186.1z
	 M149,182.1l0.3,0.1l0-0.3l-0.3-0.1L149,182.1L149,182.1z M74,244.1l0.1-0.3l-0.3-0.1l0,0.3L74,244.1L74,244.1z M114.1,135.4l0-0.3
	l-0.3-0.1l0,0.3L114.1,135.4L114.1,135.4z M73.1,241.7l0-0.2l-0.2-0.1l0,0.2L73.1,241.7L73.1,241.7z M56.1,58.1l0-0.2L55.8,58
	L56.1,58.1L56.1,58.1z M9.4,157l0-0.2l-0.3,0.2L9.4,157L9.4,157z M212.3,264.8l-0.2,0l0.1,0.2L212.3,264.8L212.3,264.8z
	 M145.7,176.4l0-0.2l-0.2-0.1l0,0.2L145.7,176.4L145.7,176.4z M151.3,182.7l-0.2,0l0.1,0.2L151.3,182.7L151.3,182.7z M121.5,143.4
	l0.2,0.1l0-0.2l-0.2,0L121.5,143.4L121.5,143.4z M155.5,187.5l0-0.2l-0.2-0.1l0,0.2L155.5,187.5L155.5,187.5z M125.7,146.7l0.1-0.2
	l-0.2,0l0,0.2L125.7,146.7L125.7,146.7z M116.2,134.2v0.2l0.2-0.1L116.2,134.2L116.2,134.2z M160,191.6l0.3-0.2l-0.3-0.1L160,191.6
	L160,191.6z M121.4,139.9l0-0.2l-0.2-0.1l0,0.2L121.4,139.9L121.4,139.9z M218.9,269l0.2,0l0.1-0.2l-0.2,0L218.9,269L218.9,269z
	 M15.1,191.3l0.1-0.3l-0.2,0l0,0.3L15.1,191.3L15.1,191.3z M67.4,232.1l0-0.2l-0.3,0.2L67.4,232.1L67.4,232.1z M153,180.9l0-0.3
	l-0.2-0.1l-0.1,0.2L153,180.9L153,180.9z M147.7,173.2l0.2,0.1l0-0.2l-0.3,0L147.7,173.2L147.7,173.2z M115.6,129.5l0.3,0.1l0-0.3
	l-0.3,0L115.6,129.5L115.6,129.5z M58.4,52.2l0.2,0L58.5,52L58.4,52.2L58.4,52.2z M158,183.6l0,0.2l0.2-0.1L158,183.6L158,183.6z
	 M138,156.7l0-0.2l-0.2-0.1l0.1,0.4L138,156.7L138,156.7z M124.2,138.6l0-0.2l-0.1,0.1L124.2,138.6L124.2,138.6z M12.8,158.3
	l-0.1-0.2l-0.2-0.1l0.1,0.4L12.8,158.3L12.8,158.3z M122.3,135.2l0.2,0l-0.1-0.2L122.3,135.2L122.3,135.2z M216.3,258.2l0-0.3
	l-0.3,0.2L216.3,258.2L216.3,258.2z M121.8,132.5l0.2,0l-0.1-0.2L121.8,132.5L121.8,132.5z M168.8,193.8l0.1-0.3l-0.3,0.2
	L168.8,193.8L168.8,193.8z M121.1,130l-0.3-0.1l0.2,0.3L121.1,130L121.1,130z M225.2,266.9l0-0.2l-0.3,0.2L225.2,266.9L225.2,266.9z
	 M169.1,190.9l-0.2-0.1l0.2,0.3L169.1,190.9L169.1,190.9z M64,51L63.8,51l0.2,0.3L64,51L64,51z M122.2,127.7l0-0.2l-0.1,0.1
	L122.2,127.7L122.2,127.7z M150.2,163l-0.2-0.3l-0.1,0.3L150.2,163L150.2,163z M126.3,130.1l0-0.2l-0.2-0.1l-0.1,0.2L126.3,130.1
	L126.3,130.1z M173.4,191.8l0-0.3l-0.2-0.1l0,0.3L173.4,191.8L173.4,191.8z M172.7,190.8l0-0.3l-0.2,0l0,0.3L172.7,190.8
	L172.7,190.8z M124,124.6l-0.3,0l-0.1,0.3l0.3,0L124,124.6L124,124.6z M154.4,164.5l0-0.2l-0.2-0.1l0,0.2L154.4,164.5L154.4,164.5z
	 M151.1,159.8l-0.2,0l0.1,0.2L151.1,159.8L151.1,159.8z M230,264.1l-0.2-0.3l0,0.2L230,264.1L230,264.1z M130.7,131.8l0,0.2l0.2-0.1
	L130.7,131.8L130.7,131.8z M68.4,47.9l0-0.2l-0.2,0.1L68.4,47.9L68.4,47.9z M175.6,188.3l-0.2,0l0,0.2l0.2,0.1L175.6,188.3
	L175.6,188.3z M173.3,185.3l-0.2,0l0,0.2l0.2,0.1L173.3,185.3L173.3,185.3z M76.5,240.5l0.2,0.1l0-0.2l-0.2-0.1L76.5,240.5
	L76.5,240.5z M126.8,123.6l0-0.2l-0.2-0.1l0,0.2L126.8,123.6L126.8,123.6z M132.5,129.2l0-0.2l-0.2-0.1l0,0.2L132.5,129.2
	L132.5,129.2z M230.2,258.1l0,0.2l0.1-0.1L230.2,258.1L230.2,258.1z M129.6,124.2l0,0.2l0.2-0.1L129.6,124.2L129.6,124.2z
	 M176.5,185.4l-0.2,0l0.1,0.2L176.5,185.4L176.5,185.4z M126.5,118.5l0,0.1l-0.5-0.2l0,0.2L126.5,118.5L126.5,118.5z M235.1,262.5
	l0-0.3l-0.2,0l0,0.3L235.1,262.5L235.1,262.5z M233.2,260.1l0.1-0.3l-0.3,0l-0.1,0.2L233.2,260.1L233.2,260.1z M70,42.6l0,0.2
	l0.2-0.1L70,42.6L70,42.6z M132.2,124.2l0.1,0l-0.3,0.5l0.2,0L132.2,124.2L132.2,124.2z M132.4,124.2l-0.1,0l0.3-0.4l-0.3,0
	L132.4,124.2L132.4,124.2z M181.9,187.1l-0.1,0l0.2-0.5l-0.2,0L181.9,187.1L181.9,187.1z M224.8,241.8l0-0.3l-0.3,0.2L224.8,241.8
	L224.8,241.8z M134.9,122.1l0-0.3l-0.3,0.2L134.9,122.1L134.9,122.1z M133.8,120.4l-0.2,0l0.1,0.2L133.8,120.4L133.8,120.4z
	 M160.9,155.7l0-0.3l-0.3,0.2L160.9,155.7L160.9,155.7z M157.4,150l0-0.2l-0.3,0.2L157.4,150L157.4,150z M137.5,123.7l0.2,0
	l-0.1-0.2L137.5,123.7L137.5,123.7z M238.8,256.4l0.2,0l-0.1-0.2L238.8,256.4L238.8,256.4z M161.3,153.1l0.1-0.2l-0.2,0l0,0.3
	L161.3,153.1L161.3,153.1z M161.9,151.9l0.1-0.2l-0.2,0l-0.1,0.2L161.9,151.9L161.9,151.9z M76,36.7l0.3,0.1l0-0.3L76,36.4L76,36.7
	L76,36.7z M243.3,258.5l0.3,0.1l0-0.3l-0.3-0.1L243.3,258.5L243.3,258.5z M137.9,118.1l0.2,0.1l0-0.2l-0.2-0.1L137.9,118.1
	L137.9,118.1z M180.6,134.7l0-0.2l-0.2,0.1L180.6,134.7L180.6,134.7z M10.6,151.4l0-0.2l-0.1,0.1L10.6,151.4L10.6,151.4z M144,123.6
	l-0.2-0.1l0.2,0.3L144,123.6L144,123.6z M243,252.7l0-0.2l-0.3,0.2L243,252.7L243,252.7z M115.8,290.5l0-0.2l-0.2-0.1l0,0.2
	L115.8,290.5L115.8,290.5z M76.4,224.7l0-0.3l-0.3-0.1l0,0.3L76.4,224.7L76.4,224.7z M163.1,144.6l0.3,0.1l0-0.3h-0.3L163.1,144.6
	L163.1,144.6z M146.1,120.6l0-0.2l-0.3,0.2L146.1,120.6L146.1,120.6z M164.4,143.9l0.1-0.3l-0.3,0l0,0.2L164.4,143.9L164.4,143.9z
	 M145.9,119l-0.3,0.2l0.3,0.1L145.9,119L145.9,119z M148.8,122.2l0.2,0l-0.1-0.2L148.8,122.2L148.8,122.2z M115.2,288.4l-0.2-0.1
	l0.2,0.3L115.2,288.4L115.2,288.4z M218.9,212.3l0.1-0.3l-0.3,0l-0.1,0.3L218.9,212.3L218.9,212.3z M86.5,35.8L86.2,36l0.2,0
	L86.5,35.8L86.5,35.8z M149.2,116.6l0.2,0l-0.1-0.2L149.2,116.6L149.2,116.6z M118.8,291.1l-0.2,0l0.1,0.2L118.8,291.1L118.8,291.1z
	 M251.2,250.1l-0.2,0l-0.1,0.2l0.2,0L251.2,250.1L251.2,250.1z M77.3,235.9l-0.2,0l0,0.3l0.2,0.1L77.3,235.9L77.3,235.9z
	 M167.4,138.6l0.1-0.3l-0.3-0.1l0,0.3L167.4,138.6L167.4,138.6z M155.3,121.5l0-0.3l-0.3,0.2L155.3,121.5L155.3,121.5z M86.2,29.8
	l0.2,0.1l0-0.2l-0.2-0.1L86.2,29.8L86.2,29.8z M47.9,197.2l0.2,0l0.1-0.2l-0.2,0L47.9,197.2L47.9,197.2z M189.2,164.3l-0.3,0.2
	l0.2,0.1L189.2,164.3L189.2,164.3z M154.4,118.3l0-0.3l-0.3-0.1l0,0.3L154.4,118.3L154.4,118.3z M152.3,115.1L152,115l0.2,0.3
	L152.3,115.1L152.3,115.1z M92.4,255.5l0.3,0.1l0-0.3l-0.2-0.1L92.4,255.5L92.4,255.5z M25.7,203.3l0.1-0.2l-0.3,0.2L25.7,203.3
	L25.7,203.3z M56.8,206.9l0.2-0.4l-0.3,0l-0.2,0.4L56.8,206.9L56.8,206.9z M55.4,204.6l-0.2,0l0,0.3l0.2,0.1L55.4,204.6L55.4,204.6z
	 M174.7,142.3l0-0.2l-0.3,0.2L174.7,142.3L174.7,142.3z M93.3,30.9l-0.2-0.3l0,0.2L93.3,30.9L93.3,30.9z M177,140.1l0,0.2l0.2-0.1
	L177,140.1L177,140.1z M175.4,137.9l0-0.2l-0.2-0.1l0.1,0.4L175.4,137.9L175.4,137.9z M92.8,25.7l-0.2,0l0.2,0.3L92.8,25.7
	L92.8,25.7z M72.5,225.3l0.1,0l-0.3,0.5l0.2,0L72.5,225.3L72.5,225.3z M257.8,244.7l0-0.3l-0.3,0.2L257.8,244.7L257.8,244.7z
	 M190.7,155.3l0,0.2l0.2-0.1L190.7,155.3L190.7,155.3z M178.3,135.7l-0.2-0.3l0,0.2L178.3,135.7L178.3,135.7z M181.7,139.2l0-0.2
	l-0.1,0.1L181.7,139.2L181.7,139.2z M116,282.3l-0.2,0l-0.1,0.3l0.3,0L116,282.3L116,282.3z M175.9,131.3l0-0.2l-0.2-0.1l0.1,0.4
	L175.9,131.3L175.9,131.3z M72.7,225.3l-0.1,0l0.3-0.5l-0.3,0L72.7,225.3L72.7,225.3z M84,280.3l0.3,0.1l0-0.3H84L84,280.3L84,280.3
	z M142,83.7l0,0.1l-0.5-0.3l-0.1,0.2L142,83.7L142,83.7z M99.9,28l-0.3,0.3l0.3,0L99.9,28L99.9,28z M262.1,242.9l-0.2-0.1l0.2,0.3
	L262.1,242.9L262.1,242.9z M180.2,131.8l-0.2,0l-0.1,0.2l0.2,0L180.2,131.8L180.2,131.8z M171.6,120.7l0-0.2l-0.2-0.1l0,0.2
	L171.6,120.7L171.6,120.7z M262.9,239.9l-0.2,0l0.1,0.2L262.9,239.9L262.9,239.9z M186,137.7l0-0.3l-0.3,0.2L186,137.7L186,137.7z
	 M172.1,116.6l0,0.1l-0.4-0.3l0,0.2L172.1,116.6L172.1,116.6z M102.5,24.7l0-0.2l-0.2,0.1L102.5,24.7L102.5,24.7z M182.4,128.7
	l0-0.2l-0.2-0.1l0.1,0.4L182.4,128.7L182.4,128.7z M21.5,197.1l0.3,0.1l0-0.3l-0.3-0.1L21.5,197.1L21.5,197.1z M79.3,231.7l0.1-0.3
	l-0.3-0.1l0,0.3L79.3,231.7L79.3,231.7z M187.1,134.7l0-0.1l0.5,0.3l0.1-0.2L187.1,134.7L187.1,134.7z M12.8,142.7l-0.2,0l0.1,0.2
	L12.8,142.7L12.8,142.7z M252.4,214.9l0.1-0.2l-0.3,0.2L252.4,214.9L252.4,214.9z M186.9,127.5l-0.2,0l0.2,0.3L186.9,127.5
	L186.9,127.5z M107.7,267.1l-0.3,0.2l0.3,0.1L107.7,267.1L107.7,267.1z M186,125.4l0-0.2l-0.2,0l-0.1,0.2L186,125.4L186,125.4z
	 M188.8,128.4l0.3,0.1l0-0.3l-0.3-0.1L188.8,128.4L188.8,128.4z M125.9,290.7l0-0.3l-0.3-0.1l0,0.3L125.9,290.7L125.9,290.7z
	 M187,124.4l-0.3,0l0.2,0.3L187,124.4L187,124.4z M55.6,197l0-0.2l-0.2,0.1L55.6,197L55.6,197z M111.2,22.7l0-0.2l-0.2,0.1
	L111.2,22.7L111.2,22.7z M227.4,176L227.4,176l-0.2,0.5l0.4,0L227.4,176L227.4,176z M269.2,231.3l0.2,0l-0.1-0.2L269.2,231.3
	L269.2,231.3z M191.6,125.7l-0.2-0.3l0,0.2L191.6,125.7L191.6,125.7z M273.2,230.6h0.2l-0.1-0.2L273.2,230.6L273.2,230.6z M130.4,40
	l0-0.2l-0.2,0l-0.1,0.2L130.4,40L130.4,40z M114.3,16.7l0-0.3l-0.3,0.2L114.3,16.7L114.3,16.7z M195.6,122.8l0.1-0.3l-0.3,0l0,0.3
	L195.6,122.8L195.6,122.8z M189.8,115.7l0.5-0.1L189.8,115.7L189.8,115.7L189.8,115.7z M191.1,115.1l0.2,0l-0.1-0.2L191.1,115.1
	L191.1,115.1z M171.3,88L171.3,88l0.5,0.1l0-0.2L171.3,88L171.3,88z M275.2,224.8l0-0.2l-0.3,0.2L275.2,224.8L275.2,224.8z
	 M194.4,117.6L194.4,117.6l0.2-0.4l-0.3-0.1L194.4,117.6L194.4,117.6z M72.9,234.7l0.2,0.1l0-0.2l-0.2-0.1L72.9,234.7L72.9,234.7z
	 M226,90.1l-1.9,1.5l-0.1,0.5l0.3,0.2l0.8,0L226,90.1L226,90.1z M221,90.4l0.9-0.3l-0.3-0.8l-0.2-0.1l-0.4,0.3L221,90.4L221,90.4z
	 M213.8,66.6l0.9-0.4l0-0.3l-0.4-0.2L213.8,66.6L213.8,66.6z M35,226.6l0.9-0.7l2.7-0.7l0.2-0.5l-2-0.2l-3.8,0.7l-0.5,0.3l1.2,1.2
	l0.7-0.4L35,226.6L35,226.6z M35.3,230.7l1.8-0.4l2.5-1.1l0.6-0.7l-0.9-0.3l-1.5,0.3l-2.8,1.2l-0.1,0.5L35.3,230.7L35.3,230.7z
	 M39.8,231.2l-1.3,0.5l0,0.3l0.6,0.5l1-0.5l0-0.6L39.8,231.2L39.8,231.2z M45.7,246.6l0.1-0.1l-0.2-0.5l-0.4,0.1l0.2,0.5L45.7,246.6
	L45.7,246.6z M44.1,243.4l0.1-0.2l-0.2-0.5l-0.3,0l0.1,0.7L44.1,243.4L44.1,243.4z M44.2,241.3l-0.3-1l-0.5,0.1l0,0.3L44.2,241.3
	L44.2,241.3z M46.7,239.8l0.2,0.1l0-0.2l-0.3,0L46.7,239.8L46.7,239.8z M54.4,241.5l-0.2,0.5l0.3,2.7l0.6,2.3l0.5,0.1l0.4-0.4
	l-0.9-4.7l-0.5-0.4L54.4,241.5L54.4,241.5z M62.2,262.3l0.2-0.2l0.1-0.7l-0.8-0.1l0,0.7L62.2,262.3L62.2,262.3z M60.6,254.8l0.2-0.6
	l-0.1-0.3l-0.5,0l-0.2,0.5l0.4,0.4L60.6,254.8L60.6,254.8z M269,242.7l0-0.1l0.6,0.6l0.6,0l0.2-0.2l-0.3-0.4L269,242.7L269,242.7z
	 M267.7,244.5l0.6,0.8L267.7,244.5L267.7,244.5z M168.3,288.1l0.1,0l-0.1,0.9l0.4,0l0-0.3L168.3,288.1L168.3,288.1z"/>
</svg>
