<svg width="41" height="31" viewBox="0 0 41 31" fill="none" xmlns="http://www.w3.org/2000/svg">
<path d="M30.4406 31C28.1695 31 26.1914 30.1967 24.5064 28.5901C22.8213 26.9105 21.9788 24.5371 21.9788 21.47C21.9788 16.7962 23.3342 12.5241 26.0449 8.65371C28.8289 4.78328 33.481 1.89871 40.0014 0V4.60071C33.0415 6.86455 29.5615 10.1508 29.5615 14.4594C29.5615 15.5548 29.9644 16.3946 30.7703 16.9788C31.5762 17.563 32.492 18.1107 33.5177 18.6219C34.6166 19.1331 35.569 19.8269 36.3749 20.7032C37.1808 21.5795 37.5837 22.8575 37.5837 24.5371C37.5837 26.5819 36.8878 28.1885 35.4958 29.3569C34.177 30.4523 32.492 31 30.4406 31ZM8.46184 31C6.19069 31 4.2126 30.1967 2.52756 28.5901C0.842521 26.9105 0 24.5371 0 21.47C0 16.7962 1.35536 12.5241 4.06608 8.65371C6.85006 4.78328 11.5022 1.89871 18.0226 0V4.60071C11.0627 6.86455 7.58268 10.1508 7.58268 14.4594C7.58268 15.5548 7.98563 16.3946 8.79152 16.9788C9.59741 17.563 10.5132 18.1107 11.5389 18.6219C12.6378 19.1331 13.5902 19.8269 14.3961 20.7032C15.202 21.5795 15.6049 22.8575 15.6049 24.5371C15.6049 26.5819 14.9089 28.1885 13.517 29.3569C12.1982 30.4523 10.5132 31 8.46184 31Z" fill="#D6E0E5"/>
</svg>
