<svg width="25" height="50" viewBox="0 0 25 50" fill="none" xmlns="http://www.w3.org/2000/svg">
<path d="M0 0H25V50L12.5 41.6667L0 50V0Z" fill="#92BD18"/>
<path d="M20.5625 13.3125C20.375 12.9375 19.875 12.9062 19.6562 13.2812C18.6875 14.9688 16.9688 16 15 16H12.5C9.1875 16 6.5 18.6875 6.5 22C6.5 22.2188 6.5 22.4375 6.53125 22.6562C8.53125 21.2188 11.4062 20 15.5 20C15.75 20 16 20.25 16 20.5C16 20.7812 15.75 21 15.5 21C7.625 21 4.3125 25.8438 3.5625 27.625C3.34375 28.1562 3.59375 28.7188 4.09375 28.9375C4.625 29.1562 5.1875 28.9062 5.40625 28.4062C5.46875 28.2812 6.0625 26.9062 7.65625 25.5625C8.6875 26.9375 10.5938 28.25 13.125 27.9688C18.0312 27.625 21.5 23.2188 21.5 17.8438C21.5 16.2812 21.1562 14.6562 20.5625 13.3125Z" fill="white"/>
</svg>
